<svg xmlns="http://www.w3.org/2000/svg" width="702.677" height="720.929" viewBox="0 0 702.677 720.929">
  <g id="Group_4122" data-name="Group 4122" transform="translate(9523.365 -12952.601)">
    <text id="_15_" data-name="15+" transform="translate(-9168.239 13380.375)" fill="#f6f6fd" font-size="123" font-family="Poppins-Bold, Poppins" font-weight="700"><tspan x="-101.721" y="0">15+</tspan></text>
    <text id="Countries_" data-name="Countries  " transform="translate(-9171.702 13438.877)" fill="#f6f6fd" font-size="28" font-family="HKGrotesk-ExtraBold, HK Grotesk" font-weight="800"><tspan x="-67.858" y="0" xml:space="preserve">Countries  </tspan></text>
    <text id="worldwide_with_members_of_this_community" data-name="worldwide with members 
of this community" transform="translate(-9172.066 13464.877)" fill="#f6f6fd" font-size="18" font-family="HKGrotesk-Medium, HK Grotesk" font-weight="500"><tspan x="-103.563" y="0">worldwide with members </tspan><tspan x="-72.396" y="26">of this community</tspan></text>
    <path id="Path_4216" data-name="Path 4216" d="M-60.921,349.5A41.617,41.617,0,0,0-102.5,391.079a41.617,41.617,0,0,0,41.579,41.579,41.617,41.617,0,0,0,41.579-41.579A41.617,41.617,0,0,0-60.921,349.5Zm0,78.957h0c-3.764,0-7.7-6.04-10.154-15.931a63.51,63.51,0,0,1,10.154-.875,55.466,55.466,0,0,1,10.154.875c-2.451,9.891-6.39,15.931-10.154,15.931Zm-12.518-39.478A110.863,110.863,0,0,1-71.95,373.66a64.628,64.628,0,0,0,11.029.963,65.42,65.42,0,0,0,11.029-.963A88.24,88.24,0,0,1-48.4,388.978Zm25.035,4.2A110.863,110.863,0,0,1-49.891,408.5a64.628,64.628,0,0,0-11.029-.963,65.42,65.42,0,0,0-11.029.963,88.24,88.24,0,0,1-1.488-15.319Zm-12.518-22.759a55.466,55.466,0,0,1-10.154-.875c2.451-9.891,6.478-15.931,10.154-15.931s7.7,6.04,10.154,15.931A55.466,55.466,0,0,1-60.921,370.421Zm8.316-15.756a37.438,37.438,0,0,1,17.857,9.8,49.9,49.9,0,0,1-11.992,4.377C-48.053,363.068-50.066,358.078-52.6,354.665Zm-22.584,14.093a57.334,57.334,0,0,1-11.992-4.377,38.108,38.108,0,0,1,17.857-9.8A43.509,43.509,0,0,0-75.189,368.758Zm-.875,4.114a97.515,97.515,0,0,0-1.576,16.107H-98.3a37.106,37.106,0,0,1,8.316-21.446A56.642,56.642,0,0,0-76.064,372.872ZM-77.64,393.18a120.951,120.951,0,0,0,1.576,16.107,58.118,58.118,0,0,0-14.006,5.34,37.339,37.339,0,0,1-8.316-21.446Zm2.451,20.221c1.4,5.69,3.326,10.679,5.865,14.181a37.438,37.438,0,0,1-17.857-9.8A50.283,50.283,0,0,1-75.189,413.4Zm28.536,0a57.331,57.331,0,0,1,11.992,4.377,38.108,38.108,0,0,1-17.857,9.8A43.51,43.51,0,0,0-46.653,413.4Zm.875-4.2A97.512,97.512,0,0,0-44.2,393.093h20.658a37.106,37.106,0,0,1-8.316,21.446A64.622,64.622,0,0,0-45.777,409.2Zm1.576-20.221a120.956,120.956,0,0,0-1.576-16.107,58.116,58.116,0,0,0,14.006-5.34,37.339,37.339,0,0,1,8.316,21.446Z" transform="translate(-9107.318 12818.717)" fill="#65e6c4"/>
    <path id="Path_4211" data-name="Path 4211" d="M-60.921,349.5A41.617,41.617,0,0,0-102.5,391.079a41.617,41.617,0,0,0,41.579,41.579,41.617,41.617,0,0,0,41.579-41.579A41.617,41.617,0,0,0-60.921,349.5Zm0,78.957h0c-3.764,0-7.7-6.04-10.154-15.931a63.51,63.51,0,0,1,10.154-.875,55.466,55.466,0,0,1,10.154.875c-2.451,9.891-6.39,15.931-10.154,15.931Zm-12.518-39.478A110.863,110.863,0,0,1-71.95,373.66a64.628,64.628,0,0,0,11.029.963,65.42,65.42,0,0,0,11.029-.963A88.24,88.24,0,0,1-48.4,388.978Zm25.035,4.2A110.863,110.863,0,0,1-49.891,408.5a64.628,64.628,0,0,0-11.029-.963,65.42,65.42,0,0,0-11.029.963,88.24,88.24,0,0,1-1.488-15.319Zm-12.518-22.759a55.466,55.466,0,0,1-10.154-.875c2.451-9.891,6.478-15.931,10.154-15.931s7.7,6.04,10.154,15.931A55.466,55.466,0,0,1-60.921,370.421Zm8.316-15.756a37.438,37.438,0,0,1,17.857,9.8,49.9,49.9,0,0,1-11.992,4.377C-48.053,363.068-50.066,358.078-52.6,354.665Zm-22.584,14.093a57.334,57.334,0,0,1-11.992-4.377,38.108,38.108,0,0,1,17.857-9.8A43.509,43.509,0,0,0-75.189,368.758Zm-.875,4.114a97.515,97.515,0,0,0-1.576,16.107H-98.3a37.106,37.106,0,0,1,8.316-21.446A56.642,56.642,0,0,0-76.064,372.872ZM-77.64,393.18a120.951,120.951,0,0,0,1.576,16.107,58.118,58.118,0,0,0-14.006,5.34,37.339,37.339,0,0,1-8.316-21.446Zm2.451,20.221c1.4,5.69,3.326,10.679,5.865,14.181a37.438,37.438,0,0,1-17.857-9.8A50.283,50.283,0,0,1-75.189,413.4Zm28.536,0a57.331,57.331,0,0,1,11.992,4.377,38.108,38.108,0,0,1-17.857,9.8A43.51,43.51,0,0,0-46.653,413.4Zm.875-4.2A97.512,97.512,0,0,0-44.2,393.093h20.658a37.106,37.106,0,0,1-8.316,21.446A64.622,64.622,0,0,0-45.777,409.2Zm1.576-20.221a120.956,120.956,0,0,0-1.576-16.107,58.116,58.116,0,0,0,14.006-5.34,37.339,37.339,0,0,1,8.316,21.446Z" transform="translate(-9110.781 12814.749)" fill="#f6f6fd"/>
    <path id="Path_4263" data-name="Path 4263" d="M1409.307,4114.906c-113.141-15.172-264.528-11.378-297.992-193.447s159.354-347.066,219.909-333.791,250.186,89.137,250.186,191.55S1522.449,4130.078,1409.307,4114.906Z" transform="translate(-10514.397 9468.857)" fill="none" stroke="#f4f6fc" stroke-width="4"/>
    <path id="Path_4262" data-name="Path 4262" d="M375.957,500.2C244.82,479.171,70.644,472.988,22.356,305S187.346-1.018,257.808,14.931s292.954,97.13,298.432,190.425S507.095,521.222,375.957,500.2Z" transform="translate(-9098.515 12935.293) rotate(59)" fill="none" stroke="#6de5c5" stroke-width="4"/>
  </g>
</svg>
