<svg xmlns="http://www.w3.org/2000/svg" width="702.677" height="720.929" viewBox="0 0 702.677 720.929">
  <g id="Group_4102" data-name="Group 4102" transform="translate(9348.694 -12952.601)">
    <path id="Path_4254" data-name="Path 4254" d="M8204,3933.975l37.515-32.375,17.86,12.5,61.328-55.969" transform="translate(-17257.045 9322.342)" fill="none" stroke="#65e6c4" stroke-linecap="round" stroke-linejoin="round" stroke-width="6"/>
    <path id="Path_4255" data-name="Path 4255" d="M8394.133,3834.134h21.435v18.755" transform="translate(-17345.77 9341.244)" fill="none" stroke="#65e6c4" stroke-linecap="round" stroke-width="6"/>
    <path id="Path_4256" data-name="Path 4256" d="M8204,3933.975l37.515-32.375,17.86,12.5,61.328-55.969" transform="translate(-17257.045 9314.527)" fill="none" stroke="#f6f6fd" stroke-linecap="round" stroke-linejoin="round" stroke-width="6"/>
    <path id="Path_4257" data-name="Path 4257" d="M8394.133,3834.134h21.435v18.755" transform="translate(-17345.77 9331.866)" fill="none" stroke="#f6f6fd" stroke-linecap="round" stroke-width="6"/>
    <text id="_150_" data-name="150+" transform="translate(-8994.078 13385.317)" fill="#f6f6fd" font-size="123" font-family="Poppins-Bold, Poppins" font-weight="700"><tspan x="-141.819" y="0">150+</tspan></text>
    <text id="Supported_in_program_and_still_growing" data-name="Supported in program 
and still growing" transform="translate(-8995.3 13464.411)" fill="#f6f6fd" font-size="18" font-family="HKGrotesk-Medium, HK Grotesk" font-weight="500"><tspan x="-91.449" y="0">Supported in program </tspan><tspan x="-65.934" y="24">and still growing</tspan></text>
    <text id="Students" transform="translate(-8997.656 13438.411)" fill="#f6f6fd" font-size="28" font-family="HKGrotesk-ExtraBold, HK Grotesk" font-weight="800"><tspan x="-55.762" y="0">Students</tspan></text>
    <path id="Path_4252" data-name="Path 4252" d="M1409.307,4114.906c-113.141-15.172-264.528-11.378-297.992-193.447s159.354-347.066,219.909-333.791,250.186,89.137,250.186,191.55S1522.449,4130.078,1409.307,4114.906Z" transform="translate(-10339.727 9468.857)" fill="none" stroke="#f4f6fc" stroke-width="4"/>
    <path id="Path_4253" data-name="Path 4253" d="M375.957,500.2C244.82,479.171,70.644,472.988,22.356,305S187.346-1.018,257.808,14.931s292.954,97.13,298.432,190.425S507.095,521.222,375.957,500.2Z" transform="translate(-8923.844 12935.293) rotate(59)" fill="none" stroke="#6de5c5" stroke-width="4"/>
  </g>
</svg>
