<svg xmlns="http://www.w3.org/2000/svg" width="702.677" height="720.929" viewBox="0 0 702.677 720.929">
  <g id="_4_continents_green_bg" data-name="4 continents green bg" transform="translate(9390.649 -13673.6)">
    <text id="_4_" data-name="4+" transform="translate(-9021 14122)" fill="#f6f6fd" font-size="140" font-family="Poppins-Bold, Poppins" font-weight="700"><tspan x="-91.35" y="0">4+</tspan></text>
    <text id="Continents_" data-name="Continents " transform="translate(-9021 14171)" fill="#f6f6fd" font-size="28" font-family="HKGrotesk-Bold, HK Grotesk" font-weight="700"><tspan x="-72.422" y="0">Continents </tspan></text>
    <text id="Served" transform="translate(-9021 14199)" fill="#f6f6fd" font-size="20" font-family="HKGrotesk-Medium, HK Grotesk" font-weight="500"><tspan x="-31.27" y="0">Served</tspan></text>
    <g id="Group_4005" data-name="Group 4005" transform="translate(-9085.622 13862.496)">
      <g id="Group_3989" data-name="Group 3989" transform="translate(4.908 3.272)">
        <g id="Group_3987" data-name="Group 3987" transform="translate(0 0)">
          <rect id="Rectangle_2586" data-name="Rectangle 2586" width="124" height="122" transform="translate(-0.286 0.231)" fill="none"/>
          <path id="Path_4183" data-name="Path 4183" d="M109.684,41.927l.2.011a10.546,10.546,0,0,1,2.7.677,4.912,4.912,0,0,1,3.276,3.251c.482,1.872-.407,3.845-2.515,5.945-.648.647-5.367,5.234-6.836,6.708-1.149,1.152-2.172,2.21-3.108,3.216-4.2,4.51-6.5,7.929-6.5,9.694,0,.562.008.937.043,2.286a40.366,40.366,0,0,1-.48,9.224A18.372,18.372,0,0,1,91.439,92.9c-1.791,1.786-3.436,4.132-6.291,8.73l-.693,1.118c-5.219,8.428-7.713,11.621-11.477,13.253-1,.435-4.1,1.879-4.731,2.138a6.825,6.825,0,0,1-4.053.652c-1.554-.293-2.9-1.231-4.862-3.191-5.611-5.595-10.363-14.175-10.363-20.61,0-1.391.029-2.027.255-6.319.123-2.331.189-3.854.225-5.429.154-6.7-.467-11.005-1.934-12.467a18.273,18.273,0,0,1-3.346-4.653c-.411-.787-.513-1.007-1.353-2.855a13.947,13.947,0,0,0-2.794-4.56c-3.271-3.261-5.046-3.615-10.592-1.311-7.526,3.126-14.288,2.08-19.382-3-7.227-7.2-12.438-21.636-6.341-27.714,1.074-1.071,8.122-7.407,9.338-8.915a6,6,0,0,0,1.627-3.807c0-5.888,6.942-10.538,14.023-10.538a29.222,29.222,0,0,0,6.4-1.032c.4-.1.813-.2,1.354-.329C44.336.12,45.843-.1,47.63,1.685c.694.692,3.273,4.407,3.258,4.388,2,2.661,3.761,3.96,5.764,3.96a33.558,33.558,0,0,0,6.1-.549c.952-.161,1.434-.241,1.915-.313a22.811,22.811,0,0,1,3.515-.288c1.7,0,2.039.058,10.333,1.613.914.171,1.688.314,2.427.445,2.069.368,3.784.637,5.3.823,3.239.393,5.86,2.14,6.91,5l8.673,23.669a2.273,2.273,0,0,0,2.283,1.491Zm-5.572,3.835a6.122,6.122,0,0,1-5.855-3.932l-8.7-23.743a4.247,4.247,0,0,0-3.772-2.516c-1.6-.2-3.381-.475-5.513-.854-.752-.134-1.537-.278-2.462-.451-7.7-1.443-8.309-1.547-9.626-1.547a19.107,19.107,0,0,0-2.947.245c-.446.067-.892.141-1.854.3a37.221,37.221,0,0,1-6.727.6c-3.52,0-6.177-1.959-8.831-5.492-.2-.269-2.494-3.571-2.9-3.975-.2-.2-2.412.119-7.556,1.386-.549.135-.97.238-1.381.336A32.045,32.045,0,0,1,28.7,7.259c-5.212,0-10.188,3.333-10.188,6.7a9.679,9.679,0,0,1-2.477,6.214C14.586,21.967,7.3,28.521,6.415,29.4c-4.033,4.021.435,16.4,6.341,22.283,3.949,3.937,9.055,4.727,15.2,2.173,6.98-2.9,10.4-2.217,14.771,2.137a17.135,17.135,0,0,1,3.578,5.689c.8,1.767.9,1.97,1.262,2.667a14.485,14.485,0,0,0,2.654,3.712c2.533,2.525,3.241,7.427,3.06,15.272-.037,1.621-.1,3.177-.23,5.542-.221,4.19-.249,4.828-.249,6.117,0,5.227,4.277,12.95,9.236,17.894,1.459,1.454,2.279,2.028,2.866,2.138a3.529,3.529,0,0,0,1.881-.429c.53-.218,3.584-1.641,4.666-2.11,2.711-1.175,5.029-4.143,9.741-11.753l.7-1.122c3.014-4.854,4.767-7.356,6.841-9.423A14.6,14.6,0,0,0,92.7,82.233a37.252,37.252,0,0,0,.416-8.417c-.036-1.389-.044-1.777-.044-2.387,0-3.144,2.614-7.028,7.524-12.306.969-1.042,2.022-2.13,3.2-3.311,1.5-1.5,6.22-6.094,6.845-6.716,1.246-1.242,1.582-1.988,1.509-2.273-.033-.13-.349-.393-.978-.643a7.069,7.069,0,0,0-1.6-.417Z" transform="translate(3.06 1.143)" fill="#65e6c4"/>
          <path id="Path_4184" data-name="Path 4184" d="M35.389,27.579c-.268.37-.416.573-.547.752a13.287,13.287,0,0,1-1.315,1.578c-.488.487-.895,1.6-1.377,3.728-.1.459-.1.459-.206.925-.624,2.8-1.016,3.972-2.02,4.973-.786.783-.555,1.76,1.729,4.036.12.12,1.04,1.051,1.281,1.286a9.645,9.645,0,0,0,.976.861c1.026.756,1.868.525,4.547-2.146a5.431,5.431,0,0,0,1.656-3.116,11.584,11.584,0,0,0-.5-4.632c-.848-3.509-.976-4.532-.261-6.171,1.027-2.355.763-3.589-.345-4.1C37.671,24.933,37.028,25.327,35.389,27.579Zm5.227-5.509c3.272,1.515,4.026,5.041,2.249,9.116-.221.507-.129,1.244.474,3.737a14.684,14.684,0,0,1,.564,6.116,9.251,9.251,0,0,1-2.738,5.249c-3.865,3.853-6.672,4.625-9.531,2.517a13.059,13.059,0,0,1-1.379-1.2c-.27-.263-1.21-1.215-1.309-1.313-3.6-3.584-4.365-6.84-1.729-9.468a8.842,8.842,0,0,0,.984-3.09c.1-.462.1-.462.209-.939.649-2.866,1.212-4.4,2.41-5.6a10,10,0,0,0,.937-1.14c.121-.164.258-.353.533-.731C34.889,21.749,37.056,20.422,40.616,22.07Z" transform="translate(72.888 60.399)" fill="#65e6c4"/>
        </g>
      </g>
      <g id="Group_3988" data-name="Group 3988" transform="translate(0 0)">
        <g id="Group_3987-2" data-name="Group 3987" transform="translate(0 0)">
          <rect id="Rectangle_2586-2" data-name="Rectangle 2586" width="123" height="122" transform="translate(-0.378 -0.497)" fill="none"/>
          <path id="Path_4183-2" data-name="Path 4183" d="M109.684,41.927l.2.011a10.546,10.546,0,0,1,2.7.677,4.912,4.912,0,0,1,3.276,3.251c.482,1.872-.407,3.845-2.515,5.945-.648.647-5.367,5.234-6.836,6.708-1.149,1.152-2.172,2.21-3.108,3.216-4.2,4.51-6.5,7.929-6.5,9.694,0,.562.008.937.043,2.286a40.366,40.366,0,0,1-.48,9.224A18.372,18.372,0,0,1,91.439,92.9c-1.791,1.786-3.436,4.132-6.291,8.73l-.693,1.118c-5.219,8.428-7.713,11.621-11.477,13.253-1,.435-4.1,1.879-4.731,2.138a6.825,6.825,0,0,1-4.053.652c-1.554-.293-2.9-1.231-4.862-3.191-5.611-5.595-10.363-14.175-10.363-20.61,0-1.391.029-2.027.255-6.319.123-2.331.189-3.854.225-5.429.154-6.7-.467-11.005-1.934-12.467a18.273,18.273,0,0,1-3.346-4.653c-.411-.787-.513-1.007-1.353-2.855a13.947,13.947,0,0,0-2.794-4.56c-3.271-3.261-5.046-3.615-10.592-1.311-7.526,3.126-14.288,2.08-19.382-3-7.227-7.2-12.438-21.636-6.341-27.714,1.074-1.071,8.122-7.407,9.338-8.915a6,6,0,0,0,1.627-3.807c0-5.888,6.942-10.538,14.023-10.538a29.222,29.222,0,0,0,6.4-1.032c.4-.1.813-.2,1.354-.329C44.336.12,45.843-.1,47.63,1.685c.694.692,3.273,4.407,3.258,4.388,2,2.661,3.761,3.96,5.764,3.96a33.558,33.558,0,0,0,6.1-.549c.952-.161,1.434-.241,1.915-.313a22.811,22.811,0,0,1,3.515-.288c1.7,0,2.039.058,10.333,1.613.914.171,1.688.314,2.427.445,2.069.368,3.784.637,5.3.823,3.239.393,5.86,2.14,6.91,5l8.673,23.669a2.273,2.273,0,0,0,2.283,1.491Zm-5.572,3.835a6.122,6.122,0,0,1-5.855-3.932l-8.7-23.743a4.247,4.247,0,0,0-3.772-2.516c-1.6-.2-3.381-.475-5.513-.854-.752-.134-1.537-.278-2.462-.451-7.7-1.443-8.309-1.547-9.626-1.547a19.107,19.107,0,0,0-2.947.245c-.446.067-.892.141-1.854.3a37.221,37.221,0,0,1-6.727.6c-3.52,0-6.177-1.959-8.831-5.492-.2-.269-2.494-3.571-2.9-3.975-.2-.2-2.412.119-7.556,1.386-.549.135-.97.238-1.381.336A32.045,32.045,0,0,1,28.7,7.259c-5.212,0-10.188,3.333-10.188,6.7a9.679,9.679,0,0,1-2.477,6.214C14.586,21.967,7.3,28.521,6.415,29.4c-4.033,4.021.435,16.4,6.341,22.283,3.949,3.937,9.055,4.727,15.2,2.173,6.98-2.9,10.4-2.217,14.771,2.137a17.135,17.135,0,0,1,3.578,5.689c.8,1.767.9,1.97,1.262,2.667a14.485,14.485,0,0,0,2.654,3.712c2.533,2.525,3.241,7.427,3.06,15.272-.037,1.621-.1,3.177-.23,5.542-.221,4.19-.249,4.828-.249,6.117,0,5.227,4.277,12.95,9.236,17.894,1.459,1.454,2.279,2.028,2.866,2.138a3.529,3.529,0,0,0,1.881-.429c.53-.218,3.584-1.641,4.666-2.11,2.711-1.175,5.029-4.143,9.741-11.753l.7-1.122c3.014-4.854,4.767-7.356,6.841-9.423A14.6,14.6,0,0,0,92.7,82.233a37.252,37.252,0,0,0,.416-8.417c-.036-1.389-.044-1.777-.044-2.387,0-3.144,2.614-7.028,7.524-12.306.969-1.042,2.022-2.13,3.2-3.311,1.5-1.5,6.22-6.094,6.845-6.716,1.246-1.242,1.582-1.988,1.509-2.273-.033-.13-.349-.393-.978-.643a7.069,7.069,0,0,0-1.6-.417Z" transform="translate(3.196 1.006)" fill="#f6f6fd"/>
          <path id="Path_4184-2" data-name="Path 4184" d="M35.389,27.579c-.268.37-.416.573-.547.752a13.287,13.287,0,0,1-1.315,1.578c-.488.487-.895,1.6-1.377,3.728-.1.459-.1.459-.206.925-.624,2.8-1.016,3.972-2.02,4.973-.786.783-.555,1.76,1.729,4.036.12.12,1.04,1.051,1.281,1.286a9.645,9.645,0,0,0,.976.861c1.026.756,1.868.525,4.547-2.146a5.431,5.431,0,0,0,1.656-3.116,11.584,11.584,0,0,0-.5-4.632c-.848-3.509-.976-4.532-.261-6.171,1.027-2.355.763-3.589-.345-4.1C37.671,24.933,37.028,25.327,35.389,27.579Zm5.227-5.509c3.272,1.515,4.026,5.041,2.249,9.116-.221.507-.129,1.244.474,3.737a14.684,14.684,0,0,1,.564,6.116,9.251,9.251,0,0,1-2.738,5.249c-3.865,3.853-6.672,4.625-9.531,2.517a13.059,13.059,0,0,1-1.379-1.2c-.27-.263-1.21-1.215-1.309-1.313-3.6-3.584-4.365-6.84-1.729-9.468a8.842,8.842,0,0,0,.984-3.09c.1-.462.1-.462.209-.939.649-2.866,1.212-4.4,2.41-5.6a10,10,0,0,0,.937-1.14c.121-.164.258-.353.533-.731C34.889,21.749,37.056,20.422,40.616,22.07Z" transform="translate(73.023 60.263)" fill="#f6f6fd"/>
        </g>
      </g>
    </g>
    <path id="Path_4259" data-name="Path 4259" d="M1409.307,4114.906c-113.141-15.172-264.528-11.378-297.992-193.447s159.354-347.066,219.909-333.791,250.186,89.137,250.186,191.55S1522.449,4130.078,1409.307,4114.906Z" transform="translate(-10381.682 10189.857)" fill="none" stroke="#f4f6fc" stroke-width="4"/>
    <path id="Path_4258" data-name="Path 4258" d="M375.957,500.2C244.82,479.171,70.644,472.988,22.356,305S187.346-1.018,257.808,14.931s292.954,97.13,298.432,190.425S507.095,521.222,375.957,500.2Z" transform="translate(-8965.799 13656.293) rotate(59)" fill="none" stroke="#6de5c5" stroke-width="4"/>
  </g>
</svg>
