<svg xmlns="http://www.w3.org/2000/svg" width="702.676" height="720.929" viewBox="0 0 702.676 720.929">
  <g id="_5_months_green_bg" data-name="5 months green bg" transform="translate(7671.083 -12952.601)">
    <text id="_5" data-name="5" transform="translate(-7325.088 13389.577)" fill="#f6f6fd" font-size="149" font-family="Poppins-Bold, Poppins" font-weight="700"><tspan x="-48.425" y="0">5</tspan></text>
    <text id="Months" transform="translate(-7317.689 13431.077)" fill="#f6f6fd" font-size="28" font-family="HKGrotesk-Bold, HK Grotesk" font-weight="700"><tspan x="-47.222" y="0">Months</tspan></text>
    <text id="average_length_of_consistent_participation" data-name="average length of consistent 
participation" transform="translate(-7319.785 13457.077)" fill="#f6f6fd" font-size="18" font-family="HKGrotesk-SemiBold, HK Grotesk" font-weight="600"><tspan x="-114.786" y="0">average length of consistent </tspan><tspan x="-51.768" y="26">participation</tspan></text>
    <g id="Group_4062" data-name="Group 4062" transform="translate(-7365.729 13152.128)">
      <g id="Group_4061" data-name="Group 4061" transform="translate(2.54 2.317)">
        <path id="Path_3360" data-name="Path 3360" d="M198.987,90.975V168.85a2.81,2.81,0,0,1-.839,2,2.892,2.892,0,0,1-2.032.831h-83.6a2.86,2.86,0,0,1-2.88-2.835V90.975a2.86,2.86,0,0,1,2.88-2.835h83.6a2.892,2.892,0,0,1,2.032.831,2.81,2.81,0,0,1,.839,2Z" transform="translate(-109.64 -81.218)" fill="none" stroke="#65e5c3" stroke-width="3"/>
        <path id="Path_3361" data-name="Path 3361" d="M198.987,90.383v14.659H109.64V90.383c0-1.237,1.292-2.243,2.88-2.243h83.6C197.7,88.14,198.987,89.147,198.987,90.383Z" transform="translate(-109.64 -81.218)" fill="none" stroke="#65e5c3" stroke-width="2"/>
        <path id="Path_3362" data-name="Path 3362" d="M131.71,80.142V87.4a3.568,3.568,0,0,0,3.791,3.292h0a3.565,3.565,0,0,0,3.791-3.292V80.142A3.568,3.568,0,0,0,135.5,76.85h0A3.572,3.572,0,0,0,131.71,80.142Z" transform="translate(-115.417 -76.85)" fill="#65e5c3"/>
        <path id="Path_3366" data-name="Path 3366" d="M262.77,78.822v7.259a3.574,3.574,0,0,0,3.8,3.292h0a3.565,3.565,0,0,0,3.791-3.292V78.822a3.568,3.568,0,0,0-3.791-3.292h0A3.574,3.574,0,0,0,262.77,78.822Z" transform="translate(-197.304 -75.53)" fill="#65e5c3"/>
        <rect id="Rectangle_2617" data-name="Rectangle 2617" width="10.424" height="10.424" rx="1" transform="translate(14.613 37.921)" fill="#65e5c3"/>
        <rect id="Rectangle_2622" data-name="Rectangle 2622" width="10.424" height="10.424" rx="1" transform="translate(14.613 61.322)" fill="#65e5c3"/>
        <rect id="Rectangle_2618" data-name="Rectangle 2618" width="10.424" height="10.424" rx="1" transform="translate(39.99 37.921)" fill="#65e5c3"/>
        <rect id="Rectangle_2621" data-name="Rectangle 2621" width="10.424" height="10.424" rx="1" transform="translate(39.99 61.322)" fill="#65e5c3"/>
        <rect id="Rectangle_2619" data-name="Rectangle 2619" width="10.424" height="10.424" rx="1" transform="translate(66.407 37.921)" fill="#65e5c3"/>
        <rect id="Rectangle_2620" data-name="Rectangle 2620" width="10.424" height="10.424" rx="1" transform="translate(66.407 61.322)" fill="#65e5c3"/>
      </g>
      <g id="Group_4060" data-name="Group 4060" transform="translate(0)">
        <path id="Path_3360-2" data-name="Path 3360" d="M198.987,90.975V168.85a2.81,2.81,0,0,1-.839,2,2.892,2.892,0,0,1-2.032.831h-83.6a2.86,2.86,0,0,1-2.88-2.835V90.975a2.86,2.86,0,0,1,2.88-2.835h83.6a2.892,2.892,0,0,1,2.032.831,2.81,2.81,0,0,1,.839,2Z" transform="translate(-109.64 -81.218)" fill="none" stroke="#fff" stroke-width="3"/>
        <path id="Path_3361-2" data-name="Path 3361" d="M198.987,90.383v14.659H109.64V90.383c0-1.237,1.292-2.243,2.88-2.243h83.6C197.7,88.14,198.987,89.147,198.987,90.383Z" transform="translate(-109.64 -81.218)" fill="none" stroke="#fff" stroke-width="2"/>
        <path id="Path_3362-2" data-name="Path 3362" d="M131.71,80.142V87.4a3.568,3.568,0,0,0,3.791,3.292h0a3.565,3.565,0,0,0,3.791-3.292V80.142A3.568,3.568,0,0,0,135.5,76.85h0A3.572,3.572,0,0,0,131.71,80.142Z" transform="translate(-115.417 -76.85)" fill="#fff"/>
        <path id="Path_3366-2" data-name="Path 3366" d="M262.77,78.822v7.259a3.574,3.574,0,0,0,3.8,3.292h0a3.565,3.565,0,0,0,3.791-3.292V78.822a3.568,3.568,0,0,0-3.791-3.292h0A3.574,3.574,0,0,0,262.77,78.822Z" transform="translate(-197.304 -75.53)" fill="#fff"/>
        <rect id="Rectangle_2617-2" data-name="Rectangle 2617" width="10.424" height="10.424" rx="1" transform="translate(14.613 37.921)" fill="#fff"/>
        <rect id="Rectangle_2622-2" data-name="Rectangle 2622" width="10.424" height="10.424" rx="1" transform="translate(14.613 61.322)" fill="#fff"/>
        <rect id="Rectangle_2618-2" data-name="Rectangle 2618" width="10.424" height="10.424" rx="1" transform="translate(39.99 37.921)" fill="#fff"/>
        <rect id="Rectangle_2621-2" data-name="Rectangle 2621" width="10.424" height="10.424" rx="1" transform="translate(39.99 61.322)" fill="#fff"/>
        <rect id="Rectangle_2619-2" data-name="Rectangle 2619" width="10.424" height="10.424" rx="1" transform="translate(66.407 37.921)" fill="#fff"/>
        <rect id="Rectangle_2620-2" data-name="Rectangle 2620" width="10.424" height="10.424" rx="1" transform="translate(66.407 61.322)" fill="#fff"/>
      </g>
    </g>
    <path id="Path_4260" data-name="Path 4260" d="M375.957,500.2C244.82,479.171,70.644,472.988,22.356,305S187.346-1.018,257.808,14.931s292.954,97.13,298.432,190.425S507.095,521.222,375.957,500.2Z" transform="translate(-7246.233 12935.293) rotate(59)" fill="none" stroke="#6de5c5" stroke-width="4"/>
    <path id="Path_4261" data-name="Path 4261" d="M1409.307,4114.906c-113.141-15.172-264.528-11.378-297.992-193.447s159.354-347.066,219.909-333.791,250.186,89.137,250.186,191.55S1522.449,4130.078,1409.307,4114.906Z" transform="translate(-8662.116 9468.857)" fill="none" stroke="#f4f6fc" stroke-width="4"/>
  </g>
</svg>
