<svg xmlns="http://www.w3.org/2000/svg" xmlns:xlink="http://www.w3.org/1999/xlink" width="166" height="166" viewBox="0 0 166 166">
  <defs>
    <filter id="Rectangle_2541" x="0" y="0" width="166" height="166" filterUnits="userSpaceOnUse">
      <feOffset dy="10" input="SourceAlpha"/>
      <feGaussianBlur stdDeviation="10" result="blur"/>
      <feFlood flood-color="#a7a4cb" flood-opacity="0.161"/>
      <feComposite operator="in" in2="blur"/>
      <feComposite in="SourceGraphic"/>
    </filter>
    <linearGradient id="linear-gradient" x1="1.53" y1="1.013" x2="1.521" gradientUnits="objectBoundingBox">
      <stop offset="0" stop-color="#822cbe"/>
      <stop offset="1" stop-color="#d772fb"/>
    </linearGradient>
  </defs>
  <g id="Group_3935" data-name="Group 3935" transform="translate(-17867 749)">
    <g transform="matrix(1, 0, 0, 1, 17867, -749)" filter="url(#Rectangle_2541)">
      <rect id="Rectangle_2541-2" data-name="Rectangle 2541" width="106" height="106" rx="4" transform="translate(30 20)" fill="#fff"/>
    </g>
    <g id="Podcasts__iOS_" data-name="Podcasts_(iOS)" transform="translate(17915.65 -710.35)">
      <rect id="Rectangle_2530" data-name="Rectangle 2530" width="68" height="68" rx="7" transform="translate(0.35 0.35)" fill="url(#linear-gradient)"/>
      <path id="Path_4072" data-name="Path 4072" d="M65.547,84.893c-2.05-.733-2.489-1.729-3.33-7.566-.978-6.785-1.191-10.985-.625-12.315.751-1.763,2.789-2.764,5.64-2.775,2.828-.011,4.885,1,5.64,2.775.568,1.328.355,5.53-.623,12.315-.664,4.74-1.03,5.938-1.946,6.744a4.7,4.7,0,0,1-4.74.824Zm-8.755-6.962A23.912,23.912,0,0,1,43.534,60.725a31.71,31.71,0,0,1-.092-8.7A24.122,24.122,0,0,1,49.717,39.7,24.213,24.213,0,0,1,91.074,52.078a33.818,33.818,0,0,1,.023,8.2,24.345,24.345,0,0,1-9.274,15.16c-1.74,1.314-6,3.609-6.687,3.609-.252,0-.275-.261-.16-1.317.206-1.695.412-2.047,1.374-2.45A22.342,22.342,0,0,0,82.1,71.169a21.88,21.88,0,0,0,5.748-10.122,26.888,26.888,0,0,0-.137-10.03,21.362,21.362,0,0,0-16.1-15.32,27.007,27.007,0,0,0-8.587,0A21.53,21.53,0,0,0,46.786,51.521a29.053,29.053,0,0,0,0,9.549,21.931,21.931,0,0,0,9.137,12.915,19.785,19.785,0,0,0,2.359,1.351c.962.412,1.168.756,1.351,2.45.115,1.03.092,1.328-.16,1.328a18.8,18.8,0,0,1-2.565-1.1Zm.092-9.316a17.191,17.191,0,0,1-5.359-8.578,18.976,18.976,0,0,1,.023-7.786,16.8,16.8,0,0,1,10.9-11.5,19.8,19.8,0,0,1,8.358-.3c7.969,1.775,13.625,9.755,12.526,17.672a16.144,16.144,0,0,1-3.481,8.244c-.962,1.23-3.3,3.293-3.71,3.293a5.845,5.845,0,0,1-.137-1.727V66.2l1.191-1.42a13.038,13.038,0,0,0-.733-17.816A12.431,12.431,0,0,0,69.525,43.4a8.858,8.858,0,0,0-4.145-.023,12.572,12.572,0,0,0-7.191,3.6,13,13,0,0,0-.756,17.809l1.182,1.42v1.74a4.606,4.606,0,0,1-.169,1.74,8.361,8.361,0,0,1-1.466-1.03Zm7.946-9.35A5.326,5.326,0,0,1,61.67,54.2a5.61,5.61,0,0,1,3.183-4.992,6.013,6.013,0,0,1,4.832,0,6.221,6.221,0,0,1,2.977,3.6,5.563,5.563,0,0,1-7.786,6.451Z" transform="translate(-33.295 -24.749)" fill="#fff"/>
      <circle id="Ellipse_475" data-name="Ellipse 475" cx="5.711" cy="5.711" r="5.711" transform="translate(28.613 23.983)" fill="#fff"/>
      <path id="Path_4073" data-name="Path 4073" d="M129.925,164.27a11.23,11.23,0,0,1,1.912.389,6.93,6.93,0,0,1,1.914.957,3.362,3.362,0,0,1,1.1,1.209,5.057,5.057,0,0,1,.412,1.912,31.63,31.63,0,0,1-.16,4.488c-.206,2.329-.618,5.743-.939,7.93a16.392,16.392,0,0,1-.847,3.87,3.464,3.464,0,0,1-2.542,2.221,5.486,5.486,0,0,1-1.328.115,5.675,5.675,0,0,1-1.328-.115,4.157,4.157,0,0,1-1.717-.733,3.725,3.725,0,0,1-1.145-1.786,18.985,18.985,0,0,1-.756-3.6c-.275-1.878-.641-4.672-.87-6.8s-.321-3.6-.339-4.58a7.1,7.1,0,0,1,.137-1.946,3.9,3.9,0,0,1,.55-1.259,4.152,4.152,0,0,1,.916-.939,3.723,3.723,0,0,1,1.067-.577,8.048,8.048,0,0,1,1.466-.412c.6-.115,1.282-.229,1.635-.275a1.78,1.78,0,0,1,.747,0Z" transform="translate(-95.053 -126.653)" fill="#fff"/>
    </g>
  </g>
</svg>
