<svg xmlns="http://www.w3.org/2000/svg" width="70.273" height="13.501" viewBox="0 0 70.273 13.501">
  <path id="Icon_ionic-ios-arrow-round-back" data-name="Icon ionic-ios-arrow-round-back" d="M20.792,11.51a.919.919,0,0,0-.007,1.294l4.268,4.282H-41.241a.911.911,0,0,0-.907.914.911.911,0,0,0,.907.914H25.053L20.777,23.2a.925.925,0,0,0,.007,1.294.91.91,0,0,0,1.287-.007l5.794-5.836h0a1.027,1.027,0,0,0,.19-.288.872.872,0,0,0,.07-.352.916.916,0,0,0-.26-.64l-5.794-5.836A.9.9,0,0,0,20.792,11.51Z" transform="translate(42.148 -11.252)" fill="#fff"/>
</svg>
