<svg xmlns="http://www.w3.org/2000/svg" width="1396" height="72.809" viewBox="0 0 1396 72.809">
  <g id="Group_3242" data-name="Group 3242" transform="translate(-756.498 -3139.191)" opacity="0.15">
    <g id="Group_3067" data-name="Group 3067" transform="translate(611.226 3111.572)">
      <path id="Path_2997" data-name="Path 2997" d="M219.064,39.465c-2.631,3.305-4.6,5.772-6.776,8.506,1.783,2.259,3.538,4.483,5.447,6.907,2.7-.936,5.347-1.848,8.9-3.075-1.8,3.934-5.157,4.169-7.735,6.095l2.991,11.355c1.306.527,2.795,1.13,5.391,2.184-2.654.705-4.377,1.166-6.112,1.626-1.3,3.73-2.6,7.464-4.228,12.166,1.3.805,3.11,1.93,4.92,3.056-.295.4-.588.8-.882,1.2-.921-.288-1.854-.54-2.758-.873-.837-.305-1.643-.695-2.977-1.271-1.32,1.595-2.644,3.19-4.027,4.855l3.425,5.8c-2.933.178-3.757-2.428-6.034-3.273-4.789,3.636-10.5,5.2-16.795,5.621-17.583,1.2-27.826-11.239-28.37-25.34-.5-12.887,6.541-23.152,17.856-26.838a21.016,21.016,0,0,1,27.216,22.758,31.285,31.285,0,0,1-1.6,6.836c-4.483,11.713-15.166,13.183-24.171,9.763-4.452-1.692-7.03-5.795-7.245-10.68A19.531,19.531,0,0,1,179.594,63.6a10.924,10.924,0,0,1,17.071-.351,8.315,8.315,0,0,1,.4,10.065,7.47,7.47,0,0,1-8.648,2.791c-1.909-.677-1.909-.677-2.352-4.514.935.377,1.657.625,2.344.948,3.012,1.436,4.687,1.156,6.067-1.041a5.649,5.649,0,0,0-1.4-7.283c-3.613-2.6-9.33-1.759-11.339,2.326a26.447,26.447,0,0,0-2.561,10.349c-.181,4.394,3.6,8.049,8.021,8.926,11.563,2.29,20.445-7.416,18.026-19.864-1.375-7.093-5.433-12.683-12.313-14.638-7.9-2.241-15.01.386-20.472,6.8-6.05,7.1-6.8,16.848-3.1,25.478,6.512,15.2,20.7,15.806,30.829,12.343,8.678-2.969,13.3-10.265,16.285-18.585,5.752-16.015-6.176-31.281-20.055-34.777-6.3-1.586-12.688-2.587-19.231-.216-12.74,4.611-23.745,21.388-22.061,34.825.918,7.318,5.216,12.98,10.591,17.817,1.27,1.144,2.655,2.158,4.528,3.673-4.572.089-4.572.089-14.109-8.7-3.008.363-4.957,4.333-9.819,2.538,3.236-1.693,5.656-2.954,8.1-4.231-.989-3.495-2.323-6.884-2.83-10.388-.483-3.336-.1-6.8-.1-10.712-1.352-.408-3.377-1.019-6.182-1.861,2.932-2.875,5.277-.155,7.481-1.178,2.478-4.7,5.052-9.587,7.753-14.712-2.348-1.95-4.88-4.05-7.413-6.154,4.615-1.063,5.67,3.819,10.186,4.412,2.072-1.515,4.782-3.5,7.594-5.555L165.49,32.076c5.173,1.484,4.545,6.184,7.386,7.863,3.613-1.085,7.206-2.162,11.139-3.344-.29-2.849-.569-5.6-.91-8.976,3.828,2.645,2.6,6.353,3.741,9.569,4.053.78,8.276,1.59,12.974,2.495.837-3.115,1.639-6.115,2.56-9.547,1.289,2.843,1.289,2.843-.277,10.738,2.448,1.524,5.013,3.119,7.62,4.74C212.775,43.913,214.525,40.568,219.064,39.465Z" fill="#06d6a0" fill-rule="evenodd"/>
      <path id="Path_2998" data-name="Path 2998" d="M404.895,39.465c-2.631,3.305-4.6,5.772-6.776,8.506,1.783,2.259,3.538,4.483,5.447,6.907,2.7-.936,5.347-1.848,8.9-3.075-1.8,3.934-5.156,4.169-7.735,6.095l2.991,11.355c1.306.527,2.8,1.13,5.391,2.184-2.654.705-4.377,1.166-6.112,1.626-1.3,3.73-2.6,7.464-4.228,12.166,1.3.805,3.11,1.93,4.92,3.056-.295.4-.588.8-.882,1.2-.921-.288-1.854-.54-2.758-.873-.837-.305-1.643-.695-2.977-1.271-1.32,1.595-2.644,3.19-4.027,4.855,1.157,1.958,2.149,3.642,3.425,5.8-2.933.178-3.757-2.428-6.034-3.273-4.789,3.636-10.5,5.2-16.8,5.621-17.583,1.2-27.826-11.239-28.37-25.34-.5-12.887,6.541-23.152,17.856-26.838a21.016,21.016,0,0,1,27.216,22.758,31.227,31.227,0,0,1-1.595,6.836c-4.483,11.713-15.166,13.183-24.17,9.763-4.453-1.692-7.031-5.795-7.246-10.68A19.531,19.531,0,0,1,365.425,63.6,10.926,10.926,0,0,1,382.5,63.25a8.316,8.316,0,0,1,.4,10.065,7.469,7.469,0,0,1-8.647,2.791c-1.91-.677-1.91-.677-2.353-4.514.935.377,1.657.625,2.344.948,3.012,1.436,4.687,1.156,6.067-1.041a5.649,5.649,0,0,0-1.4-7.283c-3.613-2.6-9.33-1.759-11.339,2.326a26.447,26.447,0,0,0-2.561,10.349c-.181,4.394,3.6,8.049,8.021,8.926,11.563,2.29,20.445-7.416,18.026-19.864-1.375-7.093-5.433-12.683-12.313-14.638-7.9-2.241-15.01.386-20.472,6.8-6.05,7.1-6.8,16.848-3.105,25.478,6.512,15.2,20.7,15.806,30.829,12.343,8.678-2.969,13.3-10.265,16.285-18.585,5.752-16.015-6.176-31.281-20.055-34.777-6.3-1.586-12.688-2.587-19.231-.216-12.74,4.611-23.744,21.388-22.061,34.825.918,7.318,5.216,12.98,10.591,17.817,1.27,1.144,2.655,2.158,4.528,3.673-4.572.089-4.572.089-14.109-8.7-3.008.363-4.957,4.333-9.819,2.538,3.236-1.693,5.656-2.954,8.1-4.231-.989-3.495-2.323-6.884-2.83-10.388-.483-3.336-.1-6.8-.1-10.712-1.352-.408-3.377-1.019-6.182-1.861,2.932-2.875,5.277-.155,7.481-1.178,2.478-4.7,5.052-9.587,7.753-14.712-2.348-1.95-4.88-4.05-7.413-6.154,4.616-1.063,5.67,3.819,10.186,4.412,2.072-1.515,4.783-3.5,7.6-5.555-1.754-3.274-3.29-6.145-5.384-10.056,5.173,1.484,4.545,6.184,7.386,7.863,3.613-1.085,7.206-2.162,11.139-3.344-.29-2.849-.569-5.6-.91-8.976,3.828,2.645,2.6,6.353,3.741,9.569,4.053.78,8.276,1.59,12.974,2.495.837-3.115,1.639-6.115,2.56-9.547,1.289,2.843,1.289,2.843-.276,10.738,2.447,1.524,5.012,3.119,7.619,4.74C398.606,43.913,400.356,40.568,404.895,39.465Z" fill="#06d6a0" fill-rule="evenodd"/>
      <path id="Path_2999" data-name="Path 2999" d="M590.727,39.465c-2.632,3.305-4.6,5.772-6.777,8.506,1.783,2.259,3.538,4.483,5.446,6.907,2.706-.936,5.348-1.848,8.9-3.075-1.8,3.934-5.156,4.169-7.735,6.095l2.991,11.355c1.306.527,2.8,1.13,5.39,2.184-2.653.705-4.377,1.166-6.111,1.626-1.3,3.73-2.6,7.464-4.229,12.166,1.3.805,3.111,1.93,4.92,3.056-.295.4-.587.8-.88,1.2-.922-.288-1.855-.54-2.758-.873-.838-.305-1.645-.695-2.978-1.271-1.319,1.595-2.644,3.19-4.026,4.855,1.156,1.958,2.148,3.642,3.424,5.8-2.933.178-3.756-2.428-6.034-3.273-4.789,3.636-10.5,5.2-16.794,5.621-17.583,1.2-27.827-11.239-28.371-25.34-.5-12.887,6.541-23.152,17.856-26.838a21.016,21.016,0,0,1,27.216,22.758,31.227,31.227,0,0,1-1.595,6.836c-4.483,11.713-15.166,13.183-24.171,9.763-4.451-1.692-7.03-5.795-7.245-10.68A19.536,19.536,0,0,1,551.256,63.6a10.926,10.926,0,0,1,17.072-.351,8.319,8.319,0,0,1,.4,10.065,7.472,7.472,0,0,1-8.649,2.791c-1.908-.677-1.908-.677-2.351-4.514.934.377,1.656.625,2.343.948,3.012,1.436,4.687,1.156,6.067-1.041a5.647,5.647,0,0,0-1.4-7.283c-3.612-2.6-9.329-1.759-11.338,2.326a26.428,26.428,0,0,0-2.56,10.349c-.182,4.394,3.6,8.049,8.02,8.926,11.563,2.29,20.445-7.416,18.027-19.864-1.376-7.093-5.434-12.683-12.315-14.638-7.9-2.241-15.009.386-20.47,6.8-6.051,7.1-6.8,16.848-3.106,25.478,6.512,15.2,20.7,15.806,30.828,12.343,8.68-2.969,13.3-10.265,16.285-18.585,5.753-16.015-6.175-31.281-20.054-34.777-6.3-1.586-12.688-2.587-19.231-.216-12.74,4.611-23.744,21.388-22.06,34.825.918,7.318,5.215,12.98,10.59,17.817,1.271,1.144,2.655,2.158,4.528,3.673-4.571.089-4.571.089-14.109-8.7-3.007.363-4.957,4.333-9.82,2.538,3.236-1.693,5.656-2.954,8.1-4.231-.989-3.495-2.323-6.884-2.829-10.388-.484-3.336-.1-6.8-.1-10.712-1.352-.408-3.377-1.019-6.182-1.861,2.931-2.875,5.277-.155,7.482-1.178,2.477-4.7,5.051-9.587,7.752-14.712-2.348-1.95-4.88-4.05-7.412-6.154,4.615-1.063,5.669,3.819,10.185,4.412,2.073-1.515,4.783-3.5,7.594-5.555l-5.383-10.056c5.173,1.484,4.545,6.184,7.386,7.863,3.612-1.085,7.206-2.162,11.14-3.344-.291-2.849-.571-5.6-.91-8.976,3.827,2.645,2.6,6.353,3.74,9.569,4.053.78,8.275,1.59,12.974,2.495.836-3.115,1.639-6.115,2.561-9.547,1.289,2.843,1.289,2.843-.277,10.738,2.447,1.524,5.012,3.119,7.619,4.74C584.437,43.913,586.187,40.568,590.727,39.465Z" fill="#06d6a0" fill-rule="evenodd"/>
      <path id="Path_3000" data-name="Path 3000" d="M776.558,39.465c-2.632,3.305-4.6,5.772-6.777,8.506,1.783,2.259,3.538,4.483,5.446,6.907,2.706-.936,5.348-1.848,8.9-3.075-1.8,3.934-5.156,4.169-7.734,6.095.943,3.584,1.935,7.35,2.99,11.355,1.306.527,2.8,1.13,5.39,2.184-2.653.705-4.377,1.166-6.111,1.626-1.3,3.73-2.6,7.464-4.228,12.166,1.3.805,3.11,1.93,4.919,3.056-.294.4-.586.8-.88,1.2-.922-.288-1.855-.54-2.758-.873-.838-.305-1.645-.695-2.978-1.271-1.319,1.595-2.644,3.19-4.026,4.855,1.156,1.958,2.148,3.642,3.424,5.8-2.933.178-3.756-2.428-6.034-3.273-4.79,3.636-10.5,5.2-16.794,5.621-17.583,1.2-27.828-11.239-28.371-25.34-.5-12.887,6.541-23.152,17.856-26.838a21.016,21.016,0,0,1,27.216,22.758,31.227,31.227,0,0,1-1.595,6.836c-4.482,11.713-15.166,13.183-24.17,9.763-4.453-1.692-7.031-5.795-7.246-10.68a19.527,19.527,0,0,1,4.09-13.246,10.923,10.923,0,0,1,17.07-.351,8.315,8.315,0,0,1,.4,10.065,7.47,7.47,0,0,1-8.647,2.791c-1.91-.677-1.91-.677-2.352-4.514.934.377,1.657.625,2.342.948,3.014,1.436,4.688,1.156,6.068-1.041a5.649,5.649,0,0,0-1.4-7.283c-3.613-2.6-9.33-1.759-11.34,2.326a26.479,26.479,0,0,0-2.56,10.349c-.182,4.394,3.6,8.049,8.021,8.926,11.563,2.29,20.445-7.416,18.027-19.864C761.34,58.86,757.281,53.27,750.4,51.315c-7.9-2.241-15.009.386-20.472,6.8-6.05,7.1-6.8,16.848-3.106,25.478,6.513,15.2,20.7,15.806,30.83,12.343,8.679-2.969,13.3-10.265,16.284-18.585,5.753-16.015-6.175-31.281-20.054-34.777-6.3-1.586-12.688-2.587-19.232-.216-12.739,4.611-23.744,21.388-22.06,34.825.918,7.318,5.217,12.98,10.592,17.817,1.269,1.144,2.654,2.158,4.527,3.673-4.572.089-4.572.089-14.109-8.7-3.008.363-4.958,4.333-9.819,2.538,3.236-1.693,5.656-2.954,8.1-4.231-.988-3.495-2.322-6.884-2.83-10.388-.483-3.336-.1-6.8-.1-10.712-1.351-.408-3.377-1.019-6.181-1.861,2.931-2.875,5.277-.155,7.48-1.178L718,49.429c-2.349-1.95-4.88-4.05-7.413-6.154,4.615-1.063,5.67,3.819,10.186,4.412,2.072-1.515,4.783-3.5,7.6-5.555-1.754-3.274-3.29-6.145-5.385-10.056,5.174,1.484,4.546,6.184,7.387,7.863L741.508,36.6c-.289-2.849-.569-5.6-.91-8.976,3.828,2.645,2.6,6.353,3.742,9.569,4.053.78,8.275,1.59,12.972,2.495.838-3.115,1.64-6.115,2.561-9.547,1.289,2.843,1.289,2.843-.276,10.738,2.447,1.524,5.012,3.119,7.619,4.74C770.269,43.913,772.019,40.568,776.558,39.465Z" fill="#06d6a0" fill-rule="evenodd"/>
    </g>
    <g id="Group_3069" data-name="Group 3069" transform="translate(1367.724 3111.572)">
      <path id="Path_2997-2" data-name="Path 2997" d="M219.064,39.465c-2.631,3.305-4.6,5.772-6.776,8.506,1.783,2.259,3.538,4.483,5.447,6.907,2.7-.936,5.347-1.848,8.9-3.075-1.8,3.934-5.157,4.169-7.735,6.095l2.991,11.355c1.306.527,2.795,1.13,5.391,2.184-2.654.705-4.377,1.166-6.112,1.626-1.3,3.73-2.6,7.464-4.228,12.166,1.3.805,3.11,1.93,4.92,3.056-.295.4-.588.8-.882,1.2-.921-.288-1.854-.54-2.758-.873-.837-.305-1.643-.695-2.977-1.271-1.32,1.595-2.644,3.19-4.027,4.855l3.425,5.8c-2.933.178-3.757-2.428-6.034-3.273-4.789,3.636-10.5,5.2-16.795,5.621-17.583,1.2-27.826-11.239-28.37-25.34-.5-12.887,6.541-23.152,17.856-26.838a21.016,21.016,0,0,1,27.216,22.758,31.285,31.285,0,0,1-1.6,6.836c-4.483,11.713-15.166,13.183-24.171,9.763-4.452-1.692-7.03-5.795-7.245-10.68A19.531,19.531,0,0,1,179.594,63.6a10.924,10.924,0,0,1,17.071-.351,8.315,8.315,0,0,1,.4,10.065,7.47,7.47,0,0,1-8.648,2.791c-1.909-.677-1.909-.677-2.352-4.514.935.377,1.657.625,2.344.948,3.012,1.436,4.687,1.156,6.067-1.041a5.649,5.649,0,0,0-1.4-7.283c-3.613-2.6-9.33-1.759-11.339,2.326a26.447,26.447,0,0,0-2.561,10.349c-.181,4.394,3.6,8.049,8.021,8.926,11.563,2.29,20.445-7.416,18.026-19.864-1.375-7.093-5.433-12.683-12.313-14.638-7.9-2.241-15.01.386-20.472,6.8-6.05,7.1-6.8,16.848-3.1,25.478,6.512,15.2,20.7,15.806,30.829,12.343,8.678-2.969,13.3-10.265,16.285-18.585,5.752-16.015-6.176-31.281-20.055-34.777-6.3-1.586-12.688-2.587-19.231-.216-12.74,4.611-23.745,21.388-22.061,34.825.918,7.318,5.216,12.98,10.591,17.817,1.27,1.144,2.655,2.158,4.528,3.673-4.572.089-4.572.089-14.109-8.7-3.008.363-4.957,4.333-9.819,2.538,3.236-1.693,5.656-2.954,8.1-4.231-.989-3.495-2.323-6.884-2.83-10.388-.483-3.336-.1-6.8-.1-10.712-1.352-.408-3.377-1.019-6.182-1.861,2.932-2.875,5.277-.155,7.481-1.178,2.478-4.7,5.052-9.587,7.753-14.712-2.348-1.95-4.88-4.05-7.413-6.154,4.615-1.063,5.67,3.819,10.186,4.412,2.072-1.515,4.782-3.5,7.594-5.555L165.49,32.076c5.173,1.484,4.545,6.184,7.386,7.863,3.613-1.085,7.206-2.162,11.139-3.344-.29-2.849-.569-5.6-.91-8.976,3.828,2.645,2.6,6.353,3.741,9.569,4.053.78,8.276,1.59,12.974,2.495.837-3.115,1.639-6.115,2.56-9.547,1.289,2.843,1.289,2.843-.277,10.738,2.448,1.524,5.013,3.119,7.62,4.74C212.775,43.913,214.525,40.568,219.064,39.465Z" fill="#06d6a0" fill-rule="evenodd"/>
      <path id="Path_2998-2" data-name="Path 2998" d="M404.895,39.465c-2.631,3.305-4.6,5.772-6.776,8.506,1.783,2.259,3.538,4.483,5.447,6.907,2.7-.936,5.347-1.848,8.9-3.075-1.8,3.934-5.156,4.169-7.735,6.095l2.991,11.355c1.306.527,2.8,1.13,5.391,2.184-2.654.705-4.377,1.166-6.112,1.626-1.3,3.73-2.6,7.464-4.228,12.166,1.3.805,3.11,1.93,4.92,3.056-.295.4-.588.8-.882,1.2-.921-.288-1.854-.54-2.758-.873-.837-.305-1.643-.695-2.977-1.271-1.32,1.595-2.644,3.19-4.027,4.855,1.157,1.958,2.149,3.642,3.425,5.8-2.933.178-3.757-2.428-6.034-3.273-4.789,3.636-10.5,5.2-16.8,5.621-17.583,1.2-27.826-11.239-28.37-25.34-.5-12.887,6.541-23.152,17.856-26.838a21.016,21.016,0,0,1,27.216,22.758,31.227,31.227,0,0,1-1.595,6.836c-4.483,11.713-15.166,13.183-24.17,9.763-4.453-1.692-7.031-5.795-7.246-10.68A19.531,19.531,0,0,1,365.425,63.6,10.926,10.926,0,0,1,382.5,63.25a8.316,8.316,0,0,1,.4,10.065,7.469,7.469,0,0,1-8.647,2.791c-1.91-.677-1.91-.677-2.353-4.514.935.377,1.657.625,2.344.948,3.012,1.436,4.687,1.156,6.067-1.041a5.649,5.649,0,0,0-1.4-7.283c-3.613-2.6-9.33-1.759-11.339,2.326a26.447,26.447,0,0,0-2.561,10.349c-.181,4.394,3.6,8.049,8.021,8.926,11.563,2.29,20.445-7.416,18.026-19.864-1.375-7.093-5.433-12.683-12.313-14.638-7.9-2.241-15.01.386-20.472,6.8-6.05,7.1-6.8,16.848-3.105,25.478,6.512,15.2,20.7,15.806,30.829,12.343,8.678-2.969,13.3-10.265,16.285-18.585,5.752-16.015-6.176-31.281-20.055-34.777-6.3-1.586-12.688-2.587-19.231-.216-12.74,4.611-23.744,21.388-22.061,34.825.918,7.318,5.216,12.98,10.591,17.817,1.27,1.144,2.655,2.158,4.528,3.673-4.572.089-4.572.089-14.109-8.7-3.008.363-4.957,4.333-9.819,2.538,3.236-1.693,5.656-2.954,8.1-4.231-.989-3.495-2.323-6.884-2.83-10.388-.483-3.336-.1-6.8-.1-10.712-1.352-.408-3.377-1.019-6.182-1.861,2.932-2.875,5.277-.155,7.481-1.178,2.478-4.7,5.052-9.587,7.753-14.712-2.348-1.95-4.88-4.05-7.413-6.154,4.616-1.063,5.67,3.819,10.186,4.412,2.072-1.515,4.783-3.5,7.6-5.555-1.754-3.274-3.29-6.145-5.384-10.056,5.173,1.484,4.545,6.184,7.386,7.863,3.613-1.085,7.206-2.162,11.139-3.344-.29-2.849-.569-5.6-.91-8.976,3.828,2.645,2.6,6.353,3.741,9.569,4.053.78,8.276,1.59,12.974,2.495.837-3.115,1.639-6.115,2.56-9.547,1.289,2.843,1.289,2.843-.276,10.738,2.447,1.524,5.012,3.119,7.619,4.74C398.606,43.913,400.356,40.568,404.895,39.465Z" fill="#06d6a0" fill-rule="evenodd"/>
      <path id="Path_2999-2" data-name="Path 2999" d="M590.727,39.465c-2.632,3.305-4.6,5.772-6.777,8.506,1.783,2.259,3.538,4.483,5.446,6.907,2.706-.936,5.348-1.848,8.9-3.075-1.8,3.934-5.156,4.169-7.735,6.095l2.991,11.355c1.306.527,2.8,1.13,5.39,2.184-2.653.705-4.377,1.166-6.111,1.626-1.3,3.73-2.6,7.464-4.229,12.166,1.3.805,3.111,1.93,4.92,3.056-.295.4-.587.8-.88,1.2-.922-.288-1.855-.54-2.758-.873-.838-.305-1.645-.695-2.978-1.271-1.319,1.595-2.644,3.19-4.026,4.855,1.156,1.958,2.148,3.642,3.424,5.8-2.933.178-3.756-2.428-6.034-3.273-4.789,3.636-10.5,5.2-16.794,5.621-17.583,1.2-27.827-11.239-28.371-25.34-.5-12.887,6.541-23.152,17.856-26.838a21.016,21.016,0,0,1,27.216,22.758,31.227,31.227,0,0,1-1.595,6.836c-4.483,11.713-15.166,13.183-24.171,9.763-4.451-1.692-7.03-5.795-7.245-10.68A19.536,19.536,0,0,1,551.256,63.6a10.926,10.926,0,0,1,17.072-.351,8.319,8.319,0,0,1,.4,10.065,7.472,7.472,0,0,1-8.649,2.791c-1.908-.677-1.908-.677-2.351-4.514.934.377,1.656.625,2.343.948,3.012,1.436,4.687,1.156,6.067-1.041a5.647,5.647,0,0,0-1.4-7.283c-3.612-2.6-9.329-1.759-11.338,2.326a26.428,26.428,0,0,0-2.56,10.349c-.182,4.394,3.6,8.049,8.02,8.926,11.563,2.29,20.445-7.416,18.027-19.864-1.376-7.093-5.434-12.683-12.315-14.638-7.9-2.241-15.009.386-20.47,6.8-6.051,7.1-6.8,16.848-3.106,25.478,6.512,15.2,20.7,15.806,30.828,12.343,8.68-2.969,13.3-10.265,16.285-18.585,5.753-16.015-6.175-31.281-20.054-34.777-6.3-1.586-12.688-2.587-19.231-.216-12.74,4.611-23.744,21.388-22.06,34.825.918,7.318,5.215,12.98,10.59,17.817,1.271,1.144,2.655,2.158,4.528,3.673-4.571.089-4.571.089-14.109-8.7-3.007.363-4.957,4.333-9.82,2.538,3.236-1.693,5.656-2.954,8.1-4.231-.989-3.495-2.323-6.884-2.829-10.388-.484-3.336-.1-6.8-.1-10.712-1.352-.408-3.377-1.019-6.182-1.861,2.931-2.875,5.277-.155,7.482-1.178,2.477-4.7,5.051-9.587,7.752-14.712-2.348-1.95-4.88-4.05-7.412-6.154,4.615-1.063,5.669,3.819,10.185,4.412,2.073-1.515,4.783-3.5,7.594-5.555l-5.383-10.056c5.173,1.484,4.545,6.184,7.386,7.863,3.612-1.085,7.206-2.162,11.14-3.344-.291-2.849-.571-5.6-.91-8.976,3.827,2.645,2.6,6.353,3.74,9.569,4.053.78,8.275,1.59,12.974,2.495.836-3.115,1.639-6.115,2.561-9.547,1.289,2.843,1.289,2.843-.277,10.738,2.447,1.524,5.012,3.119,7.619,4.74C584.437,43.913,586.187,40.568,590.727,39.465Z" fill="#06d6a0" fill-rule="evenodd"/>
      <path id="Path_3000-2" data-name="Path 3000" d="M776.558,39.465c-2.632,3.305-4.6,5.772-6.777,8.506,1.783,2.259,3.538,4.483,5.446,6.907,2.706-.936,5.348-1.848,8.9-3.075-1.8,3.934-5.156,4.169-7.734,6.095.943,3.584,1.935,7.35,2.99,11.355,1.306.527,2.8,1.13,5.39,2.184-2.653.705-4.377,1.166-6.111,1.626-1.3,3.73-2.6,7.464-4.228,12.166,1.3.805,3.11,1.93,4.919,3.056-.294.4-.586.8-.88,1.2-.922-.288-1.855-.54-2.758-.873-.838-.305-1.645-.695-2.978-1.271-1.319,1.595-2.644,3.19-4.026,4.855,1.156,1.958,2.148,3.642,3.424,5.8-2.933.178-3.756-2.428-6.034-3.273-4.79,3.636-10.5,5.2-16.794,5.621-17.583,1.2-27.828-11.239-28.371-25.34-.5-12.887,6.541-23.152,17.856-26.838a21.016,21.016,0,0,1,27.216,22.758,31.227,31.227,0,0,1-1.595,6.836c-4.482,11.713-15.166,13.183-24.17,9.763-4.453-1.692-7.031-5.795-7.246-10.68a19.527,19.527,0,0,1,4.09-13.246,10.923,10.923,0,0,1,17.07-.351,8.315,8.315,0,0,1,.4,10.065,7.47,7.47,0,0,1-8.647,2.791c-1.91-.677-1.91-.677-2.352-4.514.934.377,1.657.625,2.342.948,3.014,1.436,4.688,1.156,6.068-1.041a5.649,5.649,0,0,0-1.4-7.283c-3.613-2.6-9.33-1.759-11.34,2.326a26.479,26.479,0,0,0-2.56,10.349c-.182,4.394,3.6,8.049,8.021,8.926,11.563,2.29,20.445-7.416,18.027-19.864C761.34,58.86,757.281,53.27,750.4,51.315c-7.9-2.241-15.009.386-20.472,6.8-6.05,7.1-6.8,16.848-3.106,25.478,6.513,15.2,20.7,15.806,30.83,12.343,8.679-2.969,13.3-10.265,16.284-18.585,5.753-16.015-6.175-31.281-20.054-34.777-6.3-1.586-12.688-2.587-19.232-.216-12.739,4.611-23.744,21.388-22.06,34.825.918,7.318,5.217,12.98,10.592,17.817,1.269,1.144,2.654,2.158,4.527,3.673-4.572.089-4.572.089-14.109-8.7-3.008.363-4.958,4.333-9.819,2.538,3.236-1.693,5.656-2.954,8.1-4.231-.988-3.495-2.322-6.884-2.83-10.388-.483-3.336-.1-6.8-.1-10.712-1.351-.408-3.377-1.019-6.181-1.861,2.931-2.875,5.277-.155,7.48-1.178L718,49.429c-2.349-1.95-4.88-4.05-7.413-6.154,4.615-1.063,5.67,3.819,10.186,4.412,2.072-1.515,4.783-3.5,7.6-5.555-1.754-3.274-3.29-6.145-5.385-10.056,5.174,1.484,4.546,6.184,7.387,7.863L741.508,36.6c-.289-2.849-.569-5.6-.91-8.976,3.828,2.645,2.6,6.353,3.742,9.569,4.053.78,8.275,1.59,12.972,2.495.838-3.115,1.64-6.115,2.561-9.547,1.289,2.843,1.289,2.843-.276,10.738,2.447,1.524,5.012,3.119,7.619,4.74C770.269,43.913,772.019,40.568,776.558,39.465Z" fill="#06d6a0" fill-rule="evenodd"/>
    </g>
  </g>
</svg>
