<svg xmlns="http://www.w3.org/2000/svg" xmlns:xlink="http://www.w3.org/1999/xlink" width="52" height="56" viewBox="0 0 52 56">
  <defs>
    <clipPath id="clip-path">
      <circle id="Ellipse_146" data-name="Ellipse 146" cx="26" cy="26" r="26" transform="translate(1314 2344)" fill="none" stroke="#707070" stroke-width="1"/>
    </clipPath>
    <linearGradient id="linear-gradient" y1="0.5" x2="1" y2="0.5" gradientUnits="objectBoundingBox">
      <stop offset="0" stop-color="#34c699"/>
      <stop offset="0.65" stop-color="#13d29e"/>
      <stop offset="1" stop-color="#06d6a0"/>
    </linearGradient>
  </defs>
  <g id="Group_3611" data-name="Group 3611" transform="translate(-1314 -2316)">
    <circle id="Ellipse_148" data-name="Ellipse 148" cx="24" cy="24" r="24" transform="translate(1318 2316)" fill="#06d6a0" opacity="0.14"/>
    <g id="Mask_Group_40" data-name="Mask Group 40" transform="translate(0 -24)" clip-path="url(#clip-path)">
      <path id="Path_3426" data-name="Path 3426" d="M32.1,36.047c-.056-1.849,0-3.7,0-5.6V24.91a36.627,36.627,0,0,1,.258,5.535C32.327,32.35,32.271,34.2,32.1,36.047Z" transform="translate(1312.368 2339.771)" fill="#fff"/>
      <path id="Path_3427" data-name="Path 3427" d="M29.143,38.885c-.067-2.14,0-4.291,0-6.443V26a51.619,51.619,0,0,1,.246,6.443C29.356,34.594,29.311,36.745,29.143,38.885Z" transform="translate(1312.011 2339.902)" fill="#fff"/>
      <path id="Path_3428" data-name="Path 3428" d="M25.933,38.327c-.067-2.062,0-4.123,0-6.174V25.98a47.409,47.409,0,0,1,.246,6.174C26.146,34.238,26.09,36.288,25.933,38.327Z" transform="translate(1311.624 2339.899)" fill="#fff"/>
      <path id="Path_3429" data-name="Path 3429" d="M34.166,29.488a.471.471,0,0,1-.314.112.459.459,0,0,1-.3-.168.493.493,0,0,1,.325-.112.415.415,0,0,1,.291.168Z" transform="translate(1312.545 2340.302)" fill="#fff"/>
      <path id="Path_3430" data-name="Path 3430" d="M31.139,31.534a.5.5,0,0,1-.314.146.459.459,0,0,1-.325-.134.5.5,0,0,1,.314-.146.459.459,0,0,1,.325.134Z" transform="translate(1312.178 2340.552)" fill="#fff"/>
      <path id="Path_3431" data-name="Path 3431" d="M27.486,31.017a.415.415,0,0,1-.314.123.448.448,0,0,1-.3-.157.493.493,0,0,1,.314-.123.448.448,0,0,1,.3.157Z" transform="translate(1311.741 2340.487)" fill="#fff"/>
      <path id="Path_3432" data-name="Path 3432" d="M24.5,29.522a.605.605,0,0,1-.4.078.583.583,0,0,1-.359-.2.672.672,0,0,1,.4-.078.683.683,0,0,1,.359.2Z" transform="translate(1311.363 2340.301)" fill="#fff"/>
      <path id="Path_3433" data-name="Path 3433" d="M13.9,57.829a36.739,36.739,0,0,1,7.765-7.563c4.011-2.555,10.969-4.706,12.605-6.185s1.557-3.989-.4-3.529-6.2,2.532-5.726,2.129c.683-.571,3.8-3.361,6.14-5.6s3.171-4.37,2.644-5.176a1.12,1.12,0,0,0-1.479-.336,3.081,3.081,0,0,0,.627-2.443c-.392-1.12-1.557-1.008-2.543-.392a2.241,2.241,0,0,0-.515-1.277c-.527-.717-2.3-.134-3.529.975a1.423,1.423,0,0,0-1.176-1.244c-1.188-.2-3.014,1.277-7.059,5.4C18.408,35.51,13.545,40.742,10.542,43.6s-5.6,5.165-5.6,5.165Z" transform="translate(1309.1 2340.039)" fill="#27244f"/>
      <path id="Path_3434" data-name="Path 3434" d="M27.534,28.36c-1.176,1.266-2.409,2.454-3.63,3.675l-1.838,1.793c-.616.605-1.244,1.188-1.826,1.815a34.925,34.925,0,0,1,3.473-3.81C24.957,30.646,26.2,29.458,27.534,28.36Z" transform="translate(1310.942 2340.186)" fill="#fff"/>
      <path id="Path_3435" data-name="Path 3435" d="M31.362,28.56c-1.367,1.468-2.8,2.857-4.213,4.269L25,34.924c-.706.706-1.445,1.389-2.118,2.118a47.338,47.338,0,0,1,4.067-4.415C28.393,31.294,29.838,29.86,31.362,28.56Z" transform="translate(1311.26 2340.21)" fill="#fff"/>
      <path id="Path_3436" data-name="Path 3436" d="M33.113,31c-1.311,1.4-2.678,2.734-4.034,4.09l-2.062,1.994c-.672.683-1.378,1.333-2.028,2.039a40.985,40.985,0,0,1,3.888-4.235C30.267,33.555,31.645,32.232,33.113,31Z" transform="translate(1311.515 2340.504)" fill="#fff"/>
      <path id="Path_3437" data-name="Path 3437" d="M22.141,30.66a.426.426,0,0,1,.291.09.381.381,0,0,1,.078.291.325.325,0,0,1-.37-.381Z" transform="translate(1311.171 2340.463)" fill="#fff"/>
      <path id="Path_3438" data-name="Path 3438" d="M25.24,31a.37.37,0,0,1,.3.056.392.392,0,0,1,.123.28.37.37,0,0,1-.3-.056A.392.392,0,0,1,25.24,31Z" transform="translate(1311.545 2340.503)" fill="#fff"/>
      <path id="Path_3439" data-name="Path 3439" d="M27.32,33.34a.381.381,0,0,1,.291.078.37.37,0,0,1,.09.28.28.28,0,0,1-.28-.078.336.336,0,0,1-.1-.28Z" transform="translate(1311.795 2340.786)" fill="#fff"/>
      <path id="Path_3440" data-name="Path 3440" d="M28.45,36a.448.448,0,0,1,.426.5.459.459,0,0,1-.314-.168A.5.5,0,0,1,28.45,36Z" transform="translate(1311.932 2341.106)" fill="#fff"/>
      <path id="Path_3441" data-name="Path 3441" d="M26.038,41a3.025,3.025,0,0,1-.818.471,3.137,3.137,0,0,1-.93.224A3.1,3.1,0,0,1,26.038,41Z" transform="translate(1311.43 2341.709)" fill="#fff"/>
      <path id="Path_3442" data-name="Path 3442" d="M23.251,4.494s.952,6.633-.157,11.63S18.344,28.034,18.221,30.4s1.849,4.213,2.992,2.375,2.79-6.633,2.734-5.961c-.078.952-.336,5.423-.426,8.9s.908,5.726,1.927,5.938a1.23,1.23,0,0,0,1.367-.874s.246,1.815,1.378,2.342,1.95-.415,2.241-1.647a2.4,2.4,0,0,0,1.367.616c.952.146,1.849-1.636,1.938-3.429a1.524,1.524,0,0,0,1.838,0c1.042-.773,1.322-3.249,1.232-9.49-.056-4.392-.347-12.056-.235-16.5s.359-8.2.359-8.2Z" transform="translate(1309.78 2334.346)" fill="#d0eded" stroke="#10d29e" stroke-width="1"/>
      <circle id="Ellipse_145" data-name="Ellipse 145" cx="28" cy="28" r="28" transform="translate(1312 2343)" fill="none"/>
      <path id="Path_3443" data-name="Path 3443" d="M27.534,28.36c-1.176,1.266-2.409,2.454-3.63,3.675l-1.838,1.793c-.616.605-1.244,1.188-1.826,1.815a34.925,34.925,0,0,1,3.473-3.81C24.957,30.646,26.2,29.458,27.534,28.36Z" transform="translate(1381.495 2374.021) rotate(139)" fill="#16d19d"/>
      <path id="Path_3444" data-name="Path 3444" d="M31.362,28.56c-1.367,1.468-2.8,2.857-4.213,4.269L25,34.924c-.706.706-1.445,1.389-2.118,2.118a47.338,47.338,0,0,1,4.067-4.415C28.393,31.294,29.838,29.86,31.362,28.56Z" transform="translate(1381.24 2374.211) rotate(139)" fill="#16d19d"/>
      <path id="Path_3445" data-name="Path 3445" d="M33.113,31c-1.311,1.4-2.678,2.734-4.034,4.09l-2.062,1.994c-.672.683-1.378,1.333-2.028,2.039a40.985,40.985,0,0,1,3.888-4.235C30.267,33.555,31.645,32.232,33.113,31Z" transform="translate(1380.854 2374.157) rotate(139)" fill="#16d19d"/>
      <path id="Path_3446" data-name="Path 3446" d="M54.763,48.69A38.555,38.555,0,0,1,46.8,40.5c-2.7-4.2-4.975-11.585-6.543-13.311s-4.2-1.636-3.72.426,2.667,6.555,2.241,6.05c-.616-.728-3.541-4.011-5.882-6.487s-4.616-3.361-5.468-2.779a1.188,1.188,0,0,0-.347,1.546,3.361,3.361,0,0,0-2.588-.661c-1.12.426-1.064,1.647-.415,2.7a2.342,2.342,0,0,0-1.378.527c-.751.549-.134,2.42,1.042,3.72a1.5,1.5,0,0,0-1.311,1.244c-.19,1.266,1.345,3.182,5.737,7.462,3.092,3,8.616,8.123,11.63,11.294s5.445,5.95,5.445,5.95Z" transform="translate(1311.198 2339.688)" fill="url(#linear-gradient)"/>
      <path id="Path_3447" data-name="Path 3447" d="M23.67,31.49c1.322,1.244,2.588,2.543,3.866,3.832l1.894,1.938c.639.65,1.255,1.311,1.927,1.927a37.883,37.883,0,0,1-4.022-3.675C26.079,34.2,24.824,32.891,23.67,31.49Z" transform="translate(1311.355 2340.563)" fill="#fff"/>
      <path id="Path_3448" data-name="Path 3448" d="M23.88,27.58c1.535,1.445,3.014,2.969,4.482,4.482L30.6,34.3c.739.751,1.468,1.524,2.241,2.241a49.637,49.637,0,0,1-4.65-4.3C26.715,30.717,25.258,29.171,23.88,27.58Z" transform="translate(1311.381 2340.092)" fill="#fff"/>
      <path id="Path_3449" data-name="Path 3449" d="M26.45,25.69c1.479,1.389,2.891,2.835,4.314,4.269l2.118,2.162c.706.717,1.4,1.457,2.14,2.14a45.513,45.513,0,0,1-4.482-4.112C29.161,28.693,27.761,27.236,26.45,25.69Z" transform="translate(1311.69 2339.865)" fill="#fff"/>
      <path id="Path_3450" data-name="Path 3450" d="M25.92,35.909a.4.4,0,0,1,.09-.28.381.381,0,0,1,.291-.078.359.359,0,0,1-.09.28.381.381,0,0,1-.291.078Z" transform="translate(1311.626 2341.052)" fill="#fff"/>
      <path id="Path_3451" data-name="Path 3451" d="M26.291,32.825a.37.37,0,0,1,.067-.3.347.347,0,0,1,.28-.112.336.336,0,0,1-.347.415Z" transform="translate(1311.67 2340.674)" fill="#fff"/>
      <path id="Path_3452" data-name="Path 3452" d="M28.66,30.775a.381.381,0,0,1,.078-.291.168.168,0,1,1,.2.2.381.381,0,0,1-.28.09Z" transform="translate(1311.956 2340.426)" fill="#fff"/>
      <path id="Path_3453" data-name="Path 3453" d="M31.29,29.665a.459.459,0,0,1,.168-.314.448.448,0,0,1,.336-.1.493.493,0,0,1-.157.314A.448.448,0,0,1,31.29,29.665Z" transform="translate(1312.273 2340.293)" fill="#fff"/>
    </g>
  </g>
</svg>
