<svg xmlns="http://www.w3.org/2000/svg" width="82" height="82" viewBox="0 0 82 82">
  <g id="Group_3512" data-name="Group 3512" transform="translate(-161 -4783)">
    <g id="Group_3150" data-name="Group 3150" transform="translate(-619 563)">
      <g id="Group_3511" data-name="Group 3511">
        <rect id="Rectangle_1168" data-name="Rectangle 1168" width="82" height="82" rx="12" transform="translate(780 4220)" fill="#fff"/>
      </g>
    </g>
    <g id="Group_3236" data-name="Group 3236" transform="translate(-326.206 4235.607)">
      <g id="Group_2963" data-name="Group 2963" transform="translate(504.205 556.78)">
        <path id="Path_2908" data-name="Path 2908" d="M686.048,745.658a39.44,39.44,0,0,1,9.044-8.7,29.015,29.015,0,0,1,16.9-5.543q6.462,0,9.012,3.557a6.219,6.219,0,0,1,1.3,3.587,8.19,8.19,0,0,1-.593,3.172q-2.491-4.565-8.716-6.047a25.515,25.515,0,0,0-5.781-.771,16.892,16.892,0,0,0-5.247.89.339.339,0,0,0-.119.237,19.147,19.147,0,0,0,3.469.237,26.959,26.959,0,0,1,5.128.534,16.094,16.094,0,0,1,5.9,3.231,8.487,8.487,0,0,1,2.994,5.543l-.06.07H722.9a11.478,11.478,0,0,0-.414-2.145,11.905,11.905,0,0,0,1.66-5.277,6.952,6.952,0,0,0-3.083-5.751q-3.083-2.313-9.012-2.312-11.028,0-21.344,7.352a44.357,44.357,0,0,0-8.825,8.133Z" transform="translate(-676.263 -720.153)" fill="#06d6a0"/>
        <path id="Path_2909" data-name="Path 2909" d="M1235.246,558.648q.533.387,3.676,2.282a19.21,19.21,0,0,0,3.5,1.9q.356,0,.356-.267a.538.538,0,0,0-.237-.445q-6.523-5.336-7.233-5.336-.594,0-.593.741A1.3,1.3,0,0,0,1235.246,558.648Z" transform="translate(-1197.148 -556.78)" fill="#06d6a0"/>
        <path id="Path_2910" data-name="Path 2910" d="M618.93,1269.983q-10.243,8.816-21.536,8.825-.831,0-1.66-.059-7.886-.415-7.885-8.241c0-.172.016-.35.022-.525h-3.2a9.9,9.9,0,0,0,2.851,6.839,11.133,11.133,0,0,0,7.619,3.113q.889.058,2.49.059,14.162,0,25.653-10.011Z" transform="translate(-584.671 -1228.769)" fill="#06d6a0"/>
      </g>
      <g id="Group_2965" data-name="Group 2965" transform="translate(499.27 583.527)">
        <g id="Group_2964" data-name="Group 2964" transform="translate(0 0)">
          <path id="Path_2911" data-name="Path 2911" d="M499.27,1026.827a4.181,4.181,0,1,1,4.181,4.156A4.1,4.1,0,0,1,499.27,1026.827Zm.916,0a3.265,3.265,0,1,0,3.265-3.313A3.278,3.278,0,0,0,500.186,1026.827Zm1.59-6.658.843-.542,1.518,1.566-.518.385Z" transform="translate(-499.27 -1019.627)" fill="#0d0a3a"/>
          <path id="Path_2912" data-name="Path 2912" d="M744.619,1074.586a2.981,2.981,0,0,1,1.843.506,2,2,0,0,1,.723,1.662,1.813,1.813,0,0,1-.8,1.578,2.015,2.015,0,0,1,1.53,2.024,2.221,2.221,0,0,1-.819,1.735,2.93,2.93,0,0,1-1.927.53h-2v-8.036Zm-.555,3.53h.675c.47,0,1.578-.1,1.578-1.337,0-1.325-1.3-1.349-1.554-1.349h-.7Zm0,3.662h1.024a2.222,2.222,0,0,0,1.41-.337,1.355,1.355,0,0,0,.53-1.108,1.3,1.3,0,0,0-.687-1.18,2.8,2.8,0,0,0-1.361-.241h-.916Z" transform="translate(-729.078 -1071.41)" fill="#0d0a3a"/>
          <path id="Path_2913" data-name="Path 2913" d="M917.031,1026.827a4.181,4.181,0,1,1,4.181,4.156A4.1,4.1,0,0,1,917.031,1026.827Zm.916,0a3.265,3.265,0,1,0,3.265-3.313A3.278,3.278,0,0,0,917.947,1026.827Zm1.59-6.658.843-.542,1.518,1.566-.518.385Z" transform="translate(-892.889 -1019.627)" fill="#0d0a3a"/>
          <path id="Path_2914" data-name="Path 2914" d="M1160.929,1074.586h1.639a4.369,4.369,0,0,1,2.964.94,3.917,3.917,0,0,1,1.374,3.084,3.826,3.826,0,0,1-1.41,3.084,4.024,4.024,0,0,1-2.939.927h-1.627Zm.892,7.192h.783a3.433,3.433,0,0,0,2.3-.723,3.22,3.22,0,0,0-2.3-5.626h-.783Z" transform="translate(-1122.693 -1071.41)" fill="#0d0a3a"/>
          <path id="Path_2915" data-name="Path 2915" d="M1356.047,1026.827a4.181,4.181,0,1,1,4.18,4.156A4.1,4.1,0,0,1,1356.047,1026.827Zm.916,0a3.265,3.265,0,1,0,3.265-3.313A3.278,3.278,0,0,0,1356.963,1026.827Zm1.59-6.658.843-.542,1.518,1.566-.518.385Z" transform="translate(-1306.536 -1019.627)" fill="#0d0a3a"/>
        </g>
      </g>
    </g>
  </g>
</svg>
