<svg xmlns="http://www.w3.org/2000/svg" width="59.03" height="37.987" viewBox="0 0 59.03 37.987">
  <g id="Group_3625" data-name="Group 3625" transform="translate(-833.618 -4803.814)">
    <path id="Path_3391" data-name="Path 3391" d="M39.905,24.16H15.272a.852.852,0,0,0-.852.852V37.7a.852.852,0,0,0,.534.785L39.571,48.71a.735.735,0,0,0,.651,0L64.856,38.489a.835.835,0,0,0,.518-.785V25.012a.835.835,0,0,0-.835-.852Z" transform="translate(823.232 4793.015)" fill="#06d6a0"/>
    <path id="Path_3392" data-name="Path 3392" d="M14.42,25.39,39.471,39.419a.718.718,0,0,0,.735,0L65.257,25.39Z" transform="translate(823.232 4793.839)" fill="#27244f" opacity="0.71"/>
    <path id="Path_3393" data-name="Path 3393" d="M12.01,23.36v1.486l1.57.568V23.761Z" transform="translate(821.617 4792.479)" fill="#06d6a0"/>
    <rect id="Rectangle_2103" data-name="Rectangle 2103" width="2.321" height="11.473" rx="0.46" transform="translate(889.608 4817.326)" fill="#fff"/>
    <path id="Path_3394" data-name="Path 3394" d="M41.273,17.02,12.432,28.377a.685.685,0,0,0,0,1.269L41.273,41a.651.651,0,0,0,.5,0L70.6,29.646a.685.685,0,0,0,0-1.269L41.775,17.02a.651.651,0,0,0-.5,0Z" transform="translate(821.614 4788.197)" fill="#06d6a0"/>
    <path id="Path_3395" data-name="Path 3395" d="M41.273,16.194,12.432,27.584a.685.685,0,0,0,0,1.269L41.273,40.209a.651.651,0,0,0,.5,0L70.6,28.853a.685.685,0,0,0,0-1.269L41.775,16.227a.651.651,0,0,0-.5-.033Z" transform="translate(821.614 4787.654)" fill="#06d6a0"/>
    <path id="Path_3396" data-name="Path 3396" d="M47.98,23.36v1.486l-1.57.568V23.761Z" transform="translate(844.668 4792.479)" fill="#06d6a0"/>
  </g>
</svg>
