<svg xmlns="http://www.w3.org/2000/svg" width="59.022" height="58" viewBox="0 0 59.022 58">
  <g id="Group_3610" data-name="Group 3610" transform="translate(-751.978 -2314)">
    <circle id="Ellipse_150" data-name="Ellipse 150" cx="24" cy="24" r="24" transform="translate(763 2314)" fill="#06d6a0" opacity="0.14"/>
    <g id="Artboard_12" data-name="Artboard 12" transform="translate(744.098 2316)">
      <g id="layer1" transform="translate(15.639 9.738)">
        <path id="path2432" d="M19.345,19.844a8.018,8.018,0,0,1-3.674-2.473,17.026,17.026,0,0,1-1.177-1.248c-.059-.118,0-.224.094-.389l.177-.212L15.942,16.7c1.378,1.366,1.907,1.7,2.838,1.766a2.2,2.2,0,0,0,2.025-.73,2.508,2.508,0,0,0,.848-1.943,2.214,2.214,0,0,0-.436-1.472l-.235-.283-.353.224a3.073,3.073,0,0,1-.718.341l-.365.118-.648-.648c-.365-.353-.624-.671-.589-.706a2.143,2.143,0,0,1,.471-.165,3.438,3.438,0,0,0,1.566-1.378A2.449,2.449,0,0,0,20.44,10.1c-.165-.377-.459-.506-1.107-.506a3.1,3.1,0,0,0-2,.789l-.483.424-.577-.6-.659-.659L16,9.13a3.309,3.309,0,0,1,3.532-.565,5.369,5.369,0,0,1,2.084,2.084,3.014,3.014,0,0,1,0,2.791l-.177.247.459.483.447.495,1.331-1.013,1.3-.989V9.648H23.8l-.624-.695-.624-.683h5.428l.742.706.73.718H26.4V19.962l-.706-.706-.718-.706V16.771a16.768,16.768,0,0,0,0-1.731s-.471.33-.977.718c-.812.624-.93.742-.883.954a4.121,4.121,0,0,1-.483,1.837,2.92,2.92,0,0,1-3.285,1.3Z" transform="translate(-14.47 -8.27)" fill="#06d6a0" stroke="#06d6a0" stroke-miterlimit="10" stroke-width="1"/>
      </g>
      <path id="path2377" d="M25.832,31.411a55.34,55.34,0,0,1-5.593.777c-.13.754-.235,1.389-.306,1.907s-.271,1.272-.424,2.237a9.42,9.42,0,0,1,2.755-1.177,7.206,7.206,0,0,1,2.225-.247,4.4,4.4,0,0,1,1.813.542,3.532,3.532,0,0,1,1.413,1.413,3.085,3.085,0,0,1,.318,2.155,3.532,3.532,0,0,1-1.071,1.99,5.1,5.1,0,0,1-1.931,1.177,9.608,9.608,0,0,1-2.52.447c-.918,0-1.931.059-3.026,0a4.262,4.262,0,0,0-.271-1.59v-.188a14.718,14.718,0,0,0,2.473.259,10.267,10.267,0,0,0,2.1-.188,4.5,4.5,0,0,0,1.648-.671,2.24,2.24,0,0,0,0-3.685,2.084,2.084,0,0,0-1.177-.353,6.912,6.912,0,0,0-1.7.153,5.97,5.97,0,0,0-1.849.742,7.76,7.76,0,0,0-1.625,1.272l-1.59-.648a30.814,30.814,0,0,0,.883-3.532c.094-.683.2-1.319.306-1.919-1.283.082-2.355.141-3.12.165a8.819,8.819,0,0,0-.294-1.578l.106-.106a32.2,32.2,0,0,0,3.532.13c.059-.447.153-1.013.259-1.719a3.426,3.426,0,0,0,0-1.413c0-.247.13-.33.33-.224l1.66.247c.141.082.153.188,0,.306l-.283.306c-.177.942-.318,1.743-.436,2.355a32.51,32.51,0,0,0,4.922-.942l.424,1.542" transform="translate(1.311 4.879)" fill="#06d6a0" stroke="#06d6a0" stroke-miterlimit="10" stroke-width="1"/>
      <path id="Path_3380" data-name="Path 3380" d="M31.084,0c.2,4.71.306,9.337.379,14s.1,9.337.107,14-.029,9.325-.107,14-.185,9.325-.379,14c-.2-4.71-.311-9.337-.379-14s-.1-9.337-.107-14,.029-9.337.107-14S30.88,4.71,31.084,0Z" transform="translate(4.031)" fill="#27244f"/>
      <path id="Path_3381" data-name="Path 3381" d="M61.925,23.327c-4.5.225-9.008.345-13.505.428s-9.008.11-13.517.121S25.9,23.843,21.4,23.755s-9.008-.2-13.517-.428c4.51-.23,9.008-.351,13.517-.428s9.008-.11,13.505-.121,9.008.033,13.517.121S57.475,23.1,61.925,23.327Z" transform="translate(0 4.623)" fill="#27244f"/>
      <path id="Path_3382" data-name="Path 3382" d="M44.373,20.54V20c1.248-.153,1.4-.341,1.177-1.071s-.624-1.707-1.036-2.92h-4.18c-.306.86-.6,1.613-.871,2.355-.424,1.248-.153,1.4,1.425,1.59v.542H36.46v-.542c1.177-.153,1.507-.283,2.178-2.013l3.98-10.02L43.23,7.8c1.177,3.273,2.532,6.9,3.733,10.22.612,1.672.789,1.825,2.155,1.978v.542ZM42.453,10.308c-.648,1.648-1.26,3.4-1.825,4.91h3.532Z" transform="translate(5.072 1.384)" fill="#06d6a0" stroke="#06d6a0" stroke-miterlimit="10" stroke-width="1"/>
      <path id="Path_3383" data-name="Path 3383" d="M48.49,40.975v.13c-.73.341-1.472.683-2.2.989a6.17,6.17,0,0,1-2.261.6,10.173,10.173,0,0,1-3.944-.577,3.12,3.12,0,0,1-2.061-3.1,14.671,14.671,0,0,1,.436-3.968,5.887,5.887,0,0,1,2.437-3.3H39.341a1.107,1.107,0,0,0-.966.424h-1.3A2.273,2.273,0,0,1,37.551,31a1.3,1.3,0,0,1,.989-.542h5.511a1.012,1.012,0,0,1,.294.071l-.365,1.177a7.783,7.783,0,0,0-3.839,1.743,4.8,4.8,0,0,0-1.672,3.791c0,2.685,1.507,4.015,4.592,4.015a26.463,26.463,0,0,0,2.708-.106C46.865,41.045,47.583,41.057,48.49,40.975Z" transform="translate(5.182 5.405)" fill="#06d6a0" stroke="#06d6a0" stroke-miterlimit="10" stroke-width="1"/>
      <path id="Path_3384" data-name="Path 3384" d="M39.478,27.71a3.227,3.227,0,0,1-.106.6c-.071.33-.153.495-.259.495a2.131,2.131,0,0,1-.683-.294,2.885,2.885,0,0,1-.6-.471,2.411,2.411,0,0,1,.13-.6c.071-.235.212-.459.318-.459a1.743,1.743,0,0,1,.683.33C39.3,27.522,39.478,27.651,39.478,27.71Z" transform="translate(5.315 4.788)" fill="#06d6a0" stroke="#06d6a0" stroke-miterlimit="10" stroke-width="1"/>
    </g>
  </g>
</svg>
