<svg xmlns="http://www.w3.org/2000/svg" width="58.694" height="55.5" viewBox="0 0 58.694 55.5">
  <g id="Group_3613" data-name="Group 3613" transform="translate(-142.306 -2592)">
    <circle id="Ellipse_151" data-name="Ellipse 151" cx="21" cy="21" r="21" transform="translate(159 2592)" fill="#06d6a0" opacity="0.14"/>
    <g id="Artboard_2" data-name="Artboard 2" transform="translate(142.306 2597)">
      <g id="Path_3301" data-name="Path 3301" transform="translate(30.551 0)">
        <path id="Path_3267" data-name="Path 3267" d="M30.38,5.376a16.178,16.178,0,0,1,2.389-.46,21.641,21.641,0,0,1,2.364-.2,34.845,34.845,0,0,1,4.729.112h0A1.244,1.244,0,0,1,40.97,6.073a35.093,35.093,0,0,1-.411,4.094,21.392,21.392,0,0,1-1.045,4.082,21.342,21.342,0,0,1-.834-4.131A35.218,35.218,0,0,1,38.494,6l1.145,1.244a33.177,33.177,0,0,1-4.667-.572c-.772-.137-1.543-.336-2.315-.535A18.667,18.667,0,0,1,30.38,5.376Z" transform="translate(-30.38 -4.683)" fill="#27244f"/>
      </g>
      <g id="Line_242" data-name="Line 242" transform="translate(0 3.12)">
        <path id="Path_3268" data-name="Path 3268" d="M5.83,37.641c2.862-2.937,5.861-5.687,8.923-8.363S20.975,24,24.111,21.451s6.4-4.978,9.694-7.4,6.633-4.729,10.13-6.857c-2.85,2.937-5.849,5.687-8.91,8.375s-6.222,5.264-9.358,7.827-6.409,4.978-9.707,7.392S9.327,35.575,5.83,37.641Z" transform="translate(-5.83 -7.19)" fill="#27244f"/>
      </g>
      <rect id="Rectangle_2082" data-name="Rectangle 2082" width="7.118" height="11.859" rx="1" transform="translate(0 35.513)" fill="#06d6a0"/>
      <rect id="Rectangle_2083" data-name="Rectangle 2083" width="7.118" height="19.189" rx="1" transform="translate(12.208 28.183)" fill="#06d6a0"/>
      <rect id="Rectangle_2084" data-name="Rectangle 2084" width="7.118" height="26.345" rx="1" transform="translate(24.403 21.028)" fill="#06d6a0"/>
      <rect id="Rectangle_2085" data-name="Rectangle 2085" width="7.118" height="34.296" rx="1" transform="translate(36.051 13.088)" fill="#06d6a0"/>
    </g>
    <line id="Line_234" data-name="Line 234" x2="43.154" transform="translate(142.47 2646.5)" fill="none" stroke="#27244f" stroke-width="2"/>
  </g>
</svg>
