<svg xmlns="http://www.w3.org/2000/svg" width="1885.546" height="47.537" viewBox="0 0 1885.546 47.537">
  <g id="Group_3391" data-name="Group 3391" transform="translate(0)" opacity="0.5">
    <g id="Group_3342" data-name="Group 3342" transform="translate(0)" opacity="0.12">
      <g id="Group_3067" data-name="Group 3067">
        <path id="Path_2997" data-name="Path 2997" d="M193.451,35.353c-1.718,2.158-3,3.769-4.424,5.554,1.164,1.475,2.31,2.927,3.556,4.51,1.765-.611,3.491-1.207,5.811-2.008-1.175,2.569-3.367,2.722-5.05,3.979L195.3,54.8c.853.344,1.825.738,3.52,1.426-1.733.46-2.858.761-3.991,1.062-.847,2.435-1.695,4.873-2.76,7.943.851.526,2.031,1.26,3.212,2-.193.261-.384.52-.576.783-.6-.188-1.21-.353-1.8-.57-.546-.2-1.073-.454-1.944-.83-.862,1.041-1.726,2.083-2.629,3.17l2.236,3.789c-1.915.116-2.453-1.585-3.94-2.137A19.8,19.8,0,0,1,175.66,75.1c-11.48.781-18.168-7.338-18.523-16.545-.324-8.414,4.271-15.116,11.658-17.523A13.722,13.722,0,0,1,186.565,55.9a20.427,20.427,0,0,1-1.041,4.463c-2.927,7.648-9.9,8.607-15.781,6.374a7.488,7.488,0,0,1-4.73-6.973,12.752,12.752,0,0,1,2.67-8.648,7.133,7.133,0,0,1,11.146-.229,5.429,5.429,0,0,1,.261,6.572,4.877,4.877,0,0,1-5.646,1.822c-1.246-.442-1.246-.442-1.536-2.947.61.246,1.082.408,1.53.619,1.967.938,3.06.755,3.961-.68a3.688,3.688,0,0,0-.914-4.755c-2.359-1.695-6.092-1.148-7.4,1.519a17.268,17.268,0,0,0-1.672,6.757c-.118,2.869,2.349,5.255,5.237,5.828,7.55,1.5,13.349-4.842,11.769-12.969-.9-4.631-3.547-8.281-8.039-9.557-5.157-1.463-9.8.252-13.366,4.437-3.95,4.637-4.442,11-2.027,16.635,4.252,9.924,13.513,10.32,20.129,8.059,5.666-1.938,8.683-6.7,10.633-12.134,3.756-10.456-4.032-20.424-13.094-22.706-4.115-1.036-8.284-1.689-12.556-.141-8.318,3.011-15.5,13.964-14.4,22.738.6,4.778,3.406,8.475,6.915,11.633.829.747,1.733,1.409,2.956,2.4-2.985.058-2.985.058-9.212-5.678-1.964.237-3.236,2.829-6.411,1.657,2.113-1.105,3.693-1.929,5.287-2.762a54.031,54.031,0,0,1-1.848-6.782,51.1,51.1,0,0,1-.068-6.994c-.883-.266-2.2-.665-4.036-1.215,1.914-1.877,3.445-.1,4.884-.769,1.618-3.071,3.3-6.259,5.062-9.606l-4.84-4.018c3.013-.694,3.7,2.493,6.651,2.881,1.353-.989,3.122-2.285,4.958-3.627l-3.515-6.566c3.377.969,2.967,4.038,4.822,5.134l7.273-2.183c-.189-1.86-.372-3.654-.594-5.861,2.5,1.727,1.7,4.148,2.443,6.248,2.646.509,5.4,1.038,8.471,1.629.546-2.034,1.07-3.993,1.671-6.233.842,1.856.842,1.856-.181,7.011l4.975,3.095C189.345,38.257,190.488,36.074,193.451,35.353Z" transform="translate(-145.272 -27.619)" fill="rgba(13,10,58,0.5)" fill-rule="evenodd"/>
        <path id="Path_2998" data-name="Path 2998" d="M379.282,35.353c-1.718,2.158-3,3.769-4.424,5.554,1.164,1.475,2.31,2.927,3.556,4.51,1.765-.611,3.491-1.207,5.811-2.008-1.175,2.569-3.366,2.722-5.05,3.979l1.953,7.414c.853.344,1.825.738,3.52,1.426-1.733.46-2.858.761-3.991,1.062-.847,2.435-1.695,4.873-2.76,7.943.851.526,2.031,1.26,3.212,2-.193.261-.384.52-.576.783-.6-.188-1.211-.353-1.8-.57-.547-.2-1.073-.454-1.944-.83-.862,1.041-1.726,2.083-2.629,3.17.755,1.278,1.4,2.378,2.236,3.789-1.915.116-2.453-1.585-3.94-2.137a19.8,19.8,0,0,1-10.966,3.67c-11.48.781-18.168-7.338-18.523-16.545-.324-8.414,4.271-15.116,11.658-17.523A13.722,13.722,0,0,1,372.4,55.9a20.385,20.385,0,0,1-1.041,4.463c-2.927,7.648-9.9,8.607-15.781,6.374a7.488,7.488,0,0,1-4.731-6.973,12.752,12.752,0,0,1,2.67-8.648,7.133,7.133,0,0,1,11.146-.229,5.43,5.43,0,0,1,.26,6.572,4.877,4.877,0,0,1-5.646,1.822c-1.247-.442-1.247-.442-1.536-2.947.61.246,1.082.408,1.53.619,1.967.938,3.06.755,3.961-.68a3.688,3.688,0,0,0-.914-4.755c-2.359-1.695-6.092-1.148-7.4,1.519a17.268,17.268,0,0,0-1.672,6.757c-.118,2.869,2.348,5.255,5.237,5.828,7.55,1.5,13.349-4.842,11.769-12.969-.9-4.631-3.547-8.281-8.039-9.557-5.157-1.463-9.8.252-13.366,4.437-3.95,4.637-4.442,11-2.027,16.635,4.252,9.924,13.513,10.32,20.129,8.059,5.666-1.938,8.683-6.7,10.633-12.134,3.755-10.456-4.032-20.424-13.094-22.706-4.115-1.036-8.284-1.689-12.556-.141-8.318,3.011-15.5,13.964-14.4,22.738.6,4.778,3.406,8.475,6.915,11.633.829.747,1.733,1.409,2.956,2.4-2.985.058-2.985.058-9.212-5.678-1.964.237-3.236,2.829-6.411,1.657,2.113-1.105,3.693-1.929,5.287-2.762a54.028,54.028,0,0,1-1.848-6.782,51.1,51.1,0,0,1-.068-6.994c-.883-.266-2.2-.665-4.036-1.215,1.914-1.877,3.445-.1,4.884-.769,1.618-3.071,3.3-6.259,5.062-9.606l-4.84-4.018c3.014-.694,3.7,2.493,6.651,2.881,1.353-.989,3.123-2.285,4.959-3.627-1.145-2.138-2.148-4.012-3.515-6.566,3.377.969,2.967,4.038,4.822,5.134L356.4,33.48c-.189-1.86-.372-3.654-.594-5.861,2.5,1.727,1.7,4.148,2.443,6.248,2.646.509,5.4,1.038,8.471,1.629.547-2.034,1.07-3.993,1.671-6.233.842,1.856.842,1.856-.18,7.011,1.6,1,3.272,2.036,4.975,3.095C375.176,38.257,376.319,36.074,379.282,35.353Z" transform="translate(-209.772 -27.619)" fill="rgba(13,10,58,0.5)" fill-rule="evenodd"/>
        <path id="Path_2999" data-name="Path 2999" d="M565.114,35.353c-1.718,2.158-3,3.769-4.425,5.554,1.164,1.475,2.31,2.927,3.556,4.51l5.812-2.008c-1.175,2.569-3.366,2.722-5.05,3.979l1.953,7.414c.853.344,1.825.738,3.519,1.426l-3.99,1.062c-.847,2.435-1.695,4.873-2.761,7.943.851.526,2.031,1.26,3.212,2-.193.261-.383.52-.575.783-.6-.188-1.211-.353-1.8-.57-.547-.2-1.074-.454-1.944-.83-.861,1.041-1.726,2.083-2.629,3.17l2.236,3.789c-1.915.116-2.452-1.585-3.94-2.137a19.8,19.8,0,0,1-10.965,3.67c-11.48.781-18.168-7.338-18.524-16.545-.325-8.414,4.271-15.116,11.658-17.523A13.722,13.722,0,0,1,558.227,55.9a20.389,20.389,0,0,1-1.041,4.463c-2.927,7.648-9.9,8.607-15.781,6.374a7.489,7.489,0,0,1-4.73-6.973,12.756,12.756,0,0,1,2.67-8.648,7.133,7.133,0,0,1,11.146-.229,5.432,5.432,0,0,1,.26,6.572,4.879,4.879,0,0,1-5.647,1.822c-1.246-.442-1.246-.442-1.535-2.947.61.246,1.081.408,1.53.619,1.966.938,3.06.755,3.961-.68a3.687,3.687,0,0,0-.915-4.755c-2.358-1.695-6.091-1.148-7.4,1.519a17.254,17.254,0,0,0-1.672,6.757c-.119,2.869,2.349,5.255,5.236,5.828,7.55,1.5,13.349-4.842,11.77-12.969-.9-4.631-3.548-8.281-8.041-9.557-5.157-1.463-9.8.252-13.365,4.437-3.951,4.637-4.442,11-2.028,16.635,4.252,9.924,13.513,10.32,20.128,8.059,5.667-1.938,8.684-6.7,10.633-12.134,3.756-10.456-4.032-20.424-13.093-22.706-4.115-1.036-8.284-1.689-12.556-.141-8.318,3.011-15.5,13.964-14.4,22.738.6,4.778,3.4,8.475,6.914,11.633.83.747,1.733,1.409,2.956,2.4-2.984.058-2.984.058-9.212-5.678-1.963.237-3.236,2.829-6.412,1.657,2.113-1.105,3.693-1.929,5.288-2.762a53.92,53.92,0,0,1-1.847-6.782,50.993,50.993,0,0,1-.068-6.994c-.883-.266-2.2-.665-4.036-1.215,1.914-1.877,3.445-.1,4.885-.769,1.617-3.071,3.3-6.259,5.061-9.606-1.533-1.273-3.186-2.644-4.839-4.018,3.013-.694,3.7,2.493,6.65,2.881l4.958-3.627-3.515-6.566c3.377.969,2.967,4.038,4.822,5.134l7.273-2.183c-.19-1.86-.373-3.654-.594-5.861,2.5,1.727,1.7,4.148,2.442,6.248l8.471,1.629c.546-2.034,1.07-3.993,1.672-6.233.842,1.856.842,1.856-.181,7.011,1.6,1,3.272,2.036,4.975,3.095C561.007,38.257,562.15,36.074,565.114,35.353Z" transform="translate(-274.273 -27.619)" fill="rgba(13,10,58,0.5)" fill-rule="evenodd"/>
        <path id="Path_3000" data-name="Path 3000" d="M750.945,35.353c-1.718,2.158-3,3.769-4.425,5.554,1.164,1.475,2.31,2.927,3.556,4.51l5.812-2.008c-1.175,2.569-3.366,2.722-5.05,3.979.616,2.34,1.263,4.8,1.952,7.414.853.344,1.825.738,3.519,1.426l-3.99,1.062c-.847,2.435-1.7,4.873-2.761,7.943.85.526,2.031,1.26,3.212,2-.192.261-.383.52-.575.783-.6-.188-1.211-.353-1.8-.57-.547-.2-1.074-.454-1.944-.83-.861,1.041-1.726,2.083-2.629,3.17l2.236,3.789c-1.915.116-2.452-1.585-3.94-2.137a19.8,19.8,0,0,1-10.965,3.67c-11.48.781-18.169-7.338-18.524-16.545-.324-8.414,4.271-15.116,11.658-17.523A13.722,13.722,0,0,1,744.058,55.9a20.389,20.389,0,0,1-1.041,4.463c-2.926,7.648-9.9,8.607-15.781,6.374A7.488,7.488,0,0,1,722.5,59.76a12.749,12.749,0,0,1,2.67-8.648,7.132,7.132,0,0,1,11.145-.229,5.429,5.429,0,0,1,.26,6.572,4.877,4.877,0,0,1-5.646,1.822c-1.247-.442-1.247-.442-1.536-2.947.61.246,1.082.408,1.529.619,1.968.938,3.061.755,3.962-.68a3.688,3.688,0,0,0-.914-4.755c-2.359-1.695-6.092-1.148-7.4,1.519a17.288,17.288,0,0,0-1.672,6.757c-.119,2.869,2.349,5.255,5.237,5.828,7.55,1.5,13.349-4.842,11.77-12.969-.9-4.631-3.549-8.281-8.04-9.557-5.157-1.463-9.8.252-13.366,4.437-3.95,4.637-4.442,11-2.028,16.635,4.252,9.924,13.514,10.32,20.129,8.059,5.667-1.938,8.683-6.7,10.632-12.134,3.756-10.456-4.032-20.424-13.093-22.706-4.115-1.036-8.284-1.689-12.557-.141-8.317,3.011-15.5,13.964-14.4,22.738.6,4.778,3.406,8.475,6.916,11.633.829.747,1.733,1.409,2.956,2.4-2.985.058-2.985.058-9.212-5.678-1.964.237-3.237,2.829-6.411,1.657,2.113-1.105,3.693-1.929,5.287-2.762a54.247,54.247,0,0,1-1.848-6.782,51.106,51.106,0,0,1-.068-6.994c-.882-.266-2.2-.665-4.036-1.215,1.914-1.877,3.445-.1,4.884-.769l5.062-9.606-4.84-4.018c3.013-.694,3.7,2.493,6.651,2.881,1.353-.989,3.123-2.285,4.959-3.627l-3.516-6.566c3.378.969,2.968,4.038,4.823,5.134l7.273-2.183c-.189-1.86-.371-3.654-.594-5.861,2.5,1.727,1.7,4.148,2.443,6.248,2.646.509,5.4,1.038,8.469,1.629.547-2.034,1.071-3.993,1.672-6.233.842,1.856.842,1.856-.18,7.011,1.6,1,3.272,2.036,4.975,3.095C746.839,38.257,747.982,36.074,750.945,35.353Z" transform="translate(-338.774 -27.619)" fill="rgba(13,10,58,0.5)" fill-rule="evenodd"/>
      </g>
      <g id="Group_3069" data-name="Group 3069" transform="translate(493.924)">
        <path id="Path_2997-2" data-name="Path 2997" d="M193.451,35.353c-1.718,2.158-3,3.769-4.424,5.554,1.164,1.475,2.31,2.927,3.556,4.51,1.765-.611,3.491-1.207,5.811-2.008-1.175,2.569-3.367,2.722-5.05,3.979L195.3,54.8c.853.344,1.825.738,3.52,1.426-1.733.46-2.858.761-3.991,1.062-.847,2.435-1.695,4.873-2.76,7.943.851.526,2.031,1.26,3.212,2-.193.261-.384.52-.576.783-.6-.188-1.21-.353-1.8-.57-.546-.2-1.073-.454-1.944-.83-.862,1.041-1.726,2.083-2.629,3.17l2.236,3.789c-1.915.116-2.453-1.585-3.94-2.137A19.8,19.8,0,0,1,175.66,75.1c-11.48.781-18.168-7.338-18.523-16.545-.324-8.414,4.271-15.116,11.658-17.523A13.722,13.722,0,0,1,186.565,55.9a20.427,20.427,0,0,1-1.041,4.463c-2.927,7.648-9.9,8.607-15.781,6.374a7.488,7.488,0,0,1-4.73-6.973,12.752,12.752,0,0,1,2.67-8.648,7.133,7.133,0,0,1,11.146-.229,5.429,5.429,0,0,1,.261,6.572,4.877,4.877,0,0,1-5.646,1.822c-1.246-.442-1.246-.442-1.536-2.947.61.246,1.082.408,1.53.619,1.967.938,3.06.755,3.961-.68a3.688,3.688,0,0,0-.914-4.755c-2.359-1.695-6.092-1.148-7.4,1.519a17.268,17.268,0,0,0-1.672,6.757c-.118,2.869,2.349,5.255,5.237,5.828,7.55,1.5,13.349-4.842,11.769-12.969-.9-4.631-3.547-8.281-8.039-9.557-5.157-1.463-9.8.252-13.366,4.437-3.95,4.637-4.442,11-2.027,16.635,4.252,9.924,13.513,10.32,20.129,8.059,5.666-1.938,8.683-6.7,10.633-12.134,3.756-10.456-4.032-20.424-13.094-22.706-4.115-1.036-8.284-1.689-12.556-.141-8.318,3.011-15.5,13.964-14.4,22.738.6,4.778,3.406,8.475,6.915,11.633.829.747,1.733,1.409,2.956,2.4-2.985.058-2.985.058-9.212-5.678-1.964.237-3.236,2.829-6.411,1.657,2.113-1.105,3.693-1.929,5.287-2.762a54.031,54.031,0,0,1-1.848-6.782,51.1,51.1,0,0,1-.068-6.994c-.883-.266-2.2-.665-4.036-1.215,1.914-1.877,3.445-.1,4.884-.769,1.618-3.071,3.3-6.259,5.062-9.606l-4.84-4.018c3.013-.694,3.7,2.493,6.651,2.881,1.353-.989,3.122-2.285,4.958-3.627l-3.515-6.566c3.377.969,2.967,4.038,4.822,5.134l7.273-2.183c-.189-1.86-.372-3.654-.594-5.861,2.5,1.727,1.7,4.148,2.443,6.248,2.646.509,5.4,1.038,8.471,1.629.546-2.034,1.07-3.993,1.671-6.233.842,1.856.842,1.856-.181,7.011l4.975,3.095C189.345,38.257,190.488,36.074,193.451,35.353Z" transform="translate(-145.272 -27.619)" fill="rgba(13,10,58,0.5)" fill-rule="evenodd"/>
        <path id="Path_2998-2" data-name="Path 2998" d="M379.282,35.353c-1.718,2.158-3,3.769-4.424,5.554,1.164,1.475,2.31,2.927,3.556,4.51,1.765-.611,3.491-1.207,5.811-2.008-1.175,2.569-3.366,2.722-5.05,3.979l1.953,7.414c.853.344,1.825.738,3.52,1.426-1.733.46-2.858.761-3.991,1.062-.847,2.435-1.695,4.873-2.76,7.943.851.526,2.031,1.26,3.212,2-.193.261-.384.52-.576.783-.6-.188-1.211-.353-1.8-.57-.547-.2-1.073-.454-1.944-.83-.862,1.041-1.726,2.083-2.629,3.17.755,1.278,1.4,2.378,2.236,3.789-1.915.116-2.453-1.585-3.94-2.137a19.8,19.8,0,0,1-10.966,3.67c-11.48.781-18.168-7.338-18.523-16.545-.324-8.414,4.271-15.116,11.658-17.523A13.722,13.722,0,0,1,372.4,55.9a20.385,20.385,0,0,1-1.041,4.463c-2.927,7.648-9.9,8.607-15.781,6.374a7.488,7.488,0,0,1-4.731-6.973,12.752,12.752,0,0,1,2.67-8.648,7.133,7.133,0,0,1,11.146-.229,5.43,5.43,0,0,1,.26,6.572,4.877,4.877,0,0,1-5.646,1.822c-1.247-.442-1.247-.442-1.536-2.947.61.246,1.082.408,1.53.619,1.967.938,3.06.755,3.961-.68a3.688,3.688,0,0,0-.914-4.755c-2.359-1.695-6.092-1.148-7.4,1.519a17.268,17.268,0,0,0-1.672,6.757c-.118,2.869,2.348,5.255,5.237,5.828,7.55,1.5,13.349-4.842,11.769-12.969-.9-4.631-3.547-8.281-8.039-9.557-5.157-1.463-9.8.252-13.366,4.437-3.95,4.637-4.442,11-2.027,16.635,4.252,9.924,13.513,10.32,20.129,8.059,5.666-1.938,8.683-6.7,10.633-12.134,3.755-10.456-4.032-20.424-13.094-22.706-4.115-1.036-8.284-1.689-12.556-.141-8.318,3.011-15.5,13.964-14.4,22.738.6,4.778,3.406,8.475,6.915,11.633.829.747,1.733,1.409,2.956,2.4-2.985.058-2.985.058-9.212-5.678-1.964.237-3.236,2.829-6.411,1.657,2.113-1.105,3.693-1.929,5.287-2.762a54.028,54.028,0,0,1-1.848-6.782,51.1,51.1,0,0,1-.068-6.994c-.883-.266-2.2-.665-4.036-1.215,1.914-1.877,3.445-.1,4.884-.769,1.618-3.071,3.3-6.259,5.062-9.606l-4.84-4.018c3.014-.694,3.7,2.493,6.651,2.881,1.353-.989,3.123-2.285,4.959-3.627-1.145-2.138-2.148-4.012-3.515-6.566,3.377.969,2.967,4.038,4.822,5.134L356.4,33.48c-.189-1.86-.372-3.654-.594-5.861,2.5,1.727,1.7,4.148,2.443,6.248,2.646.509,5.4,1.038,8.471,1.629.547-2.034,1.07-3.993,1.671-6.233.842,1.856.842,1.856-.18,7.011,1.6,1,3.272,2.036,4.975,3.095C375.176,38.257,376.319,36.074,379.282,35.353Z" transform="translate(-209.772 -27.619)" fill="rgba(13,10,58,0.5)" fill-rule="evenodd"/>
        <path id="Path_2999-2" data-name="Path 2999" d="M565.114,35.353c-1.718,2.158-3,3.769-4.425,5.554,1.164,1.475,2.31,2.927,3.556,4.51l5.812-2.008c-1.175,2.569-3.366,2.722-5.05,3.979l1.953,7.414c.853.344,1.825.738,3.519,1.426l-3.99,1.062c-.847,2.435-1.695,4.873-2.761,7.943.851.526,2.031,1.26,3.212,2-.193.261-.383.52-.575.783-.6-.188-1.211-.353-1.8-.57-.547-.2-1.074-.454-1.944-.83-.861,1.041-1.726,2.083-2.629,3.17l2.236,3.789c-1.915.116-2.452-1.585-3.94-2.137a19.8,19.8,0,0,1-10.965,3.67c-11.48.781-18.168-7.338-18.524-16.545-.325-8.414,4.271-15.116,11.658-17.523A13.722,13.722,0,0,1,558.227,55.9a20.389,20.389,0,0,1-1.041,4.463c-2.927,7.648-9.9,8.607-15.781,6.374a7.489,7.489,0,0,1-4.73-6.973,12.756,12.756,0,0,1,2.67-8.648,7.133,7.133,0,0,1,11.146-.229,5.432,5.432,0,0,1,.26,6.572,4.879,4.879,0,0,1-5.647,1.822c-1.246-.442-1.246-.442-1.535-2.947.61.246,1.081.408,1.53.619,1.966.938,3.06.755,3.961-.68a3.687,3.687,0,0,0-.915-4.755c-2.358-1.695-6.091-1.148-7.4,1.519a17.254,17.254,0,0,0-1.672,6.757c-.119,2.869,2.349,5.255,5.236,5.828,7.55,1.5,13.349-4.842,11.77-12.969-.9-4.631-3.548-8.281-8.041-9.557-5.157-1.463-9.8.252-13.365,4.437-3.951,4.637-4.442,11-2.028,16.635,4.252,9.924,13.513,10.32,20.128,8.059,5.667-1.938,8.684-6.7,10.633-12.134,3.756-10.456-4.032-20.424-13.093-22.706-4.115-1.036-8.284-1.689-12.556-.141-8.318,3.011-15.5,13.964-14.4,22.738.6,4.778,3.4,8.475,6.914,11.633.83.747,1.733,1.409,2.956,2.4-2.984.058-2.984.058-9.212-5.678-1.963.237-3.236,2.829-6.412,1.657,2.113-1.105,3.693-1.929,5.288-2.762a53.92,53.92,0,0,1-1.847-6.782,50.993,50.993,0,0,1-.068-6.994c-.883-.266-2.2-.665-4.036-1.215,1.914-1.877,3.445-.1,4.885-.769,1.617-3.071,3.3-6.259,5.061-9.606-1.533-1.273-3.186-2.644-4.839-4.018,3.013-.694,3.7,2.493,6.65,2.881l4.958-3.627-3.515-6.566c3.377.969,2.967,4.038,4.822,5.134l7.273-2.183c-.19-1.86-.373-3.654-.594-5.861,2.5,1.727,1.7,4.148,2.442,6.248l8.471,1.629c.546-2.034,1.07-3.993,1.672-6.233.842,1.856.842,1.856-.181,7.011,1.6,1,3.272,2.036,4.975,3.095C561.007,38.257,562.15,36.074,565.114,35.353Z" transform="translate(-274.273 -27.619)" fill="rgba(13,10,58,0.5)" fill-rule="evenodd"/>
        <path id="Path_3000-2" data-name="Path 3000" d="M750.945,35.353c-1.718,2.158-3,3.769-4.425,5.554,1.164,1.475,2.31,2.927,3.556,4.51l5.812-2.008c-1.175,2.569-3.366,2.722-5.05,3.979.616,2.34,1.263,4.8,1.952,7.414.853.344,1.825.738,3.519,1.426l-3.99,1.062c-.847,2.435-1.7,4.873-2.761,7.943.85.526,2.031,1.26,3.212,2-.192.261-.383.52-.575.783-.6-.188-1.211-.353-1.8-.57-.547-.2-1.074-.454-1.944-.83-.861,1.041-1.726,2.083-2.629,3.17l2.236,3.789c-1.915.116-2.452-1.585-3.94-2.137a19.8,19.8,0,0,1-10.965,3.67c-11.48.781-18.169-7.338-18.524-16.545-.324-8.414,4.271-15.116,11.658-17.523A13.722,13.722,0,0,1,744.058,55.9a20.389,20.389,0,0,1-1.041,4.463c-2.926,7.648-9.9,8.607-15.781,6.374A7.488,7.488,0,0,1,722.5,59.76a12.749,12.749,0,0,1,2.67-8.648,7.132,7.132,0,0,1,11.145-.229,5.429,5.429,0,0,1,.26,6.572,4.877,4.877,0,0,1-5.646,1.822c-1.247-.442-1.247-.442-1.536-2.947.61.246,1.082.408,1.529.619,1.968.938,3.061.755,3.962-.68a3.688,3.688,0,0,0-.914-4.755c-2.359-1.695-6.092-1.148-7.4,1.519a17.288,17.288,0,0,0-1.672,6.757c-.119,2.869,2.349,5.255,5.237,5.828,7.55,1.5,13.349-4.842,11.77-12.969-.9-4.631-3.549-8.281-8.04-9.557-5.157-1.463-9.8.252-13.366,4.437-3.95,4.637-4.442,11-2.028,16.635,4.252,9.924,13.514,10.32,20.129,8.059,5.667-1.938,8.683-6.7,10.632-12.134,3.756-10.456-4.032-20.424-13.093-22.706-4.115-1.036-8.284-1.689-12.557-.141-8.317,3.011-15.5,13.964-14.4,22.738.6,4.778,3.406,8.475,6.916,11.633.829.747,1.733,1.409,2.956,2.4-2.985.058-2.985.058-9.212-5.678-1.964.237-3.237,2.829-6.411,1.657,2.113-1.105,3.693-1.929,5.287-2.762a54.247,54.247,0,0,1-1.848-6.782,51.106,51.106,0,0,1-.068-6.994c-.882-.266-2.2-.665-4.036-1.215,1.914-1.877,3.445-.1,4.884-.769l5.062-9.606-4.84-4.018c3.013-.694,3.7,2.493,6.651,2.881,1.353-.989,3.123-2.285,4.959-3.627l-3.516-6.566c3.378.969,2.968,4.038,4.823,5.134l7.273-2.183c-.189-1.86-.371-3.654-.594-5.861,2.5,1.727,1.7,4.148,2.443,6.248,2.646.509,5.4,1.038,8.469,1.629.547-2.034,1.071-3.993,1.672-6.233.842,1.856.842,1.856-.18,7.011,1.6,1,3.272,2.036,4.975,3.095C746.839,38.257,747.982,36.074,750.945,35.353Z" transform="translate(-338.774 -27.619)" fill="rgba(13,10,58,0.5)" fill-rule="evenodd"/>
      </g>
    </g>
    <g id="Group_3343" data-name="Group 3343" transform="translate(974.086)" opacity="0.12">
      <g id="Group_3067-2" data-name="Group 3067">
        <path id="Path_2997-3" data-name="Path 2997" d="M193.451,35.353c-1.718,2.158-3,3.769-4.424,5.554,1.164,1.475,2.31,2.927,3.556,4.51,1.765-.611,3.491-1.207,5.811-2.008-1.175,2.569-3.367,2.722-5.05,3.979L195.3,54.8c.853.344,1.825.738,3.52,1.426-1.733.46-2.858.761-3.991,1.062-.847,2.435-1.695,4.873-2.76,7.943.851.526,2.031,1.26,3.212,2-.193.261-.384.52-.576.783-.6-.188-1.21-.353-1.8-.57-.546-.2-1.073-.454-1.944-.83-.862,1.041-1.726,2.083-2.629,3.17l2.236,3.789c-1.915.116-2.453-1.585-3.94-2.137A19.8,19.8,0,0,1,175.66,75.1c-11.48.781-18.168-7.338-18.523-16.545-.324-8.414,4.271-15.116,11.658-17.523A13.722,13.722,0,0,1,186.565,55.9a20.427,20.427,0,0,1-1.041,4.463c-2.927,7.648-9.9,8.607-15.781,6.374a7.488,7.488,0,0,1-4.73-6.973,12.752,12.752,0,0,1,2.67-8.648,7.133,7.133,0,0,1,11.146-.229,5.429,5.429,0,0,1,.261,6.572,4.877,4.877,0,0,1-5.646,1.822c-1.246-.442-1.246-.442-1.536-2.947.61.246,1.082.408,1.53.619,1.967.938,3.06.755,3.961-.68a3.688,3.688,0,0,0-.914-4.755c-2.359-1.695-6.092-1.148-7.4,1.519a17.268,17.268,0,0,0-1.672,6.757c-.118,2.869,2.349,5.255,5.237,5.828,7.55,1.5,13.349-4.842,11.769-12.969-.9-4.631-3.547-8.281-8.039-9.557-5.157-1.463-9.8.252-13.366,4.437-3.95,4.637-4.442,11-2.027,16.635,4.252,9.924,13.513,10.32,20.129,8.059,5.666-1.938,8.683-6.7,10.633-12.134,3.756-10.456-4.032-20.424-13.094-22.706-4.115-1.036-8.284-1.689-12.556-.141-8.318,3.011-15.5,13.964-14.4,22.738.6,4.778,3.406,8.475,6.915,11.633.829.747,1.733,1.409,2.956,2.4-2.985.058-2.985.058-9.212-5.678-1.964.237-3.236,2.829-6.411,1.657,2.113-1.105,3.693-1.929,5.287-2.762a54.031,54.031,0,0,1-1.848-6.782,51.1,51.1,0,0,1-.068-6.994c-.883-.266-2.2-.665-4.036-1.215,1.914-1.877,3.445-.1,4.884-.769,1.618-3.071,3.3-6.259,5.062-9.606l-4.84-4.018c3.013-.694,3.7,2.493,6.651,2.881,1.353-.989,3.122-2.285,4.958-3.627l-3.515-6.566c3.377.969,2.967,4.038,4.822,5.134l7.273-2.183c-.189-1.86-.372-3.654-.594-5.861,2.5,1.727,1.7,4.148,2.443,6.248,2.646.509,5.4,1.038,8.471,1.629.546-2.034,1.07-3.993,1.671-6.233.842,1.856.842,1.856-.181,7.011l4.975,3.095C189.345,38.257,190.488,36.074,193.451,35.353Z" transform="translate(-145.272 -27.619)" fill="rgba(13,10,58,0.5)" fill-rule="evenodd"/>
        <path id="Path_2998-3" data-name="Path 2998" d="M379.282,35.353c-1.718,2.158-3,3.769-4.424,5.554,1.164,1.475,2.31,2.927,3.556,4.51,1.765-.611,3.491-1.207,5.811-2.008-1.175,2.569-3.366,2.722-5.05,3.979l1.953,7.414c.853.344,1.825.738,3.52,1.426-1.733.46-2.858.761-3.991,1.062-.847,2.435-1.695,4.873-2.76,7.943.851.526,2.031,1.26,3.212,2-.193.261-.384.52-.576.783-.6-.188-1.211-.353-1.8-.57-.547-.2-1.073-.454-1.944-.83-.862,1.041-1.726,2.083-2.629,3.17.755,1.278,1.4,2.378,2.236,3.789-1.915.116-2.453-1.585-3.94-2.137a19.8,19.8,0,0,1-10.966,3.67c-11.48.781-18.168-7.338-18.523-16.545-.324-8.414,4.271-15.116,11.658-17.523A13.722,13.722,0,0,1,372.4,55.9a20.385,20.385,0,0,1-1.041,4.463c-2.927,7.648-9.9,8.607-15.781,6.374a7.488,7.488,0,0,1-4.731-6.973,12.752,12.752,0,0,1,2.67-8.648,7.133,7.133,0,0,1,11.146-.229,5.43,5.43,0,0,1,.26,6.572,4.877,4.877,0,0,1-5.646,1.822c-1.247-.442-1.247-.442-1.536-2.947.61.246,1.082.408,1.53.619,1.967.938,3.06.755,3.961-.68a3.688,3.688,0,0,0-.914-4.755c-2.359-1.695-6.092-1.148-7.4,1.519a17.268,17.268,0,0,0-1.672,6.757c-.118,2.869,2.348,5.255,5.237,5.828,7.55,1.5,13.349-4.842,11.769-12.969-.9-4.631-3.547-8.281-8.039-9.557-5.157-1.463-9.8.252-13.366,4.437-3.95,4.637-4.442,11-2.027,16.635,4.252,9.924,13.513,10.32,20.129,8.059,5.666-1.938,8.683-6.7,10.633-12.134,3.755-10.456-4.032-20.424-13.094-22.706-4.115-1.036-8.284-1.689-12.556-.141-8.318,3.011-15.5,13.964-14.4,22.738.6,4.778,3.406,8.475,6.915,11.633.829.747,1.733,1.409,2.956,2.4-2.985.058-2.985.058-9.212-5.678-1.964.237-3.236,2.829-6.411,1.657,2.113-1.105,3.693-1.929,5.287-2.762a54.028,54.028,0,0,1-1.848-6.782,51.1,51.1,0,0,1-.068-6.994c-.883-.266-2.2-.665-4.036-1.215,1.914-1.877,3.445-.1,4.884-.769,1.618-3.071,3.3-6.259,5.062-9.606l-4.84-4.018c3.014-.694,3.7,2.493,6.651,2.881,1.353-.989,3.123-2.285,4.959-3.627-1.145-2.138-2.148-4.012-3.515-6.566,3.377.969,2.967,4.038,4.822,5.134L356.4,33.48c-.189-1.86-.372-3.654-.594-5.861,2.5,1.727,1.7,4.148,2.443,6.248,2.646.509,5.4,1.038,8.471,1.629.547-2.034,1.07-3.993,1.671-6.233.842,1.856.842,1.856-.18,7.011,1.6,1,3.272,2.036,4.975,3.095C375.176,38.257,376.319,36.074,379.282,35.353Z" transform="translate(-209.772 -27.619)" fill="rgba(13,10,58,0.5)" fill-rule="evenodd"/>
        <path id="Path_2999-3" data-name="Path 2999" d="M565.114,35.353c-1.718,2.158-3,3.769-4.425,5.554,1.164,1.475,2.31,2.927,3.556,4.51l5.812-2.008c-1.175,2.569-3.366,2.722-5.05,3.979l1.953,7.414c.853.344,1.825.738,3.519,1.426l-3.99,1.062c-.847,2.435-1.695,4.873-2.761,7.943.851.526,2.031,1.26,3.212,2-.193.261-.383.52-.575.783-.6-.188-1.211-.353-1.8-.57-.547-.2-1.074-.454-1.944-.83-.861,1.041-1.726,2.083-2.629,3.17l2.236,3.789c-1.915.116-2.452-1.585-3.94-2.137a19.8,19.8,0,0,1-10.965,3.67c-11.48.781-18.168-7.338-18.524-16.545-.325-8.414,4.271-15.116,11.658-17.523A13.722,13.722,0,0,1,558.227,55.9a20.389,20.389,0,0,1-1.041,4.463c-2.927,7.648-9.9,8.607-15.781,6.374a7.489,7.489,0,0,1-4.73-6.973,12.756,12.756,0,0,1,2.67-8.648,7.133,7.133,0,0,1,11.146-.229,5.432,5.432,0,0,1,.26,6.572,4.879,4.879,0,0,1-5.647,1.822c-1.246-.442-1.246-.442-1.535-2.947.61.246,1.081.408,1.53.619,1.966.938,3.06.755,3.961-.68a3.687,3.687,0,0,0-.915-4.755c-2.358-1.695-6.091-1.148-7.4,1.519a17.254,17.254,0,0,0-1.672,6.757c-.119,2.869,2.349,5.255,5.236,5.828,7.55,1.5,13.349-4.842,11.77-12.969-.9-4.631-3.548-8.281-8.041-9.557-5.157-1.463-9.8.252-13.365,4.437-3.951,4.637-4.442,11-2.028,16.635,4.252,9.924,13.513,10.32,20.128,8.059,5.667-1.938,8.684-6.7,10.633-12.134,3.756-10.456-4.032-20.424-13.093-22.706-4.115-1.036-8.284-1.689-12.556-.141-8.318,3.011-15.5,13.964-14.4,22.738.6,4.778,3.4,8.475,6.914,11.633.83.747,1.733,1.409,2.956,2.4-2.984.058-2.984.058-9.212-5.678-1.963.237-3.236,2.829-6.412,1.657,2.113-1.105,3.693-1.929,5.288-2.762a53.92,53.92,0,0,1-1.847-6.782,50.993,50.993,0,0,1-.068-6.994c-.883-.266-2.2-.665-4.036-1.215,1.914-1.877,3.445-.1,4.885-.769,1.617-3.071,3.3-6.259,5.061-9.606-1.533-1.273-3.186-2.644-4.839-4.018,3.013-.694,3.7,2.493,6.65,2.881l4.958-3.627-3.515-6.566c3.377.969,2.967,4.038,4.822,5.134l7.273-2.183c-.19-1.86-.373-3.654-.594-5.861,2.5,1.727,1.7,4.148,2.442,6.248l8.471,1.629c.546-2.034,1.07-3.993,1.672-6.233.842,1.856.842,1.856-.181,7.011,1.6,1,3.272,2.036,4.975,3.095C561.007,38.257,562.15,36.074,565.114,35.353Z" transform="translate(-274.273 -27.619)" fill="rgba(13,10,58,0.5)" fill-rule="evenodd"/>
        <path id="Path_3000-3" data-name="Path 3000" d="M750.945,35.353c-1.718,2.158-3,3.769-4.425,5.554,1.164,1.475,2.31,2.927,3.556,4.51l5.812-2.008c-1.175,2.569-3.366,2.722-5.05,3.979.616,2.34,1.263,4.8,1.952,7.414.853.344,1.825.738,3.519,1.426l-3.99,1.062c-.847,2.435-1.7,4.873-2.761,7.943.85.526,2.031,1.26,3.212,2-.192.261-.383.52-.575.783-.6-.188-1.211-.353-1.8-.57-.547-.2-1.074-.454-1.944-.83-.861,1.041-1.726,2.083-2.629,3.17l2.236,3.789c-1.915.116-2.452-1.585-3.94-2.137a19.8,19.8,0,0,1-10.965,3.67c-11.48.781-18.169-7.338-18.524-16.545-.324-8.414,4.271-15.116,11.658-17.523A13.722,13.722,0,0,1,744.058,55.9a20.389,20.389,0,0,1-1.041,4.463c-2.926,7.648-9.9,8.607-15.781,6.374A7.488,7.488,0,0,1,722.5,59.76a12.749,12.749,0,0,1,2.67-8.648,7.132,7.132,0,0,1,11.145-.229,5.429,5.429,0,0,1,.26,6.572,4.877,4.877,0,0,1-5.646,1.822c-1.247-.442-1.247-.442-1.536-2.947.61.246,1.082.408,1.529.619,1.968.938,3.061.755,3.962-.68a3.688,3.688,0,0,0-.914-4.755c-2.359-1.695-6.092-1.148-7.4,1.519a17.288,17.288,0,0,0-1.672,6.757c-.119,2.869,2.349,5.255,5.237,5.828,7.55,1.5,13.349-4.842,11.77-12.969-.9-4.631-3.549-8.281-8.04-9.557-5.157-1.463-9.8.252-13.366,4.437-3.95,4.637-4.442,11-2.028,16.635,4.252,9.924,13.514,10.32,20.129,8.059,5.667-1.938,8.683-6.7,10.632-12.134,3.756-10.456-4.032-20.424-13.093-22.706-4.115-1.036-8.284-1.689-12.557-.141-8.317,3.011-15.5,13.964-14.4,22.738.6,4.778,3.406,8.475,6.916,11.633.829.747,1.733,1.409,2.956,2.4-2.985.058-2.985.058-9.212-5.678-1.964.237-3.237,2.829-6.411,1.657,2.113-1.105,3.693-1.929,5.287-2.762a54.247,54.247,0,0,1-1.848-6.782,51.106,51.106,0,0,1-.068-6.994c-.882-.266-2.2-.665-4.036-1.215,1.914-1.877,3.445-.1,4.884-.769l5.062-9.606-4.84-4.018c3.013-.694,3.7,2.493,6.651,2.881,1.353-.989,3.123-2.285,4.959-3.627l-3.516-6.566c3.378.969,2.968,4.038,4.823,5.134l7.273-2.183c-.189-1.86-.371-3.654-.594-5.861,2.5,1.727,1.7,4.148,2.443,6.248,2.646.509,5.4,1.038,8.469,1.629.547-2.034,1.071-3.993,1.672-6.233.842,1.856.842,1.856-.18,7.011,1.6,1,3.272,2.036,4.975,3.095C746.839,38.257,747.982,36.074,750.945,35.353Z" transform="translate(-338.774 -27.619)" fill="rgba(13,10,58,0.5)" fill-rule="evenodd"/>
      </g>
      <g id="Group_3069-2" data-name="Group 3069" transform="translate(493.924)">
        <path id="Path_2997-4" data-name="Path 2997" d="M193.451,35.353c-1.718,2.158-3,3.769-4.424,5.554,1.164,1.475,2.31,2.927,3.556,4.51,1.765-.611,3.491-1.207,5.811-2.008-1.175,2.569-3.367,2.722-5.05,3.979L195.3,54.8c.853.344,1.825.738,3.52,1.426-1.733.46-2.858.761-3.991,1.062-.847,2.435-1.695,4.873-2.76,7.943.851.526,2.031,1.26,3.212,2-.193.261-.384.52-.576.783-.6-.188-1.21-.353-1.8-.57-.546-.2-1.073-.454-1.944-.83-.862,1.041-1.726,2.083-2.629,3.17l2.236,3.789c-1.915.116-2.453-1.585-3.94-2.137A19.8,19.8,0,0,1,175.66,75.1c-11.48.781-18.168-7.338-18.523-16.545-.324-8.414,4.271-15.116,11.658-17.523A13.722,13.722,0,0,1,186.565,55.9a20.427,20.427,0,0,1-1.041,4.463c-2.927,7.648-9.9,8.607-15.781,6.374a7.488,7.488,0,0,1-4.73-6.973,12.752,12.752,0,0,1,2.67-8.648,7.133,7.133,0,0,1,11.146-.229,5.429,5.429,0,0,1,.261,6.572,4.877,4.877,0,0,1-5.646,1.822c-1.246-.442-1.246-.442-1.536-2.947.61.246,1.082.408,1.53.619,1.967.938,3.06.755,3.961-.68a3.688,3.688,0,0,0-.914-4.755c-2.359-1.695-6.092-1.148-7.4,1.519a17.268,17.268,0,0,0-1.672,6.757c-.118,2.869,2.349,5.255,5.237,5.828,7.55,1.5,13.349-4.842,11.769-12.969-.9-4.631-3.547-8.281-8.039-9.557-5.157-1.463-9.8.252-13.366,4.437-3.95,4.637-4.442,11-2.027,16.635,4.252,9.924,13.513,10.32,20.129,8.059,5.666-1.938,8.683-6.7,10.633-12.134,3.756-10.456-4.032-20.424-13.094-22.706-4.115-1.036-8.284-1.689-12.556-.141-8.318,3.011-15.5,13.964-14.4,22.738.6,4.778,3.406,8.475,6.915,11.633.829.747,1.733,1.409,2.956,2.4-2.985.058-2.985.058-9.212-5.678-1.964.237-3.236,2.829-6.411,1.657,2.113-1.105,3.693-1.929,5.287-2.762a54.031,54.031,0,0,1-1.848-6.782,51.1,51.1,0,0,1-.068-6.994c-.883-.266-2.2-.665-4.036-1.215,1.914-1.877,3.445-.1,4.884-.769,1.618-3.071,3.3-6.259,5.062-9.606l-4.84-4.018c3.013-.694,3.7,2.493,6.651,2.881,1.353-.989,3.122-2.285,4.958-3.627l-3.515-6.566c3.377.969,2.967,4.038,4.822,5.134l7.273-2.183c-.189-1.86-.372-3.654-.594-5.861,2.5,1.727,1.7,4.148,2.443,6.248,2.646.509,5.4,1.038,8.471,1.629.546-2.034,1.07-3.993,1.671-6.233.842,1.856.842,1.856-.181,7.011l4.975,3.095C189.345,38.257,190.488,36.074,193.451,35.353Z" transform="translate(-145.272 -27.619)" fill="rgba(13,10,58,0.5)" fill-rule="evenodd"/>
        <path id="Path_2998-4" data-name="Path 2998" d="M379.282,35.353c-1.718,2.158-3,3.769-4.424,5.554,1.164,1.475,2.31,2.927,3.556,4.51,1.765-.611,3.491-1.207,5.811-2.008-1.175,2.569-3.366,2.722-5.05,3.979l1.953,7.414c.853.344,1.825.738,3.52,1.426-1.733.46-2.858.761-3.991,1.062-.847,2.435-1.695,4.873-2.76,7.943.851.526,2.031,1.26,3.212,2-.193.261-.384.52-.576.783-.6-.188-1.211-.353-1.8-.57-.547-.2-1.073-.454-1.944-.83-.862,1.041-1.726,2.083-2.629,3.17.755,1.278,1.4,2.378,2.236,3.789-1.915.116-2.453-1.585-3.94-2.137a19.8,19.8,0,0,1-10.966,3.67c-11.48.781-18.168-7.338-18.523-16.545-.324-8.414,4.271-15.116,11.658-17.523A13.722,13.722,0,0,1,372.4,55.9a20.385,20.385,0,0,1-1.041,4.463c-2.927,7.648-9.9,8.607-15.781,6.374a7.488,7.488,0,0,1-4.731-6.973,12.752,12.752,0,0,1,2.67-8.648,7.133,7.133,0,0,1,11.146-.229,5.43,5.43,0,0,1,.26,6.572,4.877,4.877,0,0,1-5.646,1.822c-1.247-.442-1.247-.442-1.536-2.947.61.246,1.082.408,1.53.619,1.967.938,3.06.755,3.961-.68a3.688,3.688,0,0,0-.914-4.755c-2.359-1.695-6.092-1.148-7.4,1.519a17.268,17.268,0,0,0-1.672,6.757c-.118,2.869,2.348,5.255,5.237,5.828,7.55,1.5,13.349-4.842,11.769-12.969-.9-4.631-3.547-8.281-8.039-9.557-5.157-1.463-9.8.252-13.366,4.437-3.95,4.637-4.442,11-2.027,16.635,4.252,9.924,13.513,10.32,20.129,8.059,5.666-1.938,8.683-6.7,10.633-12.134,3.755-10.456-4.032-20.424-13.094-22.706-4.115-1.036-8.284-1.689-12.556-.141-8.318,3.011-15.5,13.964-14.4,22.738.6,4.778,3.406,8.475,6.915,11.633.829.747,1.733,1.409,2.956,2.4-2.985.058-2.985.058-9.212-5.678-1.964.237-3.236,2.829-6.411,1.657,2.113-1.105,3.693-1.929,5.287-2.762a54.028,54.028,0,0,1-1.848-6.782,51.1,51.1,0,0,1-.068-6.994c-.883-.266-2.2-.665-4.036-1.215,1.914-1.877,3.445-.1,4.884-.769,1.618-3.071,3.3-6.259,5.062-9.606l-4.84-4.018c3.014-.694,3.7,2.493,6.651,2.881,1.353-.989,3.123-2.285,4.959-3.627-1.145-2.138-2.148-4.012-3.515-6.566,3.377.969,2.967,4.038,4.822,5.134L356.4,33.48c-.189-1.86-.372-3.654-.594-5.861,2.5,1.727,1.7,4.148,2.443,6.248,2.646.509,5.4,1.038,8.471,1.629.547-2.034,1.07-3.993,1.671-6.233.842,1.856.842,1.856-.18,7.011,1.6,1,3.272,2.036,4.975,3.095C375.176,38.257,376.319,36.074,379.282,35.353Z" transform="translate(-209.772 -27.619)" fill="rgba(13,10,58,0.5)" fill-rule="evenodd"/>
        <path id="Path_2999-4" data-name="Path 2999" d="M565.114,35.353c-1.718,2.158-3,3.769-4.425,5.554,1.164,1.475,2.31,2.927,3.556,4.51l5.812-2.008c-1.175,2.569-3.366,2.722-5.05,3.979l1.953,7.414c.853.344,1.825.738,3.519,1.426l-3.99,1.062c-.847,2.435-1.695,4.873-2.761,7.943.851.526,2.031,1.26,3.212,2-.193.261-.383.52-.575.783-.6-.188-1.211-.353-1.8-.57-.547-.2-1.074-.454-1.944-.83-.861,1.041-1.726,2.083-2.629,3.17l2.236,3.789c-1.915.116-2.452-1.585-3.94-2.137a19.8,19.8,0,0,1-10.965,3.67c-11.48.781-18.168-7.338-18.524-16.545-.325-8.414,4.271-15.116,11.658-17.523A13.722,13.722,0,0,1,558.227,55.9a20.389,20.389,0,0,1-1.041,4.463c-2.927,7.648-9.9,8.607-15.781,6.374a7.489,7.489,0,0,1-4.73-6.973,12.756,12.756,0,0,1,2.67-8.648,7.133,7.133,0,0,1,11.146-.229,5.432,5.432,0,0,1,.26,6.572,4.879,4.879,0,0,1-5.647,1.822c-1.246-.442-1.246-.442-1.535-2.947.61.246,1.081.408,1.53.619,1.966.938,3.06.755,3.961-.68a3.687,3.687,0,0,0-.915-4.755c-2.358-1.695-6.091-1.148-7.4,1.519a17.254,17.254,0,0,0-1.672,6.757c-.119,2.869,2.349,5.255,5.236,5.828,7.55,1.5,13.349-4.842,11.77-12.969-.9-4.631-3.548-8.281-8.041-9.557-5.157-1.463-9.8.252-13.365,4.437-3.951,4.637-4.442,11-2.028,16.635,4.252,9.924,13.513,10.32,20.128,8.059,5.667-1.938,8.684-6.7,10.633-12.134,3.756-10.456-4.032-20.424-13.093-22.706-4.115-1.036-8.284-1.689-12.556-.141-8.318,3.011-15.5,13.964-14.4,22.738.6,4.778,3.4,8.475,6.914,11.633.83.747,1.733,1.409,2.956,2.4-2.984.058-2.984.058-9.212-5.678-1.963.237-3.236,2.829-6.412,1.657,2.113-1.105,3.693-1.929,5.288-2.762a53.92,53.92,0,0,1-1.847-6.782,50.993,50.993,0,0,1-.068-6.994c-.883-.266-2.2-.665-4.036-1.215,1.914-1.877,3.445-.1,4.885-.769,1.617-3.071,3.3-6.259,5.061-9.606-1.533-1.273-3.186-2.644-4.839-4.018,3.013-.694,3.7,2.493,6.65,2.881l4.958-3.627-3.515-6.566c3.377.969,2.967,4.038,4.822,5.134l7.273-2.183c-.19-1.86-.373-3.654-.594-5.861,2.5,1.727,1.7,4.148,2.442,6.248l8.471,1.629c.546-2.034,1.07-3.993,1.672-6.233.842,1.856.842,1.856-.181,7.011,1.6,1,3.272,2.036,4.975,3.095C561.007,38.257,562.15,36.074,565.114,35.353Z" transform="translate(-274.273 -27.619)" fill="rgba(13,10,58,0.5)" fill-rule="evenodd"/>
        <path id="Path_3000-4" data-name="Path 3000" d="M750.945,35.353c-1.718,2.158-3,3.769-4.425,5.554,1.164,1.475,2.31,2.927,3.556,4.51l5.812-2.008c-1.175,2.569-3.366,2.722-5.05,3.979.616,2.34,1.263,4.8,1.952,7.414.853.344,1.825.738,3.519,1.426l-3.99,1.062c-.847,2.435-1.7,4.873-2.761,7.943.85.526,2.031,1.26,3.212,2-.192.261-.383.52-.575.783-.6-.188-1.211-.353-1.8-.57-.547-.2-1.074-.454-1.944-.83-.861,1.041-1.726,2.083-2.629,3.17l2.236,3.789c-1.915.116-2.452-1.585-3.94-2.137a19.8,19.8,0,0,1-10.965,3.67c-11.48.781-18.169-7.338-18.524-16.545-.324-8.414,4.271-15.116,11.658-17.523A13.722,13.722,0,0,1,744.058,55.9a20.389,20.389,0,0,1-1.041,4.463c-2.926,7.648-9.9,8.607-15.781,6.374A7.488,7.488,0,0,1,722.5,59.76a12.749,12.749,0,0,1,2.67-8.648,7.132,7.132,0,0,1,11.145-.229,5.429,5.429,0,0,1,.26,6.572,4.877,4.877,0,0,1-5.646,1.822c-1.247-.442-1.247-.442-1.536-2.947.61.246,1.082.408,1.529.619,1.968.938,3.061.755,3.962-.68a3.688,3.688,0,0,0-.914-4.755c-2.359-1.695-6.092-1.148-7.4,1.519a17.288,17.288,0,0,0-1.672,6.757c-.119,2.869,2.349,5.255,5.237,5.828,7.55,1.5,13.349-4.842,11.77-12.969-.9-4.631-3.549-8.281-8.04-9.557-5.157-1.463-9.8.252-13.366,4.437-3.95,4.637-4.442,11-2.028,16.635,4.252,9.924,13.514,10.32,20.129,8.059,5.667-1.938,8.683-6.7,10.632-12.134,3.756-10.456-4.032-20.424-13.093-22.706-4.115-1.036-8.284-1.689-12.557-.141-8.317,3.011-15.5,13.964-14.4,22.738.6,4.778,3.406,8.475,6.916,11.633.829.747,1.733,1.409,2.956,2.4-2.985.058-2.985.058-9.212-5.678-1.964.237-3.237,2.829-6.411,1.657,2.113-1.105,3.693-1.929,5.287-2.762a54.247,54.247,0,0,1-1.848-6.782,51.106,51.106,0,0,1-.068-6.994c-.882-.266-2.2-.665-4.036-1.215,1.914-1.877,3.445-.1,4.884-.769l5.062-9.606-4.84-4.018c3.013-.694,3.7,2.493,6.651,2.881,1.353-.989,3.123-2.285,4.959-3.627l-3.516-6.566c3.378.969,2.968,4.038,4.823,5.134l7.273-2.183c-.189-1.86-.371-3.654-.594-5.861,2.5,1.727,1.7,4.148,2.443,6.248,2.646.509,5.4,1.038,8.469,1.629.547-2.034,1.071-3.993,1.672-6.233.842,1.856.842,1.856-.18,7.011,1.6,1,3.272,2.036,4.975,3.095C746.839,38.257,747.982,36.074,750.945,35.353Z" transform="translate(-338.774 -27.619)" fill="rgba(13,10,58,0.5)" fill-rule="evenodd"/>
      </g>
    </g>
  </g>
</svg>
