<svg xmlns="http://www.w3.org/2000/svg" width="1920" height="696" viewBox="0 0 1920 696">
  <g id="Group_3948" data-name="Group 3948" transform="translate(0 -2148)">
    <rect id="Rectangle_1806" data-name="Rectangle 1806" width="1920" height="696" transform="translate(0 2148)" fill="#0d0a3a"/>
    <g id="Group_3602" data-name="Group 3602" transform="translate(-594.312 -387.811)" opacity="0.27">
      <g id="Group_3067" data-name="Group 3067" transform="translate(756.498 3139.191)">
        <path id="Path_2997" data-name="Path 2997" d="M214.578,38.745c-2.471,3.1-4.317,5.421-6.364,7.989,1.675,2.122,3.323,4.21,5.116,6.487,2.54-.879,5.022-1.736,8.359-2.888-1.69,3.695-4.844,3.916-7.265,5.724l2.809,10.665c1.227.495,2.625,1.061,5.063,2.051-2.493.662-4.111,1.1-5.74,1.527-1.218,3.5-2.438,7.01-3.971,11.426,1.224.756,2.921,1.813,4.621,2.87-.277.375-.552.749-.828,1.127-.865-.27-1.741-.507-2.59-.82-.786-.286-1.543-.653-2.8-1.194-1.24,1.5-2.483,3-3.782,4.56l3.217,5.451c-2.755.167-3.529-2.28-5.667-3.074-4.5,3.415-9.861,4.88-15.774,5.279-16.514,1.123-26.134-10.556-26.645-23.8-.466-12.1,6.143-21.745,16.77-25.206A19.739,19.739,0,0,1,204.671,68.3a29.384,29.384,0,0,1-1.5,6.42c-4.21,11-14.244,12.382-22.7,9.169-4.181-1.589-6.6-5.443-6.8-10.031a18.344,18.344,0,0,1,3.84-12.441,10.26,10.26,0,0,1,16.033-.33,7.809,7.809,0,0,1,.375,9.453,7.016,7.016,0,0,1-8.122,2.621c-1.793-.636-1.793-.636-2.209-4.24.878.354,1.556.587,2.2.89,2.829,1.349,4.4,1.086,5.7-.978a5.305,5.305,0,0,0-1.315-6.84c-3.393-2.438-8.763-1.652-10.65,2.185a24.839,24.839,0,0,0-2.405,9.72c-.17,4.127,3.378,7.56,7.533,8.383,10.86,2.151,19.2-6.965,16.93-18.656-1.291-6.662-5.1-11.912-11.564-13.748-7.419-2.1-14.1.363-19.227,6.383-5.682,6.67-6.389,15.824-2.916,23.929,6.116,14.276,19.439,14.845,28.955,11.593,8.15-2.789,12.491-9.641,15.295-17.455,5.4-15.041-5.8-29.379-18.836-32.663-5.919-1.49-11.917-2.43-18.062-.2-11.965,4.331-22.3,20.088-20.72,32.708.862,6.873,4.9,12.191,9.947,16.734,1.193,1.074,2.494,2.027,4.253,3.45-4.294.084-4.294.084-13.251-8.167-2.825.341-4.656,4.07-9.222,2.384,3.039-1.59,5.312-2.774,7.606-3.974-.929-3.283-2.182-6.465-2.658-9.756-.454-3.133-.1-6.387-.1-10.061-1.27-.383-3.172-.957-5.806-1.748,2.754-2.7,4.956-.146,7.026-1.106,2.327-4.418,4.745-9,7.282-13.818-2.205-1.831-4.583-3.8-6.962-5.78,4.334-1,5.325,3.587,9.567,4.144,1.946-1.423,4.491-3.287,7.132-5.217l-5.056-9.445c4.859,1.394,4.269,5.808,6.937,7.385,3.393-1.019,6.768-2.031,10.462-3.141-.272-2.676-.534-5.256-.855-8.43,3.6,2.484,2.443,5.967,3.514,8.987,3.807.733,7.773,1.493,12.185,2.343.786-2.926,1.539-5.743,2.4-8.967,1.211,2.67,1.211,2.67-.26,10.085,2.3,1.431,4.708,2.929,7.157,4.452C208.671,42.922,210.315,39.781,214.578,38.745Z" transform="translate(-145.272 -27.619)" fill="#f6f6ff" fill-rule="evenodd"/>
        <path id="Path_2998" data-name="Path 2998" d="M400.409,38.745c-2.471,3.1-4.317,5.421-6.364,7.989,1.675,2.122,3.323,4.21,5.116,6.487,2.54-.879,5.022-1.736,8.359-2.888-1.69,3.695-4.843,3.916-7.265,5.724l2.809,10.665c1.227.495,2.625,1.061,5.063,2.051-2.493.662-4.111,1.1-5.74,1.527-1.218,3.5-2.438,7.01-3.971,11.426,1.224.756,2.921,1.813,4.621,2.87-.277.375-.552.749-.828,1.127-.865-.27-1.741-.507-2.59-.82-.786-.286-1.543-.653-2.8-1.194-1.24,1.5-2.483,3-3.782,4.56,1.087,1.839,2.018,3.421,3.217,5.451-2.755.167-3.529-2.28-5.667-3.074-4.5,3.415-9.861,4.88-15.774,5.279-16.514,1.123-26.134-10.556-26.645-23.8-.466-12.1,6.143-21.745,16.77-25.206A19.739,19.739,0,0,1,390.5,68.3a29.33,29.33,0,0,1-1.5,6.42c-4.21,11-14.244,12.382-22.7,9.169-4.182-1.589-6.6-5.443-6.806-10.031a18.344,18.344,0,0,1,3.84-12.441,10.261,10.261,0,0,1,16.034-.33,7.811,7.811,0,0,1,.374,9.453,7.015,7.015,0,0,1-8.121,2.621c-1.794-.636-1.794-.636-2.21-4.24.878.354,1.556.587,2.2.89,2.829,1.349,4.4,1.086,5.7-.978A5.305,5.305,0,0,0,376,61.991c-3.393-2.438-8.763-1.652-10.65,2.185a24.839,24.839,0,0,0-2.405,9.72c-.17,4.127,3.378,7.56,7.533,8.383,10.86,2.151,19.2-6.965,16.93-18.656-1.291-6.662-5.1-11.912-11.564-13.748-7.419-2.1-14.1.363-19.227,6.383-5.682,6.67-6.389,15.824-2.916,23.929,6.116,14.276,19.439,14.845,28.955,11.593,8.15-2.789,12.491-9.641,15.295-17.455,5.4-15.041-5.8-29.379-18.836-32.663-5.919-1.49-11.917-2.43-18.062-.2-11.965,4.331-22.3,20.088-20.72,32.708.862,6.873,4.9,12.191,9.947,16.734,1.193,1.074,2.494,2.027,4.253,3.45-4.294.084-4.294.084-13.251-8.167-2.825.341-4.656,4.07-9.222,2.384,3.039-1.59,5.312-2.774,7.606-3.974-.929-3.283-2.182-6.465-2.658-9.756-.454-3.133-.1-6.387-.1-10.061-1.27-.383-3.172-.957-5.806-1.748,2.754-2.7,4.956-.146,7.026-1.106,2.327-4.418,4.745-9,7.282-13.818-2.205-1.831-4.583-3.8-6.962-5.78,4.335-1,5.325,3.587,9.567,4.144,1.946-1.423,4.492-3.287,7.133-5.217-1.647-3.075-3.09-5.771-5.057-9.445,4.859,1.394,4.269,5.808,6.937,7.385,3.393-1.019,6.768-2.031,10.462-3.141-.272-2.676-.534-5.256-.855-8.43,3.6,2.484,2.443,5.967,3.514,8.987,3.807.733,7.773,1.493,12.185,2.343.786-2.926,1.539-5.743,2.4-8.967,1.211,2.67,1.211,2.67-.259,10.085,2.3,1.431,4.707,2.929,7.156,4.452C394.5,42.922,396.146,39.781,400.409,38.745Z" transform="translate(-156.569 -27.619)" fill="#f6f6ff" fill-rule="evenodd"/>
        <path id="Path_2999" data-name="Path 2999" d="M586.241,38.745c-2.472,3.1-4.318,5.421-6.365,7.989,1.675,2.122,3.323,4.21,5.115,6.487,2.542-.879,5.023-1.736,8.36-2.888-1.69,3.695-4.843,3.916-7.265,5.724L588.9,66.722c1.227.495,2.625,1.061,5.062,2.051-2.492.662-4.111,1.1-5.74,1.527-1.218,3.5-2.438,7.01-3.972,11.426,1.224.756,2.922,1.813,4.621,2.87-.277.375-.551.749-.827,1.127-.866-.27-1.742-.507-2.59-.82-.787-.286-1.545-.653-2.8-1.194-1.239,1.5-2.483,3-3.781,4.56,1.086,1.839,2.017,3.421,3.216,5.451-2.755.167-3.528-2.28-5.667-3.074-4.5,3.415-9.862,4.88-15.773,5.279C544.133,97.05,534.512,85.371,534,72.127c-.467-12.1,6.143-21.745,16.77-25.206A19.739,19.739,0,0,1,576.333,68.3a29.325,29.325,0,0,1-1.5,6.42c-4.21,11-14.244,12.382-22.7,9.169-4.18-1.589-6.6-5.443-6.8-10.031a18.349,18.349,0,0,1,3.84-12.441,10.261,10.261,0,0,1,16.034-.33,7.814,7.814,0,0,1,.375,9.453,7.018,7.018,0,0,1-8.123,2.621c-1.792-.636-1.792-.636-2.208-4.24.877.354,1.555.587,2.2.89,2.829,1.349,4.4,1.086,5.7-.978a5.3,5.3,0,0,0-1.316-6.84c-3.392-2.438-8.762-1.652-10.649,2.185a24.82,24.82,0,0,0-2.4,9.72c-.171,4.127,3.378,7.56,7.532,8.383,10.86,2.151,19.2-6.965,16.931-18.656-1.292-6.662-5.1-11.912-11.566-13.748-7.418-2.1-14.1.363-19.226,6.383-5.683,6.67-6.39,15.824-2.917,23.929,6.116,14.276,19.439,14.845,28.954,11.593,8.152-2.789,12.491-9.641,15.295-17.455,5.4-15.041-5.8-29.379-18.835-32.663-5.919-1.49-11.917-2.43-18.062-.2-11.966,4.331-22.3,20.088-20.719,32.708.862,6.873,4.9,12.191,9.946,16.734,1.194,1.074,2.494,2.027,4.253,3.45-4.293.084-4.293.084-13.251-8.167-2.824.341-4.656,4.07-9.223,2.384,3.039-1.59,5.312-2.774,7.607-3.974-.929-3.283-2.182-6.465-2.657-9.756-.455-3.133-.1-6.387-.1-10.061-1.27-.383-3.172-.957-5.806-1.748,2.753-2.7,4.956-.146,7.027-1.106,2.326-4.418,4.744-9,7.281-13.818-2.205-1.831-4.583-3.8-6.961-5.78,4.334-1,5.324,3.587,9.566,4.144,1.947-1.423,4.492-3.287,7.132-5.217l-5.056-9.445c4.859,1.394,4.269,5.808,6.937,7.385,3.392-1.019,6.768-2.031,10.463-3.141-.273-2.676-.536-5.256-.855-8.43,3.594,2.484,2.441,5.967,3.513,8.987,3.807.733,7.772,1.493,12.185,2.343.785-2.926,1.539-5.743,2.405-8.967,1.211,2.67,1.211,2.67-.26,10.085,2.3,1.431,4.707,2.929,7.156,4.452C580.333,42.922,581.977,39.781,586.241,38.745Z" transform="translate(-167.867 -27.619)" fill="#f6f6ff" fill-rule="evenodd"/>
        <path id="Path_3000" data-name="Path 3000" d="M772.072,38.745c-2.472,3.1-4.318,5.421-6.365,7.989,1.675,2.122,3.323,4.21,5.115,6.487,2.542-.879,5.023-1.736,8.36-2.888-1.69,3.695-4.843,3.916-7.264,5.724.886,3.366,1.817,6.9,2.808,10.665,1.227.495,2.625,1.061,5.062,2.051-2.492.662-4.111,1.1-5.74,1.527-1.218,3.5-2.438,7.01-3.971,11.426,1.223.756,2.921,1.813,4.62,2.87-.276.375-.55.749-.827,1.127-.866-.27-1.742-.507-2.59-.82-.787-.286-1.545-.653-2.8-1.194-1.239,1.5-2.483,3-3.781,4.56,1.086,1.839,2.017,3.421,3.216,5.451-2.755.167-3.528-2.28-5.667-3.074-4.5,3.415-9.861,4.88-15.773,5.279-16.514,1.123-26.136-10.556-26.646-23.8-.466-12.1,6.143-21.745,16.771-25.206A19.739,19.739,0,0,1,762.164,68.3a29.329,29.329,0,0,1-1.5,6.42c-4.21,11-14.244,12.382-22.7,9.169-4.182-1.589-6.6-5.443-6.805-10.031A18.339,18.339,0,0,1,735,61.414a10.259,10.259,0,0,1,16.032-.33,7.81,7.81,0,0,1,.375,9.453,7.016,7.016,0,0,1-8.121,2.621c-1.794-.636-1.794-.636-2.209-4.24.877.354,1.556.587,2.2.89,2.831,1.349,4.4,1.086,5.7-.978a5.305,5.305,0,0,0-1.315-6.84c-3.393-2.438-8.763-1.652-10.651,2.185a24.869,24.869,0,0,0-2.4,9.72c-.171,4.127,3.379,7.56,7.533,8.383,10.86,2.151,19.2-6.965,16.931-18.656-1.292-6.662-5.1-11.912-11.565-13.748-7.419-2.1-14.1.363-19.227,6.383-5.682,6.67-6.389,15.824-2.917,23.929,6.117,14.276,19.44,14.845,28.956,11.593,8.151-2.789,12.49-9.641,15.294-17.455,5.4-15.041-5.8-29.379-18.835-32.663-5.919-1.49-11.917-2.43-18.063-.2-11.964,4.331-22.3,20.088-20.719,32.708.862,6.873,4.9,12.191,9.948,16.734,1.192,1.074,2.493,2.027,4.252,3.45-4.294.084-4.294.084-13.251-8.167-2.825.341-4.657,4.07-9.222,2.384,3.039-1.59,5.312-2.774,7.606-3.974-.928-3.283-2.181-6.465-2.658-9.756-.454-3.133-.1-6.387-.1-10.061-1.269-.383-3.172-.957-5.805-1.748,2.753-2.7,4.956-.146,7.025-1.106L717.073,48.1c-2.206-1.831-4.583-3.8-6.962-5.78,4.334-1,5.325,3.587,9.567,4.144,1.946-1.423,4.492-3.287,7.133-5.217-1.647-3.075-3.09-5.771-5.058-9.445,4.859,1.394,4.27,5.808,6.938,7.385l10.462-3.141c-.271-2.676-.534-5.256-.855-8.43,3.6,2.484,2.443,5.967,3.515,8.987,3.807.733,7.772,1.493,12.183,2.343.787-2.926,1.54-5.743,2.405-8.967,1.211,2.67,1.211,2.67-.259,10.085,2.3,1.431,4.707,2.929,7.156,4.452C766.165,42.922,767.809,39.781,772.072,38.745Z" transform="translate(-179.164 -27.619)" fill="#f6f6ff" fill-rule="evenodd"/>
      </g>
      <g id="Group_3069" data-name="Group 3069" transform="translate(1467.006 3139.191)">
        <path id="Path_2997-2" data-name="Path 2997" d="M214.578,38.745c-2.471,3.1-4.317,5.421-6.364,7.989,1.675,2.122,3.323,4.21,5.116,6.487,2.54-.879,5.022-1.736,8.359-2.888-1.69,3.695-4.844,3.916-7.265,5.724l2.809,10.665c1.227.495,2.625,1.061,5.063,2.051-2.493.662-4.111,1.1-5.74,1.527-1.218,3.5-2.438,7.01-3.971,11.426,1.224.756,2.921,1.813,4.621,2.87-.277.375-.552.749-.828,1.127-.865-.27-1.741-.507-2.59-.82-.786-.286-1.543-.653-2.8-1.194-1.24,1.5-2.483,3-3.782,4.56l3.217,5.451c-2.755.167-3.529-2.28-5.667-3.074-4.5,3.415-9.861,4.88-15.774,5.279-16.514,1.123-26.134-10.556-26.645-23.8-.466-12.1,6.143-21.745,16.77-25.206A19.739,19.739,0,0,1,204.671,68.3a29.384,29.384,0,0,1-1.5,6.42c-4.21,11-14.244,12.382-22.7,9.169-4.181-1.589-6.6-5.443-6.8-10.031a18.344,18.344,0,0,1,3.84-12.441,10.26,10.26,0,0,1,16.033-.33,7.809,7.809,0,0,1,.375,9.453,7.016,7.016,0,0,1-8.122,2.621c-1.793-.636-1.793-.636-2.209-4.24.878.354,1.556.587,2.2.89,2.829,1.349,4.4,1.086,5.7-.978a5.305,5.305,0,0,0-1.315-6.84c-3.393-2.438-8.763-1.652-10.65,2.185a24.839,24.839,0,0,0-2.405,9.72c-.17,4.127,3.378,7.56,7.533,8.383,10.86,2.151,19.2-6.965,16.93-18.656-1.291-6.662-5.1-11.912-11.564-13.748-7.419-2.1-14.1.363-19.227,6.383-5.682,6.67-6.389,15.824-2.916,23.929,6.116,14.276,19.439,14.845,28.955,11.593,8.15-2.789,12.491-9.641,15.295-17.455,5.4-15.041-5.8-29.379-18.836-32.663-5.919-1.49-11.917-2.43-18.062-.2-11.965,4.331-22.3,20.088-20.72,32.708.862,6.873,4.9,12.191,9.947,16.734,1.193,1.074,2.494,2.027,4.253,3.45-4.294.084-4.294.084-13.251-8.167-2.825.341-4.656,4.07-9.222,2.384,3.039-1.59,5.312-2.774,7.606-3.974-.929-3.283-2.182-6.465-2.658-9.756-.454-3.133-.1-6.387-.1-10.061-1.27-.383-3.172-.957-5.806-1.748,2.754-2.7,4.956-.146,7.026-1.106,2.327-4.418,4.745-9,7.282-13.818-2.205-1.831-4.583-3.8-6.962-5.78,4.334-1,5.325,3.587,9.567,4.144,1.946-1.423,4.491-3.287,7.132-5.217l-5.056-9.445c4.859,1.394,4.269,5.808,6.937,7.385,3.393-1.019,6.768-2.031,10.462-3.141-.272-2.676-.534-5.256-.855-8.43,3.6,2.484,2.443,5.967,3.514,8.987,3.807.733,7.773,1.493,12.185,2.343.786-2.926,1.539-5.743,2.4-8.967,1.211,2.67,1.211,2.67-.26,10.085,2.3,1.431,4.708,2.929,7.157,4.452C208.671,42.922,210.315,39.781,214.578,38.745Z" transform="translate(-145.272 -27.619)" fill="#f6f6ff" fill-rule="evenodd"/>
        <path id="Path_2998-2" data-name="Path 2998" d="M400.409,38.745c-2.471,3.1-4.317,5.421-6.364,7.989,1.675,2.122,3.323,4.21,5.116,6.487,2.54-.879,5.022-1.736,8.359-2.888-1.69,3.695-4.843,3.916-7.265,5.724l2.809,10.665c1.227.495,2.625,1.061,5.063,2.051-2.493.662-4.111,1.1-5.74,1.527-1.218,3.5-2.438,7.01-3.971,11.426,1.224.756,2.921,1.813,4.621,2.87-.277.375-.552.749-.828,1.127-.865-.27-1.741-.507-2.59-.82-.786-.286-1.543-.653-2.8-1.194-1.24,1.5-2.483,3-3.782,4.56,1.087,1.839,2.018,3.421,3.217,5.451-2.755.167-3.529-2.28-5.667-3.074-4.5,3.415-9.861,4.88-15.774,5.279-16.514,1.123-26.134-10.556-26.645-23.8-.466-12.1,6.143-21.745,16.77-25.206A19.739,19.739,0,0,1,390.5,68.3a29.33,29.33,0,0,1-1.5,6.42c-4.21,11-14.244,12.382-22.7,9.169-4.182-1.589-6.6-5.443-6.806-10.031a18.344,18.344,0,0,1,3.84-12.441,10.261,10.261,0,0,1,16.034-.33,7.811,7.811,0,0,1,.374,9.453,7.015,7.015,0,0,1-8.121,2.621c-1.794-.636-1.794-.636-2.21-4.24.878.354,1.556.587,2.2.89,2.829,1.349,4.4,1.086,5.7-.978A5.305,5.305,0,0,0,376,61.991c-3.393-2.438-8.763-1.652-10.65,2.185a24.839,24.839,0,0,0-2.405,9.72c-.17,4.127,3.378,7.56,7.533,8.383,10.86,2.151,19.2-6.965,16.93-18.656-1.291-6.662-5.1-11.912-11.564-13.748-7.419-2.1-14.1.363-19.227,6.383-5.682,6.67-6.389,15.824-2.916,23.929,6.116,14.276,19.439,14.845,28.955,11.593,8.15-2.789,12.491-9.641,15.295-17.455,5.4-15.041-5.8-29.379-18.836-32.663-5.919-1.49-11.917-2.43-18.062-.2-11.965,4.331-22.3,20.088-20.72,32.708.862,6.873,4.9,12.191,9.947,16.734,1.193,1.074,2.494,2.027,4.253,3.45-4.294.084-4.294.084-13.251-8.167-2.825.341-4.656,4.07-9.222,2.384,3.039-1.59,5.312-2.774,7.606-3.974-.929-3.283-2.182-6.465-2.658-9.756-.454-3.133-.1-6.387-.1-10.061-1.27-.383-3.172-.957-5.806-1.748,2.754-2.7,4.956-.146,7.026-1.106,2.327-4.418,4.745-9,7.282-13.818-2.205-1.831-4.583-3.8-6.962-5.78,4.335-1,5.325,3.587,9.567,4.144,1.946-1.423,4.492-3.287,7.133-5.217-1.647-3.075-3.09-5.771-5.057-9.445,4.859,1.394,4.269,5.808,6.937,7.385,3.393-1.019,6.768-2.031,10.462-3.141-.272-2.676-.534-5.256-.855-8.43,3.6,2.484,2.443,5.967,3.514,8.987,3.807.733,7.773,1.493,12.185,2.343.786-2.926,1.539-5.743,2.4-8.967,1.211,2.67,1.211,2.67-.259,10.085,2.3,1.431,4.707,2.929,7.156,4.452C394.5,42.922,396.146,39.781,400.409,38.745Z" transform="translate(-156.569 -27.619)" fill="#f6f6ff" fill-rule="evenodd"/>
        <path id="Path_2999-2" data-name="Path 2999" d="M586.241,38.745c-2.472,3.1-4.318,5.421-6.365,7.989,1.675,2.122,3.323,4.21,5.115,6.487,2.542-.879,5.023-1.736,8.36-2.888-1.69,3.695-4.843,3.916-7.265,5.724L588.9,66.722c1.227.495,2.625,1.061,5.062,2.051-2.492.662-4.111,1.1-5.74,1.527-1.218,3.5-2.438,7.01-3.972,11.426,1.224.756,2.922,1.813,4.621,2.87-.277.375-.551.749-.827,1.127-.866-.27-1.742-.507-2.59-.82-.787-.286-1.545-.653-2.8-1.194-1.239,1.5-2.483,3-3.781,4.56,1.086,1.839,2.017,3.421,3.216,5.451-2.755.167-3.528-2.28-5.667-3.074-4.5,3.415-9.862,4.88-15.773,5.279C544.133,97.05,534.512,85.371,534,72.127c-.467-12.1,6.143-21.745,16.77-25.206A19.739,19.739,0,0,1,576.333,68.3a29.325,29.325,0,0,1-1.5,6.42c-4.21,11-14.244,12.382-22.7,9.169-4.18-1.589-6.6-5.443-6.8-10.031a18.349,18.349,0,0,1,3.84-12.441,10.261,10.261,0,0,1,16.034-.33,7.814,7.814,0,0,1,.375,9.453,7.018,7.018,0,0,1-8.123,2.621c-1.792-.636-1.792-.636-2.208-4.24.877.354,1.555.587,2.2.89,2.829,1.349,4.4,1.086,5.7-.978a5.3,5.3,0,0,0-1.316-6.84c-3.392-2.438-8.762-1.652-10.649,2.185a24.82,24.82,0,0,0-2.4,9.72c-.171,4.127,3.378,7.56,7.532,8.383,10.86,2.151,19.2-6.965,16.931-18.656-1.292-6.662-5.1-11.912-11.566-13.748-7.418-2.1-14.1.363-19.226,6.383-5.683,6.67-6.39,15.824-2.917,23.929,6.116,14.276,19.439,14.845,28.954,11.593,8.152-2.789,12.491-9.641,15.295-17.455,5.4-15.041-5.8-29.379-18.835-32.663-5.919-1.49-11.917-2.43-18.062-.2-11.966,4.331-22.3,20.088-20.719,32.708.862,6.873,4.9,12.191,9.946,16.734,1.194,1.074,2.494,2.027,4.253,3.45-4.293.084-4.293.084-13.251-8.167-2.824.341-4.656,4.07-9.223,2.384,3.039-1.59,5.312-2.774,7.607-3.974-.929-3.283-2.182-6.465-2.657-9.756-.455-3.133-.1-6.387-.1-10.061-1.27-.383-3.172-.957-5.806-1.748,2.753-2.7,4.956-.146,7.027-1.106,2.326-4.418,4.744-9,7.281-13.818-2.205-1.831-4.583-3.8-6.961-5.78,4.334-1,5.324,3.587,9.566,4.144,1.947-1.423,4.492-3.287,7.132-5.217l-5.056-9.445c4.859,1.394,4.269,5.808,6.937,7.385,3.392-1.019,6.768-2.031,10.463-3.141-.273-2.676-.536-5.256-.855-8.43,3.594,2.484,2.441,5.967,3.513,8.987,3.807.733,7.772,1.493,12.185,2.343.785-2.926,1.539-5.743,2.405-8.967,1.211,2.67,1.211,2.67-.26,10.085,2.3,1.431,4.707,2.929,7.156,4.452C580.333,42.922,581.977,39.781,586.241,38.745Z" transform="translate(-167.867 -27.619)" fill="#f6f6ff" fill-rule="evenodd"/>
        <path id="Path_3000-2" data-name="Path 3000" d="M772.072,38.745c-2.472,3.1-4.318,5.421-6.365,7.989,1.675,2.122,3.323,4.21,5.115,6.487,2.542-.879,5.023-1.736,8.36-2.888-1.69,3.695-4.843,3.916-7.264,5.724.886,3.366,1.817,6.9,2.808,10.665,1.227.495,2.625,1.061,5.062,2.051-2.492.662-4.111,1.1-5.74,1.527-1.218,3.5-2.438,7.01-3.971,11.426,1.223.756,2.921,1.813,4.62,2.87-.276.375-.55.749-.827,1.127-.866-.27-1.742-.507-2.59-.82-.787-.286-1.545-.653-2.8-1.194-1.239,1.5-2.483,3-3.781,4.56,1.086,1.839,2.017,3.421,3.216,5.451-2.755.167-3.528-2.28-5.667-3.074-4.5,3.415-9.861,4.88-15.773,5.279-16.514,1.123-26.136-10.556-26.646-23.8-.466-12.1,6.143-21.745,16.771-25.206A19.739,19.739,0,0,1,762.164,68.3a29.329,29.329,0,0,1-1.5,6.42c-4.21,11-14.244,12.382-22.7,9.169-4.182-1.589-6.6-5.443-6.805-10.031A18.339,18.339,0,0,1,735,61.414a10.259,10.259,0,0,1,16.032-.33,7.81,7.81,0,0,1,.375,9.453,7.016,7.016,0,0,1-8.121,2.621c-1.794-.636-1.794-.636-2.209-4.24.877.354,1.556.587,2.2.89,2.831,1.349,4.4,1.086,5.7-.978a5.305,5.305,0,0,0-1.315-6.84c-3.393-2.438-8.763-1.652-10.651,2.185a24.869,24.869,0,0,0-2.4,9.72c-.171,4.127,3.379,7.56,7.533,8.383,10.86,2.151,19.2-6.965,16.931-18.656-1.292-6.662-5.1-11.912-11.565-13.748-7.419-2.1-14.1.363-19.227,6.383-5.682,6.67-6.389,15.824-2.917,23.929,6.117,14.276,19.44,14.845,28.956,11.593,8.151-2.789,12.49-9.641,15.294-17.455,5.4-15.041-5.8-29.379-18.835-32.663-5.919-1.49-11.917-2.43-18.063-.2-11.964,4.331-22.3,20.088-20.719,32.708.862,6.873,4.9,12.191,9.948,16.734,1.192,1.074,2.493,2.027,4.252,3.45-4.294.084-4.294.084-13.251-8.167-2.825.341-4.657,4.07-9.222,2.384,3.039-1.59,5.312-2.774,7.606-3.974-.928-3.283-2.181-6.465-2.658-9.756-.454-3.133-.1-6.387-.1-10.061-1.269-.383-3.172-.957-5.805-1.748,2.753-2.7,4.956-.146,7.025-1.106L717.073,48.1c-2.206-1.831-4.583-3.8-6.962-5.78,4.334-1,5.325,3.587,9.567,4.144,1.946-1.423,4.492-3.287,7.133-5.217-1.647-3.075-3.09-5.771-5.058-9.445,4.859,1.394,4.27,5.808,6.938,7.385l10.462-3.141c-.271-2.676-.534-5.256-.855-8.43,3.6,2.484,2.443,5.967,3.515,8.987,3.807.733,7.772,1.493,12.183,2.343.787-2.926,1.54-5.743,2.405-8.967,1.211,2.67,1.211,2.67-.259,10.085,2.3,1.431,4.707,2.929,7.156,4.452C766.165,42.922,767.809,39.781,772.072,38.745Z" transform="translate(-179.164 -27.619)" fill="#f6f6ff" fill-rule="evenodd"/>
      </g>
    </g>
  </g>
</svg>
