<svg xmlns="http://www.w3.org/2000/svg" viewBox="0 0 200.37 184.27"><defs><style>.cls-1,.cls-2{fill:none;stroke-linecap:round;stroke-linejoin:round;}.cls-1,.cls-5{stroke:#fff;}.cls-1{stroke-width:4px;}.cls-2{stroke:#5f6060;stroke-width:0.5px;}.cls-3{fill:#efefef;}.cls-3,.cls-4,.cls-6,.cls-8{isolation:isolate;}.cls-4,.cls-6,.cls-7,.cls-9{fill:#070707;}.cls-4,.cls-8{opacity:0.23;}.cls-5{fill:#fe4759;stroke-miterlimit:10;stroke-width:3px;}.cls-6{opacity:0.11;}.cls-7{opacity:0.06;}</style></defs><g id="Layer_2" data-name="Layer 2"><g id="Layer_1-2" data-name="Layer 1"><path d="M20.47,169h3.88c2.65,0,4,1.16,4,3.42s-1.41,3.52-4,3.52H22.58v4.91H20.47Zm3.66,5c1.49,0,2.12-.46,2.12-1.53s-.61-1.49-2.12-1.49H22.58v3Z"/><path d="M36.47,175.51v5.29H34.6l-.17-1.09A2.94,2.94,0,0,1,31.88,181a2.78,2.78,0,0,1-3-2.74,2.19,2.19,0,0,1,1.25-2.11,5.47,5.47,0,0,1,2.23-.37h2.09v-.24A1.42,1.42,0,0,0,32.85,174a2.83,2.83,0,0,0-2.26,1.26l-1.48-1.24a4.65,4.65,0,0,1,3.77-1.8C35.09,172.25,36.47,173.49,36.47,175.51Zm-2,1.77H32.61a2.21,2.21,0,0,0-1.37.29.77.77,0,0,0-.34.69c0,.6.49,1,1.3,1A2.1,2.1,0,0,0,34.43,177.28Z"/><path d="M40.4,180.58l-3.28-8.16h2.24l2.13,5.81,2.14-5.81h2.24l-4.76,11.85H38.9Z"/><path d="M59.27,175.46v5.34h-2v-4.73c0-.66-.09-2-1.43-2-1.72,0-1.65,1.89-1.65,3.57v3.2h-2v-4.73c0-.66-.08-2-1.41-2C49,174,49,175.92,49,177.6v3.2H47v-8.38h2v1.05a2.65,2.65,0,0,1,4.69.43,2.8,2.8,0,0,1,2.7-1.65C58.37,172.25,59.27,173.78,59.27,175.46Z"/><path d="M68.53,177.28H62.79a1.87,1.87,0,0,0,2.09,1.84,2.48,2.48,0,0,0,2-.91l1.41,1.25A4.37,4.37,0,0,1,64.86,181c-2.89,0-4.11-2.08-4.11-4.32s1.19-4.4,4-4.4c2.6,0,3.85,1.92,3.85,4.25A5.27,5.27,0,0,1,68.53,177.28Zm-1.9-1.62A1.76,1.76,0,0,0,64.71,174a1.88,1.88,0,0,0-1.94,1.71Z"/><path d="M77.8,175.39v5.41h-2v-4.9c0-.58,0-1.87-1.55-1.87-1.9,0-1.9,1.92-1.9,3.42v3.35h-2v-8.38h2v1a3,3,0,0,1,2.53-1.14C76.73,172.25,77.8,173.4,77.8,175.39Z"/><path d="M82.37,174v4.27c0,.66.41,1,1.07,1a3.47,3.47,0,0,0,1-.19v1.63a4.82,4.82,0,0,1-1.53.26,2.35,2.35,0,0,1-2.6-2.52V174H79v-1.61h1.36V170.8l2-1.51v3.13h2.09V174Z"/><path d="M90.63,169H99v2H92.76v2.82h5.52v2H92.76v5.12H90.63Z"/><path d="M106.85,175.51v5.29H105l-.17-1.09a2.94,2.94,0,0,1-2.55,1.26,2.79,2.79,0,0,1-3-2.74,2.19,2.19,0,0,1,1.26-2.11,5.47,5.47,0,0,1,2.23-.37h2.09v-.24a1.42,1.42,0,0,0-1.58-1.48,2.83,2.83,0,0,0-2.26,1.26l-1.48-1.24a4.65,4.65,0,0,1,3.77-1.8C105.47,172.25,106.85,173.49,106.85,175.51Zm-2,1.77H103a2.24,2.24,0,0,0-1.38.29.8.8,0,0,0-.34.69c0,.6.5,1,1.31,1A2.1,2.1,0,0,0,104.81,177.28Z"/><path d="M108.94,169h2.14v1.89h-2.14Zm0,3.47h2v8.38h-2Z"/><path d="M113.33,178.79V169h2v9.71c0,.37.22.52.59.52a2.34,2.34,0,0,0,.65-.1v1.63a3.9,3.9,0,0,1-1.31.26C114.16,181,113.33,180.29,113.33,178.79Z"/><path d="M125.43,172.42v8.38h-2v-1a3,3,0,0,1-2.5,1.14c-2.11,0-3-1.53-3-3.32v-5.23h2v4.72c0,.58,0,2,1.55,2,1.9,0,1.9-2.09,1.9-3.58v-3.18Z"/><path d="M133.71,172.72l-1,1.81a1.75,1.75,0,0,0-1-.29c-1.24,0-1.85.76-1.85,2.34v4.22h-2v-8.38h2.06v1.43a2.34,2.34,0,0,1,2.24-1.6A2.85,2.85,0,0,1,133.71,172.72Z"/><path d="M141.41,177.28h-5.74a1.87,1.87,0,0,0,2.09,1.84,2.5,2.5,0,0,0,2-.91l1.41,1.25a4.37,4.37,0,0,1-3.43,1.51c-2.89,0-4.11-2.08-4.11-4.32s1.19-4.4,4-4.4c2.6,0,3.86,1.92,3.86,4.25A7.11,7.11,0,0,1,141.41,177.28Zm-1.9-1.62a1.76,1.76,0,0,0-1.92-1.71,1.88,1.88,0,0,0-1.94,1.71Z"/><line class="cls-1" x1="158.11" y1="16.92" x2="175.5" y2="34.32"/><line class="cls-1" x1="175.5" y1="16.84" x2="158.11" y2="34.24"/><path class="cls-2" d="M2.06,52.38.31,40.81A4.16,4.16,0,0,1,3.69,36l21.69-3.78"/><path class="cls-3" d="M170.73,34.81h0L159.5,112.5c-.22,1.57-2.31,2.55-4.66,2.21l-54.15-7.83-5.4-18.26a3.51,3.51,0,0,1,.81-3.39l11.37-12a3.5,3.5,0,0,0,.59-4l-7.62-15.19-.5-1a3.5,3.5,0,0,1,.27-3.57l4.91-7,3.75-5.32a3.5,3.5,0,0,0,.26-3.61l-5.86-11.42,63.61,9.2C169.24,31.71,171,33.26,170.73,34.81Z"/><polygon class="cls-4" points="168.29 51.66 166.56 63.63 100.44 54.07 99.01 51.2 105.12 42.52 168.29 51.66"/><circle id="Ellipse_216" data-name="Ellipse 216" class="cls-5" cx="170.55" cy="29.82" r="28.32"/><path class="cls-3" d="M77.08,92.15l10.61,15.72L18.28,119.3c-2.35.39-4.46-.56-4.73-2.12L.8,39.74c-.24-1.56,1.45-3.14,3.8-3.53l60-9.87,9,9A3.64,3.64,0,0,1,74.42,39l-1.93,6.13-2.56,8a3.65,3.65,0,0,0,.87,3.64l.71.73,11.77,12.1a3.64,3.64,0,0,1,.66,4.13L76.82,88.53A3.61,3.61,0,0,0,77.08,92.15Z"/><path class="cls-4" d="M70.83,56.9l.68.69-66,10.87L3.59,56.64c.2-.06.3-.12.29-.17l68.61-11.3-2.54,8A3.7,3.7,0,0,0,70.83,56.9Z"/><rect class="cls-6" x="14.37" y="72.46" width="55.8" height="3.63" rx="1.53" transform="translate(-11.51 7.86) rotate(-9.35)"/><rect class="cls-6" x="15.4" y="78.74" width="55.8" height="3.63" rx="1.53" transform="matrix(0.99, -0.16, 0.16, 0.99, -12.51, 8.11)"/><rect class="cls-6" x="16.44" y="85.01" width="55.8" height="3.63" rx="1.53" transform="matrix(0.99, -0.16, 0.16, 0.99, -13.52, 8.36)"/><rect class="cls-6" x="17.47" y="91.29" width="55.8" height="3.63" rx="1.53" transform="translate(-14.53 8.61) rotate(-9.35)"/><rect class="cls-6" x="18.5" y="97.56" width="55.8" height="3.63" rx="1.53" transform="translate(-15.53 8.86) rotate(-9.35)"/><ellipse class="cls-7" cx="88.29" cy="153.52" rx="86.09" ry="3.66"/><g class="cls-8"><path class="cls-9" d="M69.86,33.46q1.2.93,2.31,2a11.44,11.44,0,0,1,2,2.35,1.71,1.71,0,0,1,.21.78,5,5,0,0,1-.07.77A15.19,15.19,0,0,1,74,40.83c-.26,1-.57,2-.92,2.9.26-1,.51-2,.73-2.94.11-.5.22-1,.29-1.48a2,2,0,0,0-.14-1.41A12.18,12.18,0,0,0,72,35.58C71.33,34.85,70.6,34.15,69.86,33.46Z"/></g><g class="cls-8"><path class="cls-9" d="M106.3,65.26A27.59,27.59,0,0,1,107.66,68a11.8,11.8,0,0,1,.91,2.92,1.68,1.68,0,0,1-.11.8,5,5,0,0,1-.36.69c-.27.43-.56.85-.87,1.25-.62.81-1.28,1.58-2,2.32.62-.8,1.23-1.61,1.81-2.43.29-.42.58-.83.83-1.26a2,2,0,0,0,.42-1.34,12,12,0,0,0-.84-2.88C107.12,67.12,106.72,66.18,106.3,65.26Z"/></g><path class="cls-2" d="M162.05,95.21l-2.26,16.24a4.15,4.15,0,0,1-4.68,3.53l-21.81-3"/><line class="cls-1" x1="158.68" y1="19.56" x2="181.5" y2="42.39"/><line class="cls-1" x1="181.5" y1="19.46" x2="158.68" y2="42.29"/></g></g></svg>