<svg xmlns="http://www.w3.org/2000/svg" width="65.277" height="71.344" viewBox="0 0 65.277 71.344">
  <g id="Artboard_18" data-name="Artboard 18" transform="translate(-8.553 -9.122)">
    <rect id="Rectangle_2115" data-name="Rectangle 2115" width="39.995" height="57.85" rx="3.22" transform="translate(9.091 12.833) rotate(-4.55)" fill="#fff" stroke="#27244f" stroke-miterlimit="10" stroke-width="1"/>
    <rect id="Rectangle_2116" data-name="Rectangle 2116" width="42.719" height="57.85" rx="3.22" transform="translate(30.755 18.321) rotate(5.38)" fill="#fff" stroke="#27244f" stroke-miterlimit="10" stroke-width="1"/>
    <path id="Path_3408" data-name="Path 3408" d="M50.294,55.367a.987.987,0,0,1-.681.809,1.2,1.2,0,0,1-.454.049,1.066,1.066,0,0,1-.651-.286l-5.32-4.866-3.05-.286a.987.987,0,0,1-.987-1.046l.395-3.8a.987.987,0,0,1,1.135-.859l1.678.158a4.027,4.027,0,0,0,2.507-.572l4.994-3.089a1.145,1.145,0,0,1,1.125,0,.987.987,0,0,1,.523.918Z" transform="translate(-0.39 -0.412)" fill="#06d6a0"/>
    <path id="Path_3409" data-name="Path 3409" d="M54.645,54.286h-.079a1.105,1.105,0,0,1-.711-.345l-.128-.148a.9.9,0,0,1,0-1.254,5.182,5.182,0,0,0,.474-6.82.908.908,0,0,1,.2-1.273l.148-.109a1.115,1.115,0,0,1,1.55.217,7.146,7.146,0,0,1-.671,9.426,1.056,1.056,0,0,1-.78.306Z" transform="translate(-0.575 -0.447)" fill="#06d6a0"/>
    <path id="Path_3410" data-name="Path 3410" d="M58.745,57.614a1.115,1.115,0,0,1-.79.267h0a1.066,1.066,0,0,1-.711-.345l-.128-.138a.9.9,0,0,1,.059-1.293,9.545,9.545,0,0,0,1.017-13.325.9.9,0,0,1,.168-1.3l.148-.118a1.076,1.076,0,0,1,.8-.207,1.1,1.1,0,0,1,.721.395,11.519,11.519,0,0,1-1.283,16.069Z" transform="translate(-0.619 -0.408)" fill="#06d6a0"/>
  </g>
</svg>
