<svg xmlns="http://www.w3.org/2000/svg" width="265" height="96" viewBox="0 0 265 96">
  <g id="Group_4153" data-name="Group 4153" transform="translate(-284 -6296)">
    <rect id="Rectangle_1745" data-name="Rectangle 1745" width="265" height="96" rx="8" transform="translate(284 6296)" fill="#07060f"/>
    <g id="Group_3134" data-name="Group 3134" transform="translate(-1 2)">
      <text id="Google_Play" data-name="Google Play" transform="translate(385 6362)" fill="#fff" font-size="26" font-family="HKGrotesk-SemiBold, HK Grotesk" font-weight="600"><tspan x="0" y="0">Google Play</tspan></text>
      <text id="COMING_SOON_ON" data-name="COMING SOON ON" transform="translate(385 6331)" fill="#fff" font-size="14" font-family="HKGrotesk-Medium, HK Grotesk" font-weight="500"><tspan x="0" y="0">COMING SOON ON</tspan></text>
    </g>
    <g id="google-play" transform="translate(310.584 6317.003)">
      <path id="Path_3077" data-name="Path 3077" d="M27.606,23.657,1.9,48.765A5.887,5.887,0,0,1,.01,44.386V5A5.968,5.968,0,0,1,1.969.56Z" transform="translate(0 1.306)" fill="#2196f3"/>
      <path id="Path_3078" data-name="Path 3078" d="M30.536,15.45A6.3,6.3,0,0,1,27.182,21l-7.306,4.051-9.066-8.369L8.32,14.387l9.6-9.6L27.182,9.9A6.3,6.3,0,0,1,30.536,15.45Z" transform="translate(18.215 10.57)" fill="#ffc107"/>
      <path id="Path_3079" data-name="Path 3079" d="M26.237,25.51.6,1.866a6.611,6.611,0,0,1,1.2-.9A6.686,6.686,0,0,1,8.57.87L35.834,15.913l-9.6,9.6Z" transform="translate(1.369 0)" fill="#4caf50"/>
      <path id="Path_3080" data-name="Path 3080" d="M37.84,18.34,8.616,34.446a6.614,6.614,0,0,1-3.321.863,6.47,6.47,0,0,1-3.454-.963A6.044,6.044,0,0,1,.58,33.383l25.7-25.7,2.491,2.291L37.84,18.34Z" transform="translate(1.323 16.688)" fill="#f44336"/>
    </g>
  </g>
</svg>
