<svg xmlns="http://www.w3.org/2000/svg" xmlns:xlink="http://www.w3.org/1999/xlink" width="325" height="156" viewBox="0 0 325 156">
  <defs>
    <filter id="Rectangle_1745" x="0" y="0" width="325" height="156" filterUnits="userSpaceOnUse">
      <feOffset dy="10" input="SourceAlpha"/>
      <feGaussianBlur stdDeviation="10" result="blur"/>
      <feFlood flood-color="#0d0a3a" flood-opacity="0.278"/>
      <feComposite operator="in" in2="blur"/>
      <feComposite in="SourceGraphic"/>
    </filter>
  </defs>
  <g id="Google_play" data-name="Google play" transform="translate(-254 -6276)">
    <g transform="matrix(1, 0, 0, 1, 254, 6276)" filter="url(#Rectangle_1745)">
      <rect id="Rectangle_1745-2" data-name="Rectangle 1745" width="265" height="96" rx="8" transform="translate(30 20)" fill="#07060f"/>
    </g>
    <g id="Group_3134" data-name="Group 3134" transform="translate(-1 2)">
      <path id="Path_3525" data-name="Path 3525" d="M10.042-19.132a9.58,9.58,0,0,1,4.545,1.016A6.626,6.626,0,0,1,17.989-13h-2.5A4.542,4.542,0,0,0,13.6-15.977a6.511,6.511,0,0,0-3.618-.933,5.67,5.67,0,0,0-4.361,1.942Q3.847-13.025,3.847-9.179a9.25,9.25,0,0,0,1.46,5.415,5.4,5.4,0,0,0,4.761,2.088A6.079,6.079,0,0,0,14.25-3.142q1.657-1.466,1.695-4.742h-5.84V-9.979h8.188V0H16.669L16.06-2.4A9.578,9.578,0,0,1,13.787-.444,8.518,8.518,0,0,1,9.56.5a8.236,8.236,0,0,1-5.7-2.146,10.182,10.182,0,0,1-2.6-7.389A10.6,10.6,0,0,1,3.8-16.491,8.071,8.071,0,0,1,10.042-19.132ZM27.295-1.473a3.151,3.151,0,0,0,3.117-1.72,8.57,8.57,0,0,0,.844-3.828,6.815,6.815,0,0,0-.609-3.1A3.428,3.428,0,0,0,27.32-12a3.28,3.28,0,0,0-3.047,1.6,7.415,7.415,0,0,0-.952,3.859,6.449,6.449,0,0,0,.952,3.618A3.354,3.354,0,0,0,27.295-1.473Zm.089-12.518a6.157,6.157,0,0,1,4.443,1.752,6.841,6.841,0,0,1,1.815,5.154,8.843,8.843,0,0,1-1.6,5.434A5.786,5.786,0,0,1,27.079.5a5.6,5.6,0,0,1-4.456-1.9,7.5,7.5,0,0,1-1.65-5.1,8.11,8.11,0,0,1,1.739-5.459A5.837,5.837,0,0,1,27.384-13.99ZM41.755-1.473a3.151,3.151,0,0,0,3.117-1.72,8.57,8.57,0,0,0,.844-3.828,6.815,6.815,0,0,0-.609-3.1A3.428,3.428,0,0,0,41.78-12a3.28,3.28,0,0,0-3.047,1.6,7.415,7.415,0,0,0-.952,3.859,6.449,6.449,0,0,0,.952,3.618A3.354,3.354,0,0,0,41.755-1.473Zm.089-12.518a6.157,6.157,0,0,1,4.443,1.752A6.841,6.841,0,0,1,48.1-7.084,8.843,8.843,0,0,1,46.5-1.65,5.786,5.786,0,0,1,41.539.5a5.6,5.6,0,0,1-4.456-1.9,7.5,7.5,0,0,1-1.65-5.1,8.11,8.11,0,0,1,1.739-5.459A5.837,5.837,0,0,1,41.844-13.99Zm13.774.152a4.956,4.956,0,0,1,2.793.787,6.273,6.273,0,0,1,1.32,1.295V-13.47h2.107V-1.1a9.119,9.119,0,0,1-.762,4.088q-1.422,2.768-5.37,2.768a6.587,6.587,0,0,1-3.694-.984,3.837,3.837,0,0,1-1.676-3.079H52.66A2.586,2.586,0,0,0,53.32,3.1a3.366,3.366,0,0,0,2.438.762q2.628,0,3.44-1.854a10.439,10.439,0,0,0,.444-3.9,4.484,4.484,0,0,1-1.65,1.549A5.49,5.49,0,0,1,55.44.165,5.447,5.447,0,0,1,51.575-1.4q-1.657-1.568-1.657-5.186a7.854,7.854,0,0,1,1.669-5.332A5.162,5.162,0,0,1,55.618-13.838Zm4.113,6.982A5.669,5.669,0,0,0,58.69-10.6a3.335,3.335,0,0,0-2.653-1.219,3.276,3.276,0,0,0-3.3,2.26,8.861,8.861,0,0,0-.47,3.161A5.611,5.611,0,0,0,53.2-2.9a3.012,3.012,0,0,0,2.507,1.2,3.52,3.52,0,0,0,3.466-2.222A7.166,7.166,0,0,0,59.731-6.855Zm5.611-11.794h2.285V0H65.343ZM76.718-13.9a6.2,6.2,0,0,1,2.806.679,5.174,5.174,0,0,1,2.069,1.758,6.066,6.066,0,0,1,.914,2.4,15.7,15.7,0,0,1,.2,3H72.744a5.815,5.815,0,0,0,.978,3.32A3.273,3.273,0,0,0,76.553-1.5a3.66,3.66,0,0,0,2.856-1.181,3.98,3.98,0,0,0,.863-1.587H82.52a4.732,4.732,0,0,1-.59,1.669,5.938,5.938,0,0,1-1.124,1.5A5.325,5.325,0,0,1,78.229.279a7.829,7.829,0,0,1-1.866.2,5.726,5.726,0,0,1-4.3-1.847,7.187,7.187,0,0,1-1.765-5.173,7.815,7.815,0,0,1,1.777-5.319A5.863,5.863,0,0,1,76.718-13.9Zm3.644,6.018a5.92,5.92,0,0,0-.647-2.374,3.318,3.318,0,0,0-3.136-1.65,3.476,3.476,0,0,0-2.641,1.136,4.292,4.292,0,0,0-1.13,2.888ZM93.285-18.649h8.392a5.689,5.689,0,0,1,4.012,1.4,5.091,5.091,0,0,1,1.523,3.942,5.731,5.731,0,0,1-1.358,3.8,5.147,5.147,0,0,1-4.177,1.619H95.812V0H93.285Zm11.375,5.357a2.806,2.806,0,0,0-1.523-2.793,5.5,5.5,0,0,0-2.3-.394H95.812v6.462h5.027a4.8,4.8,0,0,0,2.761-.724A2.868,2.868,0,0,0,104.66-13.292Zm5.484-5.357h2.285V0h-2.285Zm7.465,15.031a1.882,1.882,0,0,0,.724,1.562,2.683,2.683,0,0,0,1.714.571,5.211,5.211,0,0,0,2.336-.559,3.144,3.144,0,0,0,1.9-3.034V-6.919a3.91,3.91,0,0,1-1.079.444,9.2,9.2,0,0,1-1.295.254l-1.384.178a5.292,5.292,0,0,0-1.866.521A2.028,2.028,0,0,0,117.609-3.618Zm5.535-4.621A1.241,1.241,0,0,0,124.2-8.9a2.009,2.009,0,0,0,.152-.876,1.856,1.856,0,0,0-.832-1.695,4.461,4.461,0,0,0-2.38-.527,3.025,3.025,0,0,0-2.539.965,3.174,3.174,0,0,0-.546,1.587h-2.133a3.926,3.926,0,0,1,1.631-3.5,6.7,6.7,0,0,1,3.637-.984,7.4,7.4,0,0,1,3.9.914,3.1,3.1,0,0,1,1.485,2.844v7.833a1,1,0,0,0,.146.571.7.7,0,0,0,.616.216q.152,0,.343-.019t.406-.057V.063a6.365,6.365,0,0,1-.812.19,5.938,5.938,0,0,1-.762.038,1.879,1.879,0,0,1-1.714-.838A3.234,3.234,0,0,1,124.4-1.8,5.814,5.814,0,0,1,122.4-.216a6.2,6.2,0,0,1-2.882.673,4.285,4.285,0,0,1-3.091-1.149,3.816,3.816,0,0,1-1.2-2.875A3.7,3.7,0,0,1,116.4-6.5a5.617,5.617,0,0,1,3.1-1.282ZM138.811-13.6h2.526q-.482,1.308-2.146,5.967-1.244,3.5-2.082,5.713a38.622,38.622,0,0,1-2.793,6.348,3.192,3.192,0,0,1-2.793,1.143,5.48,5.48,0,0,1-.743-.038,5.866,5.866,0,0,1-.641-.14V3.313a7.883,7.883,0,0,0,.863.2,3.37,3.37,0,0,0,.47.038,1.645,1.645,0,0,0,.933-.209,1.932,1.932,0,0,0,.5-.514q.063-.1.457-1.041t.571-1.4L128.908-13.6h2.59l3.644,11.07Z" transform="translate(385 6362)" fill="#fff"/>
      <path id="Path_3524" data-name="Path 3524" d="M6.18-11.773a5.9,5.9,0,0,1,2.8.625A4.078,4.078,0,0,1,11.07-8H9.531A2.8,2.8,0,0,0,8.367-9.832a4.007,4.007,0,0,0-2.227-.574,3.489,3.489,0,0,0-2.684,1.2,5.13,5.13,0,0,0-1.09,3.563,5.692,5.692,0,0,0,.9,3.332A3.321,3.321,0,0,0,6.2-1.031a3.741,3.741,0,0,0,2.574-.9A3.777,3.777,0,0,0,9.813-4.852H6.219V-6.141h5.039V0h-1L9.883-1.477a5.894,5.894,0,0,1-1.4,1.2A5.242,5.242,0,0,1,5.883.3a5.069,5.069,0,0,1-3.508-1.32,6.266,6.266,0,0,1-1.6-4.547,6.521,6.521,0,0,1,1.563-4.586A4.967,4.967,0,0,1,6.18-11.773Zm7.633.3H22.18v1.406H15.328v3.484h6.336v1.328H15.328v3.891H22.3V0H13.813Zm18.875,0v1.367H28.82V0H27.242V-10.109H23.375v-1.367Zm5.938,0H40.2V0h-1.57Zm12.445,0v1.367H47.2V0H45.625V-10.109H41.758v-1.367Zm10.539-.312a5.254,5.254,0,0,1,4.5,1.953,6.329,6.329,0,0,1,1.141,3.9,6.822,6.822,0,0,1-1.3,4.273,5.174,5.174,0,0,1-4.367,2,5.22,5.22,0,0,1-4.164-1.75A6.608,6.608,0,0,1,56.063-5.68a6.785,6.785,0,0,1,1.156-3.984A5.009,5.009,0,0,1,61.609-11.789Zm.156,10.734a3.237,3.237,0,0,0,2.973-1.473,6.268,6.268,0,0,0,.918-3.387A4.831,4.831,0,0,0,64.6-9.172,3.613,3.613,0,0,0,61.7-10.406,3.769,3.769,0,0,0,58.8-9.184a5.153,5.153,0,0,0-1.125,3.605,5.268,5.268,0,0,0,.965,3.215A3.629,3.629,0,0,0,61.766-1.055ZM69.1-11.477h1.836l5.8,9.3v-9.3h1.477V0H76.469L70.586-9.289V0H69.1Z" transform="translate(385 6331)" fill="#fff"/>
    </g>
    <g id="google-play" transform="translate(310.584 6317.003)">
      <path id="Path_3077" data-name="Path 3077" d="M27.606,23.657,1.9,48.765A5.887,5.887,0,0,1,.01,44.386V5A5.968,5.968,0,0,1,1.969.56Z" transform="translate(0 1.306)" fill="#2196f3"/>
      <path id="Path_3078" data-name="Path 3078" d="M30.536,15.45A6.3,6.3,0,0,1,27.182,21l-7.306,4.051-9.066-8.369L8.32,14.387l9.6-9.6L27.182,9.9A6.3,6.3,0,0,1,30.536,15.45Z" transform="translate(18.215 10.57)" fill="#ffc107"/>
      <path id="Path_3079" data-name="Path 3079" d="M26.237,25.51.6,1.866a6.611,6.611,0,0,1,1.2-.9A6.686,6.686,0,0,1,8.57.87L35.834,15.913l-9.6,9.6Z" transform="translate(1.369 0)" fill="#4caf50"/>
      <path id="Path_3080" data-name="Path 3080" d="M37.84,18.34,8.616,34.446a6.614,6.614,0,0,1-3.321.863,6.47,6.47,0,0,1-3.454-.963A6.044,6.044,0,0,1,.58,33.383l25.7-25.7,2.491,2.291L37.84,18.34Z" transform="translate(1.323 16.688)" fill="#f44336"/>
    </g>
  </g>
</svg>
