<svg xmlns="http://www.w3.org/2000/svg" width="36.181" height="36.181" viewBox="0 0 36.181 36.181">
  <g id="Group_3623" data-name="Group 3623" transform="translate(-737.408 -1058.812)">
    <rect id="Rectangle_2220" data-name="Rectangle 2220" width="36.181" height="36.181" transform="translate(737.408 1058.812)" fill="none"/>
    <path id="Rectangle_2200" data-name="Rectangle 2200" d="M745.123,1067.116h20.185a.869.869,0,0,1,.807.92v1.839a.869.869,0,0,1-.807.92H745.123a.869.869,0,0,1-.807-.92v-1.839A.869.869,0,0,1,745.123,1067.116Z" transform="translate(0.044 0.053)" fill="#f8f8fa"/>
    <path id="Rectangle_2207" data-name="Rectangle 2207" d="M745.123,1075.339h20.185a.869.869,0,0,1,.807.919v1.84a.869.869,0,0,1-.807.919H745.123a.869.869,0,0,1-.807-.919v-1.84A.869.869,0,0,1,745.123,1075.339Z" transform="translate(0.044 0.106)" fill="#f8f8fa"/>
    <path id="Rectangle_2208" data-name="Rectangle 2208" d="M745.123,1083.561h20.185a.869.869,0,0,1,.807.92v1.839a.869.869,0,0,1-.807.92H745.123a.869.869,0,0,1-.807-.92v-1.839A.869.869,0,0,1,745.123,1083.561Z" transform="translate(0.044 0.158)" fill="#f8f8fa"/>
  </g>
</svg>
