<svg xmlns="http://www.w3.org/2000/svg" width="46" height="46" viewBox="0 0 46 46">
  <g id="Group_3605" data-name="Group 3605" transform="translate(1.358 1)">
    <g id="Group_49" data-name="Group 49" transform="translate(0.001)">
      <rect id="Rectangle_129" data-name="Rectangle 129" width="44" height="44" rx="14" transform="translate(-0.359)" fill="none" stroke="#06d6a0" stroke-miterlimit="10" stroke-width="2"/>
      <g id="Group_48" data-name="Group 48" transform="translate(10.845 8.881)">
        <g id="Group_47" data-name="Group 47">
          <path id="Path_6" data-name="Path 6" d="M627.952,1036.262h.006v-8.182c0-4-.861-7.086-5.541-7.086a4.859,4.859,0,0,0-4.376,2.4h-.064v-2.032h-4.438v14.9h4.62v-7.376c0-1.941.369-3.819,2.774-3.819,2.37,0,2.4,2.216,2.4,3.944v7.251Z" transform="translate(-605.649 -1013.953)" fill="#06c492"/>
          <path id="Path_7" data-name="Path 7" d="M608.752,1021.232h4.626v14.894h-4.626Z" transform="translate(-608.384 -1013.816)" fill="#06c492"/>
          <path id="Path_8" data-name="Path 8" d="M611.2,1016.513a2.692,2.692,0,1,0,2.678,2.679A2.68,2.68,0,0,0,611.2,1016.513Z" transform="translate(-608.518 -1016.513)" fill="#06c492"/>
        </g>
      </g>
    </g>
  </g>
</svg>
