<svg xmlns="http://www.w3.org/2000/svg" width="279.049" height="314.461" viewBox="0 0 279.049 314.461">
  <g id="Group_3718" data-name="Group 3718" transform="translate(-1377.845 -2359.821)">
    <rect id="Rectangle_2251" data-name="Rectangle 2251" width="279.047" height="312.359" rx="20" transform="translate(1377.845 2359.821)" fill="#fff"/>
    <g id="Group_3259" data-name="Group 3259" transform="translate(1577.786 2476.998)">
      <g id="Group_3258" data-name="Group 3258" transform="translate(0 0)">
        <path id="Path_3417" data-name="Path 3417" d="M69.637,30.13h-4.4a.165.165,0,0,0,0,.33h4.4a.165.165,0,1,0,0-.33Z" transform="translate(-65.079 -29.866)" fill="#fff"/>
        <path id="Path_3418" data-name="Path 3418" d="M67.545,30.186a.22.22,0,0,0-.2-.176H65.916a.2.2,0,0,0-.176.176Z" transform="translate(-64.286 -30.01)" fill="#fff"/>
      </g>
      <path id="Path_3419" data-name="Path 3419" d="M65.26,30.36l.132,4.4a.506.506,0,0,0,.528.506h2.6a.506.506,0,0,0,.506-.506l.154-4.4Zm1.475,3.61a.2.2,0,0,1-.2.2.22.22,0,0,1-.22-.2V31.549a.22.22,0,0,1,.22-.2.2.2,0,0,1,.2.2Zm1.365,0a.2.2,0,1,1-.4,0V31.549a.2.2,0,1,1,.4,0Z" transform="translate(-64.863 -29.59)" fill="#fff"/>
    </g>
    <path id="Path_3520" data-name="Path 3520" d="M9804.329,2620.593h237.537V2359.2" transform="translate(-8426.484 0.621)" fill="none" stroke="#707070" stroke-width="1" stroke-dasharray="5" opacity="0.29"/>
    <path id="Path_3521" data-name="Path 3521" d="M9804.329,2620.593h237.537V2359.2" transform="translate(11461.223 5033.481) rotate(180)" fill="none" stroke="#707070" stroke-width="1" stroke-dasharray="5" opacity="0.29"/>
    <rect id="Rectangle_2163" data-name="Rectangle 2163" width="94.412" height="187.604" rx="6" transform="translate(1484.294 2419.339)" fill="#06d6a0" opacity="0.2"/>
    <rect id="Rectangle_2158" data-name="Rectangle 2158" width="86.701" height="178.71" rx="6" transform="translate(1487.855 2423.286)" fill="#06d6a0" opacity="0.2"/>
    <rect id="Rectangle_2080" data-name="Rectangle 2080" width="151.9" height="42.674" rx="3" transform="translate(1397.368 2438.486)" fill="#defdf5" stroke="#8df5da" stroke-width="1"/>
    <g id="_00:05" data-name=" 00:05" transform="translate(1507.074 2468.498)">
      <text id="_00:05-2" data-name="00:05" transform="translate(0 3)" fill="#0d0a3a" font-size="3" font-family="Poppins-Regular, Poppins"><tspan x="0" y="0">00:05</tspan></text>
    </g>
    <g id="Group_230" data-name="Group 230" transform="translate(1431.087 2461.436)">
      <line id="Line_24" data-name="Line 24" x2="87.103" transform="translate(0 4.473)" fill="none" stroke="#0b4557" stroke-linecap="round" stroke-width="1"/>
      <line id="Line_266" data-name="Line 266" y1="0.058" x2="12.169" transform="translate(0 4.415)" fill="none" stroke="#06d6a0" stroke-linecap="round" stroke-width="1"/>
      <ellipse id="Ellipse_37" data-name="Ellipse 37" cx="4.473" cy="4.473" rx="4.473" ry="4.473" transform="translate(8.917 0)" fill="#0cc691"/>
    </g>
    <path id="Rectangle_1655" data-name="Rectangle 1655" d="M70.483,27.88h0a7.731,7.731,0,0,1,7.731,7.731h0a7.731,7.731,0,0,1-7.731,7.731h0a7.731,7.731,0,0,1-7.753-7.731h0a7.731,7.731,0,0,1,7.753-7.731Z" transform="translate(1465.323 2430.094)" fill="#f13232"/>
    <g id="Component_22_2" data-name="Component 22 2" transform="translate(1404.367 2458.473)">
      <path id="Path_298" data-name="Path 298" d="M36.2,36.362a7.232,7.232,0,1,1-7.232-7.232A7.232,7.232,0,0,1,36.2,36.362Z" transform="translate(-21.74 -29.13)" fill="none" stroke="#06d6a0" stroke-linecap="round" stroke-linejoin="round" stroke-width="0.5" opacity="0.5"/>
      <g id="Group_3093" data-name="Group 3093" transform="translate(4.908 4.589)">
        <rect id="Rectangle_1718" data-name="Rectangle 1718" width="1.394" height="5.576" fill="#06d6a0"/>
        <rect id="Rectangle_1719" data-name="Rectangle 1719" width="1.394" height="5.576" transform="translate(3.253)" fill="#06d6a0"/>
      </g>
    </g>
    <g id="Ginwa_Knanu_And_you_" data-name="Ginwa Knanu And you " transform="translate(1402.107 2444.052)">
      <text id="My_name_is" data-name="My name is" transform="translate(-0.001 6)" fill="#0d0a3a" font-size="6" font-family="Poppins-Regular, Poppins"><tspan x="0" y="0">My name is</tspan></text>
    </g>
    <path id="Path_3418-2" data-name="Path 3418" d="M4.417,0H147.483A4.417,4.417,0,0,1,151.9,4.417V38.258a4.417,4.417,0,0,1-4.417,4.417H4.417A4.417,4.417,0,0,1,0,38.258V4.417A4.417,4.417,0,0,1,4.417,0Z" transform="translate(1397.368 2491.98)" fill="#defdf5" stroke="#8df5da" stroke-width="1"/>
    <g id="Good_morning" data-name="Good morning" transform="translate(1405.237 2508.641)">
      <text id="Good_morning-2" data-name="Good morning" transform="translate(0 6)" fill="#0d0a3a" font-size="6" font-family="Poppins-Regular, Poppins"><tspan x="0" y="0">Good morning</tspan></text>
    </g>
    <g id="Group_962" data-name="Group 962" transform="translate(1516.392 2502.385)" opacity="0.2">
      <path id="Rectangle_135" data-name="Rectangle 135" d="M70.162,49.6h0a10.942,10.942,0,0,1,11.01,10.92h0A10.942,10.942,0,0,1,70.23,71.462h0A10.942,10.942,0,0,1,59.31,60.52h0A10.92,10.92,0,0,1,70.162,49.6Z" transform="translate(-59.31 -49.6)" fill="#0ec797"/>
    </g>
    <g id="Group_965" data-name="Group 965" transform="translate(1520.047 2506.108)">
      <g id="Group_962-2" data-name="Group 962-2" transform="translate(0 0)">
        <path id="Rectangle_135-2" data-name="Rectangle 135-2" d="M68.127,51.25h0a7.2,7.2,0,0,1,7.2,7.2h0a7.2,7.2,0,0,1-7.2,7.2h0a7.2,7.2,0,0,1-7.2-7.2h0A7.2,7.2,0,0,1,68.127,51.25Z" transform="translate(-60.93 -51.25)" fill="#0ec797"/>
      </g>
      <g id="Group_239" data-name="Group 239" transform="translate(4.941 3.745)">
        <g id="voice-recording-microphone">
          <g id="Group_202" data-name="Group 202">
            <path id="Path_283" data-name="Path 283" d="M64.974,58.393a1.557,1.557,0,0,0,1.534-1.534V54.444a1.534,1.534,0,1,0-3.068,0h0v2.414A1.557,1.557,0,0,0,64.974,58.393Z" transform="translate(-62.718 -52.91)" fill="#fff"/>
            <path id="Path_284" data-name="Path 284" d="M65.76,56.861a1.873,1.873,0,0,0,1.85-1.873.2.2,0,0,0-.2-.226.226.226,0,0,0-.248.2h0a1.4,1.4,0,0,1-1.4,1.4h-.79a1.376,1.376,0,0,1-1.376-1.4.226.226,0,0,0-.226-.226s-.226,0-.248.2h0a1.873,1.873,0,0,0,1.85,1.873h.135v.474H64.022a.248.248,0,0,0-.226.226.226.226,0,0,0,.226.226h2.662a.226.226,0,0,0,.226-.226.248.248,0,0,0-.226-.226H65.6v-.474Z" transform="translate(-63.12 -50.611)" fill="#fff"/>
          </g>
        </g>
      </g>
    </g>
    <rect id="Rectangle_2160" data-name="Rectangle 2160" width="81.393" height="52.198" rx="5" transform="translate(1490.51 2547.715)" fill="#fff" opacity="0.38"/>
    <rect id="Rectangle_2161" data-name="Rectangle 2161" width="43" height="6" rx="3" transform="translate(1510 2421)" fill="#c9f6eb"/>
    <rect id="Rectangle_2164" data-name="Rectangle 2164" width="23.498" height="3.289" rx="1.645" transform="translate(1580.351 2453.5) rotate(90)" fill="#6d929b"/>
    <g id="Group_3259-2" data-name="Group 3259" transform="translate(1533.373 2462.8)">
      <g id="Group_3258-2" data-name="Group 3258" transform="translate(0.001 0)">
        <path id="Path_3417-2" data-name="Path 3417" d="M69.742,30.13h-4.5a.169.169,0,0,0,0,.338h4.5a.169.169,0,1,0,0-.338Z" transform="translate(-65.079 -29.86)" fill="#fff"/>
        <path id="Path_3418-3" data-name="Path 3418" d="M67.586,30.19a.225.225,0,0,0-.2-.18H65.92a.2.2,0,0,0-.18.18Z" transform="translate(-64.252 -30.01)" fill="#fff"/>
      </g>
      <path id="Path_3419-2" data-name="Path 3419" d="M65.26,30.36l.135,4.5a.518.518,0,0,0,.54.518h2.657a.518.518,0,0,0,.518-.518l.158-4.5Zm1.509,3.693a.2.2,0,0,1-.2.2.225.225,0,0,1-.225-.2V31.576a.225.225,0,0,1,.225-.2.2.2,0,0,1,.2.2Zm1.4,0a.2.2,0,1,1-.405,0V31.576a.2.2,0,1,1,.405,0Z" transform="translate(-64.852 -29.572)" fill="#fff"/>
    </g>
  </g>
</svg>
