<svg xmlns="http://www.w3.org/2000/svg" width="99.151" height="87.763" viewBox="0 0 99.151 87.763"><g transform="translate(-499.27 -556.78)"><g transform="translate(507.725 556.78)"><path d="M689.022,756.7a67.57,67.57,0,0,1,15.494-14.9q13.611-9.5,28.95-9.5,11.071,0,15.44,6.094a10.655,10.655,0,0,1,2.235,6.145,14.029,14.029,0,0,1-1.015,5.435q-4.267-7.82-14.932-10.361a43.714,43.714,0,0,0-9.9-1.321,28.943,28.943,0,0,0-8.99,1.524.581.581,0,0,0-.2.406q0,.2,5.943.406a46.194,46.194,0,0,1,8.786.914,27.577,27.577,0,0,1,10.107,5.536,14.54,14.54,0,0,1,5.13,9.5c-.032.039-.071.082-.1.12h6.2a19.662,19.662,0,0,0-.708-3.676q2.843-5.383,2.844-9.041,0-5.89-5.282-9.852t-15.44-3.962q-18.893,0-36.568,12.6A75.991,75.991,0,0,0,681.88,756.7Z" transform="translate(-672.256 -713.006)" fill="#06d6a0"/><path d="M1235.627,559.98q.913.662,6.3,3.91t5.994,3.251q.609,0,.609-.458a.921.921,0,0,0-.406-.762q-11.175-9.141-12.392-9.142-1.017,0-1.016,1.27A2.228,2.228,0,0,0,1235.627,559.98Z" transform="translate(-1170.354 -556.78)" fill="#06d6a0"/><path d="M643.365,1269.983q-17.548,15.1-36.9,15.12-1.424,0-2.844-.1-13.511-.712-13.509-14.119c0-.295.027-.6.037-.9h-5.481a16.963,16.963,0,0,0,4.884,11.717q4.927,4.925,13.053,5.333,1.523.1,4.266.1,24.264,0,43.951-17.151Z" transform="translate(-584.671 -1199.371)" fill="#06d6a0"/></g><g transform="translate(499.27 602.605)"><g transform="translate(0 0)"><path d="M499.27,1031.963a7.162,7.162,0,1,1,7.162,7.121A7.028,7.028,0,0,1,499.27,1031.963Zm1.569,0a5.594,5.594,0,1,0,5.593-5.677A5.616,5.616,0,0,0,500.839,1031.963Zm2.724-11.407,1.445-.928,2.6,2.683-.888.66Z" transform="translate(-499.27 -1019.627)" fill="#fff"/><path d="M745.65,1074.586a5.108,5.108,0,0,1,3.158.867,3.419,3.419,0,0,1,1.239,2.848,3.107,3.107,0,0,1-1.362,2.7,3.452,3.452,0,0,1,2.621,3.468,3.805,3.805,0,0,1-1.4,2.972,5.02,5.02,0,0,1-3.3.908h-3.427v-13.767Zm-.95,6.048h1.156c.8,0,2.7-.165,2.7-2.291,0-2.27-2.229-2.312-2.663-2.312h-1.2Zm0,6.275h1.755a3.806,3.806,0,0,0,2.415-.578,2.32,2.32,0,0,0,.908-1.9,2.23,2.23,0,0,0-1.176-2.022,4.8,4.8,0,0,0-2.332-.413H744.7Z" transform="translate(-719.025 -1069.145)" fill="#fff"/><path d="M917.031,1031.963a7.162,7.162,0,1,1,7.162,7.121A7.028,7.028,0,0,1,917.031,1031.963Zm1.569,0a5.594,5.594,0,1,0,5.593-5.677A5.616,5.616,0,0,0,918.6,1031.963Zm2.724-11.407,1.445-.928,2.6,2.683-.888.66Z" transform="translate(-875.67 -1019.627)" fill="#fff"/><path d="M1160.929,1074.586h2.807a7.485,7.485,0,0,1,5.077,1.61,6.71,6.71,0,0,1,2.354,5.284,6.554,6.554,0,0,1-2.415,5.284,6.9,6.9,0,0,1-5.036,1.589h-2.787Zm1.528,12.322h1.342a5.881,5.881,0,0,0,3.942-1.238,5.269,5.269,0,0,0,1.857-4.19c0-3.3-2.312-5.449-5.8-5.449h-1.342Z" transform="translate(-1095.42 -1069.145)" fill="#fff"/><path d="M1356.047,1031.963a7.162,7.162,0,1,1,7.162,7.121A7.028,7.028,0,0,1,1356.047,1031.963Zm1.569,0a5.594,5.594,0,1,0,5.593-5.677A5.616,5.616,0,0,0,1357.616,1031.963Zm2.724-11.407,1.445-.928,2.6,2.683-.888.66Z" transform="translate(-1271.221 -1019.627)" fill="#fff"/></g></g></g></svg>