<svg xmlns="http://www.w3.org/2000/svg" width="200.345" height="165.378" viewBox="0 0 200.345 165.378">
  <g id="Artboard_7" data-name="Artboard 7" transform="translate(-1.613 -3.42)">
    <path id="Path_3323" data-name="Path 3323" d="M58.469,30.129l-56.654,94.1a1.336,1.336,0,0,0,1.127,2.044H116.3a1.336,1.336,0,0,0,1.153-2.044l-56.68-94.1a1.336,1.336,0,0,0-2.306,0Z" transform="translate(0 41.399)" fill="#0caf80"/>
    <path id="Path_3324" data-name="Path 3324" d="M90.666,30.115l-56.68,94.1a1.336,1.336,0,0,0,1.153,2.044H148.473a1.336,1.336,0,0,0,1.153-2.044l-56.68-94.1a1.336,1.336,0,0,0-2.28,0Z" transform="translate(52.13 41.412)" fill="#12c995"/>
    <path id="Path_3325" data-name="Path 3325" d="M38.91,18.909V3.92H71.456l-6,9.434,5.5,5.5-32.048.052V54.783" transform="translate(60.438)" fill="none" stroke="#fff" stroke-linecap="round" stroke-linejoin="round" stroke-width="1"/>
    <path id="Path_3326" data-name="Path 3326" d="M150.052,138.664H13.92a1.625,1.625,0,0,1-1.363-2.463L79.116,25.67l1.494-2.489a1.625,1.625,0,0,1,2.62,0l1.651,2.751L151.441,136.2a1.625,1.625,0,0,1-1.389,2.463Z" transform="translate(17.35 30.135)" fill="#06d6a0"/>
    <path id="Path_3327" data-name="Path 3327" d="M42.05,29.47Q47.841,38.144,53.423,47L64.481,64.689l10.8,17.871q5.241,8.962,10.482,18.055C81.907,94.8,78.134,88.98,74.413,83.084L63.354,65.37l-10.8-17.845Q47.16,38.563,42.05,29.47Z" transform="translate(65.526 41.402)" fill="#a9f7e1"/>
    <path id="Path_3328" data-name="Path 3328" d="M85.012,29.878V135.927H12.557a1.6,1.6,0,0,1,0-1.677L79.116,23.72h0A6.158,6.158,0,0,1,85.012,29.878Z" transform="translate(17.35 32.085)" fill="#0a0a0a" opacity="0.05"/>
    <path id="Path_3329" data-name="Path 3329" d="M65.455,13.354l5.477,5.5-32.022.052V3.92H71.456Z" transform="translate(60.438)" fill="#fff"/>
  </g>
</svg>
