<svg xmlns="http://www.w3.org/2000/svg" width="1877.906" height="69.405" viewBox="0 0 1877.906 69.405">
  <g id="Group_3452" data-name="Group 3452" transform="translate(-133.365 -688.56)">
    <g id="Component_4_125" data-name="Component 4 – 125" transform="translate(551.366 688.56)">
      <g id="Group_3447" data-name="Group 3447" opacity="0.16">
        <g id="Group_3446" data-name="Group 3446">
          <path id="Path_3223" data-name="Path 3223" d="M3430.343,279q.722.524,4.98,3.092t4.74,2.571q.482,0,.482-.362a.73.73,0,0,0-.322-.6q-8.837-7.229-9.8-7.23-.8,0-.8,1A1.763,1.763,0,0,0,3430.343,279Z" transform="translate(-3378.691 -276.468)" fill="#9995df"/>
          <path id="Path_3224" data-name="Path 3224" d="M2906.051,444.261a9.42,9.42,0,0,0-4.177-7.792q-4.178-3.133-12.21-3.133-14.942,0-28.919,9.961-12.129,8.757-16.307,17.994a33.112,33.112,0,0,0-3.293,13.5,13.636,13.636,0,0,0,3.9,10.081,15.082,15.082,0,0,0,10.322,4.218q1.205.079,3.374.08,19.6,0,35.426-14.138,10.281-9.158,10.282-19.2a15.476,15.476,0,0,0-.643-4.418A16.126,16.126,0,0,0,2906.051,444.261Zm-3.293,4.74q-3.374-6.185-11.808-8.193a34.573,34.573,0,0,0-7.832-1.045,22.884,22.884,0,0,0-7.11,1.206.46.46,0,0,0-.161.321,25.961,25.961,0,0,0,4.7.321,36.53,36.53,0,0,1,6.948.723,21.814,21.814,0,0,1,7.993,4.378,11.5,11.5,0,0,1,4.057,7.511l0,.014a12.8,12.8,0,0,1,.1,2.819l-.022.3q-.8,8.274-11.085,17.432-14.3,12.772-30.123,12.772-1.127,0-2.25-.081-10.685-.563-10.684-11.166,0-6.586,4.418-14.861a52.937,52.937,0,0,1,16.789-18.917,39.308,39.308,0,0,1,22.894-7.511q8.755,0,12.21,4.819a8.424,8.424,0,0,1,1.768,4.86A11.089,11.089,0,0,1,2902.758,449Z" transform="translate(-2841.145 -419.761)" fill="#9995df"/>
        </g>
      </g>
    </g>
    <g id="Component_4_126" data-name="Component 4 – 126" transform="translate(1109.366 688.56)">
      <g id="Group_3447-2" data-name="Group 3447" opacity="0.16">
        <g id="Group_3446-2" data-name="Group 3446">
          <path id="Path_3223-2" data-name="Path 3223" d="M3430.343,279q.722.524,4.98,3.092t4.74,2.571q.482,0,.482-.362a.73.73,0,0,0-.322-.6q-8.837-7.229-9.8-7.23-.8,0-.8,1A1.763,1.763,0,0,0,3430.343,279Z" transform="translate(-3378.691 -276.468)" fill="#9995df"/>
          <path id="Path_3224-2" data-name="Path 3224" d="M2906.051,444.261a9.42,9.42,0,0,0-4.177-7.792q-4.178-3.133-12.21-3.133-14.942,0-28.919,9.961-12.129,8.757-16.307,17.994a33.112,33.112,0,0,0-3.293,13.5,13.636,13.636,0,0,0,3.9,10.081,15.082,15.082,0,0,0,10.322,4.218q1.205.079,3.374.08,19.6,0,35.426-14.138,10.281-9.158,10.282-19.2a15.476,15.476,0,0,0-.643-4.418A16.126,16.126,0,0,0,2906.051,444.261Zm-3.293,4.74q-3.374-6.185-11.808-8.193a34.573,34.573,0,0,0-7.832-1.045,22.884,22.884,0,0,0-7.11,1.206.46.46,0,0,0-.161.321,25.961,25.961,0,0,0,4.7.321,36.53,36.53,0,0,1,6.948.723,21.814,21.814,0,0,1,7.993,4.378,11.5,11.5,0,0,1,4.057,7.511l0,.014a12.8,12.8,0,0,1,.1,2.819l-.022.3q-.8,8.274-11.085,17.432-14.3,12.772-30.123,12.772-1.127,0-2.25-.081-10.685-.563-10.684-11.166,0-6.586,4.418-14.861a52.937,52.937,0,0,1,16.789-18.917,39.308,39.308,0,0,1,22.894-7.511q8.755,0,12.21,4.819a8.424,8.424,0,0,1,1.768,4.86A11.089,11.089,0,0,1,2902.758,449Z" transform="translate(-2841.145 -419.761)" fill="#9995df"/>
        </g>
      </g>
    </g>
    <g id="Component_4_127" data-name="Component 4 – 127" transform="translate(1667.366 688.56)">
      <g id="Group_3447-3" data-name="Group 3447" opacity="0.16">
        <g id="Group_3446-3" data-name="Group 3446">
          <path id="Path_3223-3" data-name="Path 3223" d="M3430.343,279q.722.524,4.98,3.092t4.74,2.571q.482,0,.482-.362a.73.73,0,0,0-.322-.6q-8.837-7.229-9.8-7.23-.8,0-.8,1A1.763,1.763,0,0,0,3430.343,279Z" transform="translate(-3378.691 -276.468)" fill="#9995df"/>
          <path id="Path_3224-3" data-name="Path 3224" d="M2906.051,444.261a9.42,9.42,0,0,0-4.177-7.792q-4.178-3.133-12.21-3.133-14.942,0-28.919,9.961-12.129,8.757-16.307,17.994a33.112,33.112,0,0,0-3.293,13.5,13.636,13.636,0,0,0,3.9,10.081,15.082,15.082,0,0,0,10.322,4.218q1.205.079,3.374.08,19.6,0,35.426-14.138,10.281-9.158,10.282-19.2a15.476,15.476,0,0,0-.643-4.418A16.126,16.126,0,0,0,2906.051,444.261Zm-3.293,4.74q-3.374-6.185-11.808-8.193a34.573,34.573,0,0,0-7.832-1.045,22.884,22.884,0,0,0-7.11,1.206.46.46,0,0,0-.161.321,25.961,25.961,0,0,0,4.7.321,36.53,36.53,0,0,1,6.948.723,21.814,21.814,0,0,1,7.993,4.378,11.5,11.5,0,0,1,4.057,7.511l0,.014a12.8,12.8,0,0,1,.1,2.819l-.022.3q-.8,8.274-11.085,17.432-14.3,12.772-30.123,12.772-1.127,0-2.25-.081-10.685-.563-10.684-11.166,0-6.586,4.418-14.861a52.937,52.937,0,0,1,16.789-18.917,39.308,39.308,0,0,1,22.894-7.511q8.755,0,12.21,4.819a8.424,8.424,0,0,1,1.768,4.86A11.089,11.089,0,0,1,2902.758,449Z" transform="translate(-2841.145 -419.761)" fill="#9995df"/>
        </g>
      </g>
    </g>
    <g id="Component_4_128" data-name="Component 4 – 128" transform="translate(133.366 688.56)">
      <g id="Group_3447-4" data-name="Group 3447" opacity="0.16">
        <g id="Group_3446-4" data-name="Group 3446">
          <path id="Path_3223-4" data-name="Path 3223" d="M3430.343,279q.722.524,4.98,3.092t4.74,2.571q.482,0,.482-.362a.73.73,0,0,0-.322-.6q-8.837-7.229-9.8-7.23-.8,0-.8,1A1.763,1.763,0,0,0,3430.343,279Z" transform="translate(-3378.691 -276.468)" fill="#9995df"/>
          <path id="Path_3224-4" data-name="Path 3224" d="M2906.051,444.261a9.42,9.42,0,0,0-4.177-7.792q-4.178-3.133-12.21-3.133-14.942,0-28.919,9.961-12.129,8.757-16.307,17.994a33.112,33.112,0,0,0-3.293,13.5,13.636,13.636,0,0,0,3.9,10.081,15.082,15.082,0,0,0,10.322,4.218q1.205.079,3.374.08,19.6,0,35.426-14.138,10.281-9.158,10.282-19.2a15.476,15.476,0,0,0-.643-4.418A16.126,16.126,0,0,0,2906.051,444.261Zm-3.293,4.74q-3.374-6.185-11.808-8.193a34.573,34.573,0,0,0-7.832-1.045,22.884,22.884,0,0,0-7.11,1.206.46.46,0,0,0-.161.321,25.961,25.961,0,0,0,4.7.321,36.53,36.53,0,0,1,6.948.723,21.814,21.814,0,0,1,7.993,4.378,11.5,11.5,0,0,1,4.057,7.511l0,.014a12.8,12.8,0,0,1,.1,2.819l-.022.3q-.8,8.274-11.085,17.432-14.3,12.772-30.123,12.772-1.127,0-2.25-.081-10.685-.563-10.684-11.166,0-6.586,4.418-14.861a52.937,52.937,0,0,1,16.789-18.917,39.308,39.308,0,0,1,22.894-7.511q8.755,0,12.21,4.819a8.424,8.424,0,0,1,1.768,4.86A11.089,11.089,0,0,1,2902.758,449Z" transform="translate(-2841.145 -419.761)" fill="#9995df"/>
        </g>
      </g>
    </g>
    <g id="Component_4_129" data-name="Component 4 – 129" transform="translate(691.366 688.56)">
      <g id="Group_3447-5" data-name="Group 3447" opacity="0.16">
        <g id="Group_3446-5" data-name="Group 3446">
          <path id="Path_3223-5" data-name="Path 3223" d="M3430.343,279q.722.524,4.98,3.092t4.74,2.571q.482,0,.482-.362a.73.73,0,0,0-.322-.6q-8.837-7.229-9.8-7.23-.8,0-.8,1A1.763,1.763,0,0,0,3430.343,279Z" transform="translate(-3378.691 -276.468)" fill="#9995df"/>
          <path id="Path_3224-5" data-name="Path 3224" d="M2906.051,444.261a9.42,9.42,0,0,0-4.177-7.792q-4.178-3.133-12.21-3.133-14.942,0-28.919,9.961-12.129,8.757-16.307,17.994a33.112,33.112,0,0,0-3.293,13.5,13.636,13.636,0,0,0,3.9,10.081,15.082,15.082,0,0,0,10.322,4.218q1.205.079,3.374.08,19.6,0,35.426-14.138,10.281-9.158,10.282-19.2a15.476,15.476,0,0,0-.643-4.418A16.126,16.126,0,0,0,2906.051,444.261Zm-3.293,4.74q-3.374-6.185-11.808-8.193a34.573,34.573,0,0,0-7.832-1.045,22.884,22.884,0,0,0-7.11,1.206.46.46,0,0,0-.161.321,25.961,25.961,0,0,0,4.7.321,36.53,36.53,0,0,1,6.948.723,21.814,21.814,0,0,1,7.993,4.378,11.5,11.5,0,0,1,4.057,7.511l0,.014a12.8,12.8,0,0,1,.1,2.819l-.022.3q-.8,8.274-11.085,17.432-14.3,12.772-30.123,12.772-1.127,0-2.25-.081-10.685-.563-10.684-11.166,0-6.586,4.418-14.861a52.937,52.937,0,0,1,16.789-18.917,39.308,39.308,0,0,1,22.894-7.511q8.755,0,12.21,4.819a8.424,8.424,0,0,1,1.768,4.86A11.089,11.089,0,0,1,2902.758,449Z" transform="translate(-2841.145 -419.761)" fill="#9995df"/>
        </g>
      </g>
    </g>
    <g id="Component_4_130" data-name="Component 4 – 130" transform="translate(1249.366 688.56)">
      <g id="Group_3447-6" data-name="Group 3447" opacity="0.16">
        <g id="Group_3446-6" data-name="Group 3446">
          <path id="Path_3223-6" data-name="Path 3223" d="M3430.343,279q.722.524,4.98,3.092t4.74,2.571q.482,0,.482-.362a.73.73,0,0,0-.322-.6q-8.837-7.229-9.8-7.23-.8,0-.8,1A1.763,1.763,0,0,0,3430.343,279Z" transform="translate(-3378.691 -276.468)" fill="#9995df"/>
          <path id="Path_3224-6" data-name="Path 3224" d="M2906.051,444.261a9.42,9.42,0,0,0-4.177-7.792q-4.178-3.133-12.21-3.133-14.942,0-28.919,9.961-12.129,8.757-16.307,17.994a33.112,33.112,0,0,0-3.293,13.5,13.636,13.636,0,0,0,3.9,10.081,15.082,15.082,0,0,0,10.322,4.218q1.205.079,3.374.08,19.6,0,35.426-14.138,10.281-9.158,10.282-19.2a15.476,15.476,0,0,0-.643-4.418A16.126,16.126,0,0,0,2906.051,444.261Zm-3.293,4.74q-3.374-6.185-11.808-8.193a34.573,34.573,0,0,0-7.832-1.045,22.884,22.884,0,0,0-7.11,1.206.46.46,0,0,0-.161.321,25.961,25.961,0,0,0,4.7.321,36.53,36.53,0,0,1,6.948.723,21.814,21.814,0,0,1,7.993,4.378,11.5,11.5,0,0,1,4.057,7.511l0,.014a12.8,12.8,0,0,1,.1,2.819l-.022.3q-.8,8.274-11.085,17.432-14.3,12.772-30.123,12.772-1.127,0-2.25-.081-10.685-.563-10.684-11.166,0-6.586,4.418-14.861a52.937,52.937,0,0,1,16.789-18.917,39.308,39.308,0,0,1,22.894-7.511q8.755,0,12.21,4.819a8.424,8.424,0,0,1,1.768,4.86A11.089,11.089,0,0,1,2902.758,449Z" transform="translate(-2841.145 -419.761)" fill="#9995df"/>
        </g>
      </g>
    </g>
    <g id="Component_4_131" data-name="Component 4 – 131" transform="translate(1807.366 688.56)">
      <g id="Group_3447-7" data-name="Group 3447" opacity="0.16">
        <g id="Group_3446-7" data-name="Group 3446">
          <path id="Path_3223-7" data-name="Path 3223" d="M3430.343,279q.722.524,4.98,3.092t4.74,2.571q.482,0,.482-.362a.73.73,0,0,0-.322-.6q-8.837-7.229-9.8-7.23-.8,0-.8,1A1.763,1.763,0,0,0,3430.343,279Z" transform="translate(-3378.691 -276.468)" fill="#9995df"/>
          <path id="Path_3224-7" data-name="Path 3224" d="M2906.051,444.261a9.42,9.42,0,0,0-4.177-7.792q-4.178-3.133-12.21-3.133-14.942,0-28.919,9.961-12.129,8.757-16.307,17.994a33.112,33.112,0,0,0-3.293,13.5,13.636,13.636,0,0,0,3.9,10.081,15.082,15.082,0,0,0,10.322,4.218q1.205.079,3.374.08,19.6,0,35.426-14.138,10.281-9.158,10.282-19.2a15.476,15.476,0,0,0-.643-4.418A16.126,16.126,0,0,0,2906.051,444.261Zm-3.293,4.74q-3.374-6.185-11.808-8.193a34.573,34.573,0,0,0-7.832-1.045,22.884,22.884,0,0,0-7.11,1.206.46.46,0,0,0-.161.321,25.961,25.961,0,0,0,4.7.321,36.53,36.53,0,0,1,6.948.723,21.814,21.814,0,0,1,7.993,4.378,11.5,11.5,0,0,1,4.057,7.511l0,.014a12.8,12.8,0,0,1,.1,2.819l-.022.3q-.8,8.274-11.085,17.432-14.3,12.772-30.123,12.772-1.127,0-2.25-.081-10.685-.563-10.684-11.166,0-6.586,4.418-14.861a52.937,52.937,0,0,1,16.789-18.917,39.308,39.308,0,0,1,22.894-7.511q8.755,0,12.21,4.819a8.424,8.424,0,0,1,1.768,4.86A11.089,11.089,0,0,1,2902.758,449Z" transform="translate(-2841.145 -419.761)" fill="#9995df"/>
        </g>
      </g>
    </g>
    <g id="Component_4_132" data-name="Component 4 – 132" transform="translate(272.366 688.56)">
      <g id="Group_3447-8" data-name="Group 3447" opacity="0.16">
        <g id="Group_3446-8" data-name="Group 3446">
          <path id="Path_3223-8" data-name="Path 3223" d="M3430.343,279q.722.524,4.98,3.092t4.74,2.571q.482,0,.482-.362a.73.73,0,0,0-.322-.6q-8.837-7.229-9.8-7.23-.8,0-.8,1A1.763,1.763,0,0,0,3430.343,279Z" transform="translate(-3378.691 -276.468)" fill="#9995df"/>
          <path id="Path_3224-8" data-name="Path 3224" d="M2906.051,444.261a9.42,9.42,0,0,0-4.177-7.792q-4.178-3.133-12.21-3.133-14.942,0-28.919,9.961-12.129,8.757-16.307,17.994a33.112,33.112,0,0,0-3.293,13.5,13.636,13.636,0,0,0,3.9,10.081,15.082,15.082,0,0,0,10.322,4.218q1.205.079,3.374.08,19.6,0,35.426-14.138,10.281-9.158,10.282-19.2a15.476,15.476,0,0,0-.643-4.418A16.126,16.126,0,0,0,2906.051,444.261Zm-3.293,4.74q-3.374-6.185-11.808-8.193a34.573,34.573,0,0,0-7.832-1.045,22.884,22.884,0,0,0-7.11,1.206.46.46,0,0,0-.161.321,25.961,25.961,0,0,0,4.7.321,36.53,36.53,0,0,1,6.948.723,21.814,21.814,0,0,1,7.993,4.378,11.5,11.5,0,0,1,4.057,7.511l0,.014a12.8,12.8,0,0,1,.1,2.819l-.022.3q-.8,8.274-11.085,17.432-14.3,12.772-30.123,12.772-1.127,0-2.25-.081-10.685-.563-10.684-11.166,0-6.586,4.418-14.861a52.937,52.937,0,0,1,16.789-18.917,39.308,39.308,0,0,1,22.894-7.511q8.755,0,12.21,4.819a8.424,8.424,0,0,1,1.768,4.86A11.089,11.089,0,0,1,2902.758,449Z" transform="translate(-2841.145 -419.761)" fill="#9995df"/>
        </g>
      </g>
    </g>
    <g id="Component_4_133" data-name="Component 4 – 133" transform="translate(830.366 688.56)">
      <g id="Group_3447-9" data-name="Group 3447" opacity="0.16">
        <g id="Group_3446-9" data-name="Group 3446">
          <path id="Path_3223-9" data-name="Path 3223" d="M3430.343,279q.722.524,4.98,3.092t4.74,2.571q.482,0,.482-.362a.73.73,0,0,0-.322-.6q-8.837-7.229-9.8-7.23-.8,0-.8,1A1.763,1.763,0,0,0,3430.343,279Z" transform="translate(-3378.691 -276.468)" fill="#9995df"/>
          <path id="Path_3224-9" data-name="Path 3224" d="M2906.051,444.261a9.42,9.42,0,0,0-4.177-7.792q-4.178-3.133-12.21-3.133-14.942,0-28.919,9.961-12.129,8.757-16.307,17.994a33.112,33.112,0,0,0-3.293,13.5,13.636,13.636,0,0,0,3.9,10.081,15.082,15.082,0,0,0,10.322,4.218q1.205.079,3.374.08,19.6,0,35.426-14.138,10.281-9.158,10.282-19.2a15.476,15.476,0,0,0-.643-4.418A16.126,16.126,0,0,0,2906.051,444.261Zm-3.293,4.74q-3.374-6.185-11.808-8.193a34.573,34.573,0,0,0-7.832-1.045,22.884,22.884,0,0,0-7.11,1.206.46.46,0,0,0-.161.321,25.961,25.961,0,0,0,4.7.321,36.53,36.53,0,0,1,6.948.723,21.814,21.814,0,0,1,7.993,4.378,11.5,11.5,0,0,1,4.057,7.511l0,.014a12.8,12.8,0,0,1,.1,2.819l-.022.3q-.8,8.274-11.085,17.432-14.3,12.772-30.123,12.772-1.127,0-2.25-.081-10.685-.563-10.684-11.166,0-6.586,4.418-14.861a52.937,52.937,0,0,1,16.789-18.917,39.308,39.308,0,0,1,22.894-7.511q8.755,0,12.21,4.819a8.424,8.424,0,0,1,1.768,4.86A11.089,11.089,0,0,1,2902.758,449Z" transform="translate(-2841.145 -419.761)" fill="#9995df"/>
        </g>
      </g>
    </g>
    <g id="Component_4_134" data-name="Component 4 – 134" transform="translate(1388.366 688.56)">
      <g id="Group_3447-10" data-name="Group 3447" opacity="0.16">
        <g id="Group_3446-10" data-name="Group 3446">
          <path id="Path_3223-10" data-name="Path 3223" d="M3430.343,279q.722.524,4.98,3.092t4.74,2.571q.482,0,.482-.362a.73.73,0,0,0-.322-.6q-8.837-7.229-9.8-7.23-.8,0-.8,1A1.763,1.763,0,0,0,3430.343,279Z" transform="translate(-3378.691 -276.468)" fill="#9995df"/>
          <path id="Path_3224-10" data-name="Path 3224" d="M2906.051,444.261a9.42,9.42,0,0,0-4.177-7.792q-4.178-3.133-12.21-3.133-14.942,0-28.919,9.961-12.129,8.757-16.307,17.994a33.112,33.112,0,0,0-3.293,13.5,13.636,13.636,0,0,0,3.9,10.081,15.082,15.082,0,0,0,10.322,4.218q1.205.079,3.374.08,19.6,0,35.426-14.138,10.281-9.158,10.282-19.2a15.476,15.476,0,0,0-.643-4.418A16.126,16.126,0,0,0,2906.051,444.261Zm-3.293,4.74q-3.374-6.185-11.808-8.193a34.573,34.573,0,0,0-7.832-1.045,22.884,22.884,0,0,0-7.11,1.206.46.46,0,0,0-.161.321,25.961,25.961,0,0,0,4.7.321,36.53,36.53,0,0,1,6.948.723,21.814,21.814,0,0,1,7.993,4.378,11.5,11.5,0,0,1,4.057,7.511l0,.014a12.8,12.8,0,0,1,.1,2.819l-.022.3q-.8,8.274-11.085,17.432-14.3,12.772-30.123,12.772-1.127,0-2.25-.081-10.685-.563-10.684-11.166,0-6.586,4.418-14.861a52.937,52.937,0,0,1,16.789-18.917,39.308,39.308,0,0,1,22.894-7.511q8.755,0,12.21,4.819a8.424,8.424,0,0,1,1.768,4.86A11.089,11.089,0,0,1,2902.758,449Z" transform="translate(-2841.145 -419.761)" fill="#9995df"/>
        </g>
      </g>
    </g>
    <g id="Component_4_135" data-name="Component 4 – 135" transform="translate(1946.366 688.56)">
      <g id="Group_3447-11" data-name="Group 3447" opacity="0.16">
        <g id="Group_3446-11" data-name="Group 3446">
          <path id="Path_3223-11" data-name="Path 3223" d="M3430.343,279q.722.524,4.98,3.092t4.74,2.571q.482,0,.482-.362a.73.73,0,0,0-.322-.6q-8.837-7.229-9.8-7.23-.8,0-.8,1A1.763,1.763,0,0,0,3430.343,279Z" transform="translate(-3378.691 -276.468)" fill="#9995df"/>
          <path id="Path_3224-11" data-name="Path 3224" d="M2906.051,444.261a9.42,9.42,0,0,0-4.177-7.792q-4.178-3.133-12.21-3.133-14.942,0-28.919,9.961-12.129,8.757-16.307,17.994a33.112,33.112,0,0,0-3.293,13.5,13.636,13.636,0,0,0,3.9,10.081,15.082,15.082,0,0,0,10.322,4.218q1.205.079,3.374.08,19.6,0,35.426-14.138,10.281-9.158,10.282-19.2a15.476,15.476,0,0,0-.643-4.418A16.126,16.126,0,0,0,2906.051,444.261Zm-3.293,4.74q-3.374-6.185-11.808-8.193a34.573,34.573,0,0,0-7.832-1.045,22.884,22.884,0,0,0-7.11,1.206.46.46,0,0,0-.161.321,25.961,25.961,0,0,0,4.7.321,36.53,36.53,0,0,1,6.948.723,21.814,21.814,0,0,1,7.993,4.378,11.5,11.5,0,0,1,4.057,7.511l0,.014a12.8,12.8,0,0,1,.1,2.819l-.022.3q-.8,8.274-11.085,17.432-14.3,12.772-30.123,12.772-1.127,0-2.25-.081-10.685-.563-10.684-11.166,0-6.586,4.418-14.861a52.937,52.937,0,0,1,16.789-18.917,39.308,39.308,0,0,1,22.894-7.511q8.755,0,12.21,4.819a8.424,8.424,0,0,1,1.768,4.86A11.089,11.089,0,0,1,2902.758,449Z" transform="translate(-2841.145 -419.761)" fill="#9995df"/>
        </g>
      </g>
    </g>
    <g id="Component_4_136" data-name="Component 4 – 136" transform="translate(412.366 688.56)">
      <g id="Group_3447-12" data-name="Group 3447" opacity="0.16">
        <g id="Group_3446-12" data-name="Group 3446">
          <path id="Path_3223-12" data-name="Path 3223" d="M3430.343,279q.722.524,4.98,3.092t4.74,2.571q.482,0,.482-.362a.73.73,0,0,0-.322-.6q-8.837-7.229-9.8-7.23-.8,0-.8,1A1.763,1.763,0,0,0,3430.343,279Z" transform="translate(-3378.691 -276.468)" fill="#9995df"/>
          <path id="Path_3224-12" data-name="Path 3224" d="M2906.051,444.261a9.42,9.42,0,0,0-4.177-7.792q-4.178-3.133-12.21-3.133-14.942,0-28.919,9.961-12.129,8.757-16.307,17.994a33.112,33.112,0,0,0-3.293,13.5,13.636,13.636,0,0,0,3.9,10.081,15.082,15.082,0,0,0,10.322,4.218q1.205.079,3.374.08,19.6,0,35.426-14.138,10.281-9.158,10.282-19.2a15.476,15.476,0,0,0-.643-4.418A16.126,16.126,0,0,0,2906.051,444.261Zm-3.293,4.74q-3.374-6.185-11.808-8.193a34.573,34.573,0,0,0-7.832-1.045,22.884,22.884,0,0,0-7.11,1.206.46.46,0,0,0-.161.321,25.961,25.961,0,0,0,4.7.321,36.53,36.53,0,0,1,6.948.723,21.814,21.814,0,0,1,7.993,4.378,11.5,11.5,0,0,1,4.057,7.511l0,.014a12.8,12.8,0,0,1,.1,2.819l-.022.3q-.8,8.274-11.085,17.432-14.3,12.772-30.123,12.772-1.127,0-2.25-.081-10.685-.563-10.684-11.166,0-6.586,4.418-14.861a52.937,52.937,0,0,1,16.789-18.917,39.308,39.308,0,0,1,22.894-7.511q8.755,0,12.21,4.819a8.424,8.424,0,0,1,1.768,4.86A11.089,11.089,0,0,1,2902.758,449Z" transform="translate(-2841.145 -419.761)" fill="#9995df"/>
        </g>
      </g>
    </g>
    <g id="Component_4_137" data-name="Component 4 – 137" transform="translate(970.366 688.56)">
      <g id="Group_3447-13" data-name="Group 3447" opacity="0.16">
        <g id="Group_3446-13" data-name="Group 3446">
          <path id="Path_3223-13" data-name="Path 3223" d="M3430.343,279q.722.524,4.98,3.092t4.74,2.571q.482,0,.482-.362a.73.73,0,0,0-.322-.6q-8.837-7.229-9.8-7.23-.8,0-.8,1A1.763,1.763,0,0,0,3430.343,279Z" transform="translate(-3378.691 -276.468)" fill="#9995df"/>
          <path id="Path_3224-13" data-name="Path 3224" d="M2906.051,444.261a9.42,9.42,0,0,0-4.177-7.792q-4.178-3.133-12.21-3.133-14.942,0-28.919,9.961-12.129,8.757-16.307,17.994a33.112,33.112,0,0,0-3.293,13.5,13.636,13.636,0,0,0,3.9,10.081,15.082,15.082,0,0,0,10.322,4.218q1.205.079,3.374.08,19.6,0,35.426-14.138,10.281-9.158,10.282-19.2a15.476,15.476,0,0,0-.643-4.418A16.126,16.126,0,0,0,2906.051,444.261Zm-3.293,4.74q-3.374-6.185-11.808-8.193a34.573,34.573,0,0,0-7.832-1.045,22.884,22.884,0,0,0-7.11,1.206.46.46,0,0,0-.161.321,25.961,25.961,0,0,0,4.7.321,36.53,36.53,0,0,1,6.948.723,21.814,21.814,0,0,1,7.993,4.378,11.5,11.5,0,0,1,4.057,7.511l0,.014a12.8,12.8,0,0,1,.1,2.819l-.022.3q-.8,8.274-11.085,17.432-14.3,12.772-30.123,12.772-1.127,0-2.25-.081-10.685-.563-10.684-11.166,0-6.586,4.418-14.861a52.937,52.937,0,0,1,16.789-18.917,39.308,39.308,0,0,1,22.894-7.511q8.755,0,12.21,4.819a8.424,8.424,0,0,1,1.768,4.86A11.089,11.089,0,0,1,2902.758,449Z" transform="translate(-2841.145 -419.761)" fill="#9995df"/>
        </g>
      </g>
    </g>
    <g id="Component_4_138" data-name="Component 4 – 138" transform="translate(1528.366 688.56)">
      <g id="Group_3447-14" data-name="Group 3447" opacity="0.16">
        <g id="Group_3446-14" data-name="Group 3446">
          <path id="Path_3223-14" data-name="Path 3223" d="M3430.343,279q.722.524,4.98,3.092t4.74,2.571q.482,0,.482-.362a.73.73,0,0,0-.322-.6q-8.837-7.229-9.8-7.23-.8,0-.8,1A1.763,1.763,0,0,0,3430.343,279Z" transform="translate(-3378.691 -276.468)" fill="#9995df"/>
          <path id="Path_3224-14" data-name="Path 3224" d="M2906.051,444.261a9.42,9.42,0,0,0-4.177-7.792q-4.178-3.133-12.21-3.133-14.942,0-28.919,9.961-12.129,8.757-16.307,17.994a33.112,33.112,0,0,0-3.293,13.5,13.636,13.636,0,0,0,3.9,10.081,15.082,15.082,0,0,0,10.322,4.218q1.205.079,3.374.08,19.6,0,35.426-14.138,10.281-9.158,10.282-19.2a15.476,15.476,0,0,0-.643-4.418A16.126,16.126,0,0,0,2906.051,444.261Zm-3.293,4.74q-3.374-6.185-11.808-8.193a34.573,34.573,0,0,0-7.832-1.045,22.884,22.884,0,0,0-7.11,1.206.46.46,0,0,0-.161.321,25.961,25.961,0,0,0,4.7.321,36.53,36.53,0,0,1,6.948.723,21.814,21.814,0,0,1,7.993,4.378,11.5,11.5,0,0,1,4.057,7.511l0,.014a12.8,12.8,0,0,1,.1,2.819l-.022.3q-.8,8.274-11.085,17.432-14.3,12.772-30.123,12.772-1.127,0-2.25-.081-10.685-.563-10.684-11.166,0-6.586,4.418-14.861a52.937,52.937,0,0,1,16.789-18.917,39.308,39.308,0,0,1,22.894-7.511q8.755,0,12.21,4.819a8.424,8.424,0,0,1,1.768,4.86A11.089,11.089,0,0,1,2902.758,449Z" transform="translate(-2841.145 -419.761)" fill="#9995df"/>
        </g>
      </g>
    </g>
  </g>
</svg>
