<svg xmlns="http://www.w3.org/2000/svg" width="99.15" height="19.456" viewBox="0 0 99.15 19.456">
  <g id="Group_3719" data-name="Group 3719" transform="translate(-499.27 -602.605)">
    <g id="Group_2965" data-name="Group 2965" transform="translate(499.27 602.605)">
      <g id="Group_2964" data-name="Group 2964" transform="translate(0 0)">
        <path id="Path_2911" data-name="Path 2911" d="M499.27,1031.963a7.162,7.162,0,1,1,7.162,7.121A7.028,7.028,0,0,1,499.27,1031.963Zm1.569,0a5.594,5.594,0,1,0,5.593-5.677A5.616,5.616,0,0,0,500.839,1031.963Zm2.724-11.407,1.445-.928,2.6,2.683-.888.66Z" transform="translate(-499.27 -1019.627)" fill="#fff"/>
        <path id="Path_2912" data-name="Path 2912" d="M745.65,1074.586a5.108,5.108,0,0,1,3.158.867,3.419,3.419,0,0,1,1.239,2.848,3.107,3.107,0,0,1-1.362,2.7,3.452,3.452,0,0,1,2.621,3.468,3.805,3.805,0,0,1-1.4,2.972,5.02,5.02,0,0,1-3.3.908h-3.427v-13.767Zm-.95,6.048h1.156c.8,0,2.7-.165,2.7-2.291,0-2.27-2.229-2.312-2.663-2.312h-1.2Zm0,6.275h1.755a3.806,3.806,0,0,0,2.415-.578,2.32,2.32,0,0,0,.908-1.9,2.23,2.23,0,0,0-1.176-2.022,4.8,4.8,0,0,0-2.332-.413H744.7Z" transform="translate(-719.025 -1069.145)" fill="#fff"/>
        <path id="Path_2913" data-name="Path 2913" d="M917.031,1031.963a7.162,7.162,0,1,1,7.162,7.121A7.028,7.028,0,0,1,917.031,1031.963Zm1.569,0a5.594,5.594,0,1,0,5.593-5.677A5.616,5.616,0,0,0,918.6,1031.963Zm2.724-11.407,1.445-.928,2.6,2.683-.888.66Z" transform="translate(-875.67 -1019.627)" fill="#fff"/>
        <path id="Path_2914" data-name="Path 2914" d="M1160.929,1074.586h2.807a7.485,7.485,0,0,1,5.077,1.61,6.71,6.71,0,0,1,2.354,5.284,6.554,6.554,0,0,1-2.415,5.284,6.9,6.9,0,0,1-5.036,1.589h-2.787Zm1.528,12.322h1.342a5.881,5.881,0,0,0,3.942-1.238,5.269,5.269,0,0,0,1.857-4.19c0-3.3-2.312-5.449-5.8-5.449h-1.342Z" transform="translate(-1095.42 -1069.145)" fill="#fff"/>
        <path id="Path_2915" data-name="Path 2915" d="M1356.047,1031.963a7.162,7.162,0,1,1,7.162,7.121A7.028,7.028,0,0,1,1356.047,1031.963Zm1.569,0a5.594,5.594,0,1,0,5.593-5.677A5.616,5.616,0,0,0,1357.616,1031.963Zm2.724-11.407,1.445-.928,2.6,2.683-.888.66Z" transform="translate(-1271.221 -1019.627)" fill="#fff"/>
      </g>
    </g>
  </g>
</svg>
