<svg xmlns="http://www.w3.org/2000/svg" viewBox="0 0 63.7 68.93"><defs><style>.cls-1,.cls-3{fill:#fff;}.cls-1,.cls-12{stroke:#1d1a47;stroke-miterlimit:10;}.cls-2,.cls-4{fill:#1d1a47;}.cls-2{opacity:0.57;}.cls-3{opacity:0.96;}.cls-4{font-size:7.45px;font-family:HKGrotesk-Medium, HK Grotesk;font-weight:500;}.cls-5{letter-spacing:0em;}.cls-6{letter-spacing:0em;}.cls-7{letter-spacing:-0.01em;}.cls-8{opacity:0.1;}.cls-11,.cls-12,.cls-9{fill:none;}.cls-9{stroke:#1bd9a8;}.cls-11,.cls-9{stroke-linecap:round;stroke-linejoin:round;}.cls-10{fill:#1bd9a8;}.cls-11{stroke:#fff;}</style></defs><g id="Layer_2" data-name="Layer 2"><g id="Layer_1-2" data-name="Layer 1"><path class="cls-1" d="M50.6,68.43H1.18a.69.69,0,0,1-.68-.69V6.41a.68.68,0,0,1,.68-.68H62.52a.67.67,0,0,1,.68.68V56.82Z"/><polygon class="cls-2" points="49.35 57.4 63.2 56.82 50.6 68.43 49.35 57.4"/><polygon class="cls-3" points="50.6 57.81 63.2 56.82 50.6 68.43 50.6 57.81"/><text class="cls-4" transform="translate(5.32 16.44)"><tspan class="cls-5">M</tspan><tspan x="6.64" y="0">on</tspan><tspan class="cls-6" x="15.03" y="0">d</tspan><tspan class="cls-7" x="19.4" y="0">a</tspan><tspan x="23.28" y="0">y</tspan></text><path class="cls-8" d="M54,7.35v9.37c-1.49,1.72-3.4.68-3.4-.81v-6a.63.63,0,0,0-1.25,0v5.84a3.06,3.06,0,0,0,2.41,3.07,3,3,0,0,0,3.48-2.9V7.35Z"/><path class="cls-9" d="M48,5.39V3.82A3.32,3.32,0,0,1,51.31.5h0a3.32,3.32,0,0,1,3.32,3.32v11a2.32,2.32,0,0,1-2.32,2.32h0A2.32,2.32,0,0,1,50,14.85v-5"/><circle class="cls-10" cx="15.37" cy="42.16" r="9.27"/><polyline class="cls-11" points="10.04 42.04 13.32 45.32 19.64 39"/><line class="cls-12" x1="32.34" y1="33.79" x2="55.83" y2="33.79"/><line class="cls-12" x1="32.34" y1="42.16" x2="55.83" y2="42.16"/><line class="cls-12" x1="32.34" y1="50.53" x2="55.83" y2="50.53"/></g></g></svg>