<svg xmlns="http://www.w3.org/2000/svg" xmlns:xlink="http://www.w3.org/1999/xlink" width="166" height="166" viewBox="0 0 166 166">
  <defs>
    <filter id="Rectangle_2540" x="0" y="0" width="166" height="166" filterUnits="userSpaceOnUse">
      <feOffset dy="10" input="SourceAlpha"/>
      <feGaussianBlur stdDeviation="10" result="blur"/>
      <feFlood flood-color="#a7a4cb" flood-opacity="0.161"/>
      <feComposite operator="in" in2="blur"/>
      <feComposite in="SourceGraphic"/>
    </filter>
  </defs>
  <g id="Group_3934" data-name="Group 3934" transform="translate(-17702 749)">
    <g transform="matrix(1, 0, 0, 1, 17702, -749)" filter="url(#Rectangle_2540)">
      <rect id="Rectangle_2540-2" data-name="Rectangle 2540" width="106" height="106" rx="4" transform="translate(30 20)" fill="#fff"/>
    </g>
    <path id="Icon_zocial-soundcloud" data-name="Icon zocial-soundcloud" d="M-2.641,40.224a28.075,28.075,0,0,1,.263-3.3q.264-2.1.713-2.327.45.225.788,2.439a24.089,24.089,0,0,1,.338,3.19,22.5,22.5,0,0,1-.338,3.187c-.225,1.424-.488,2.214-.788,2.364Q-2.64,45.252-2.641,40.224Zm4.8,0q0-1.875.375-5.556t.45-4.576a.4.4,0,0,1,.45-.45q.3,0,.45.45.9,9.679.9,10.132a50.139,50.139,0,0,1-.413,5.327q-.415,3.529-.488,4.431c-.1.347-.251.523-.45.523-.3,0-.45-.174-.45-.523q-.074-.827-.45-4.393T2.162,40.224Zm6.079,0q0-1.8.375-5.519t.375-4.09c0-.45.176-.675.525-.675.4,0,.6.225.6.675q.827,8.482.826,9.609t-.826,10.207a.531.531,0,0,1-.6.6c-.349,0-.525-.2-.525-.6q0-.524-.375-4.391T8.241,40.224Zm6.905,0q0-2.853.113-6.042t.3-7.133q.19-3.94.263-6.117,0-.749.675-.751a.663.663,0,0,1,.751.751q.074,1.2.413,8.369T18,40.222q0,1.953-.375,5.777t-.375,4.353a.662.662,0,0,1-.751.751c-.45,0-.675-.249-.675-.751Q15.15,40.448,15.146,40.224Zm7.055,0q0-4.13.225-11.971t.3-9.645q.151-.9.9-.9t.9.9q.074,2.4.338,9.98t.263,11.636q0,1.875-.263,5.4t-.338,4.578q-.148.9-.9.9c-.5,0-.8-.3-.9-.9q0-.823-.263-4.431T22.2,40.224Zm7.13,0q0-3,.075-6.382t.188-7.505q.113-4.127.188-6.38c.1-.751.45-1.126,1.051-1.126s.95.375,1.051,1.126q.074,2.252.188,6.38t.188,7.505q.074,3.377.075,6.382,0,.148-.45,9.83v-.073Q31.732,51.1,30.833,51.1t-1.051-1.051Q29.332,40.372,29.332,40.224Zm7.13.073q0-.225.45-26.344c.1-.9.5-1.351,1.2-1.351s1.1.45,1.2,1.351q.45,26.119.45,26.344,0,.074-.45,9.532c-.1.849-.5,1.276-1.2,1.276s-1.1-.427-1.2-1.276Q36.462,40.372,36.462,40.3Zm6.007-15.949q0-6.192.073-11.671-.074-.749.938-1.351a7.382,7.382,0,0,1,2.439-.863q1.425-.264,2.589-.413a15.035,15.035,0,0,1,1.836-.15,17.3,17.3,0,0,1,12.684,5.441,20.6,20.6,0,0,1,6.007,13.4,9.651,9.651,0,0,1,11.6,2.439,12.007,12.007,0,0,1,3.152,8.294,11.626,11.626,0,0,1-3.115,8.291,9.876,9.876,0,0,1-7.5,3.417h-29.5a.974.974,0,0,1-.788-.45,1.6,1.6,0,0,1-.34-.976q0-4.127-.038-11.671T42.469,24.348Z" transform="translate(17744.234 -706.54)" fill="#f7620e"/>
  </g>
</svg>
