<svg xmlns="http://www.w3.org/2000/svg" xmlns:xlink="http://www.w3.org/1999/xlink" width="165" height="166" viewBox="0 0 165 166">
  <defs>
    <filter id="Rectangle_2542" x="0" y="0" width="165" height="166" filterUnits="userSpaceOnUse">
      <feOffset dy="10" input="SourceAlpha"/>
      <feGaussianBlur stdDeviation="10" result="blur"/>
      <feFlood flood-color="#a7a4cb" flood-opacity="0.302"/>
      <feComposite operator="in" in2="blur"/>
      <feComposite in="SourceGraphic"/>
    </filter>
  </defs>
  <g id="Group_3936" data-name="Group 3936" transform="translate(-18031 749)">
    <g transform="matrix(1, 0, 0, 1, 18031, -749)" filter="url(#Rectangle_2542)">
      <rect id="Rectangle_2542-2" data-name="Rectangle 2542" width="105" height="106" rx="4" transform="translate(30 20)" fill="#fff"/>
    </g>
    <path id="Icon_awesome-spotify" data-name="Icon awesome-spotify" d="M31.556.563A31.556,31.556,0,1,0,63.111,32.118,31.567,31.567,0,0,0,31.556.563Zm12.813,46.43a2.428,2.428,0,0,1-1.361-.458c-7.94-4.784-17.177-4.988-26.3-3.117a8.216,8.216,0,0,1-1.514.331,1.981,1.981,0,0,1-2.01-2.01,2.016,2.016,0,0,1,1.73-2.138c10.421-2.3,21.071-2.1,30.156,3.334a2.152,2.152,0,0,1,1.234,2.1,1.923,1.923,0,0,1-1.934,1.96Zm3.423-8.347a3.142,3.142,0,0,1-1.565-.534c-7.953-4.708-19.811-6.6-30.36-3.741a5.24,5.24,0,0,1-1.514.331,2.471,2.471,0,0,1-2.468-2.468A2.5,2.5,0,0,1,13.857,29.6,42.8,42.8,0,0,1,26.3,27.868a44.541,44.541,0,0,1,22.522,5.789,2.653,2.653,0,0,1,1.438,2.507A2.465,2.465,0,0,1,47.792,38.646Zm3.944-9.7a2.926,2.926,0,0,1-1.641-.5c-9.06-5.408-25.257-6.706-35.742-3.779a6.044,6.044,0,0,1-1.641.331,2.937,2.937,0,0,1-2.965-3,3.006,3.006,0,0,1,2.214-3.041,53.328,53.328,0,0,1,14.951-1.934c9.289,0,19.022,1.934,26.135,6.082a2.987,2.987,0,0,1,1.641,2.876,2.948,2.948,0,0,1-2.952,2.965Z" transform="translate(18081.975 -710.217)" fill="#1ed760"/>
  </g>
</svg>
