<svg xmlns="http://www.w3.org/2000/svg" width="517.556" height="577.096" viewBox="0 0 517.556 577.096">
  <g id="Group_4335" data-name="Group 4335" transform="translate(2621.5 -2627.482)">
    <text id="_15_" data-name="15+" transform="translate(-2346.603 2982.411)" fill="#0d0a3a" font-size="170" font-family="Poppins-Bold, Poppins" font-weight="700"><tspan x="-140.59" y="0">15+</tspan></text>
    <text id="Countries_" data-name="Countries  " transform="translate(-2356.722 3063.411)" fill="#0d0a3a" font-size="40" font-family="HKGrotesk-Bold, HK Grotesk" font-weight="700"><tspan x="-97.26" y="0" xml:space="preserve">Countries  </tspan></text>
    <text id="worldwide_with_members_of_this_community" data-name="worldwide with members 
of this community" transform="translate(-2362.722 3105.411)" fill="#0d0a3a" font-size="26" font-family="HKGrotesk-Medium, HK Grotesk" font-weight="500"><tspan x="-149.591" y="0">worldwide with members </tspan><tspan x="-104.572" y="40">of this community</tspan></text>
    <path id="Path_4272" data-name="Path 4272" d="M-39.619,349.5A62.938,62.938,0,0,0-102.5,412.381a62.938,62.938,0,0,0,62.881,62.881,62.938,62.938,0,0,0,62.881-62.881A62.938,62.938,0,0,0-39.619,349.5Zm0,119.407h0c-5.692,0-11.649-9.134-15.356-24.093a96.046,96.046,0,0,1,15.356-1.324,83.883,83.883,0,0,1,15.356,1.324c-3.707,14.959-9.664,24.093-15.356,24.093Zm-18.93-59.7a167.66,167.66,0,0,1,2.25-23.167,97.739,97.739,0,0,0,16.68,1.456,98.937,98.937,0,0,0,16.68-1.456,133.446,133.446,0,0,1,2.25,23.167Zm37.861,6.354a167.66,167.66,0,0,1-2.25,23.167,97.739,97.739,0,0,0-16.68-1.456,98.936,98.936,0,0,0-16.68,1.456,133.447,133.447,0,0,1-2.25-23.167Zm-18.93-34.419a83.884,83.884,0,0,1-15.356-1.324c3.707-14.959,9.8-24.093,15.356-24.093s11.65,9.134,15.356,24.093A83.883,83.883,0,0,1-39.619,381.139Zm12.576-23.828A56.618,56.618,0,0,1-.037,372.137a75.469,75.469,0,0,1-18.136,6.619C-20.159,370.019-23.2,362.473-27.043,357.31ZM-61.2,378.624A86.7,86.7,0,0,1-79.333,372a57.631,57.631,0,0,1,27.006-14.827C-56.034,362.473-59.079,370.019-61.2,378.624Zm-1.324,6.222A147.473,147.473,0,0,0-64.9,409.2H-96.146A56.116,56.116,0,0,1-83.57,376.77,85.659,85.659,0,0,0-62.521,384.846ZM-64.9,415.558a182.916,182.916,0,0,0,2.383,24.358A87.893,87.893,0,0,0-83.7,447.991a56.468,56.468,0,0,1-12.576-32.433Zm3.707,30.58c2.118,8.6,5.03,16.15,8.87,21.446a56.618,56.618,0,0,1-27.006-14.827A76.045,76.045,0,0,1-61.2,446.138Zm43.156,0A86.7,86.7,0,0,1,.1,452.757a57.632,57.632,0,0,1-27.006,14.827C-23.2,462.288-20.159,454.743-18.041,446.138Zm1.324-6.354a147.469,147.469,0,0,0,2.383-24.358H16.907A56.116,56.116,0,0,1,4.331,447.859,97.73,97.73,0,0,0-16.717,439.784Zm2.383-30.58a182.923,182.923,0,0,0-2.383-24.358A87.888,87.888,0,0,0,4.464,376.77,56.468,56.468,0,0,1,17.04,409.2Z" transform="translate(-2320.484 2334.149)" fill="#d3d2df"/>
    <path id="Path_4273" data-name="Path 4273" d="M-39.619,349.5A62.938,62.938,0,0,0-102.5,412.381a62.938,62.938,0,0,0,62.881,62.881,62.938,62.938,0,0,0,62.881-62.881A62.938,62.938,0,0,0-39.619,349.5Zm0,119.407h0c-5.692,0-11.649-9.134-15.356-24.093a96.046,96.046,0,0,1,15.356-1.324,83.883,83.883,0,0,1,15.356,1.324c-3.707,14.959-9.664,24.093-15.356,24.093Zm-18.93-59.7a167.66,167.66,0,0,1,2.25-23.167,97.739,97.739,0,0,0,16.68,1.456,98.937,98.937,0,0,0,16.68-1.456,133.446,133.446,0,0,1,2.25,23.167Zm37.861,6.354a167.66,167.66,0,0,1-2.25,23.167,97.739,97.739,0,0,0-16.68-1.456,98.936,98.936,0,0,0-16.68,1.456,133.447,133.447,0,0,1-2.25-23.167Zm-18.93-34.419a83.884,83.884,0,0,1-15.356-1.324c3.707-14.959,9.8-24.093,15.356-24.093s11.65,9.134,15.356,24.093A83.883,83.883,0,0,1-39.619,381.139Zm12.576-23.828A56.618,56.618,0,0,1-.037,372.137a75.469,75.469,0,0,1-18.136,6.619C-20.159,370.019-23.2,362.473-27.043,357.31ZM-61.2,378.624A86.7,86.7,0,0,1-79.333,372a57.631,57.631,0,0,1,27.006-14.827C-56.034,362.473-59.079,370.019-61.2,378.624Zm-1.324,6.222A147.473,147.473,0,0,0-64.9,409.2H-96.146A56.116,56.116,0,0,1-83.57,376.77,85.659,85.659,0,0,0-62.521,384.846ZM-64.9,415.558a182.916,182.916,0,0,0,2.383,24.358A87.893,87.893,0,0,0-83.7,447.991a56.468,56.468,0,0,1-12.576-32.433Zm3.707,30.58c2.118,8.6,5.03,16.15,8.87,21.446a56.618,56.618,0,0,1-27.006-14.827A76.045,76.045,0,0,1-61.2,446.138Zm43.156,0A86.7,86.7,0,0,1,.1,452.757a57.632,57.632,0,0,1-27.006,14.827C-23.2,462.288-20.159,454.743-18.041,446.138Zm1.324-6.354a147.469,147.469,0,0,0,2.383-24.358H16.907A56.116,56.116,0,0,1,4.331,447.859,97.73,97.73,0,0,0-16.717,439.784Zm2.383-30.58a182.923,182.923,0,0,0-2.383-24.358A87.888,87.888,0,0,0,4.464,376.77,56.468,56.468,0,0,1,17.04,409.2Z" transform="translate(-2325.722 2328.149)" fill="#1b1b1b"/>
    <g id="Group_4207" data-name="Group 4207" transform="translate(5406.156 -8705.559)">
      <path id="Path_4219" data-name="Path 4219" d="M-8066.4,11609.2v88.34h73.323" transform="translate(41.243 210.094)" fill="none" stroke="#1b1b1b" stroke-linecap="round" stroke-linejoin="round" stroke-width="5"/>
      <path id="Path_4221" data-name="Path 4221" d="M0,88.341V0H73.323" transform="translate(-8025.156 11335.541)" fill="none" stroke="#1b1b1b" stroke-linecap="round" stroke-linejoin="round" stroke-width="5"/>
      <path id="Path_4220" data-name="Path 4220" d="M-7993.076,11697.54v-88.34H-8066.4" transform="translate(480.476 -273.659)" fill="none" stroke="#1b1b1b" stroke-linecap="round" stroke-linejoin="round" stroke-width="5"/>
      <path id="Path_4222" data-name="Path 4222" d="M73.323,0V88.341H0" transform="translate(-7585.923 11819.296)" fill="none" stroke="#1b1b1b" stroke-linecap="round" stroke-linejoin="round" stroke-width="5"/>
    </g>
  </g>
</svg>
