<svg xmlns="http://www.w3.org/2000/svg" width="517.556" height="577.095" viewBox="0 0 517.556 577.095">
  <g id="Group_4415" data-name="Group 4415" transform="translate(5487.778 -1705.982)">
    <path id="Path_4290" data-name="Path 4290" d="M-102.6-22.1V-45.56l53.72-76.84H-16.4v75.14h13.94V-22.1H-16.4V0h-29.07V-22.1Zm59.16-68.34-28.56,43.18h28.56ZM100.9-46.41H71.315v30.26H43.775V-46.41H14.2V-72.42h29.58v-30.43h27.54v30.43H100.9Z" transform="translate(-5242 2095.5)" fill="#f6f6fd"/>
    <path id="Path_4291" data-name="Path 4291" d="M-88.34.6C-82.38.6-77.9-2.32-75.9-7.72l-4.68-1.76c-1.2,3.52-3.92,5.32-7.76,5.32-5.36,0-8.52-3.56-8.52-9.84,0-6.24,3.12-9.76,8.52-9.76,3.8,0,6.52,1.72,7.76,5.2l4.6-1.8c-2.04-5.32-6.48-8.16-12.36-8.16-8.24,0-13.52,5.64-13.52,14.56S-96.58.6-88.34.6ZM-64.78.4C-58.7.4-54.9-4.32-54.9-9.88c0-5.6-3.8-10.24-9.88-10.24-6.12,0-9.88,4.64-9.88,10.24C-74.66-4.32-70.9.4-64.78.4Zm0-4.2c-3.64,0-5.08-2.88-5.08-6.08,0-3.24,1.44-6.04,5.08-6.04s5.08,2.8,5.08,6.04C-59.7-6.68-61.14-3.8-64.78-3.8ZM-40.3-20.12a7.1,7.1,0,0,0-5.96,2.68v-2.28h-4.8V0h4.8V-7.88c0-3.52,0-8.04,4.48-8.04,3.64,0,3.64,3.04,3.64,4.4V0h4.8V-12.72C-33.34-17.4-35.86-20.12-40.3-20.12Zm22.64,4.2v-3.8h-4.92v-7.36l-4.8,3.56v3.8h-3.2v3.8h3.2v10.4c0,4.2,2.8,5.92,6.12,5.92a11.325,11.325,0,0,0,3.6-.6V-4.04a8.289,8.289,0,0,1-2.4.44c-1.56,0-2.52-.72-2.52-2.28V-15.92Zm4.08-7.52h5.04v-4.44h-5.04ZM-13.46,0h4.8V-19.72h-4.8ZM7.7-20.12a7.1,7.1,0,0,0-5.96,2.68v-2.28h-4.8V0h4.8V-7.88c0-3.52,0-8.04,4.48-8.04,3.64,0,3.64,3.04,3.64,4.4V0h4.8V-12.72C14.66-17.4,12.14-20.12,7.7-20.12Zm28.92,10c0-5.48-2.96-10-9.08-10-6.56,0-9.36,5.2-9.36,10.36C18.18-4.48,21.06.4,27.86.4a10.254,10.254,0,0,0,8.08-3.56L32.62-6.08A5.913,5.913,0,0,1,27.9-3.96c-3.12,0-4.72-1.72-4.92-4.32H36.5A14.685,14.685,0,0,0,36.62-10.12ZM22.94-12.08a4.429,4.429,0,0,1,4.56-4.04c2.52,0,4.44,1.52,4.52,4.04Zm28.4-8.04a7.1,7.1,0,0,0-5.96,2.68v-2.28h-4.8V0h4.8V-7.88c0-3.52,0-8.04,4.48-8.04,3.64,0,3.64,3.04,3.64,4.4V0h4.8V-12.72C58.3-17.4,55.78-20.12,51.34-20.12Zm22.64,4.2v-3.8H69.06v-7.36l-4.8,3.56v3.8h-3.2v3.8h3.2v10.4c0,4.2,2.8,5.92,6.12,5.92a11.325,11.325,0,0,0,3.6-.6V-4.04a8.289,8.289,0,0,1-2.4.44c-1.56,0-2.52-.72-2.52-2.28V-15.92ZM84.82.4c3.72,0,7.68-2,7.68-6.6,0-7.2-10.32-5.44-10.32-8.44,0-.92.96-1.68,2.52-1.68a4.245,4.245,0,0,1,3.92,2.52l3.72-2.04a8.158,8.158,0,0,0-7.48-4.28c-3.8,0-7.24,1.96-7.24,5.76,0,7.32,10.16,5.12,10.16,8.44,0,1.04-.96,2.32-3.2,2.32a4.27,4.27,0,0,1-4.2-3.24L76.54-5.12A8.494,8.494,0,0,0,84.82.4Z" transform="translate(-5242 2176.5)" fill="#f6f6fd"/>
    <path id="Path_4292" data-name="Path 4292" d="M-33.059.286c3.744,0,6.006-2.054,6.006-5.2,0-2.548-1.2-3.978-5.174-5.486-2.808-1.092-3.952-1.9-3.952-3.406a2.724,2.724,0,0,1,2.938-2.548,3.8,3.8,0,0,1,3.406,2.184l1.95-1.2a5.737,5.737,0,0,0-5.278-3.068c-3.172,0-5.33,1.9-5.33,4.706,0,2.444,1.3,3.77,5.018,5.2,3.016,1.17,4.082,2.106,4.082,3.822,0,1.69-1.274,2.912-3.64,2.912a4.062,4.062,0,0,1-4.29-3.666l-2.288.572C-39.117-1.768-36.491.286-33.059.286ZM-12.883-6.89c0-3.12-1.742-6.162-5.668-6.162-3.9,0-5.824,3.172-5.824,6.708,0,3.562,1.95,6.578,6.032,6.578A6.405,6.405,0,0,0-13.3-1.976l-1.534-1.378A4.389,4.389,0,0,1-18.317-1.82c-2.366,0-3.744-1.482-3.822-3.926h9.178A8.178,8.178,0,0,0-12.883-6.89Zm-9.256-.676a3.6,3.6,0,0,1,3.562-3.614A3.32,3.32,0,0,1-15.041-7.8a.577.577,0,0,0,.026.234Zm18.46-5.486a3.99,3.99,0,0,0-3.692,2.236v-2H-9.607V0h2.236V-6.916c0-2.652,1.274-4.03,3.224-4.03a3.806,3.806,0,0,1,1.664.39l1.092-1.872A4.341,4.341,0,0,0-3.679-13.052ZM4.641,0H6.513l5.252-12.818H9.321L5.551-2.886,1.833-12.818H-.585ZM24.3-6.89c0-3.12-1.742-6.162-5.668-6.162-3.9,0-5.824,3.172-5.824,6.708,0,3.562,1.95,6.578,6.032,6.578a6.405,6.405,0,0,0,5.044-2.21L22.347-3.354A4.389,4.389,0,0,1,18.863-1.82c-2.366,0-3.744-1.482-3.822-3.926h9.178A8.178,8.178,0,0,0,24.3-6.89Zm-9.256-.676A3.6,3.6,0,0,1,18.6-11.18,3.32,3.32,0,0,1,22.139-7.8a.577.577,0,0,0,.026.234Zm21.19-10.556v6.916a4.987,4.987,0,0,0-4.056-1.846c-3.432,0-5.616,2.574-5.616,6.63,0,3.822,1.95,6.656,5.616,6.656a4.929,4.929,0,0,0,4.056-1.82V0h2.236V-18.122ZM32.591-1.794c-2.522,0-3.8-1.9-3.8-4.628,0-2.808,1.378-4.628,3.8-4.628,2.47,0,3.822,1.9,3.822,4.628C36.413-3.77,35.139-1.794,32.591-1.794Z" transform="translate(-5254 2212.5)" fill="#f6f6fd"/>
    <g id="Group_4054" data-name="Group 4054" transform="translate(2102.415 -2717.941)">
      <g id="Group_3989" data-name="Group 3989" transform="translate(-7417.187 4514.89)">
        <g id="Group_3987" data-name="Group 3987" transform="translate(0 0)">
          <rect id="Rectangle_2586" data-name="Rectangle 2586" width="151" height="150" transform="translate(-0.228 -0.449)" fill="none"/>
          <path id="Path_4183" data-name="Path 4183" d="M133.861,51.152l.249.014a12.892,12.892,0,0,1,3.295.827c2.019.8,3.507,2.042,4,3.974.59,2.289-.5,4.7-3.075,7.268-.793.79-6.561,6.4-8.357,8.2-1.4,1.409-2.655,2.7-3.8,3.932-5.129,5.513-7.943,9.694-7.943,11.851,0,.687.009,1.145.053,2.795a49.347,49.347,0,0,1-.587,11.277,22.46,22.46,0,0,1-6.145,12.178c-2.19,2.183-4.2,5.051-7.691,10.673l-.847,1.367c-6.38,10.3-9.429,14.207-14.03,16.2-1.227.532-5.016,2.3-5.784,2.614a8.343,8.343,0,0,1-4.954.8c-1.9-.359-3.54-1.5-5.943-3.9-6.86-6.839-12.669-17.329-12.669-25.2,0-1.7.035-2.478.311-7.725.15-2.85.231-4.712.275-6.637.188-8.191-.572-13.454-2.364-15.241a22.338,22.338,0,0,1-4.091-5.688c-.5-.963-.627-1.231-1.655-3.49-1.329-2.924-2.129-4.292-3.416-5.575-4-3.986-6.169-4.419-12.949-1.6-9.2,3.822-17.467,2.542-23.695-3.666C3.223,57.589-3.148,39.947,4.306,32.516c1.313-1.309,9.929-9.055,11.416-10.9a7.33,7.33,0,0,0,1.989-4.654c0-7.2,8.486-12.882,17.143-12.882A35.724,35.724,0,0,0,42.678,2.82c.49-.117.994-.24,1.655-.4C53.974.043,55.816-.223,58,1.955c.849.846,4,5.388,3.983,5.364,2.443,3.253,4.6,4.841,7.047,4.841a41.025,41.025,0,0,0,7.455-.671c1.164-.2,1.753-.294,2.341-.383a27.886,27.886,0,0,1,4.3-.352c2.075,0,2.493.071,12.632,1.972,1.117.209,2.064.383,2.967.544,2.529.45,4.626.779,6.485,1.006,3.96.481,7.164,2.616,8.447,6.116l10.6,28.935a2.779,2.779,0,0,0,2.791,1.823Zm-6.812,4.688a7.485,7.485,0,0,1-7.158-4.807L109.254,22.008c-.619-1.689-2.274-2.792-4.611-3.076-1.957-.239-4.133-.58-6.74-1.044-.919-.164-1.88-.34-3.01-.552-9.412-1.764-10.158-1.892-11.768-1.892a23.358,23.358,0,0,0-3.6.3c-.545.082-1.09.172-2.267.371a45.5,45.5,0,0,1-8.224.734c-4.3,0-7.552-2.4-10.8-6.714-.247-.329-3.048-4.365-3.544-4.86-.246-.245-2.949.145-9.237,1.694-.671.165-1.185.291-1.688.41a39.175,39.175,0,0,1-8.913,1.39c-6.371,0-12.454,4.075-12.454,8.194a11.833,11.833,0,0,1-3.028,7.6C17.6,26.751,8.692,34.763,7.616,35.836c-4.93,4.915.532,20.043,7.751,27.241,4.827,4.813,11.07,5.779,18.586,2.656,8.533-3.545,12.719-2.71,18.057,2.612,1.8,1.794,2.825,3.547,4.374,6.955.982,2.16,1.1,2.408,1.542,3.26A17.708,17.708,0,0,0,61.172,83.1c3.1,3.087,3.962,9.079,3.741,18.669-.045,1.982-.128,3.883-.281,6.776-.27,5.122-.3,5.9-.3,7.478,0,6.39,5.228,15.832,11.29,21.875,1.783,1.778,2.786,2.479,3.5,2.614a4.314,4.314,0,0,0,2.3-.525c.647-.267,4.381-2.007,5.7-2.58,3.314-1.436,6.148-5.064,11.909-14.368l.85-1.372c3.684-5.934,5.828-8.992,8.364-11.52a17.847,17.847,0,0,0,4.846-9.722,45.541,45.541,0,0,0,.509-10.29c-.045-1.7-.054-2.173-.054-2.918,0-3.844,3.2-8.592,9.2-15.044,1.184-1.273,2.472-2.6,3.911-4.048,1.829-1.835,7.6-7.45,8.368-8.211,1.523-1.519,1.934-2.431,1.844-2.779-.041-.159-.427-.481-1.2-.786a8.641,8.641,0,0,0-1.95-.51Z" transform="translate(3.74 1.053)" fill="#65e6c4"/>
          <path id="Path_4184" data-name="Path 4184" d="M37.556,28.961c-.327.452-.508.7-.669.919a16.243,16.243,0,0,1-1.608,1.929c-.6.595-1.094,1.952-1.683,4.558-.126.561-.126.561-.252,1.131-.763,3.429-1.241,4.855-2.469,6.079-.961.957-.678,2.151,2.114,4.934.147.146,1.271,1.285,1.565,1.572a11.791,11.791,0,0,0,1.193,1.052c1.254.925,2.283.642,5.559-2.624A6.639,6.639,0,0,0,43.33,44.7c.231-1.5.04-2.96-.613-5.663-1.037-4.29-1.193-5.54-.319-7.544,1.256-2.879.933-4.388-.421-5.015C40.346,25.726,39.56,26.208,37.556,28.961Zm6.39-6.735c4,1.852,4.922,6.162,2.749,11.144-.27.62-.158,1.521.579,4.569.79,3.269,1.041,5.193.689,7.477a11.31,11.31,0,0,1-3.347,6.416c-4.724,4.71-8.157,5.654-11.651,3.077a15.965,15.965,0,0,1-1.686-1.472c-.33-.322-1.479-1.485-1.6-1.605-4.4-4.382-5.337-8.362-2.114-11.575.307-.306.673-1.4,1.2-3.777.125-.564.125-.564.256-1.148.793-3.5,1.481-5.383,2.946-6.843A12.223,12.223,0,0,0,33.114,27.1c.148-.2.316-.431.651-.894C36.945,21.834,39.593,20.212,43.946,22.226Z" transform="translate(94.584 78.144)" fill="#65e6c4"/>
        </g>
      </g>
      <g id="Group_3988" data-name="Group 3988" transform="translate(-7423.415 4510.441)">
        <g id="Group_3987-2" data-name="Group 3987" transform="translate(0 0)">
          <rect id="Rectangle_2586-2" data-name="Rectangle 2586" width="150" height="149" transform="translate(0 0)" fill="none"/>
          <path id="Path_4183-2" data-name="Path 4183" d="M133.861,51.152l.249.014a12.892,12.892,0,0,1,3.295.827c2.019.8,3.507,2.042,4,3.974.59,2.289-.5,4.7-3.075,7.268-.793.79-6.561,6.4-8.357,8.2-1.4,1.409-2.655,2.7-3.8,3.932-5.129,5.513-7.943,9.694-7.943,11.851,0,.687.009,1.145.053,2.795a49.347,49.347,0,0,1-.587,11.277,22.46,22.46,0,0,1-6.145,12.178c-2.19,2.183-4.2,5.051-7.691,10.673l-.847,1.367c-6.38,10.3-9.429,14.207-14.03,16.2-1.227.532-5.016,2.3-5.784,2.614a8.343,8.343,0,0,1-4.954.8c-1.9-.359-3.54-1.5-5.943-3.9-6.86-6.839-12.669-17.329-12.669-25.2,0-1.7.035-2.478.311-7.725.15-2.85.231-4.712.275-6.637.188-8.191-.572-13.454-2.364-15.241a22.338,22.338,0,0,1-4.091-5.688c-.5-.963-.627-1.231-1.655-3.49-1.329-2.924-2.129-4.292-3.416-5.575-4-3.986-6.169-4.419-12.949-1.6-9.2,3.822-17.467,2.542-23.695-3.666C3.223,57.589-3.148,39.947,4.306,32.516c1.313-1.309,9.929-9.055,11.416-10.9a7.33,7.33,0,0,0,1.989-4.654c0-7.2,8.486-12.882,17.143-12.882A35.724,35.724,0,0,0,42.678,2.82c.49-.117.994-.24,1.655-.4C53.974.043,55.816-.223,58,1.955c.849.846,4,5.388,3.983,5.364,2.443,3.253,4.6,4.841,7.047,4.841a41.025,41.025,0,0,0,7.455-.671c1.164-.2,1.753-.294,2.341-.383a27.886,27.886,0,0,1,4.3-.352c2.075,0,2.493.071,12.632,1.972,1.117.209,2.064.383,2.967.544,2.529.45,4.626.779,6.485,1.006,3.96.481,7.164,2.616,8.447,6.116l10.6,28.935a2.779,2.779,0,0,0,2.791,1.823Zm-6.812,4.688a7.485,7.485,0,0,1-7.158-4.807L109.254,22.008c-.619-1.689-2.274-2.792-4.611-3.076-1.957-.239-4.133-.58-6.74-1.044-.919-.164-1.88-.34-3.01-.552-9.412-1.764-10.158-1.892-11.768-1.892a23.358,23.358,0,0,0-3.6.3c-.545.082-1.09.172-2.267.371a45.5,45.5,0,0,1-8.224.734c-4.3,0-7.552-2.4-10.8-6.714-.247-.329-3.048-4.365-3.544-4.86-.246-.245-2.949.145-9.237,1.694-.671.165-1.185.291-1.688.41a39.175,39.175,0,0,1-8.913,1.39c-6.371,0-12.454,4.075-12.454,8.194a11.833,11.833,0,0,1-3.028,7.6C17.6,26.751,8.692,34.763,7.616,35.836c-4.93,4.915.532,20.043,7.751,27.241,4.827,4.813,11.07,5.779,18.586,2.656,8.533-3.545,12.719-2.71,18.057,2.612,1.8,1.794,2.825,3.547,4.374,6.955.982,2.16,1.1,2.408,1.542,3.26A17.708,17.708,0,0,0,61.172,83.1c3.1,3.087,3.962,9.079,3.741,18.669-.045,1.982-.128,3.883-.281,6.776-.27,5.122-.3,5.9-.3,7.478,0,6.39,5.228,15.832,11.29,21.875,1.783,1.778,2.786,2.479,3.5,2.614a4.314,4.314,0,0,0,2.3-.525c.647-.267,4.381-2.007,5.7-2.58,3.314-1.436,6.148-5.064,11.909-14.368l.85-1.372c3.684-5.934,5.828-8.992,8.364-11.52a17.847,17.847,0,0,0,4.846-9.722,45.541,45.541,0,0,0,.509-10.29c-.045-1.7-.054-2.173-.054-2.918,0-3.844,3.2-8.592,9.2-15.044,1.184-1.273,2.472-2.6,3.911-4.048,1.829-1.835,7.6-7.45,8.368-8.211,1.523-1.519,1.934-2.431,1.844-2.779-.041-.159-.427-.481-1.2-.786a8.641,8.641,0,0,0-1.95-.51Z" transform="translate(4.134 1.334)" fill="#f6f6fd"/>
          <path id="Path_4184-2" data-name="Path 4184" d="M37.556,28.961c-.327.452-.508.7-.669.919a16.243,16.243,0,0,1-1.608,1.929c-.6.595-1.094,1.952-1.683,4.558-.126.561-.126.561-.252,1.131-.763,3.429-1.241,4.855-2.469,6.079-.961.957-.678,2.151,2.114,4.934.147.146,1.271,1.285,1.565,1.572a11.791,11.791,0,0,0,1.193,1.052c1.254.925,2.283.642,5.559-2.624A6.639,6.639,0,0,0,43.33,44.7c.231-1.5.04-2.96-.613-5.663-1.037-4.29-1.193-5.54-.319-7.544,1.256-2.879.933-4.388-.421-5.015C40.346,25.726,39.56,26.208,37.556,28.961Zm6.39-6.735c4,1.852,4.922,6.162,2.749,11.144-.27.62-.158,1.521.579,4.569.79,3.269,1.041,5.193.689,7.477a11.31,11.31,0,0,1-3.347,6.416c-4.724,4.71-8.157,5.654-11.651,3.077a15.965,15.965,0,0,1-1.686-1.472c-.33-.322-1.479-1.485-1.6-1.605-4.4-4.382-5.337-8.362-2.114-11.575.307-.306.673-1.4,1.2-3.777.125-.564.125-.564.256-1.148.793-3.5,1.481-5.383,2.946-6.843A12.223,12.223,0,0,0,33.114,27.1c.148-.2.316-.431.651-.894C36.945,21.834,39.593,20.212,43.946,22.226Z" transform="translate(94.978 78.426)" fill="#f6f6fd"/>
        </g>
      </g>
    </g>
    <g id="Group_4053" data-name="Group 4053" transform="translate(2539.878 -9627.059)">
      <path id="Path_4219" data-name="Path 4219" d="M-8066.4,11609.2v88.34h73.323" transform="translate(41.243 210.094)" fill="none" stroke="#f6f6fd" stroke-linecap="round" stroke-linejoin="round" stroke-width="5"/>
      <path id="Path_4221" data-name="Path 4221" d="M0,88.341V0H73.323" transform="translate(-8025.156 11335.541)" fill="none" stroke="#f6f6fd" stroke-linecap="round" stroke-linejoin="round" stroke-width="5"/>
      <path id="Path_4220" data-name="Path 4220" d="M-7993.076,11697.54v-88.34H-8066.4" transform="translate(480.476 -273.659)" fill="none" stroke="#f6f6fd" stroke-linecap="round" stroke-linejoin="round" stroke-width="5"/>
      <path id="Path_4222" data-name="Path 4222" d="M73.323,0V88.341H0" transform="translate(-7585.923 11819.296)" fill="none" stroke="#f6f6fd" stroke-linecap="round" stroke-linejoin="round" stroke-width="5"/>
    </g>
  </g>
</svg>
