<svg xmlns="http://www.w3.org/2000/svg" width="517.556" height="577.096" viewBox="0 0 517.556 577.096">
  <g id="Group_4434" data-name="Group 4434" transform="translate(14.529 -2644.922)">
    <path id="Path_4324" data-name="Path 4324" d="M37.765,26h2.548L33.371,7.878h-1.82L24.609,26h2.548l1.612-4.5h7.384Zm-8.242-6.552,2.938-8.216L35.4,19.448ZM45.617,26h1.872l5.252-12.818H50.3l-3.77,9.932-3.718-9.932H40.391Zm19.656-6.89c0-3.12-1.742-6.162-5.668-6.162-3.9,0-5.824,3.172-5.824,6.708,0,3.562,1.95,6.578,6.032,6.578a6.405,6.405,0,0,0,5.044-2.21l-1.534-1.378a4.389,4.389,0,0,1-3.484,1.534c-2.366,0-3.744-1.482-3.822-3.926h9.178A8.177,8.177,0,0,0,65.273,19.11Zm-9.256-.676a3.6,3.6,0,0,1,3.562-3.614,3.32,3.32,0,0,1,3.536,3.38.577.577,0,0,0,.026.234Zm18.46-5.486a3.99,3.99,0,0,0-3.692,2.236v-2H68.549V26h2.236V19.084c0-2.652,1.274-4.03,3.224-4.03a3.806,3.806,0,0,1,1.664.39l1.092-1.872A4.341,4.341,0,0,0,74.477,12.948Zm9.23,0A6.477,6.477,0,0,0,78.3,15.626l1.612,1.352a4.533,4.533,0,0,1,3.744-2.054A2.762,2.762,0,0,1,86.7,17.992v.52H83.863a9.158,9.158,0,0,0-4.394.728A3.187,3.187,0,0,0,77.857,22.2c0,2.47,1.742,4.03,4.5,4.03a5,5,0,0,0,4.368-2.158L86.879,26h2.054V17.992C88.933,14.82,86.983,12.948,83.707,12.948Zm-.832,11.414c-1.716,0-2.782-.806-2.782-2.054a1.814,1.814,0,0,1,.65-1.482c.546-.416,1.43-.572,3.38-.572H86.7v.13A3.714,3.714,0,0,1,82.875,24.362Zm14.612-.052c-1.768-.26-3.276-.546-3.276-1.742a1.2,1.2,0,0,1,.7-1.092,5.451,5.451,0,0,0,2.574.6c2.73,0,4.966-1.768,4.966-4.472a4.481,4.481,0,0,0-.65-2.366l1.768-1.456-1.17-1.43-1.82,1.56a5.438,5.438,0,0,0-3.146-.962c-2.782,0-5.018,1.872-5.018,4.55a4.3,4.3,0,0,0,1.092,2.912,2.908,2.908,0,0,0-1.326,2.5,2.625,2.625,0,0,0,1.638,2.522l-2.028,1.534a3.067,3.067,0,0,0-.052.572c0,2.6,2.184,4,5.824,4,3.3,0,5.616-1.144,5.616-3.64C103.181,25.012,100.061,24.674,97.487,24.31Zm-.026-9.49a2.586,2.586,0,0,1,2.756,2.73,2.579,2.579,0,0,1-2.756,2.7,2.621,2.621,0,0,1-2.808-2.7A2.656,2.656,0,0,1,97.461,14.82Zm.208,14.924c-1.95,0-3.718-.494-3.718-2.08a.732.732,0,0,1,.026-.208l1.534-1.482c.494.1,1.014.182,1.508.26,2.028.312,3.926.494,3.926,1.872C100.945,29.224,99.619,29.744,97.669,29.744Zm18.59-10.634c0-3.12-1.742-6.162-5.668-6.162-3.9,0-5.824,3.172-5.824,6.708,0,3.562,1.95,6.578,6.032,6.578a6.405,6.405,0,0,0,5.044-2.21l-1.534-1.378a4.389,4.389,0,0,1-3.484,1.534c-2.366,0-3.744-1.482-3.822-3.926h9.178A8.177,8.177,0,0,0,116.259,19.11ZM107,18.434a3.6,3.6,0,0,1,3.562-3.614A3.32,3.32,0,0,1,114.1,18.2a.577.577,0,0,0,.026.234Zm21.892,7.8a5.962,5.962,0,0,0,1.846-.364l-.026-1.846a4.423,4.423,0,0,1-1.144.208c-.754,0-1.066-.468-1.066-1.248V7.878h-2.236V23.114C126.269,25.22,127.335,26.234,128.895,26.234Zm15.028-7.124c0-3.12-1.742-6.162-5.668-6.162-3.9,0-5.824,3.172-5.824,6.708,0,3.562,1.95,6.578,6.032,6.578a6.405,6.405,0,0,0,5.044-2.21l-1.534-1.378a4.389,4.389,0,0,1-3.484,1.534c-2.366,0-3.744-1.482-3.822-3.926h9.178A8.177,8.177,0,0,0,143.923,19.11Zm-9.256-.676a3.6,3.6,0,0,1,3.562-3.614,3.32,3.32,0,0,1,3.536,3.38.577.577,0,0,0,.026.234Zm18.876-5.486a4.869,4.869,0,0,0-4.108,1.976V13.182H147.2V26h2.236V20.462c0-3.172.936-5.538,3.51-5.538,2.08,0,2.678,1.508,2.678,3.64V26h2.236V18.018C157.859,14.716,156.351,12.948,153.543,12.948ZM166.491,24.31c-1.768-.26-3.276-.546-3.276-1.742a1.2,1.2,0,0,1,.7-1.092,5.451,5.451,0,0,0,2.574.6c2.73,0,4.966-1.768,4.966-4.472a4.481,4.481,0,0,0-.65-2.366l1.768-1.456-1.17-1.43-1.82,1.56a5.438,5.438,0,0,0-3.146-.962c-2.782,0-5.018,1.872-5.018,4.55a4.3,4.3,0,0,0,1.092,2.912,2.908,2.908,0,0,0-1.326,2.5,2.625,2.625,0,0,0,1.638,2.522L160.8,26.962a3.067,3.067,0,0,0-.052.572c0,2.6,2.184,4,5.824,4,3.3,0,5.616-1.144,5.616-3.64C172.185,25.012,169.065,24.674,166.491,24.31Zm-.026-9.49a2.586,2.586,0,0,1,2.756,2.73,2.579,2.579,0,0,1-2.756,2.7,2.621,2.621,0,0,1-2.808-2.7A2.656,2.656,0,0,1,166.465,14.82Zm.208,14.924c-1.95,0-3.718-.494-3.718-2.08a.732.732,0,0,1,.026-.208l1.534-1.482c.494.1,1.014.182,1.508.26,2.028.312,3.926.494,3.926,1.872C169.949,29.224,168.623,29.744,166.673,29.744ZM181.233,15v-1.82h-3.146V8.476l-2.236,1.664v3.042h-2.106V15h2.106v7.8a3.07,3.07,0,0,0,3.3,3.432,6.615,6.615,0,0,0,2.08-.364v-1.9a5.231,5.231,0,0,1-1.534.286c-1.014,0-1.612-.52-1.612-1.69V15Zm9.36-2.054a4.852,4.852,0,0,0-4.134,1.976V7.878h-2.236V26h2.236V20.358c0-3.588,1.222-5.434,3.536-5.434,1.82,0,2.652,1.144,2.652,3.64V26h2.236V18.018C194.883,14.716,193.375,12.948,190.593,12.948Zm20.28,13.286c3.77,0,6.266-2.938,6.266-6.656,0-3.744-2.522-6.63-6.266-6.63-3.77,0-6.214,2.886-6.214,6.63S207.1,26.234,210.873,26.234Zm0-1.976c-2.6,0-3.978-2.054-3.978-4.68s1.352-4.654,3.978-4.654,4.03,2,4.03,4.654C214.9,22.178,213.5,24.258,210.873,24.258ZM221.143,26h2.236V15h3.458v-1.82h-3.458v-1.9c0-.962.416-1.768,1.456-1.768a3.067,3.067,0,0,1,1.352.39l.754-1.742a5.769,5.769,0,0,0-2.34-.52c-1.768,0-3.432.832-3.432,3.744v1.794h-2.652V15h2.626Zm19.838.234a5.262,5.262,0,0,0,5.148-3.64l-2.054-.78a3.156,3.156,0,0,1-3.12,2.444c-2.548,0-3.64-2.21-3.64-4.628s1.092-4.706,3.64-4.706a3.32,3.32,0,0,1,3.172,2.5l2.132-.858a5.455,5.455,0,0,0-5.3-3.614c-3.978,0-5.928,3.3-5.928,6.682C235.027,23.14,237.107,26.234,240.981,26.234Zm13.182,0c3.77,0,6.266-2.938,6.266-6.656,0-3.744-2.522-6.63-6.266-6.63-3.77,0-6.214,2.886-6.214,6.63S250.393,26.234,254.163,26.234Zm0-1.976c-2.6,0-3.978-2.054-3.978-4.68s1.352-4.654,3.978-4.654,4.03,2,4.03,4.654C258.193,22.178,256.789,24.258,254.163,24.258ZM270,12.948a4.869,4.869,0,0,0-4.108,1.976V13.182h-2.236V26h2.236V20.462c0-3.172.936-5.538,3.51-5.538,2.08,0,2.678,1.508,2.678,3.64V26h2.236V18.018C274.313,14.716,272.8,12.948,270,12.948Zm12.3,13.286c2.444,0,4.732-1.3,4.732-4.03,0-4.81-7.176-3.146-7.176-5.824,0-.936.884-1.534,2.288-1.534a3.2,3.2,0,0,1,2.99,1.794l1.768-.962a4.987,4.987,0,0,0-4.706-2.73c-2.522,0-4.5,1.352-4.5,3.666,0,4.628,7.124,2.73,7.124,5.72,0,1.118-.936,1.976-2.6,1.976a3.4,3.4,0,0,1-3.38-2.34l-1.846.832A5.4,5.4,0,0,0,282.295,26.234Zm7.9-15.626h2.5V7.878h-2.5ZM290.329,26h2.236V13.182h-2.236Zm10.53.234c2.444,0,4.732-1.3,4.732-4.03,0-4.81-7.176-3.146-7.176-5.824,0-.936.884-1.534,2.288-1.534a3.2,3.2,0,0,1,2.99,1.794l1.768-.962a4.987,4.987,0,0,0-4.706-2.73c-2.522,0-4.5,1.352-4.5,3.666,0,4.628,7.124,2.73,7.124,5.72,0,1.118-.936,1.976-2.6,1.976a3.4,3.4,0,0,1-3.38-2.34l-1.846.832A5.4,5.4,0,0,0,300.859,26.234ZM314.717,15v-1.82h-3.146V8.476l-2.236,1.664v3.042h-2.106V15h2.106v7.8a3.07,3.07,0,0,0,3.3,3.432,6.615,6.615,0,0,0,2.08-.364v-1.9a5.231,5.231,0,0,1-1.534.286c-1.014,0-1.612-.52-1.612-1.69V15Zm13.52,4.108c0-3.12-1.742-6.162-5.668-6.162-3.9,0-5.824,3.172-5.824,6.708,0,3.562,1.95,6.578,6.032,6.578a6.405,6.405,0,0,0,5.044-2.21l-1.534-1.378A4.389,4.389,0,0,1,322.8,24.18c-2.366,0-3.744-1.482-3.822-3.926h9.178A8.182,8.182,0,0,0,328.237,19.11Zm-9.256-.676a3.6,3.6,0,0,1,3.562-3.614,3.32,3.32,0,0,1,3.536,3.38.577.577,0,0,0,.026.234Zm18.876-5.486a4.869,4.869,0,0,0-4.108,1.976V13.182h-2.236V26h2.236V20.462c0-3.172.936-5.538,3.51-5.538,2.08,0,2.678,1.508,2.678,3.64V26h2.236V18.018C342.173,14.716,340.665,12.948,337.857,12.948ZM352.053,15v-1.82h-3.146V8.476l-2.236,1.664v3.042h-2.106V15h2.106v7.8a3.07,3.07,0,0,0,3.3,3.432,6.615,6.615,0,0,0,2.08-.364v-1.9a5.231,5.231,0,0,1-1.534.286c-1.014,0-1.612-.52-1.612-1.69V15ZM122.2,52.948a4.924,4.924,0,0,0-4.056,1.82V53.182h-2.236V71.3h2.236V64.388a4.99,4.99,0,0,0,4.056,1.846c3.562,0,5.616-2.7,5.616-6.656S125.736,52.948,122.2,52.948Zm-.416,11.31c-2.548,0-3.822-2-3.822-4.68,0-2.782,1.352-4.68,3.822-4.68,2.418,0,3.8,1.82,3.8,4.68C125.58,62.36,124.28,64.258,121.784,64.258ZM135.8,52.948a6.477,6.477,0,0,0-5.408,2.678L132,56.978a4.533,4.533,0,0,1,3.744-2.054,2.762,2.762,0,0,1,3.042,3.068v.52h-2.834a9.158,9.158,0,0,0-4.394.728,3.187,3.187,0,0,0-1.612,2.964c0,2.47,1.742,4.03,4.5,4.03a5,5,0,0,0,4.368-2.158L138.97,66h2.054V57.992C141.024,54.82,139.074,52.948,135.8,52.948Zm-.832,11.414c-1.716,0-2.782-.806-2.782-2.054a1.814,1.814,0,0,1,.65-1.482c.546-.416,1.43-.572,3.38-.572h2.574v.13A3.714,3.714,0,0,1,134.966,64.362Zm15.99-11.414a3.99,3.99,0,0,0-3.692,2.236v-2h-2.236V66h2.236V59.084c0-2.652,1.274-4.03,3.224-4.03a3.806,3.806,0,0,1,1.664.39l1.092-1.872A4.34,4.34,0,0,0,150.956,52.948Zm11,2.054v-1.82h-3.146V48.476l-2.236,1.664v3.042h-2.106V55h2.106v7.8a3.07,3.07,0,0,0,3.3,3.432,6.615,6.615,0,0,0,2.08-.364v-1.9a5.231,5.231,0,0,1-1.534.286c-1.014,0-1.612-.52-1.612-1.69V55Zm3.068-4.394h2.5v-2.73h-2.5ZM165.152,66h2.236V53.182h-2.236Zm11.466.234a5.262,5.262,0,0,0,5.148-3.64l-2.054-.78a3.156,3.156,0,0,1-3.12,2.444c-2.548,0-3.64-2.21-3.64-4.628s1.092-4.706,3.64-4.706a3.32,3.32,0,0,1,3.172,2.5l2.132-.858a5.455,5.455,0,0,0-5.3-3.614c-3.978,0-5.928,3.3-5.928,6.682C170.664,63.14,172.744,66.234,176.618,66.234ZM184.7,50.608h2.5v-2.73h-2.5ZM184.834,66h2.236V53.182h-2.236Zm12.9-13.052a4.924,4.924,0,0,0-4.056,1.82V53.182h-2.236V71.3h2.236V64.388a4.99,4.99,0,0,0,4.056,1.846c3.562,0,5.616-2.7,5.616-6.656S201.266,52.948,197.73,52.948Zm-.416,11.31c-2.548,0-3.822-2-3.822-4.68,0-2.782,1.352-4.68,3.822-4.68,2.418,0,3.8,1.82,3.8,4.68C201.11,62.36,199.81,64.258,197.314,64.258Zm14.014-11.31a6.477,6.477,0,0,0-5.408,2.678l1.612,1.352a4.533,4.533,0,0,1,3.744-2.054,2.762,2.762,0,0,1,3.042,3.068v.52h-2.834a9.158,9.158,0,0,0-4.394.728,3.187,3.187,0,0,0-1.612,2.964c0,2.47,1.742,4.03,4.5,4.03a5,5,0,0,0,4.368-2.158L214.5,66h2.054V57.992C216.554,54.82,214.6,52.948,211.328,52.948ZM210.5,64.362c-1.716,0-2.782-.806-2.782-2.054a1.814,1.814,0,0,1,.65-1.482c.546-.416,1.43-.572,3.38-.572h2.574v.13A3.714,3.714,0,0,1,210.5,64.362ZM226.356,55v-1.82H223.21V48.476l-2.236,1.664v3.042h-2.106V55h2.106v7.8a3.07,3.07,0,0,0,3.3,3.432,6.615,6.615,0,0,0,2.08-.364v-1.9a5.231,5.231,0,0,1-1.534.286c-1.014,0-1.612-.52-1.612-1.69V55Zm3.068-4.394h2.5v-2.73h-2.5ZM229.554,66h2.236V53.182h-2.236Zm11.7.234c3.77,0,6.266-2.938,6.266-6.656,0-3.744-2.522-6.63-6.266-6.63-3.77,0-6.214,2.886-6.214,6.63S237.484,66.234,241.254,66.234Zm0-1.976c-2.6,0-3.978-2.054-3.978-4.68s1.352-4.654,3.978-4.654,4.03,2,4.03,4.654C245.284,62.178,243.88,64.258,241.254,64.258Zm15.834-11.31a4.869,4.869,0,0,0-4.108,1.976V53.182h-2.236V66h2.236V60.462c0-3.172.936-5.538,3.51-5.538,2.08,0,2.678,1.508,2.678,3.64V66H261.4V58.018C261.4,54.716,259.9,52.948,257.088,52.948Z" transform="translate(55.749 3079.715)" fill="#0d0a3a"/>
    <g id="Group_4420" data-name="Group 4420" transform="translate(0 8)">
      <path id="Path_4303" data-name="Path 4303" d="M39.78-98.77H-13.26v23.46a24.706,24.706,0,0,1,9.52-6.12A36.27,36.27,0,0,1,9.52-83.81q12.75,0,21.165,5.78A34.018,34.018,0,0,1,43.01-63.07a50.225,50.225,0,0,1,3.91,19.89q0,19.89-11.22,31.535T4.08,0Q-9.52,0-19.55-4.675A36.2,36.2,0,0,1-35.02-17.68a37.672,37.672,0,0,1-5.95-19.21h28.39a15.3,15.3,0,0,0,4.93,8.755Q-3.74-24.65,3.06-24.65q7.99,0,11.9-5.1t3.91-13.6q0-8.33-4.08-12.75T2.89-60.52a15.433,15.433,0,0,0-9.52,2.805,13.081,13.081,0,0,0-4.93,7.4H-39.61v-73.95H39.78Z" transform="translate(244.249 2962.898)" fill="#0d0a3a"/>
      <path id="Path_4304" data-name="Path 4304" d="M-42.42-27.88l-7.2,19.64-7.16-19.64h-7.16V0h5V-20.84l6.92,18.4h4.84l6.92-18.4V0h5V-27.88ZM-20.94.4c6.08,0,9.88-4.72,9.88-10.28,0-5.6-3.8-10.24-9.88-10.24-6.12,0-9.88,4.64-9.88,10.24C-30.82-4.32-27.06.4-20.94.4Zm0-4.2c-3.64,0-5.08-2.88-5.08-6.08,0-3.24,1.44-6.04,5.08-6.04s5.08,2.8,5.08,6.04C-15.86-6.68-17.3-3.8-20.94-3.8ZM3.54-20.12a7.1,7.1,0,0,0-5.96,2.68v-2.28h-4.8V0h4.8V-7.88c0-3.52,0-8.04,4.48-8.04,3.64,0,3.64,3.04,3.64,4.4V0h4.8V-12.72C10.5-17.4,7.98-20.12,3.54-20.12Zm22.64,4.2v-3.8H21.26v-7.36l-4.8,3.56v3.8h-3.2v3.8h3.2v10.4c0,4.2,2.8,5.92,6.12,5.92a11.325,11.325,0,0,0,3.6-.6V-4.04a8.289,8.289,0,0,1-2.4.44c-1.56,0-2.52-.72-2.52-2.28V-15.92Zm14.04-4.2a7.148,7.148,0,0,0-5.96,2.64v-10.4h-4.8V0h4.8V-7.88c0-5.68,1.32-8.04,4.48-8.04,2.48,0,3.64,1.4,3.64,4.4V0h4.8V-12.72C47.18-17.44,44.66-20.12,40.22-20.12ZM58.54.4c3.72,0,7.68-2,7.68-6.6,0-7.2-10.32-5.44-10.32-8.44,0-.92.96-1.68,2.52-1.68a4.245,4.245,0,0,1,3.92,2.52l3.72-2.04a8.158,8.158,0,0,0-7.48-4.28c-3.8,0-7.24,1.96-7.24,5.76,0,7.32,10.16,5.12,10.16,8.44,0,1.04-.96,2.32-3.2,2.32a4.27,4.27,0,0,1-4.2-3.24L50.26-5.12A8.494,8.494,0,0,0,58.54.4Z" transform="translate(244.249 3043.898)" fill="#0d0a3a"/>
      <g id="Group_4201" data-name="Group 4201" transform="translate(8013.126 -8696.119)">
        <path id="Path_4219" data-name="Path 4219" d="M-8066.4,11609.2v88.34h73.323" transform="translate(41.243 210.094)" fill="none" stroke="#1b1b1b" stroke-linecap="round" stroke-linejoin="round" stroke-width="5"/>
        <path id="Path_4221" data-name="Path 4221" d="M0,88.341V0H73.323" transform="translate(-8025.156 11335.541)" fill="none" stroke="#1b1b1b" stroke-linecap="round" stroke-linejoin="round" stroke-width="5"/>
        <path id="Path_4220" data-name="Path 4220" d="M-7993.076,11697.54v-88.34H-8066.4" transform="translate(480.476 -273.659)" fill="none" stroke="#1b1b1b" stroke-linecap="round" stroke-linejoin="round" stroke-width="5"/>
        <path id="Path_4222" data-name="Path 4222" d="M73.323,0V88.341H0" transform="translate(-7585.923 11819.296)" fill="none" stroke="#1b1b1b" stroke-linecap="round" stroke-linejoin="round" stroke-width="5"/>
      </g>
      <g id="Group_4212" data-name="Group 4212" transform="translate(195.2 2687.378)">
        <g id="Group_4061" data-name="Group 4061" transform="translate(2.988 2.725)">
          <path id="Path_3360" data-name="Path 3360" d="M214.749,91.475v91.614a3.306,3.306,0,0,1-.987,2.358,3.4,3.4,0,0,1-2.39.977H113.028a3.365,3.365,0,0,1-3.388-3.335V91.475a3.365,3.365,0,0,1,3.388-3.335h98.343a3.4,3.4,0,0,1,2.39.977,3.306,3.306,0,0,1,.987,2.358Z" transform="translate(-109.64 -79.997)" fill="none" stroke="#65e5c3" stroke-width="3"/>
          <path id="Path_3361" data-name="Path 3361" d="M214.749,90.779v17.245H109.64V90.779c0-1.455,1.52-2.639,3.388-2.639h98.343C213.241,88.14,214.749,89.324,214.749,90.779Z" transform="translate(-109.64 -79.997)" fill="none" stroke="#65e5c3" stroke-width="2"/>
          <path id="Path_3362" data-name="Path 3362" d="M131.71,80.723v8.54a4.2,4.2,0,0,0,4.46,3.873h0a4.194,4.194,0,0,0,4.46-3.873v-8.54a4.2,4.2,0,0,0-4.46-3.873h0C133.7,76.856,131.71,78.586,131.71,80.723Z" transform="translate(-112.543 -76.85)" fill="#65e5c3"/>
          <path id="Path_3366" data-name="Path 3366" d="M262.77,79.4v8.54c0,2.137,2,3.873,4.467,3.873h0a4.194,4.194,0,0,0,4.46-3.873V79.4a4.2,4.2,0,0,0-4.46-3.873h0C264.771,75.53,262.77,77.266,262.77,79.4Z" transform="translate(-185.755 -75.53)" fill="#65e5c3"/>
          <rect id="Rectangle_2617" data-name="Rectangle 2617" width="12.263" height="12.263" rx="1" transform="translate(17.191 44.611)" fill="#65e5c3"/>
          <rect id="Rectangle_2622" data-name="Rectangle 2622" width="12.263" height="12.263" rx="1" transform="translate(17.191 72.141)" fill="#65e5c3"/>
          <rect id="Rectangle_2618" data-name="Rectangle 2618" width="12.263" height="12.263" rx="1" transform="translate(47.045 44.611)" fill="#65e5c3"/>
          <rect id="Rectangle_2621" data-name="Rectangle 2621" width="12.263" height="12.263" rx="1" transform="translate(47.045 72.141)" fill="#65e5c3"/>
          <rect id="Rectangle_2619" data-name="Rectangle 2619" width="12.263" height="12.263" rx="1" transform="translate(78.122 44.611)" fill="#65e5c3"/>
          <rect id="Rectangle_2620" data-name="Rectangle 2620" width="12.263" height="12.263" rx="1" transform="translate(78.122 72.141)" fill="#65e5c3"/>
        </g>
        <g id="Group_4060" data-name="Group 4060" transform="translate(0)">
          <path id="Path_3360-2" data-name="Path 3360" d="M214.749,91.475v91.614a3.306,3.306,0,0,1-.987,2.358,3.4,3.4,0,0,1-2.39.977H113.028a3.365,3.365,0,0,1-3.388-3.335V91.475a3.365,3.365,0,0,1,3.388-3.335h98.343a3.4,3.4,0,0,1,2.39.977,3.306,3.306,0,0,1,.987,2.358Z" transform="translate(-109.64 -79.997)" fill="none" stroke="#1b1b1b" stroke-width="6"/>
          <path id="Path_3361-2" data-name="Path 3361" d="M214.749,90.779v17.245H109.64V90.779c0-1.455,1.52-2.639,3.388-2.639h98.343C213.241,88.14,214.749,89.324,214.749,90.779Z" transform="translate(-109.64 -79.997)" fill="none" stroke="#1b1b1b" stroke-width="2"/>
          <path id="Path_3362-2" data-name="Path 3362" d="M131.71,80.723v8.54a4.2,4.2,0,0,0,4.46,3.873h0a4.194,4.194,0,0,0,4.46-3.873v-8.54a4.2,4.2,0,0,0-4.46-3.873h0C133.7,76.856,131.71,78.586,131.71,80.723Z" transform="translate(-112.543 -76.85)" fill="#1b1b1b"/>
          <path id="Path_3366-2" data-name="Path 3366" d="M262.77,79.4v8.54c0,2.137,2,3.873,4.467,3.873h0a4.194,4.194,0,0,0,4.46-3.873V79.4a4.2,4.2,0,0,0-4.46-3.873h0C264.771,75.53,262.77,77.266,262.77,79.4Z" transform="translate(-185.755 -75.53)" fill="#1b1b1b"/>
          <rect id="Rectangle_2617-2" data-name="Rectangle 2617" width="12.263" height="12.263" rx="1" transform="translate(17.191 44.611)" fill="#1b1b1b"/>
          <rect id="Rectangle_2622-2" data-name="Rectangle 2622" width="12.263" height="12.263" rx="1" transform="translate(17.191 72.141)" fill="#1b1b1b"/>
          <rect id="Rectangle_2618-2" data-name="Rectangle 2618" width="12.263" height="12.263" rx="1" transform="translate(47.045 44.611)" fill="#1b1b1b"/>
          <rect id="Rectangle_2621-2" data-name="Rectangle 2621" width="12.263" height="12.263" rx="1" transform="translate(47.045 72.141)" fill="#1b1b1b"/>
          <rect id="Rectangle_2619-2" data-name="Rectangle 2619" width="12.263" height="12.263" rx="1" transform="translate(78.122 44.611)" fill="#1b1b1b"/>
          <rect id="Rectangle_2620-2" data-name="Rectangle 2620" width="12.263" height="12.263" rx="1" transform="translate(78.122 72.141)" fill="#1b1b1b"/>
        </g>
      </g>
    </g>
  </g>
</svg>
