<svg xmlns="http://www.w3.org/2000/svg" width="517.556" height="577.096" viewBox="0 0 517.556 577.096">
  <g id="Group_4414" data-name="Group 4414" transform="translate(7489.778 -610.982)">
    <path id="Path_4223" data-name="Path 4223" d="M8204,3961.038l50.9-43.928,24.233,16.964,83.213-75.942" transform="translate(-15502.34 -3161.618)" fill="none" stroke="#65e6c4" stroke-linecap="round" stroke-linejoin="round" stroke-width="6"/>
    <path id="Path_4224" data-name="Path 4224" d="M8394.134,3834.133h29.082v25.448" transform="translate(-15554.877 -3144.537)" fill="none" stroke="#65e6c4" stroke-linecap="round" stroke-width="6"/>
    <path id="Path_4225" data-name="Path 4225" d="M8204,3961.038l50.9-43.928,24.233,16.964,83.213-75.942" transform="translate(-15502.34 -3172.222)" fill="none" stroke="#f6f6fd" stroke-linecap="round" stroke-linejoin="round" stroke-width="6"/>
    <path id="Path_4226" data-name="Path 4226" d="M8394.134,3834.133h29.082v25.448" transform="translate(-15554.877 -3157.26)" fill="none" stroke="#f6f6fd" stroke-linecap="round" stroke-width="6"/>
    <path id="Path_4298" data-name="Path 4298" d="M-191.42-97.07V-124.1h47.09V0h-30.26V-97.07Zm154.36-1.7H-90.1v23.46a24.706,24.706,0,0,1,9.52-6.12,36.27,36.27,0,0,1,13.26-2.38q12.75,0,21.165,5.78A34.018,34.018,0,0,1-33.83-63.07a50.225,50.225,0,0,1,3.91,19.89q0,19.89-11.22,31.535T-72.76,0q-13.6,0-23.63-4.675A36.2,36.2,0,0,1-111.86-17.68a37.672,37.672,0,0,1-5.95-19.21h28.39a15.3,15.3,0,0,0,4.93,8.755q3.91,3.485,10.71,3.485,7.99,0,11.9-5.1t3.91-13.6q0-8.33-4.08-12.75t-11.9-4.42a15.433,15.433,0,0,0-9.52,2.805,13.081,13.081,0,0,0-4.93,7.4h-28.05v-73.95h79.39Zm23.12,35.02q0-29.24,11.305-46.07T33.83-126.65q25.16,0,36.465,16.83T81.6-63.75q0,29.58-11.305,46.41T33.83-.51Q8.67-.51-2.635-17.34T-13.94-63.75Zm66.98,0q0-17.17-3.74-26.435T33.83-99.45q-11.73,0-15.47,9.265T14.62-63.75a111.138,111.138,0,0,0,1.36,19.125A24.472,24.472,0,0,0,21.5-32.385Q25.67-27.71,33.83-27.71t12.325-4.675a24.472,24.472,0,0,0,5.525-12.24A111.139,111.139,0,0,0,53.04-63.75ZM185.98-46.41H156.4v30.26H128.86V-46.41H99.28V-72.42h29.58v-30.43H156.4v30.43h29.58Z" transform="translate(-7215 978.419)" fill="#f6f6fd"/>
    <path id="Path_4294" data-name="Path 4294" d="M-124.5.286c3.744,0,6.006-2.054,6.006-5.2,0-2.548-1.2-3.978-5.174-5.486-2.808-1.092-3.952-1.9-3.952-3.406a2.724,2.724,0,0,1,2.938-2.548,3.8,3.8,0,0,1,3.406,2.184l1.95-1.2a5.737,5.737,0,0,0-5.278-3.068c-3.172,0-5.33,1.9-5.33,4.706,0,2.444,1.3,3.77,5.018,5.2,3.016,1.17,4.082,2.106,4.082,3.822,0,1.69-1.274,2.912-3.64,2.912a4.062,4.062,0,0,1-4.29-3.666l-2.288.572C-130.559-1.768-127.933.286-124.5.286Zm16.952-13.1v5.564c0,2.964-.858,5.512-3.536,5.512-2.418,0-2.652-2.054-2.652-3.718v-7.358h-2.236v7.9c0,3.016,1.3,5.148,4.316,5.148a4.834,4.834,0,0,0,4.108-1.976V0h2.236V-12.818Zm12.9-.234a4.924,4.924,0,0,0-4.056,1.82v-1.586h-2.236V5.3h2.236V-1.612A4.99,4.99,0,0,0-94.653.234c3.562,0,5.616-2.7,5.616-6.656S-91.117-13.052-94.653-13.052Zm-.416,11.31c-2.548,0-3.822-2-3.822-4.68,0-2.782,1.352-4.68,3.822-4.68,2.418,0,3.8,1.82,3.8,4.68C-91.273-3.64-92.573-1.742-95.069-1.742Zm15.678-11.31a4.924,4.924,0,0,0-4.056,1.82v-1.586h-2.236V5.3h2.236V-1.612A4.99,4.99,0,0,0-79.391.234c3.562,0,5.616-2.7,5.616-6.656S-75.855-13.052-79.391-13.052Zm-.416,11.31c-2.548,0-3.822-2-3.822-4.68,0-2.782,1.352-4.68,3.822-4.68,2.418,0,3.8,1.82,3.8,4.68C-76.011-3.64-77.311-1.742-79.807-1.742ZM-65.325.234c3.77,0,6.266-2.938,6.266-6.656,0-3.744-2.522-6.63-6.266-6.63-3.77,0-6.214,2.886-6.214,6.63S-69.1.234-65.325.234Zm0-1.976c-2.6,0-3.978-2.054-3.978-4.68s1.352-4.654,3.978-4.654,4.03,2,4.03,4.654C-61.3-3.822-62.7-1.742-65.325-1.742Zm15.418-11.31A3.99,3.99,0,0,0-53.6-10.816v-2h-2.236V0H-53.6V-6.916c0-2.652,1.274-4.03,3.224-4.03a3.806,3.806,0,0,1,1.664.39l1.092-1.872A4.341,4.341,0,0,0-49.907-13.052Zm11,2.054v-1.82h-3.146v-4.706l-2.236,1.664v3.042H-46.4V-11h2.106v7.8a3.07,3.07,0,0,0,3.3,3.432,6.615,6.615,0,0,0,2.08-.364v-1.9a5.231,5.231,0,0,1-1.534.286c-1.014,0-1.612-.52-1.612-1.69V-11Zm13.52,4.108c0-3.12-1.742-6.162-5.668-6.162-3.9,0-5.824,3.172-5.824,6.708,0,3.562,1.95,6.578,6.032,6.578a6.405,6.405,0,0,0,5.044-2.21l-1.534-1.378A4.389,4.389,0,0,1-30.823-1.82c-2.366,0-3.744-1.482-3.822-3.926h9.178A8.178,8.178,0,0,0-25.389-6.89Zm-9.256-.676a3.6,3.6,0,0,1,3.562-3.614A3.32,3.32,0,0,1-27.547-7.8a.577.577,0,0,0,.026.234Zm21.19-10.556v6.916a4.987,4.987,0,0,0-4.056-1.846c-3.432,0-5.616,2.574-5.616,6.63,0,3.822,1.95,6.656,5.616,6.656a4.929,4.929,0,0,0,4.056-1.82V0h2.236V-18.122ZM-17.1-1.794c-2.522,0-3.8-1.9-3.8-4.628,0-2.808,1.378-4.628,3.8-4.628,2.47,0,3.822,1.9,3.822,4.628C-13.273-3.77-14.547-1.794-17.1-1.794Zm16.952-13.6h2.5v-2.73h-2.5ZM-.013,0H2.223V-12.818H-.013ZM12.935-13.052a4.869,4.869,0,0,0-4.108,1.976v-1.742H6.591V0H8.827V-5.538c0-3.172.936-5.538,3.51-5.538,2.08,0,2.678,1.508,2.678,3.64V0h2.236V-7.982C17.251-11.284,15.743-13.052,12.935-13.052Zm21.5,0a4.924,4.924,0,0,0-4.056,1.82v-1.586H28.145V5.3h2.236V-1.612A4.99,4.99,0,0,0,34.437.234c3.562,0,5.616-2.7,5.616-6.656S37.973-13.052,34.437-13.052Zm-.416,11.31c-2.548,0-3.822-2-3.822-4.68,0-2.782,1.352-4.68,3.822-4.68,2.418,0,3.8,1.82,3.8,4.68C37.817-3.64,36.517-1.742,34.021-1.742Zm15.314-11.31a3.99,3.99,0,0,0-3.692,2.236v-2H43.407V0h2.236V-6.916c0-2.652,1.274-4.03,3.224-4.03a3.806,3.806,0,0,1,1.664.39l1.092-1.872A4.341,4.341,0,0,0,49.335-13.052ZM58.019.234c3.77,0,6.266-2.938,6.266-6.656,0-3.744-2.522-6.63-6.266-6.63-3.77,0-6.214,2.886-6.214,6.63S54.249.234,58.019.234Zm0-1.976c-2.6,0-3.978-2.054-3.978-4.68s1.352-4.654,3.978-4.654,4.03,2,4.03,4.654C62.049-3.822,60.645-1.742,58.019-1.742Zm14.066.052c-1.768-.26-3.276-.546-3.276-1.742a1.2,1.2,0,0,1,.7-1.092,5.451,5.451,0,0,0,2.574.6c2.73,0,4.966-1.768,4.966-4.472a4.481,4.481,0,0,0-.65-2.366l1.768-1.456L77-13.65l-1.82,1.56a5.438,5.438,0,0,0-3.146-.962c-2.782,0-5.018,1.872-5.018,4.55A4.3,4.3,0,0,0,68.107-5.59a2.908,2.908,0,0,0-1.326,2.5A2.625,2.625,0,0,0,68.419-.572L66.391.962a3.067,3.067,0,0,0-.052.572c0,2.6,2.184,4,5.824,4,3.3,0,5.616-1.144,5.616-3.64C77.779-.988,74.659-1.326,72.085-1.69Zm-.026-9.49a2.586,2.586,0,0,1,2.756,2.73,2.579,2.579,0,0,1-2.756,2.7,2.621,2.621,0,0,1-2.808-2.7A2.656,2.656,0,0,1,72.059-11.18Zm.208,14.924c-1.95,0-3.718-.494-3.718-2.08a.732.732,0,0,1,.026-.208L70.109-.026c.494.1,1.014.182,1.508.26,2.028.312,3.926.494,3.926,1.872C75.543,3.224,74.217,3.744,72.267,3.744Zm14.664-16.8a3.99,3.99,0,0,0-3.692,2.236v-2H81V0h2.236V-6.916c0-2.652,1.274-4.03,3.224-4.03a3.806,3.806,0,0,1,1.664.39l1.092-1.872A4.341,4.341,0,0,0,86.931-13.052Zm9.23,0a6.477,6.477,0,0,0-5.408,2.678l1.612,1.352a4.533,4.533,0,0,1,3.744-2.054,2.762,2.762,0,0,1,3.042,3.068v.52H96.317a9.158,9.158,0,0,0-4.394.728A3.187,3.187,0,0,0,90.311-3.8c0,2.47,1.742,4.03,4.5,4.03a5,5,0,0,0,4.368-2.158L99.333,0h2.054V-8.008C101.387-11.18,99.437-13.052,96.161-13.052ZM95.329-1.638c-1.716,0-2.782-.806-2.782-2.054a1.814,1.814,0,0,1,.65-1.482c.546-.416,1.43-.572,3.38-.572h2.574v.13A3.714,3.714,0,0,1,95.329-1.638Zm23.66-11.414a4.353,4.353,0,0,0-4.186,2.5,3.739,3.739,0,0,0-3.77-2.5,3.845,3.845,0,0,0-3.484,1.82v-1.586h-2.184L105.391,0h2.236V-5.746c0-2.782.442-5.33,2.99-5.33,2.158,0,2.652,1.976,2.652,3.718V0h2.236V-5.746c0-2.782.416-5.33,3.042-5.33,2.548,0,2.6,2.6,2.6,3.666V0h2.236V-8.06C123.383-10.92,122.057-13.052,118.989-13.052Zm-207.415,40a6.477,6.477,0,0,0-5.408,2.678l1.612,1.352a4.533,4.533,0,0,1,3.744-2.054,2.762,2.762,0,0,1,3.042,3.068v.52H-88.27a9.158,9.158,0,0,0-4.394.728A3.187,3.187,0,0,0-94.276,36.2c0,2.47,1.742,4.03,4.5,4.03a5,5,0,0,0,4.368-2.158L-85.254,40H-83.2V31.992C-83.2,28.82-85.15,26.948-88.426,26.948Zm-.832,11.414c-1.716,0-2.782-.806-2.782-2.054a1.814,1.814,0,0,1,.65-1.482c.546-.416,1.43-.572,3.38-.572h2.574v.13A3.714,3.714,0,0,1-89.258,38.362Zm16.406-11.414a4.869,4.869,0,0,0-4.108,1.976V27.182H-79.2V40h2.236V34.462c0-3.172.936-5.538,3.51-5.538,2.08,0,2.678,1.508,2.678,3.64V40h2.236V32.018C-68.536,28.716-70.044,26.948-72.852,26.948Zm17.03-5.07v6.916a4.987,4.987,0,0,0-4.056-1.846c-3.432,0-5.616,2.574-5.616,6.63,0,3.822,1.95,6.656,5.616,6.656a4.929,4.929,0,0,0,4.056-1.82V40h2.236V21.878Zm-3.64,16.328c-2.522,0-3.8-1.9-3.8-4.628,0-2.808,1.378-4.628,3.8-4.628,2.47,0,3.822,1.9,3.822,4.628C-55.64,36.23-56.914,38.206-59.462,38.206Zm21.008,2.028c2.444,0,4.732-1.3,4.732-4.03,0-4.81-7.176-3.146-7.176-5.824,0-.936.884-1.534,2.288-1.534a3.2,3.2,0,0,1,2.99,1.794l1.768-.962a4.987,4.987,0,0,0-4.706-2.73c-2.522,0-4.5,1.352-4.5,3.666,0,4.628,7.124,2.73,7.124,5.72,0,1.118-.936,1.976-2.6,1.976a3.4,3.4,0,0,1-3.38-2.34l-1.846.832A5.4,5.4,0,0,0-38.454,40.234ZM-24.6,29v-1.82h-3.146V22.476l-2.236,1.664v3.042h-2.106V29h2.106v7.8a3.07,3.07,0,0,0,3.3,3.432,6.615,6.615,0,0,0,2.08-.364v-1.9a5.231,5.231,0,0,1-1.534.286c-1.014,0-1.612-.52-1.612-1.69V29Zm3.068-4.394h2.5v-2.73h-2.5ZM-21.4,40h2.236V27.182H-21.4Zm9.126.234a5.962,5.962,0,0,0,1.846-.364l-.026-1.846a4.423,4.423,0,0,1-1.144.208c-.754,0-1.066-.468-1.066-1.248V21.878H-14.9V37.114C-14.9,39.22-13.832,40.234-12.272,40.234Zm7.1,0a5.962,5.962,0,0,0,1.846-.364l-.026-1.846a4.423,4.423,0,0,1-1.144.208c-.754,0-1.066-.468-1.066-1.248V21.878H-7.8V37.114C-7.8,39.22-6.734,40.234-5.174,40.234Zm15.99-1.924c-1.768-.26-3.276-.546-3.276-1.742a1.2,1.2,0,0,1,.7-1.092,5.451,5.451,0,0,0,2.574.6c2.73,0,4.966-1.768,4.966-4.472a4.481,4.481,0,0,0-.65-2.366L16.9,27.78l-1.17-1.43-1.82,1.56a5.438,5.438,0,0,0-3.146-.962c-2.782,0-5.018,1.872-5.018,4.55A4.3,4.3,0,0,0,6.838,34.41a2.908,2.908,0,0,0-1.326,2.5A2.625,2.625,0,0,0,7.15,39.428L5.122,40.962a3.067,3.067,0,0,0-.052.572c0,2.6,2.184,4,5.824,4,3.3,0,5.616-1.144,5.616-3.64C16.51,39.012,13.39,38.674,10.816,38.31Zm-.026-9.49a2.717,2.717,0,1,1,0,5.434,2.621,2.621,0,0,1-2.808-2.7A2.656,2.656,0,0,1,10.79,28.82ZM11,43.744c-1.95,0-3.718-.494-3.718-2.08a.732.732,0,0,1,.026-.208L8.84,39.974c.494.1,1.014.182,1.508.26,2.028.312,3.926.494,3.926,1.872C14.274,43.224,12.948,43.744,11,43.744Zm14.664-16.8a3.99,3.99,0,0,0-3.692,2.236v-2H19.734V40H21.97V33.084c0-2.652,1.274-4.03,3.224-4.03a3.806,3.806,0,0,1,1.664.39l1.092-1.872A4.341,4.341,0,0,0,25.662,26.948Zm8.684,13.286c3.77,0,6.266-2.938,6.266-6.656,0-3.744-2.522-6.63-6.266-6.63-3.77,0-6.214,2.886-6.214,6.63S30.576,40.234,34.346,40.234Zm0-1.976c-2.6,0-3.978-2.054-3.978-4.68s1.352-4.654,3.978-4.654,4.03,2,4.03,4.654C38.376,36.178,36.972,38.258,34.346,38.258ZM45.708,40h2.054l3.146-9.7,3.12,9.7h2.054L59.9,27.182H57.512l-2.574,9.412L51.9,27.182h-2l-3.042,9.412-2.574-9.412H41.886Zm16.77-15.392h2.5v-2.73h-2.5ZM62.608,40h2.236V27.182H62.608ZM75.556,26.948a4.869,4.869,0,0,0-4.108,1.976V27.182H69.212V40h2.236V34.462c0-3.172.936-5.538,3.51-5.538,2.08,0,2.678,1.508,2.678,3.64V40h2.236V32.018C79.872,28.716,78.364,26.948,75.556,26.948ZM88.5,38.31c-1.768-.26-3.276-.546-3.276-1.742a1.2,1.2,0,0,1,.7-1.092,5.451,5.451,0,0,0,2.574.6c2.73,0,4.966-1.768,4.966-4.472a4.481,4.481,0,0,0-.65-2.366l1.768-1.456-1.17-1.43L91.6,27.91a5.438,5.438,0,0,0-3.146-.962c-2.782,0-5.018,1.872-5.018,4.55a4.3,4.3,0,0,0,1.092,2.912,2.908,2.908,0,0,0-1.326,2.5,2.625,2.625,0,0,0,1.638,2.522L82.81,40.962a3.067,3.067,0,0,0-.052.572c0,2.6,2.184,4,5.824,4,3.3,0,5.616-1.144,5.616-3.64C94.2,39.012,91.078,38.674,88.5,38.31Zm-.026-9.49a2.717,2.717,0,1,1,0,5.434,2.621,2.621,0,0,1-2.808-2.7A2.656,2.656,0,0,1,88.478,28.82Zm.208,14.924c-1.95,0-3.718-.494-3.718-2.08a.732.732,0,0,1,.026-.208l1.534-1.482c.494.1,1.014.182,1.508.26,2.028.312,3.926.494,3.926,1.872C91.962,43.224,90.636,43.744,88.686,43.744Z" transform="translate(-7219.246 1099.5)" fill="#f6f6fd"/>
    <path id="Path_4293" data-name="Path 4293" d="M-68.36.52c5.72,0,9.68-3.44,9.68-8.64,0-3.96-1.96-6.08-7.92-8.36-4.2-1.64-5.56-2.68-5.56-4.52a3.245,3.245,0,0,1,3.52-3.04,4.939,4.939,0,0,1,4.48,3.2L-60-23.4a9.063,9.063,0,0,0-8.48-5.08c-5.2,0-8.68,3.08-8.68,7.6,0,4.04,2.08,6.16,7.92,8.44,4.12,1.64,5.56,2.84,5.56,4.76,0,2.36-1.8,3.76-4.6,3.76a5.427,5.427,0,0,1-5.8-5.2l-4.96,1.24C-78.24-2.8-73.92.52-68.36.52Zm24.32-16.44v-3.8h-4.92v-7.36l-4.8,3.56v3.8h-3.2v3.8h3.2v10.4c0,4.2,2.8,5.92,6.12,5.92a11.325,11.325,0,0,0,3.6-.6V-4.04a8.289,8.289,0,0,1-2.4.44c-1.56,0-2.52-.72-2.52-2.28V-15.92Zm16.76-3.8v7.48c0,3.52,0,8.44-4.48,8.44-3.64,0-3.64-3.44-3.64-4.8V-19.72h-4.8V-7.4c0,4.2,2.08,7.8,7.04,7.8a7.045,7.045,0,0,0,5.88-2.68V0h4.8V-19.72Zm22.8-8.16v10.16a7.549,7.549,0,0,0-5.68-2.4c-4.84,0-8.32,3.8-8.32,10.24C-18.48-3.96-15.52.4-10.16.4A7.188,7.188,0,0,0-4.48-1.96V0H.32V-27.88ZM-9-4.04c-3.2,0-4.68-2.16-4.68-5.8,0-3.68,1.52-5.92,4.72-5.92,3.44,0,4.92,2.64,4.92,5.92S-5.52-4.04-9-4.04Zm31.76-6.08c0-5.48-2.96-10-9.08-10-6.56,0-9.36,5.2-9.36,10.36C4.32-4.48,7.2.4,14,.4a10.254,10.254,0,0,0,8.08-3.56L18.76-6.08a5.913,5.913,0,0,1-4.72,2.12c-3.12,0-4.72-1.72-4.92-4.32H22.64A14.685,14.685,0,0,0,22.76-10.12ZM9.08-12.08a4.429,4.429,0,0,1,4.56-4.04c2.52,0,4.44,1.52,4.52,4.04Zm28.4-8.04a7.1,7.1,0,0,0-5.96,2.68v-2.28h-4.8V0h4.8V-7.88c0-3.52,0-8.04,4.48-8.04,3.64,0,3.64,3.04,3.64,4.4V0h4.8V-12.72C44.44-17.4,41.92-20.12,37.48-20.12Zm22.64,4.2v-3.8H55.2v-7.36l-4.8,3.56v3.8H47.2v3.8h3.2v10.4C50.4-1.32,53.2.4,56.52.4a11.325,11.325,0,0,0,3.6-.6V-4.04a8.289,8.289,0,0,1-2.4.44c-1.56,0-2.52-.72-2.52-2.28V-15.92ZM70.96.4c3.72,0,7.68-2,7.68-6.6,0-7.2-10.32-5.44-10.32-8.44,0-.92.96-1.68,2.52-1.68a4.245,4.245,0,0,1,3.92,2.52l3.72-2.04A8.158,8.158,0,0,0,71-20.12c-3.8,0-7.24,1.96-7.24,5.76,0,7.32,10.16,5.12,10.16,8.44,0,1.04-.96,2.32-3.2,2.32a4.27,4.27,0,0,1-4.2-3.24L62.68-5.12A8.494,8.494,0,0,0,70.96.4Z" transform="translate(-7219.166 1061.5)" fill="#f6f6fd"/>
    <g id="Group_4036" data-name="Group 4036" transform="translate(537.878 -10722.059)">
      <path id="Path_4219" data-name="Path 4219" d="M-8066.4,11609.2v88.34h73.323" transform="translate(41.243 210.094)" fill="none" stroke="#f6f6fd" stroke-linecap="round" stroke-linejoin="round" stroke-width="5"/>
      <path id="Path_4221" data-name="Path 4221" d="M0,88.341V0H73.323" transform="translate(-8025.156 11335.541)" fill="none" stroke="#f6f6fd" stroke-linecap="round" stroke-linejoin="round" stroke-width="5"/>
      <path id="Path_4220" data-name="Path 4220" d="M-7993.076,11697.54v-88.34H-8066.4" transform="translate(480.476 -273.659)" fill="none" stroke="#f6f6fd" stroke-linecap="round" stroke-linejoin="round" stroke-width="5"/>
      <path id="Path_4222" data-name="Path 4222" d="M73.323,0V88.341H0" transform="translate(-7585.923 11819.296)" fill="none" stroke="#f6f6fd" stroke-linecap="round" stroke-linejoin="round" stroke-width="5"/>
    </g>
  </g>
</svg>
