<svg width="519" height="578" viewBox="0 0 519 578" fill="none" xmlns="http://www.w3.org/2000/svg">
<g clip-path="url(#clip0_8_722)">
<path d="M3.06641 486.801V575.141H76.3892" stroke="#0D0A3A" stroke-width="5" stroke-linecap="round" stroke-linejoin="round"/>
<path d="M3.06738 91.3879V3.04688H76.3904" stroke="#0D0A3A" stroke-width="5" stroke-linecap="round" stroke-linejoin="round"/>
<path d="M515.623 91.3867V3.04688H442.299" stroke="#0D0A3A" stroke-width="5" stroke-linecap="round" stroke-linejoin="round"/>
<path d="M515.624 486.801V575.142H442.301" stroke="#0D0A3A" stroke-width="5" stroke-linecap="round" stroke-linejoin="round"/>
<path d="M214.01 157.486C211.946 157.486 209.966 158.306 208.506 159.766C207.046 161.226 206.226 163.206 206.226 165.27C206.226 167.335 207.046 169.314 208.506 170.774C209.966 172.234 211.946 173.054 214.01 173.054C217.892 173.045 221.737 173.803 225.325 175.285C228.912 176.766 232.172 178.941 234.917 181.686C237.662 184.431 239.837 187.691 241.319 191.279C242.8 194.866 243.558 198.712 243.549 202.593C243.549 203.615 243.75 204.628 244.142 205.572C244.533 206.516 245.106 207.374 245.829 208.097C246.552 208.82 247.41 209.393 248.354 209.785C249.299 210.176 250.311 210.377 251.333 210.377C252.355 210.377 253.367 210.176 254.312 209.785C255.256 209.393 256.114 208.82 256.837 208.097C257.56 207.374 258.133 206.516 258.525 205.572C258.916 204.628 259.117 203.615 259.117 202.593C259.096 190.636 254.337 179.176 245.882 170.721C237.428 162.266 225.967 157.507 214.01 157.486Z" fill="#D3D2DF"/>
<path d="M214.01 92.6201C211.946 92.6201 209.966 93.4402 208.506 94.9C207.046 96.3598 206.226 98.3397 206.226 100.404C206.226 102.469 207.046 104.448 208.506 105.908C209.966 107.368 211.946 108.188 214.01 108.188C239.041 108.205 263.043 118.156 280.743 135.856C298.442 153.555 308.393 177.557 308.41 202.588C308.41 203.61 308.611 204.623 309.003 205.567C309.394 206.511 309.967 207.369 310.69 208.092C311.413 208.815 312.271 209.388 313.215 209.78C314.16 210.171 315.172 210.372 316.194 210.372C317.216 210.372 318.228 210.171 319.173 209.78C320.117 209.388 320.975 208.815 321.698 208.092C322.421 207.369 322.994 206.511 323.386 205.567C323.777 204.623 323.978 203.61 323.978 202.588C323.956 173.43 312.363 145.472 291.745 124.853C271.127 104.235 243.169 92.6421 214.01 92.6201Z" fill="#D3D2DF"/>
<path d="M214.01 125.153C212.988 125.153 211.976 125.354 211.031 125.746C210.087 126.137 209.229 126.71 208.506 127.433C207.783 128.156 207.21 129.014 206.819 129.958C206.427 130.903 206.226 131.915 206.226 132.937C206.226 133.959 206.427 134.972 206.819 135.916C207.21 136.86 207.783 137.718 208.506 138.441C209.229 139.164 210.087 139.737 211.031 140.129C211.976 140.52 212.988 140.721 214.01 140.721C230.436 140.729 246.189 147.243 257.822 158.839C269.455 170.435 276.021 186.168 276.081 202.593C276.081 204.658 276.901 206.637 278.361 208.097C279.821 209.557 281.801 210.377 283.865 210.377C285.93 210.377 287.909 209.557 289.369 208.097C290.829 206.637 291.649 204.658 291.649 202.593C291.649 159.881 256.726 125.153 214.01 125.153Z" fill="#D3D2DF"/>
<path d="M214.009 190.018C211.522 190.018 209.091 190.756 207.023 192.137C204.956 193.519 203.344 195.483 202.392 197.78C201.441 200.078 201.191 202.606 201.677 205.045C202.162 207.484 203.359 209.725 205.118 211.483C206.876 213.242 209.117 214.439 211.556 214.925C213.995 215.41 216.523 215.161 218.821 214.209C221.119 213.257 223.082 211.646 224.464 209.578C225.846 207.51 226.583 205.079 226.583 202.592C226.59 200.939 226.269 199.301 225.64 197.772C225.01 196.243 224.085 194.855 222.916 193.686C221.747 192.517 220.358 191.591 218.829 190.961C217.3 190.332 215.662 190.011 214.009 190.018Z" fill="#D3D2DF"/>
<path d="M206.952 154.303C204.888 154.303 202.908 155.124 201.448 156.583C199.989 158.043 199.168 160.023 199.168 162.088C199.168 164.152 199.989 166.132 201.448 167.592C202.908 169.051 204.888 169.871 206.952 169.871C210.834 169.863 214.679 170.621 218.267 172.102C221.855 173.583 225.115 175.759 227.859 178.504C230.604 181.248 232.78 184.508 234.261 188.096C235.742 191.684 236.5 195.529 236.491 199.41C236.491 200.433 236.693 201.445 237.084 202.389C237.475 203.334 238.049 204.192 238.771 204.915C239.494 205.637 240.352 206.211 241.297 206.602C242.241 206.993 243.253 207.194 244.275 207.194C245.298 207.194 246.31 206.993 247.254 206.602C248.199 206.211 249.057 205.637 249.78 204.915C250.502 204.192 251.076 203.334 251.467 202.389C251.858 201.445 252.059 200.433 252.059 199.41C252.038 187.454 247.279 175.993 238.825 167.538C230.37 159.084 218.909 154.325 206.952 154.303Z" fill="#0D0A3A"/>
<path d="M206.952 89.4375C204.888 89.4375 202.908 90.2576 201.448 91.7174C199.989 93.1772 199.168 95.1571 199.168 97.2215C199.168 99.2859 199.989 101.266 201.448 102.726C202.908 104.185 204.888 105.005 206.952 105.005C231.984 105.022 255.985 114.973 273.685 132.673C291.385 150.373 301.336 174.374 301.352 199.405C301.352 200.428 301.554 201.44 301.945 202.384C302.336 203.329 302.91 204.187 303.632 204.91C304.355 205.632 305.213 206.206 306.158 206.597C307.102 206.988 308.114 207.19 309.136 207.19C310.159 207.19 311.171 206.988 312.115 206.597C313.06 206.206 313.918 205.632 314.641 204.91C315.363 204.187 315.937 203.329 316.328 202.384C316.719 201.44 316.92 200.428 316.92 199.405C316.898 170.247 305.306 142.289 284.687 121.671C264.069 101.052 236.111 89.4595 206.952 89.4375Z" fill="#0D0A3A"/>
<path d="M206.952 121.971C205.93 121.971 204.918 122.172 203.974 122.563C203.029 122.954 202.171 123.528 201.448 124.25C200.726 124.973 200.152 125.831 199.761 126.776C199.37 127.72 199.168 128.732 199.168 129.755C199.168 130.777 199.37 131.789 199.761 132.733C200.152 133.678 200.726 134.536 201.448 135.259C202.171 135.981 203.029 136.555 203.974 136.946C204.918 137.337 205.93 137.539 206.952 137.539C223.378 137.546 239.131 144.061 250.765 155.657C262.398 167.253 268.963 182.985 269.023 199.41C269.023 201.475 269.844 203.455 271.303 204.915C272.763 206.374 274.743 207.194 276.807 207.194C278.872 207.194 280.852 206.374 282.312 204.915C283.771 203.455 284.591 201.475 284.591 199.41C284.591 156.698 249.668 121.971 206.952 121.971Z" fill="#0D0A3A"/>
<path d="M206.951 186.835C204.465 186.835 202.033 187.573 199.966 188.955C197.898 190.336 196.286 192.3 195.335 194.598C194.383 196.895 194.134 199.423 194.619 201.863C195.104 204.302 196.302 206.542 198.06 208.301C199.819 210.059 202.059 211.257 204.498 211.742C206.937 212.227 209.466 211.978 211.763 211.026C214.061 210.075 216.025 208.463 217.406 206.395C218.788 204.327 219.525 201.896 219.525 199.409C219.532 197.756 219.212 196.118 218.582 194.59C217.953 193.061 217.027 191.672 215.858 190.503C214.689 189.334 213.3 188.408 211.771 187.779C210.243 187.149 208.605 186.829 206.951 186.835Z" fill="#0D0A3A"/>
<path d="M110.242 290.794V269.806H146.806V366.166H123.31V290.794H110.242ZM178.087 314.422C169.815 310.022 165.679 303.114 165.679 293.698C165.679 288.946 166.911 284.634 169.375 280.762C171.839 276.802 175.579 273.678 180.595 271.39C185.611 269.014 191.771 267.826 199.075 267.826C206.379 267.826 212.495 269.014 217.423 271.39C222.439 273.678 226.179 276.802 228.643 280.762C231.107 284.634 232.339 288.946 232.339 293.698C232.339 298.45 231.195 302.586 228.907 306.106C226.707 309.626 223.715 312.398 219.931 314.422C224.683 316.71 228.335 319.878 230.887 323.926C233.439 327.886 234.715 332.55 234.715 337.918C234.715 344.166 233.131 349.578 229.963 354.154C226.795 358.642 222.483 362.074 217.027 364.45C211.659 366.826 205.675 368.014 199.075 368.014C192.475 368.014 186.447 366.826 180.991 364.45C175.623 362.074 171.355 358.642 168.187 354.154C165.019 349.578 163.435 344.166 163.435 337.918C163.435 332.462 164.711 327.754 167.263 323.794C169.815 319.746 173.423 316.622 178.087 314.422ZM210.427 297.13C210.427 293.522 209.371 290.75 207.259 288.814C205.235 286.79 202.507 285.778 199.075 285.778C195.643 285.778 192.871 286.79 190.759 288.814C188.735 290.838 187.723 293.654 187.723 297.262C187.723 300.694 188.779 303.422 190.891 305.446C193.003 307.382 195.731 308.35 199.075 308.35C202.419 308.35 205.147 307.338 207.259 305.314C209.371 303.29 210.427 300.562 210.427 297.13ZM199.075 324.19C194.939 324.19 191.595 325.334 189.043 327.622C186.491 329.822 185.215 332.902 185.215 336.862C185.215 340.558 186.447 343.594 188.911 345.97C191.463 348.346 194.851 349.534 199.075 349.534C203.299 349.534 206.599 348.346 208.975 345.97C211.439 343.594 212.671 340.558 212.671 336.862C212.671 332.99 211.395 329.91 208.843 327.622C206.379 325.334 203.123 324.19 199.075 324.19ZM247.84 316.666C247.84 301.53 250.744 289.606 256.552 280.894C262.448 272.182 271.908 267.826 284.932 267.826C297.956 267.826 307.372 272.182 313.18 280.894C319.076 289.606 322.024 301.53 322.024 316.666C322.024 331.978 319.076 343.99 313.18 352.702C307.372 361.414 297.956 365.77 284.932 365.77C271.908 365.77 262.448 361.414 256.552 352.702C250.744 343.99 247.84 331.978 247.84 316.666ZM299.848 316.666C299.848 307.778 298.88 300.958 296.944 296.206C295.008 291.366 291.004 288.946 284.932 288.946C278.86 288.946 274.856 291.366 272.92 296.206C270.984 300.958 270.016 307.778 270.016 316.666C270.016 322.65 270.368 327.622 271.072 331.582C271.776 335.454 273.184 338.622 275.296 341.086C277.496 343.462 280.708 344.65 284.932 344.65C289.156 344.65 292.324 343.462 294.436 341.086C296.636 338.622 298.088 335.454 298.792 331.582C299.496 327.622 299.848 322.65 299.848 316.666ZM403.118 330.13H380.15V353.626H358.766V330.13H335.798V309.934H358.766V286.306H380.15V309.934H403.118V330.13Z" fill="#0D0A3A"/>
<path d="M188.846 449.053V444.268C189.275 444.658 189.783 445.01 190.369 445.322C190.968 445.635 191.6 445.902 192.264 446.123C192.928 446.332 193.592 446.494 194.256 446.611C194.92 446.729 195.532 446.787 196.092 446.787C198.045 446.787 199.497 446.462 200.447 445.811C201.411 445.16 201.893 444.216 201.893 442.979C201.893 442.315 201.73 441.742 201.404 441.26C201.092 440.765 200.649 440.316 200.076 439.912C199.503 439.509 198.826 439.124 198.045 438.76C197.277 438.382 196.45 437.992 195.564 437.588C194.614 437.08 193.729 436.566 192.908 436.045C192.088 435.524 191.372 434.951 190.76 434.326C190.161 433.688 189.686 432.972 189.334 432.178C188.995 431.384 188.826 430.453 188.826 429.385C188.826 428.07 189.119 426.93 189.705 425.967C190.304 424.99 191.085 424.19 192.049 423.565C193.025 422.927 194.132 422.458 195.369 422.158C196.606 421.846 197.869 421.69 199.158 421.69C202.088 421.69 204.223 422.022 205.564 422.686V427.276C203.976 426.13 201.932 425.557 199.432 425.557C198.742 425.557 198.051 425.622 197.361 425.752C196.684 425.882 196.072 426.097 195.525 426.397C194.992 426.696 194.555 427.08 194.217 427.549C193.878 428.018 193.709 428.584 193.709 429.248C193.709 429.873 193.839 430.414 194.1 430.869C194.36 431.325 194.738 431.742 195.232 432.119C195.74 432.497 196.352 432.868 197.068 433.233C197.798 433.584 198.637 433.968 199.588 434.385C200.564 434.893 201.482 435.427 202.342 435.986C203.214 436.546 203.976 437.165 204.627 437.842C205.291 438.519 205.812 439.274 206.189 440.108C206.58 440.928 206.775 441.865 206.775 442.92C206.775 444.339 206.489 445.537 205.916 446.514C205.343 447.49 204.568 448.285 203.592 448.897C202.628 449.509 201.515 449.951 200.252 450.225C198.989 450.498 197.654 450.635 196.248 450.635C195.779 450.635 195.2 450.596 194.51 450.518C193.833 450.453 193.136 450.348 192.42 450.205C191.704 450.075 191.027 449.912 190.389 449.717C189.751 449.522 189.236 449.3 188.846 449.053ZM220.799 449.951C219.913 450.394 218.748 450.615 217.303 450.615C213.423 450.615 211.482 448.753 211.482 445.029V433.721H208.143V430.166H211.482V425.537L216.014 424.248V430.166H220.799V433.721H216.014V443.721C216.014 444.906 216.229 445.752 216.658 446.26C217.088 446.768 217.804 447.022 218.807 447.022C219.575 447.022 220.239 446.8 220.799 446.358V449.951ZM236.307 434.483C235.76 434.053 234.972 433.838 233.943 433.838C232.602 433.838 231.482 434.443 230.584 435.654C229.686 436.865 229.236 438.512 229.236 440.596V450.166H224.705V430.166H229.236V434.287H229.314C229.757 432.881 230.434 431.787 231.346 431.006C232.27 430.212 233.299 429.815 234.432 429.815C235.252 429.815 235.877 429.938 236.307 430.186V434.483ZM256.092 441.397H242.459C242.511 443.246 243.077 444.671 244.158 445.674C245.252 446.677 246.749 447.178 248.65 447.178C250.786 447.178 252.745 446.54 254.529 445.264V448.916C252.706 450.062 250.298 450.635 247.303 450.635C244.36 450.635 242.049 449.73 240.369 447.92C238.702 446.097 237.869 443.539 237.869 440.244C237.869 437.132 238.787 434.6 240.623 432.647C242.472 430.68 244.764 429.697 247.498 429.697C250.232 429.697 252.348 430.576 253.846 432.334C255.343 434.092 256.092 436.533 256.092 439.658V441.397ZM251.717 438.193C251.704 436.566 251.32 435.303 250.564 434.404C249.809 433.493 248.768 433.037 247.439 433.037C246.137 433.037 245.031 433.512 244.119 434.463C243.221 435.414 242.667 436.657 242.459 438.193H251.717ZM275.76 450.166H271.365V447.041H271.287C269.907 449.437 267.882 450.635 265.213 450.635C263.247 450.635 261.704 450.101 260.584 449.033C259.477 447.966 258.924 446.553 258.924 444.795C258.924 441.019 261.098 438.818 265.447 438.193L271.385 437.354C271.385 434.502 270.031 433.076 267.322 433.076C264.939 433.076 262.791 433.897 260.877 435.537V431.572C262.986 430.322 265.421 429.697 268.182 429.697C273.234 429.697 275.76 432.184 275.76 437.158V450.166ZM271.385 440.342L267.186 440.928C265.883 441.097 264.9 441.416 264.236 441.885C263.585 442.341 263.26 443.148 263.26 444.307C263.26 445.153 263.559 445.85 264.158 446.397C264.77 446.93 265.584 447.197 266.6 447.197C267.98 447.197 269.119 446.716 270.018 445.752C270.929 444.776 271.385 443.552 271.385 442.08V440.342ZM311.209 450.166H306.678V439.268C306.678 437.171 306.378 435.654 305.779 434.717C305.193 433.779 304.197 433.311 302.791 433.311C301.606 433.311 300.597 433.903 299.764 435.088C298.943 436.273 298.533 437.692 298.533 439.346V450.166H293.982V438.897C293.982 435.173 292.667 433.311 290.037 433.311C288.813 433.311 287.804 433.871 287.01 434.99C286.229 436.11 285.838 437.562 285.838 439.346V450.166H281.307V430.166H285.838V433.33H285.916C287.361 430.908 289.464 429.697 292.225 429.697C293.605 429.697 294.809 430.082 295.838 430.85C296.88 431.605 297.589 432.601 297.967 433.838C299.451 431.078 301.665 429.697 304.607 429.697C309.008 429.697 311.209 432.412 311.209 437.842V450.166ZM315.486 449.541V445.342C317.179 446.631 319.048 447.276 321.092 447.276C323.826 447.276 325.193 446.468 325.193 444.854C325.193 444.398 325.076 444.014 324.842 443.701C324.607 443.376 324.288 443.089 323.885 442.842C323.494 442.595 323.025 442.373 322.479 442.178C321.945 441.983 321.346 441.761 320.682 441.514C319.861 441.188 319.119 440.843 318.455 440.479C317.804 440.114 317.257 439.704 316.814 439.248C316.385 438.779 316.059 438.252 315.838 437.666C315.617 437.08 315.506 436.397 315.506 435.615C315.506 434.652 315.734 433.805 316.189 433.076C316.645 432.334 317.257 431.716 318.025 431.221C318.794 430.713 319.666 430.335 320.643 430.088C321.619 429.828 322.628 429.697 323.67 429.697C325.519 429.697 327.173 429.977 328.631 430.537V434.502C327.225 433.539 325.61 433.057 323.787 433.057C323.214 433.057 322.693 433.115 322.225 433.233C321.769 433.35 321.378 433.512 321.053 433.721C320.727 433.929 320.473 434.183 320.291 434.483C320.109 434.769 320.018 435.088 320.018 435.44C320.018 435.869 320.109 436.234 320.291 436.533C320.473 436.833 320.74 437.1 321.092 437.334C321.456 437.555 321.886 437.764 322.381 437.959C322.889 438.141 323.468 438.343 324.119 438.565C324.979 438.916 325.747 439.274 326.424 439.639C327.114 440.003 327.7 440.42 328.182 440.889C328.663 441.345 329.035 441.878 329.295 442.49C329.555 443.089 329.686 443.805 329.686 444.639C329.686 445.654 329.451 446.54 328.982 447.295C328.514 448.05 327.889 448.675 327.107 449.17C326.326 449.665 325.421 450.029 324.393 450.264C323.377 450.511 322.303 450.635 321.17 450.635C318.982 450.635 317.088 450.27 315.486 449.541Z" fill="#0D0A3A"/>
<path d="M204.041 491.447C201.619 491.447 199.678 490.662 198.217 489.092C196.764 487.522 196.037 485.479 196.037 482.963C196.037 480.26 196.779 478.104 198.264 476.494C199.748 474.885 201.764 474.08 204.311 474.08C206.67 474.08 208.568 474.861 210.006 476.424C211.451 477.986 212.174 480.029 212.174 482.553C212.174 485.295 211.436 487.463 209.959 489.057C208.482 490.651 206.51 491.447 204.041 491.447ZM204.17 476.529C202.631 476.529 201.377 477.104 200.408 478.252C199.447 479.401 198.967 480.912 198.967 482.787C198.967 484.654 199.436 486.158 200.373 487.299C201.311 488.44 202.537 489.01 204.053 489.01C205.662 489.01 206.932 488.467 207.861 487.381C208.791 486.295 209.256 484.776 209.256 482.822C209.256 480.815 208.803 479.264 207.896 478.17C206.998 477.076 205.756 476.529 204.17 476.529ZM221.736 475.615C221.369 475.404 220.951 475.299 220.482 475.299C219.162 475.299 218.502 476.045 218.502 477.537V479.166H221.291V481.299H218.514V491.166H215.795V481.299H213.744V479.166H215.795V477.221C215.795 475.955 216.209 474.959 217.037 474.233C217.865 473.498 218.9 473.131 220.143 473.131C220.814 473.131 221.346 473.205 221.736 473.354V475.615ZM232.916 485.072V491.166H230.139V474.361H235.236C237.166 474.361 238.662 474.811 239.725 475.709C240.787 476.608 241.318 477.873 241.318 479.506C241.318 481.139 240.764 482.475 239.654 483.514C238.545 484.553 237.045 485.072 235.154 485.072H232.916ZM232.916 476.658V482.799H234.721C235.916 482.799 236.826 482.522 237.451 481.967C238.076 481.412 238.389 480.631 238.389 479.623C238.389 477.647 237.24 476.658 234.943 476.658H232.916ZM248.373 491.447C246.521 491.447 245.041 490.889 243.932 489.772C242.83 488.647 242.279 487.158 242.279 485.307C242.279 483.291 242.854 481.717 244.002 480.584C245.158 479.451 246.713 478.885 248.666 478.885C250.541 478.885 252.002 479.436 253.049 480.537C254.096 481.639 254.619 483.166 254.619 485.119C254.619 487.033 254.053 488.568 252.92 489.725C251.795 490.873 250.279 491.447 248.373 491.447ZM248.502 481.053C247.439 481.053 246.6 481.424 245.982 482.166C245.365 482.908 245.057 483.932 245.057 485.236C245.057 486.494 245.369 487.486 245.994 488.213C246.619 488.932 247.455 489.291 248.502 489.291C249.572 489.291 250.393 488.936 250.963 488.225C251.541 487.514 251.83 486.502 251.83 485.19C251.83 483.869 251.541 482.85 250.963 482.131C250.393 481.412 249.572 481.053 248.502 481.053ZM268.307 491.166H265.588V489.127H265.541C264.666 490.674 263.318 491.447 261.498 491.447C260.021 491.447 258.838 490.912 257.947 489.842C257.064 488.764 256.623 487.299 256.623 485.447C256.623 483.463 257.111 481.873 258.088 480.678C259.072 479.483 260.381 478.885 262.014 478.885C263.631 478.885 264.807 479.533 265.541 480.83H265.588V473.401H268.307V491.166ZM265.623 485.682V484.111C265.623 483.26 265.346 482.537 264.791 481.943C264.236 481.35 263.529 481.053 262.67 481.053C261.654 481.053 260.854 481.432 260.268 482.19C259.689 482.947 259.4 483.998 259.4 485.342C259.4 486.561 259.678 487.526 260.232 488.236C260.795 488.94 261.549 489.291 262.494 489.291C263.424 489.291 264.178 488.951 264.756 488.272C265.334 487.584 265.623 486.721 265.623 485.682ZM280.447 490.615C279.486 491.17 278.35 491.447 277.037 491.447C275.256 491.447 273.818 490.893 272.725 489.783C271.631 488.666 271.084 487.221 271.084 485.447C271.084 483.471 271.67 481.885 272.842 480.69C274.021 479.486 275.596 478.885 277.564 478.885C278.658 478.885 279.623 479.076 280.459 479.459V481.99C279.623 481.365 278.732 481.053 277.787 481.053C276.639 481.053 275.697 481.443 274.963 482.225C274.229 482.998 273.861 484.014 273.861 485.272C273.861 486.514 274.205 487.494 274.893 488.213C275.588 488.932 276.518 489.291 277.682 489.291C278.658 489.291 279.58 488.943 280.447 488.248V490.615ZM292.365 491.166H289.729V489.291H289.682C288.854 490.729 287.639 491.447 286.037 491.447C284.857 491.447 283.932 491.127 283.26 490.486C282.596 489.846 282.264 488.998 282.264 487.943C282.264 485.678 283.568 484.358 286.178 483.983L289.74 483.479C289.74 481.768 288.928 480.912 287.303 480.912C285.873 480.912 284.584 481.404 283.436 482.389V480.01C284.701 479.26 286.162 478.885 287.818 478.885C290.85 478.885 292.365 480.377 292.365 483.361V491.166ZM289.74 485.272L287.221 485.623C286.439 485.725 285.85 485.916 285.451 486.197C285.061 486.471 284.865 486.955 284.865 487.651C284.865 488.158 285.045 488.576 285.404 488.904C285.771 489.225 286.26 489.385 286.869 489.385C287.697 489.385 288.381 489.096 288.92 488.518C289.467 487.932 289.74 487.197 289.74 486.315V485.272ZM294.943 490.791V488.272C295.959 489.045 297.08 489.432 298.307 489.432C299.947 489.432 300.768 488.947 300.768 487.979C300.768 487.705 300.697 487.475 300.557 487.287C300.416 487.092 300.225 486.92 299.982 486.772C299.748 486.623 299.467 486.49 299.139 486.373C298.818 486.256 298.459 486.123 298.061 485.975C297.568 485.779 297.123 485.572 296.725 485.354C296.334 485.135 296.006 484.889 295.74 484.615C295.482 484.334 295.287 484.018 295.154 483.666C295.021 483.315 294.955 482.904 294.955 482.436C294.955 481.858 295.092 481.35 295.365 480.912C295.639 480.467 296.006 480.096 296.467 479.799C296.928 479.494 297.451 479.268 298.037 479.119C298.623 478.963 299.229 478.885 299.854 478.885C300.963 478.885 301.955 479.053 302.83 479.389V481.768C301.986 481.19 301.018 480.901 299.924 480.901C299.58 480.901 299.268 480.936 298.986 481.006C298.713 481.076 298.479 481.174 298.283 481.299C298.088 481.424 297.936 481.576 297.826 481.756C297.717 481.928 297.662 482.119 297.662 482.33C297.662 482.588 297.717 482.807 297.826 482.986C297.936 483.166 298.096 483.326 298.307 483.467C298.525 483.6 298.783 483.725 299.08 483.842C299.385 483.951 299.732 484.072 300.123 484.205C300.639 484.416 301.1 484.631 301.506 484.85C301.92 485.068 302.271 485.318 302.561 485.6C302.85 485.873 303.072 486.193 303.229 486.561C303.385 486.92 303.463 487.35 303.463 487.85C303.463 488.459 303.322 488.99 303.041 489.443C302.76 489.897 302.385 490.272 301.916 490.568C301.447 490.865 300.904 491.084 300.287 491.225C299.678 491.373 299.033 491.447 298.354 491.447C297.041 491.447 295.904 491.229 294.943 490.791ZM312.381 491.037C311.85 491.303 311.15 491.436 310.283 491.436C307.955 491.436 306.791 490.318 306.791 488.084V481.299H304.787V479.166H306.791V476.389L309.51 475.615V479.166H312.381V481.299H309.51V487.299C309.51 488.01 309.639 488.518 309.896 488.822C310.154 489.127 310.584 489.279 311.186 489.279C311.646 489.279 312.045 489.147 312.381 488.881V491.037ZM313.975 490.791V488.272C314.99 489.045 316.111 489.432 317.338 489.432C318.979 489.432 319.799 488.947 319.799 487.979C319.799 487.705 319.729 487.475 319.588 487.287C319.447 487.092 319.256 486.92 319.014 486.772C318.779 486.623 318.498 486.49 318.17 486.373C317.85 486.256 317.49 486.123 317.092 485.975C316.6 485.779 316.154 485.572 315.756 485.354C315.365 485.135 315.037 484.889 314.771 484.615C314.514 484.334 314.318 484.018 314.186 483.666C314.053 483.315 313.986 482.904 313.986 482.436C313.986 481.858 314.123 481.35 314.396 480.912C314.67 480.467 315.037 480.096 315.498 479.799C315.959 479.494 316.482 479.268 317.068 479.119C317.654 478.963 318.26 478.885 318.885 478.885C319.994 478.885 320.986 479.053 321.861 479.389V481.768C321.018 481.19 320.049 480.901 318.955 480.901C318.611 480.901 318.299 480.936 318.018 481.006C317.744 481.076 317.51 481.174 317.314 481.299C317.119 481.424 316.967 481.576 316.857 481.756C316.748 481.928 316.693 482.119 316.693 482.33C316.693 482.588 316.748 482.807 316.857 482.986C316.967 483.166 317.127 483.326 317.338 483.467C317.557 483.6 317.814 483.725 318.111 483.842C318.416 483.951 318.764 484.072 319.154 484.205C319.67 484.416 320.131 484.631 320.537 484.85C320.951 485.068 321.303 485.318 321.592 485.6C321.881 485.873 322.104 486.193 322.26 486.561C322.416 486.92 322.494 487.35 322.494 487.85C322.494 488.459 322.354 488.99 322.072 489.443C321.791 489.897 321.416 490.272 320.947 490.568C320.479 490.865 319.936 491.084 319.318 491.225C318.709 491.373 318.064 491.447 317.385 491.447C316.072 491.447 314.936 491.229 313.975 490.791Z" fill="#0D0A3A"/>
</g>
<defs>
<clipPath id="clip0_8_722">
<rect width="517.556" height="577.096" fill="white" transform="translate(0.567383 0.546875)"/>
</clipPath>
</defs>
</svg>
