<svg xmlns="http://www.w3.org/2000/svg" width="517.556" height="577.096" viewBox="0 0 517.556 577.096">
  <g id="Group_4436" data-name="Group 4436" transform="translate(1738.338 -1436.482)">
    <path id="Path_4341" data-name="Path 4341" d="M-229.76-91.36V-116.8h44.32V0h-28.48V-91.36ZM-166.72-60q0-27.52,10.64-43.36t34.32-15.84q23.68,0,34.32,15.84T-76.8-60q0,27.84-10.64,43.68T-121.76-.48q-23.68,0-34.32-15.84T-166.72-60Zm63.04,0q0-16.16-3.52-24.88t-14.56-8.72q-11.04,0-14.56,8.72T-139.84-60a104.6,104.6,0,0,0,1.28,18,23.032,23.032,0,0,0,5.2,11.52q3.92,4.4,11.6,4.4t11.6-4.4A23.032,23.032,0,0,0-104.96-42,104.6,104.6,0,0,0-103.68-60Zm41.28,0q0-27.52,10.64-43.36t34.32-15.84q23.68,0,34.32,15.84T27.52-60q0,27.84-10.64,43.68T-17.44-.48q-23.68,0-34.32-15.84T-62.4-60ZM.64-60q0-16.16-3.52-24.88T-17.44-93.6q-11.04,0-14.56,8.72T-35.52-60a104.6,104.6,0,0,0,1.28,18,23.032,23.032,0,0,0,5.2,11.52q3.92,4.4,11.6,4.4t11.6-4.4A23.032,23.032,0,0,0-.64-42,104.6,104.6,0,0,0,.64-60ZM99.2,0,72-37.44V0H44.64V-118.4H72v65.44L99.04-89.28H132.8L95.68-44.48,133.12,0ZM224.64-43.68H196.8V-15.2H170.88V-43.68H143.04V-68.16h27.84V-96.8H196.8v28.64h27.84Z" transform="translate(-1479.561 1784.53)" fill="#f6f6fd"/>
    <path id="Path_4343" data-name="Path 4343" d="M-61.54.52c5.72,0,9.68-3.44,9.68-8.64,0-3.96-1.96-6.08-7.92-8.36-4.2-1.64-5.56-2.68-5.56-4.52a3.245,3.245,0,0,1,3.52-3.04,4.939,4.939,0,0,1,4.48,3.2l4.16-2.56a9.063,9.063,0,0,0-8.48-5.08c-5.2,0-8.68,3.08-8.68,7.6,0,4.04,2.08,6.16,7.92,8.44,4.12,1.64,5.56,2.84,5.56,4.76,0,2.36-1.8,3.76-4.6,3.76a5.427,5.427,0,0,1-5.8-5.2l-4.96,1.24C-71.42-2.8-67.1.52-61.54.52Zm24.32-16.44v-3.8h-4.92v-7.36l-4.8,3.56v3.8h-3.2v3.8h3.2v10.4c0,4.2,2.8,5.92,6.12,5.92a11.325,11.325,0,0,0,3.6-.6V-4.04a8.289,8.289,0,0,1-2.4.44c-1.56,0-2.52-.72-2.52-2.28V-15.92Zm14.04-4.2a5.523,5.523,0,0,0-5.28,3.76v-3.36H-33.3V0h4.8V-9.92c0-3.72,1.44-5.52,4.36-5.52a4.237,4.237,0,0,1,2.4.68L-19.42-19A6.731,6.731,0,0,0-23.18-20.12Zm22,10c0-5.48-2.96-10-9.08-10-6.56,0-9.36,5.2-9.36,10.36C-19.62-4.48-16.74.4-9.94.4A10.254,10.254,0,0,0-1.86-3.16L-5.18-6.08A5.913,5.913,0,0,1-9.9-3.96c-3.12,0-4.72-1.72-4.92-4.32H-1.3A14.685,14.685,0,0,0-1.18-10.12Zm-13.68-1.96a4.429,4.429,0,0,1,4.56-4.04c2.52,0,4.44,1.52,4.52,4.04Zm25.28-8.04a11,11,0,0,0-8.88,4.24l3.48,2.92a6.684,6.684,0,0,1,5.32-2.96c2.28,0,3.72,1.32,3.72,3.48v.56H9.14A12.626,12.626,0,0,0,3.9-11,5.1,5.1,0,0,0,.94-6.04C.94-2.28,3.9.4,8.06.4a6.936,6.936,0,0,0,6-2.96L14.46,0h4.4V-12.44C18.86-17.2,15.62-20.12,10.42-20.12ZM8.82-3.68c-1.92,0-3.08-.88-3.08-2.28a1.89,1.89,0,0,1,.8-1.64,5.333,5.333,0,0,1,3.24-.68h4.28C14.06-5.72,11.7-3.68,8.82-3.68ZM45.94-20.12a6.583,6.583,0,0,0-6.36,3.88,5.791,5.791,0,0,0-5.76-3.88,5.751,5.751,0,0,0-5.28,2.88v-2.48H23.9L23.94,0h4.8V-7.52c0-3.96-.12-8.4,3.92-8.4,3.12,0,3.32,3.24,3.32,4.8V0h4.8V-7.52c0-3.96-.16-8.4,3.88-8.4,3.16,0,3.36,3.24,3.36,4.8V0h4.8V-12.56C52.82-16.52,50.7-20.12,45.94-20.12ZM64.14.4c3.72,0,7.68-2,7.68-6.6,0-7.2-10.32-5.44-10.32-8.44,0-.92.96-1.68,2.52-1.68a4.245,4.245,0,0,1,3.92,2.52l3.72-2.04a8.158,8.158,0,0,0-7.48-4.28c-3.8,0-7.24,1.96-7.24,5.76,0,7.32,10.16,5.12,10.16,8.44,0,1.04-.96,2.32-3.2,2.32a4.27,4.27,0,0,1-4.2-3.24L55.86-5.12A8.494,8.494,0,0,0,64.14.4Z" transform="translate(-1463.679 1865.21)" fill="#f6f6fd"/>
    <path id="Path_4342" data-name="Path 4342" d="M-60.034.312c5.044,0,8.424-3.744,8.424-9.36,0-5.642-3.38-9.386-8.424-9.386-5.018,0-8.4,3.744-8.4,9.386C-68.432-3.432-65.052.312-60.034.312Zm0-2.21c-3.718,0-6.084-2.782-6.084-7.15,0-4.394,2.366-7.176,6.084-7.176s6.11,2.782,6.11,7.176C-53.924-4.68-56.316-1.9-60.034-1.9ZM-46.956,0h2.236V-11h3.458v-1.82H-44.72v-1.9c0-.962.416-1.768,1.456-1.768a3.067,3.067,0,0,1,1.352.39l.754-1.742a5.769,5.769,0,0,0-2.34-.52c-1.768,0-3.432.832-3.432,3.744v1.794h-2.652V-11h2.626Zm15.522,0h2.314V-7.774H-26c3.874,0,6.032-1.846,6.032-5.226,0-3.328-2.106-5.122-6.032-5.122h-5.434Zm2.314-9.906V-15.99h2.886c2.652,0,3.952.988,3.952,3.016,0,2.054-1.3,3.068-3.952,3.068ZM-12.584.234c3.77,0,6.266-2.938,6.266-6.656,0-3.744-2.522-6.63-6.266-6.63-3.77,0-6.214,2.886-6.214,6.63S-16.354.234-12.584.234Zm0-1.976c-2.6,0-3.978-2.054-3.978-4.68s1.352-4.654,3.978-4.654,4.03,2,4.03,4.654C-8.554-3.822-9.958-1.742-12.584-1.742ZM5.564-18.122v6.916a4.987,4.987,0,0,0-4.056-1.846c-3.432,0-5.616,2.574-5.616,6.63C-4.108-2.6-2.158.234,1.508.234a4.929,4.929,0,0,0,4.056-1.82V0H7.8V-18.122ZM1.924-1.794c-2.522,0-3.8-1.9-3.8-4.628,0-2.808,1.378-4.628,3.8-4.628,2.47,0,3.822,1.9,3.822,4.628C5.746-3.77,4.472-1.794,1.924-1.794ZM17.03.234a5.262,5.262,0,0,0,5.148-3.64l-2.054-.78A3.156,3.156,0,0,1,17-1.742c-2.548,0-3.64-2.21-3.64-4.628s1.092-4.706,3.64-4.706a3.32,3.32,0,0,1,3.172,2.5l2.132-.858A5.455,5.455,0,0,0,17-13.052c-3.978,0-5.928,3.3-5.928,6.682C11.076-2.86,13.156.234,17.03.234ZM29.77-13.052a6.477,6.477,0,0,0-5.408,2.678l1.612,1.352a4.533,4.533,0,0,1,3.744-2.054A2.762,2.762,0,0,1,32.76-8.008v.52H29.926a9.158,9.158,0,0,0-4.394.728A3.187,3.187,0,0,0,23.92-3.8c0,2.47,1.742,4.03,4.5,4.03a5,5,0,0,0,4.368-2.158L32.942,0H35V-8.008C35-11.18,33.046-13.052,29.77-13.052ZM28.938-1.638c-1.716,0-2.782-.806-2.782-2.054a1.814,1.814,0,0,1,.65-1.482c.546-.416,1.43-.572,3.38-.572H32.76v.13A3.714,3.714,0,0,1,28.938-1.638ZM42.926.234c2.444,0,4.732-1.3,4.732-4.03,0-4.81-7.176-3.146-7.176-5.824,0-.936.884-1.534,2.288-1.534A3.2,3.2,0,0,1,45.76-9.36l1.768-.962a4.987,4.987,0,0,0-4.706-2.73c-2.522,0-4.5,1.352-4.5,3.666,0,4.628,7.124,2.73,7.124,5.72,0,1.118-.936,1.976-2.6,1.976a3.4,3.4,0,0,1-3.38-2.34L37.622-3.2A5.4,5.4,0,0,0,42.926.234ZM56.784-11v-1.82H53.638v-4.706L51.4-15.86v3.042H49.3V-11H51.4v7.8A3.07,3.07,0,0,0,54.7.234a6.615,6.615,0,0,0,2.08-.364v-1.9a5.231,5.231,0,0,1-1.534.286c-1.014,0-1.612-.52-1.612-1.69V-11ZM64.09.234c2.444,0,4.732-1.3,4.732-4.03,0-4.81-7.176-3.146-7.176-5.824,0-.936.884-1.534,2.288-1.534a3.2,3.2,0,0,1,2.99,1.794l1.768-.962a4.987,4.987,0,0,0-4.706-2.73c-2.522,0-4.5,1.352-4.5,3.666,0,4.628,7.124,2.73,7.124,5.72,0,1.118-.936,1.976-2.6,1.976a3.4,3.4,0,0,1-3.38-2.34L58.786-3.2A5.4,5.4,0,0,0,64.09.234Z" transform="translate(-1463.621 1902.01)" fill="#f6f6fd"/>
    <g id="Group_4193" data-name="Group 4193" transform="translate(-1529.621 1482.984)">
      <path id="Path_4202" data-name="Path 4202" d="M12.684,64.1a7.784,7.784,0,0,0,0,15.568,29.472,29.472,0,0,1,29.539,29.539,7.784,7.784,0,1,0,15.568,0A45.187,45.187,0,0,0,12.684,64.1Z" transform="translate(-0.109 0.766)" fill="#65e6c4"/>
      <g id="Group_4002" data-name="Group 4002" transform="translate(0 0)">
        <path id="Path_4200" data-name="Path 4200" d="M12.684,31.6a7.784,7.784,0,1,0,0,15.568,94.463,94.463,0,0,1,94.4,94.4,7.784,7.784,0,1,0,15.568,0A110.051,110.051,0,0,0,12.684,31.6Z" transform="translate(-0.109 -31.6)" fill="#65e6c4"/>
        <path id="Path_4201" data-name="Path 4201" d="M12.684,47.9a7.784,7.784,0,1,0,0,15.568,62.1,62.1,0,0,1,62.071,61.872,7.784,7.784,0,1,0,15.568,0C90.323,82.628,55.4,47.9,12.684,47.9Z" transform="translate(-0.109 -15.367)" fill="#65e6c4"/>
        <path id="Path_4203" data-name="Path 4203" d="M15.074,80.4A12.574,12.574,0,1,0,27.648,92.974,12.522,12.522,0,0,0,15.074,80.4Z" transform="translate(-2.5 16.998)" fill="#65e6c4"/>
      </g>
    </g>
    <g id="Group_4194" data-name="Group 4194" transform="translate(-1536.679 1479.801)">
      <path id="Path_4202-2" data-name="Path 4202" d="M12.684,64.1a7.784,7.784,0,0,0,0,15.568,29.472,29.472,0,0,1,29.539,29.539,7.784,7.784,0,1,0,15.568,0A45.187,45.187,0,0,0,12.684,64.1Z" transform="translate(-0.109 0.766)" fill="#f6f6fd"/>
      <g id="Group_4002-2" data-name="Group 4002" transform="translate(0 0)">
        <path id="Path_4200-2" data-name="Path 4200" d="M12.684,31.6a7.784,7.784,0,1,0,0,15.568,94.463,94.463,0,0,1,94.4,94.4,7.784,7.784,0,1,0,15.568,0A110.051,110.051,0,0,0,12.684,31.6Z" transform="translate(-0.109 -31.6)" fill="#f6f6fd"/>
        <path id="Path_4201-2" data-name="Path 4201" d="M12.684,47.9a7.784,7.784,0,1,0,0,15.568,62.1,62.1,0,0,1,62.071,61.872,7.784,7.784,0,1,0,15.568,0C90.323,82.628,55.4,47.9,12.684,47.9Z" transform="translate(-0.109 -15.367)" fill="#f6f6fd"/>
        <path id="Path_4203-2" data-name="Path 4203" d="M15.074,80.4A12.574,12.574,0,1,0,27.648,92.974,12.522,12.522,0,0,0,15.074,80.4Z" transform="translate(-2.5 16.998)" fill="#f6f6fd"/>
      </g>
    </g>
    <g id="Group_4195" data-name="Group 4195" transform="translate(6289.317 -9896.559)">
      <path id="Path_4219" data-name="Path 4219" d="M-8066.4,11609.2v88.34h73.323" transform="translate(41.243 210.094)" fill="none" stroke="#f6f6fd" stroke-linecap="round" stroke-linejoin="round" stroke-width="5"/>
      <path id="Path_4221" data-name="Path 4221" d="M0,88.341V0H73.323" transform="translate(-8025.156 11335.541)" fill="none" stroke="#f6f6fd" stroke-linecap="round" stroke-linejoin="round" stroke-width="5"/>
      <path id="Path_4220" data-name="Path 4220" d="M-7993.076,11697.54v-88.34H-8066.4" transform="translate(480.476 -273.659)" fill="none" stroke="#f6f6fd" stroke-linecap="round" stroke-linejoin="round" stroke-width="5"/>
      <path id="Path_4222" data-name="Path 4222" d="M73.323,0V88.341H0" transform="translate(-7585.923 11819.296)" fill="none" stroke="#f6f6fd" stroke-linecap="round" stroke-linejoin="round" stroke-width="5"/>
    </g>
  </g>
</svg>
