<svg width="519" height="578" viewBox="0 0 519 578" fill="none" xmlns="http://www.w3.org/2000/svg">
<g clip-path="url(#clip0_8_803)">
<path d="M3.09277 486.754V575.094H76.4155" stroke="#0D0A3A" stroke-width="5" stroke-linecap="round" stroke-linejoin="round"/>
<path d="M3.09375 91.341V3H76.4167" stroke="#0D0A3A" stroke-width="5" stroke-linecap="round" stroke-linejoin="round"/>
<path d="M515.649 91.3398V3H442.325" stroke="#0D0A3A" stroke-width="5" stroke-linecap="round" stroke-linejoin="round"/>
<path d="M515.65 486.754V575.095H442.327" stroke="#0D0A3A" stroke-width="5" stroke-linecap="round" stroke-linejoin="round"/>
<path d="M238.633 159.14C237.991 159.076 237.221 159.076 236.515 159.14C221.244 158.626 209.116 146.114 209.116 130.714C209.116 114.993 221.821 102.224 237.606 102.224C253.327 102.224 266.096 114.993 266.096 130.714C266.032 146.114 253.905 158.626 238.633 159.14Z" stroke="#D3D2DF" stroke-width="8" stroke-linecap="round" stroke-linejoin="round"/>
<path d="M285.154 115.057C297.602 115.057 307.612 125.131 307.612 137.516C307.612 149.643 297.987 159.525 285.988 159.974C285.475 159.91 284.897 159.91 284.32 159.974" stroke="#D3D2DF" stroke-width="8" stroke-linecap="round" stroke-linejoin="round"/>
<path d="M206.55 182.817C191.021 193.212 191.021 210.152 206.55 220.483C224.195 232.29 253.135 232.29 270.78 220.483C286.309 210.088 286.309 193.148 270.78 182.817C253.199 171.075 224.26 171.075 206.55 182.817Z" stroke="#D3D2DF" stroke-width="8" stroke-linecap="round" stroke-linejoin="round"/>
<path d="M297.538 217.724C302.158 216.761 306.521 214.901 310.115 212.141C320.125 204.634 320.125 192.25 310.115 184.742C306.586 182.047 302.286 180.251 297.731 179.224" stroke="#D3D2DF" stroke-width="8" stroke-linecap="round" stroke-linejoin="round"/>
<path d="M243.328 159.14C242.687 159.076 241.917 159.076 241.211 159.14C225.939 158.626 213.812 146.114 213.812 130.714C213.812 114.993 226.517 102.224 242.302 102.224C258.022 102.224 270.792 114.993 270.792 130.714C270.727 146.114 258.6 158.626 243.328 159.14Z" stroke="#0D0A3A" stroke-width="8" stroke-linecap="round" stroke-linejoin="round"/>
<path d="M289.849 115.057C302.298 115.057 312.308 125.131 312.308 137.516C312.308 149.643 302.683 159.525 290.683 159.974C290.17 159.91 289.593 159.91 289.015 159.974" stroke="#0D0A3A" stroke-width="8" stroke-linecap="round" stroke-linejoin="round"/>
<path d="M211.245 182.817C195.717 193.212 195.717 210.152 211.245 220.483C228.891 232.29 257.83 232.29 275.476 220.483C291.004 210.088 291.004 193.148 275.476 182.817C257.894 171.075 228.955 171.075 211.245 182.817Z" stroke="#0D0A3A" stroke-width="8" stroke-linecap="round" stroke-linejoin="round"/>
<path d="M302.233 217.724C306.853 216.761 311.217 214.901 314.81 212.141C324.82 204.634 324.82 192.25 314.81 184.742C311.281 182.047 306.982 180.251 302.426 179.224" stroke="#0D0A3A" stroke-width="8" stroke-linecap="round" stroke-linejoin="round"/>
<path d="M167.656 314.927L134.524 394.391H111.424L144.952 317.435H103.9V298.163H167.656V314.927ZM235.789 338.687V357.431H177.709V338.687H235.789ZM301.007 324.035C300.303 320.779 299.071 318.359 297.311 316.775C295.551 315.103 293.043 314.267 289.787 314.267C284.771 314.267 281.163 316.467 278.963 320.867C276.763 325.179 275.619 332.043 275.531 341.459C277.467 338.379 280.239 335.959 283.847 334.199C287.543 332.439 291.591 331.559 295.991 331.559C304.615 331.559 311.523 334.287 316.715 339.743C321.995 345.199 324.635 352.811 324.635 362.579C324.635 369.003 323.315 374.635 320.675 379.475C318.123 384.315 314.339 388.099 309.323 390.827C304.395 393.555 298.543 394.919 291.767 394.919C278.215 394.919 268.799 390.695 263.519 382.247C258.239 373.711 255.599 361.479 255.599 345.551C255.599 328.831 258.371 316.423 263.915 308.327C269.547 300.143 278.523 296.051 290.843 296.051C297.443 296.051 302.987 297.371 307.475 300.011C312.051 302.563 315.483 305.951 317.771 310.175C320.147 314.399 321.555 319.019 321.995 324.035H301.007ZM290.579 349.379C286.795 349.379 283.627 350.523 281.075 352.811C278.611 355.011 277.379 358.179 277.379 362.315C277.379 366.539 278.523 369.839 280.811 372.215C283.187 374.591 286.531 375.779 290.843 375.779C294.715 375.779 297.751 374.635 299.951 372.347C302.239 369.971 303.383 366.759 303.383 362.711C303.383 358.575 302.283 355.319 300.083 352.943C297.883 350.567 294.715 349.379 290.579 349.379ZM337.402 344.891C337.402 329.755 340.306 317.831 346.114 309.119C352.01 300.407 361.47 296.051 374.494 296.051C387.518 296.051 396.934 300.407 402.742 309.119C408.638 317.831 411.586 329.755 411.586 344.891C411.586 360.203 408.638 372.215 402.742 380.927C396.934 389.639 387.518 393.995 374.494 393.995C361.47 393.995 352.01 389.639 346.114 380.927C340.306 372.215 337.402 360.203 337.402 344.891ZM389.41 344.891C389.41 336.003 388.442 329.183 386.506 324.431C384.57 319.591 380.566 317.171 374.494 317.171C368.422 317.171 364.418 319.591 362.482 324.431C360.546 329.183 359.578 336.003 359.578 344.891C359.578 350.875 359.93 355.847 360.634 359.807C361.338 363.679 362.746 366.847 364.858 369.311C367.058 371.687 370.27 372.875 374.494 372.875C378.718 372.875 381.886 371.687 383.998 369.311C386.198 366.847 387.65 363.679 388.354 359.807C389.058 355.847 389.41 350.875 389.41 344.891Z" fill="#0D0A3A"/>
<path d="M249.169 478.391H244.071L241.552 471.262H230.536L228.114 478.391H223.036L233.524 450.383H238.759L249.169 478.391ZM240.321 467.473L236.435 456.301C236.317 455.936 236.194 455.35 236.063 454.543H235.985C235.868 455.285 235.738 455.871 235.595 456.301L231.747 467.473H240.321ZM270.731 476.789C270.731 484.133 267.04 487.805 259.657 487.805C257.053 487.805 254.781 487.368 252.841 486.496V482.355C255.028 483.605 257.105 484.23 259.071 484.23C263.824 484.23 266.2 481.893 266.2 477.219V475.031H266.122C264.625 477.583 262.372 478.859 259.364 478.859C256.929 478.859 254.963 477.974 253.466 476.203C251.981 474.419 251.239 472.03 251.239 469.035C251.239 465.637 252.04 462.935 253.642 460.93C255.243 458.924 257.444 457.922 260.243 457.922C262.886 457.922 264.846 459.003 266.122 461.164H266.2V458.391H270.731V476.789ZM266.239 469.23V466.633C266.239 465.227 265.771 464.029 264.833 463.039C263.909 462.036 262.75 461.535 261.356 461.535C259.638 461.535 258.29 462.173 257.313 463.449C256.35 464.712 255.868 466.483 255.868 468.762C255.868 470.728 256.33 472.303 257.255 473.488C258.192 474.66 259.429 475.246 260.966 475.246C262.528 475.246 263.798 474.686 264.774 473.566C265.751 472.434 266.239 470.988 266.239 469.23ZM293.563 469.621H279.931C279.983 471.47 280.549 472.896 281.63 473.898C282.724 474.901 284.221 475.402 286.122 475.402C288.257 475.402 290.217 474.764 292.001 473.488V477.141C290.178 478.286 287.769 478.859 284.774 478.859C281.832 478.859 279.521 477.954 277.841 476.145C276.174 474.322 275.341 471.763 275.341 468.469C275.341 465.357 276.259 462.824 278.095 460.871C279.944 458.905 282.235 457.922 284.97 457.922C287.704 457.922 289.82 458.801 291.317 460.559C292.815 462.316 293.563 464.758 293.563 467.883V469.621ZM289.188 466.418C289.175 464.79 288.791 463.527 288.036 462.629C287.281 461.717 286.239 461.262 284.911 461.262C283.609 461.262 282.502 461.737 281.591 462.688C280.692 463.638 280.139 464.882 279.931 466.418H289.188Z" fill="#0D0A3A"/>
<path d="M130.661 519.391H127.403L124.72 514.891C124.478 514.477 124.239 514.125 124.005 513.836C123.778 513.539 123.544 513.297 123.302 513.109C123.067 512.922 122.81 512.785 122.528 512.699C122.247 512.613 121.931 512.57 121.579 512.57H120.454V519.391H117.677V502.586H123.208C123.997 502.586 124.724 502.68 125.388 502.867C126.052 503.055 126.63 503.34 127.122 503.723C127.614 504.098 127.997 504.57 128.271 505.141C128.552 505.703 128.692 506.363 128.692 507.121C128.692 507.715 128.603 508.262 128.423 508.762C128.251 509.254 128.001 509.695 127.673 510.086C127.353 510.469 126.962 510.797 126.501 511.07C126.048 511.344 125.536 511.555 124.966 511.703V511.75C125.271 511.922 125.536 512.113 125.763 512.324C125.989 512.527 126.204 512.738 126.407 512.957C126.61 513.176 126.81 513.426 127.005 513.707C127.208 513.98 127.431 514.301 127.673 514.668L130.661 519.391ZM120.454 504.848V510.309H122.774C123.204 510.309 123.599 510.242 123.958 510.109C124.325 509.977 124.642 509.785 124.907 509.535C125.173 509.285 125.38 508.98 125.528 508.621C125.677 508.262 125.751 507.859 125.751 507.414C125.751 506.609 125.497 505.98 124.989 505.527C124.481 505.074 123.751 504.848 122.798 504.848H120.454ZM141.536 519.391H138.899V517.516H138.853C138.024 518.953 136.81 519.672 135.208 519.672C134.028 519.672 133.103 519.352 132.431 518.711C131.767 518.07 131.435 517.223 131.435 516.168C131.435 513.902 132.739 512.582 135.349 512.207L138.911 511.703C138.911 509.992 138.099 509.137 136.474 509.137C135.044 509.137 133.755 509.629 132.606 510.613V508.234C133.872 507.484 135.333 507.109 136.989 507.109C140.021 507.109 141.536 508.602 141.536 511.586V519.391ZM138.911 513.496L136.392 513.848C135.61 513.949 135.021 514.141 134.622 514.422C134.231 514.695 134.036 515.18 134.036 515.875C134.036 516.383 134.216 516.801 134.575 517.129C134.942 517.449 135.431 517.609 136.04 517.609C136.868 517.609 137.552 517.32 138.091 516.742C138.638 516.156 138.911 515.422 138.911 514.539V513.496ZM155.552 519.391H152.833V512.629C152.833 510.387 152.04 509.266 150.454 509.266C149.626 509.266 148.942 509.578 148.403 510.203C147.864 510.82 147.595 511.602 147.595 512.547V519.391H144.864V507.391H147.595V509.383H147.642C148.54 507.867 149.837 507.109 151.532 507.109C152.837 507.109 153.833 507.535 154.521 508.387C155.208 509.23 155.552 510.453 155.552 512.055V519.391ZM169.802 518.43C169.802 522.836 167.587 525.039 163.157 525.039C161.595 525.039 160.231 524.777 159.067 524.254V521.77C160.38 522.52 161.626 522.895 162.806 522.895C165.657 522.895 167.083 521.492 167.083 518.688V517.375H167.036C166.138 518.906 164.786 519.672 162.981 519.672C161.521 519.672 160.341 519.141 159.442 518.078C158.552 517.008 158.106 515.574 158.106 513.777C158.106 511.738 158.587 510.117 159.548 508.914C160.509 507.711 161.829 507.109 163.509 507.109C165.095 507.109 166.271 507.758 167.036 509.055H167.083V507.391H169.802V518.43ZM167.106 513.895V512.336C167.106 511.492 166.825 510.773 166.263 510.18C165.708 509.578 165.013 509.277 164.177 509.277C163.146 509.277 162.337 509.66 161.751 510.426C161.173 511.184 160.884 512.246 160.884 513.613C160.884 514.793 161.161 515.738 161.716 516.449C162.278 517.152 163.021 517.504 163.942 517.504C164.88 517.504 165.642 517.168 166.228 516.496C166.813 515.816 167.106 514.949 167.106 513.895ZM183.501 514.129H175.321C175.353 515.238 175.692 516.094 176.341 516.695C176.997 517.297 177.896 517.598 179.036 517.598C180.317 517.598 181.493 517.215 182.563 516.449V518.641C181.47 519.328 180.024 519.672 178.228 519.672C176.462 519.672 175.075 519.129 174.067 518.043C173.067 516.949 172.567 515.414 172.567 513.438C172.567 511.57 173.118 510.051 174.22 508.879C175.329 507.699 176.704 507.109 178.345 507.109C179.985 507.109 181.255 507.637 182.153 508.691C183.052 509.746 183.501 511.211 183.501 513.086V514.129ZM180.876 512.207C180.868 511.23 180.638 510.473 180.185 509.934C179.731 509.387 179.106 509.113 178.31 509.113C177.528 509.113 176.864 509.398 176.317 509.969C175.778 510.539 175.446 511.285 175.321 512.207H180.876ZM191.95 519.016V516.496C192.966 517.27 194.087 517.656 195.313 517.656C196.954 517.656 197.774 517.172 197.774 516.203C197.774 515.93 197.704 515.699 197.563 515.512C197.423 515.316 197.231 515.145 196.989 514.996C196.755 514.848 196.474 514.715 196.146 514.598C195.825 514.48 195.466 514.348 195.067 514.199C194.575 514.004 194.13 513.797 193.731 513.578C193.341 513.359 193.013 513.113 192.747 512.84C192.489 512.559 192.294 512.242 192.161 511.891C192.028 511.539 191.962 511.129 191.962 510.66C191.962 510.082 192.099 509.574 192.372 509.137C192.646 508.691 193.013 508.32 193.474 508.023C193.935 507.719 194.458 507.492 195.044 507.344C195.63 507.188 196.235 507.109 196.86 507.109C197.97 507.109 198.962 507.277 199.837 507.613V509.992C198.993 509.414 198.024 509.125 196.931 509.125C196.587 509.125 196.274 509.16 195.993 509.23C195.72 509.301 195.485 509.398 195.29 509.523C195.095 509.648 194.942 509.801 194.833 509.98C194.724 510.152 194.669 510.344 194.669 510.555C194.669 510.812 194.724 511.031 194.833 511.211C194.942 511.391 195.103 511.551 195.313 511.691C195.532 511.824 195.79 511.949 196.087 512.066C196.392 512.176 196.739 512.297 197.13 512.43C197.646 512.641 198.106 512.855 198.513 513.074C198.927 513.293 199.278 513.543 199.567 513.824C199.856 514.098 200.079 514.418 200.235 514.785C200.392 515.145 200.47 515.574 200.47 516.074C200.47 516.684 200.329 517.215 200.048 517.668C199.767 518.121 199.392 518.496 198.923 518.793C198.454 519.09 197.911 519.309 197.294 519.449C196.685 519.598 196.04 519.672 195.36 519.672C194.048 519.672 192.911 519.453 191.95 519.016ZM213.22 514.129H205.04C205.071 515.238 205.411 516.094 206.06 516.695C206.716 517.297 207.614 517.598 208.755 517.598C210.036 517.598 211.212 517.215 212.282 516.449V518.641C211.188 519.328 209.743 519.672 207.946 519.672C206.181 519.672 204.794 519.129 203.786 518.043C202.786 516.949 202.286 515.414 202.286 513.438C202.286 511.57 202.837 510.051 203.938 508.879C205.048 507.699 206.423 507.109 208.063 507.109C209.704 507.109 210.974 507.637 211.872 508.691C212.771 509.746 213.22 511.211 213.22 513.086V514.129ZM210.595 512.207C210.587 511.23 210.356 510.473 209.903 509.934C209.45 509.387 208.825 509.113 208.028 509.113C207.247 509.113 206.583 509.398 206.036 509.969C205.497 510.539 205.165 511.285 205.04 512.207H210.595ZM226.146 507.391L221.505 519.391H218.563L214.146 507.391H217.099L219.759 515.781C219.962 516.398 220.087 516.938 220.134 517.398H220.169C220.239 516.82 220.349 516.297 220.497 515.828L223.286 507.391H226.146ZM237.97 514.129H229.79C229.821 515.238 230.161 516.094 230.81 516.695C231.466 517.297 232.364 517.598 233.505 517.598C234.786 517.598 235.962 517.215 237.032 516.449V518.641C235.938 519.328 234.493 519.672 232.696 519.672C230.931 519.672 229.544 519.129 228.536 518.043C227.536 516.949 227.036 515.414 227.036 513.438C227.036 511.57 227.587 510.051 228.688 508.879C229.798 507.699 231.173 507.109 232.813 507.109C234.454 507.109 235.724 507.637 236.622 508.691C237.521 509.746 237.97 511.211 237.97 513.086V514.129ZM235.345 512.207C235.337 511.23 235.106 510.473 234.653 509.934C234.2 509.387 233.575 509.113 232.778 509.113C231.997 509.113 231.333 509.398 230.786 509.969C230.247 510.539 229.915 511.285 229.79 512.207H235.345ZM247.521 509.98C247.192 509.723 246.72 509.594 246.103 509.594C245.298 509.594 244.626 509.957 244.087 510.684C243.548 511.41 243.278 512.398 243.278 513.648V519.391H240.56V507.391H243.278V509.863H243.325C243.591 509.02 243.997 508.363 244.544 507.895C245.099 507.418 245.716 507.18 246.396 507.18C246.888 507.18 247.263 507.254 247.521 507.402V509.98ZM259.392 514.129H251.212C251.243 515.238 251.583 516.094 252.231 516.695C252.888 517.297 253.786 517.598 254.927 517.598C256.208 517.598 257.384 517.215 258.454 516.449V518.641C257.36 519.328 255.915 519.672 254.118 519.672C252.353 519.672 250.966 519.129 249.958 518.043C248.958 516.949 248.458 515.414 248.458 513.438C248.458 511.57 249.009 510.051 250.11 508.879C251.22 507.699 252.595 507.109 254.235 507.109C255.876 507.109 257.146 507.637 258.044 508.691C258.942 509.746 259.392 511.211 259.392 513.086V514.129ZM256.767 512.207C256.759 511.23 256.528 510.473 256.075 509.934C255.622 509.387 254.997 509.113 254.2 509.113C253.419 509.113 252.755 509.398 252.208 509.969C251.669 510.539 251.337 511.285 251.212 512.207H256.767ZM272.892 519.391H270.173V517.352H270.126C269.251 518.898 267.903 519.672 266.083 519.672C264.606 519.672 263.423 519.137 262.532 518.066C261.649 516.988 261.208 515.523 261.208 513.672C261.208 511.688 261.696 510.098 262.673 508.902C263.657 507.707 264.966 507.109 266.599 507.109C268.216 507.109 269.392 507.758 270.126 509.055H270.173V501.625H272.892V519.391ZM270.208 513.906V512.336C270.208 511.484 269.931 510.762 269.376 510.168C268.821 509.574 268.114 509.277 267.255 509.277C266.239 509.277 265.438 509.656 264.853 510.414C264.274 511.172 263.985 512.223 263.985 513.566C263.985 514.785 264.263 515.75 264.817 516.461C265.38 517.164 266.134 517.516 267.079 517.516C268.009 517.516 268.763 517.176 269.341 516.496C269.919 515.809 270.208 514.945 270.208 513.906ZM284.423 504.871C283.978 504.871 283.595 504.727 283.274 504.438C282.962 504.148 282.806 503.781 282.806 503.336C282.806 502.891 282.962 502.52 283.274 502.223C283.595 501.926 283.978 501.777 284.423 501.777C284.884 501.777 285.274 501.926 285.595 502.223C285.915 502.52 286.075 502.891 286.075 503.336C286.075 503.758 285.915 504.121 285.595 504.426C285.274 504.723 284.884 504.871 284.423 504.871ZM285.771 519.391H283.052V507.391H285.771V519.391ZM300.021 519.391H297.302V512.629C297.302 510.387 296.509 509.266 294.923 509.266C294.095 509.266 293.411 509.578 292.872 510.203C292.333 510.82 292.063 511.602 292.063 512.547V519.391H289.333V507.391H292.063V509.383H292.11C293.009 507.867 294.306 507.109 296.001 507.109C297.306 507.109 298.302 507.535 298.989 508.387C299.677 509.23 300.021 510.453 300.021 512.055V519.391ZM312.724 517.621H312.677V524.91H309.958V507.391H312.677V509.5H312.724C313.653 507.906 315.013 507.109 316.802 507.109C318.325 507.109 319.513 507.645 320.364 508.715C321.216 509.785 321.642 511.223 321.642 513.027C321.642 515.027 321.161 516.629 320.2 517.832C319.239 519.035 317.927 519.637 316.263 519.637C314.731 519.637 313.552 518.965 312.724 517.621ZM312.653 512.887V514.375C312.653 515.25 312.931 515.992 313.485 516.602C314.048 517.211 314.759 517.516 315.618 517.516C316.626 517.516 317.415 517.125 317.985 516.344C318.563 515.555 318.853 514.457 318.853 513.051C318.853 511.871 318.583 510.949 318.044 510.285C317.513 509.613 316.79 509.277 315.876 509.277C314.907 509.277 314.126 509.621 313.532 510.309C312.946 510.996 312.653 511.855 312.653 512.887ZM331.38 509.98C331.052 509.723 330.579 509.594 329.962 509.594C329.157 509.594 328.485 509.957 327.946 510.684C327.407 511.41 327.138 512.398 327.138 513.648V519.391H324.419V507.391H327.138V509.863H327.185C327.45 509.02 327.856 508.363 328.403 507.895C328.958 507.418 329.575 507.18 330.255 507.18C330.747 507.18 331.122 507.254 331.38 507.402V509.98ZM338.411 519.672C336.56 519.672 335.079 519.113 333.97 517.996C332.868 516.871 332.317 515.383 332.317 513.531C332.317 511.516 332.892 509.941 334.04 508.809C335.196 507.676 336.751 507.109 338.704 507.109C340.579 507.109 342.04 507.66 343.087 508.762C344.134 509.863 344.657 511.391 344.657 513.344C344.657 515.258 344.091 516.793 342.958 517.949C341.833 519.098 340.317 519.672 338.411 519.672ZM338.54 509.277C337.478 509.277 336.638 509.648 336.021 510.391C335.403 511.133 335.095 512.156 335.095 513.461C335.095 514.719 335.407 515.711 336.032 516.438C336.657 517.156 337.493 517.516 338.54 517.516C339.61 517.516 340.431 517.16 341.001 516.449C341.579 515.738 341.868 514.727 341.868 513.414C341.868 512.094 341.579 511.074 341.001 510.355C340.431 509.637 339.61 509.277 338.54 509.277ZM358.356 518.43C358.356 522.836 356.142 525.039 351.712 525.039C350.149 525.039 348.786 524.777 347.622 524.254V521.77C348.935 522.52 350.181 522.895 351.36 522.895C354.212 522.895 355.638 521.492 355.638 518.688V517.375H355.591C354.692 518.906 353.341 519.672 351.536 519.672C350.075 519.672 348.896 519.141 347.997 518.078C347.106 517.008 346.661 515.574 346.661 513.777C346.661 511.738 347.142 510.117 348.103 508.914C349.063 507.711 350.384 507.109 352.063 507.109C353.649 507.109 354.825 507.758 355.591 509.055H355.638V507.391H358.356V518.43ZM355.661 513.895V512.336C355.661 511.492 355.38 510.773 354.817 510.18C354.263 509.578 353.567 509.277 352.731 509.277C351.7 509.277 350.892 509.66 350.306 510.426C349.728 511.184 349.438 512.246 349.438 513.613C349.438 514.793 349.716 515.738 350.271 516.449C350.833 517.152 351.575 517.504 352.497 517.504C353.435 517.504 354.196 517.168 354.782 516.496C355.368 515.816 355.661 514.949 355.661 513.895ZM368.856 509.98C368.528 509.723 368.056 509.594 367.438 509.594C366.634 509.594 365.962 509.957 365.423 510.684C364.884 511.41 364.614 512.398 364.614 513.648V519.391H361.896V507.391H364.614V509.863H364.661C364.927 509.02 365.333 508.363 365.88 507.895C366.435 507.418 367.052 507.18 367.731 507.18C368.224 507.18 368.599 507.254 368.856 507.402V509.98ZM379.989 519.391H377.353V517.516H377.306C376.478 518.953 375.263 519.672 373.661 519.672C372.481 519.672 371.556 519.352 370.884 518.711C370.22 518.07 369.888 517.223 369.888 516.168C369.888 513.902 371.192 512.582 373.802 512.207L377.364 511.703C377.364 509.992 376.552 509.137 374.927 509.137C373.497 509.137 372.208 509.629 371.06 510.613V508.234C372.325 507.484 373.786 507.109 375.442 507.109C378.474 507.109 379.989 508.602 379.989 511.586V519.391ZM377.364 513.496L374.845 513.848C374.063 513.949 373.474 514.141 373.075 514.422C372.685 514.695 372.489 515.18 372.489 515.875C372.489 516.383 372.669 516.801 373.028 517.129C373.396 517.449 373.884 517.609 374.493 517.609C375.321 517.609 376.005 517.32 376.544 516.742C377.091 516.156 377.364 515.422 377.364 514.539V513.496ZM401.259 519.391H398.54V512.852C398.54 511.594 398.36 510.684 398.001 510.121C397.649 509.559 397.052 509.277 396.208 509.277C395.497 509.277 394.892 509.633 394.392 510.344C393.899 511.055 393.653 511.906 393.653 512.898V519.391H390.923V512.629C390.923 510.395 390.134 509.277 388.556 509.277C387.821 509.277 387.216 509.613 386.739 510.285C386.271 510.957 386.036 511.828 386.036 512.898V519.391H383.317V507.391H386.036V509.289H386.083C386.95 507.836 388.212 507.109 389.868 507.109C390.696 507.109 391.419 507.34 392.036 507.801C392.661 508.254 393.087 508.852 393.313 509.594C394.204 507.938 395.532 507.109 397.298 507.109C399.938 507.109 401.259 508.738 401.259 511.996V519.391Z" fill="#0D0A3A"/>
</g>
<defs>
<clipPath id="clip0_8_803">
<rect width="517.556" height="577.096" fill="white" transform="translate(0.59375 0.5)"/>
</clipPath>
</defs>
</svg>
