<svg width="519" height="578" viewBox="0 0 519 578" fill="none" xmlns="http://www.w3.org/2000/svg">
<g clip-path="url(#clip0_8_688)">
<path d="M3.01172 486.301V574.641H76.3345" stroke="#0D0A3A" stroke-width="5" stroke-linecap="round" stroke-linejoin="round"/>
<path d="M3.0127 90.8898V2.54883H76.3357" stroke="#0D0A3A" stroke-width="5" stroke-linecap="round" stroke-linejoin="round"/>
<path d="M515.568 90.8887V2.54883H442.244" stroke="#0D0A3A" stroke-width="5" stroke-linecap="round" stroke-linejoin="round"/>
<path d="M515.569 486.305V574.646H442.246" stroke="#0D0A3A" stroke-width="5" stroke-linecap="round" stroke-linejoin="round"/>
<path d="M175.783 211.487L226.684 167.559L250.916 184.522L334.129 108.581" stroke="#D3D2DF" stroke-width="6" stroke-linecap="round" stroke-linejoin="round"/>
<path d="M313.381 101.663H342.463V127.111" stroke="#D3D2DF" stroke-width="6" stroke-linecap="round"/>
<path d="M175.783 200.883L226.684 156.955L250.916 173.918L334.129 97.9766" stroke="#0D0A3A" stroke-width="6" stroke-linecap="round" stroke-linejoin="round"/>
<path d="M313.381 88.9395H342.463V114.387" stroke="#0D0A3A" stroke-width="6" stroke-linecap="round"/>
<path d="M157.776 283.023L124.644 362.487H101.544L135.072 285.531H94.0202V266.259H157.776V283.023ZM166.905 312.987C166.905 297.851 169.809 285.927 175.617 277.215C181.513 268.503 190.973 264.147 203.997 264.147C217.021 264.147 226.437 268.503 232.245 277.215C238.141 285.927 241.089 297.851 241.089 312.987C241.089 328.299 238.141 340.311 232.245 349.023C226.437 357.735 217.021 362.091 203.997 362.091C190.973 362.091 181.513 357.735 175.617 349.023C169.809 340.311 166.905 328.299 166.905 312.987ZM218.913 312.987C218.913 304.099 217.945 297.279 216.009 292.527C214.073 287.687 210.069 285.267 203.997 285.267C197.925 285.267 193.921 287.687 191.985 292.527C190.049 297.279 189.081 304.099 189.081 312.987C189.081 318.971 189.433 323.943 190.137 327.903C190.841 331.775 192.249 334.943 194.361 337.407C196.561 339.783 199.773 340.971 203.997 340.971C208.221 340.971 211.389 339.783 213.501 337.407C215.701 334.943 217.153 331.775 217.857 327.903C218.561 323.943 218.913 318.971 218.913 312.987ZM253.014 312.987C253.014 297.851 255.918 285.927 261.726 277.215C267.622 268.503 277.082 264.147 290.106 264.147C303.13 264.147 312.546 268.503 318.354 277.215C324.25 285.927 327.198 297.851 327.198 312.987C327.198 328.299 324.25 340.311 318.354 349.023C312.546 357.735 303.13 362.091 290.106 362.091C277.082 362.091 267.622 357.735 261.726 349.023C255.918 340.311 253.014 328.299 253.014 312.987ZM305.022 312.987C305.022 304.099 304.054 297.279 302.118 292.527C300.182 287.687 296.178 285.267 290.106 285.267C284.034 285.267 280.03 287.687 278.094 292.527C276.158 297.279 275.19 304.099 275.19 312.987C275.19 318.971 275.542 323.943 276.246 327.903C276.95 331.775 278.358 334.943 280.47 337.407C282.67 339.783 285.882 340.971 290.106 340.971C294.33 340.971 297.498 339.783 299.61 337.407C301.81 334.943 303.262 331.775 303.966 327.903C304.67 323.943 305.022 318.971 305.022 312.987ZM408.292 326.451H385.324V349.947H363.94V326.451H340.972V306.255H363.94V282.627H385.324V306.255H408.292V326.451Z" fill="#0D0A3A"/>
<path d="M180.588 445.373V440.588C181.018 440.979 181.525 441.33 182.111 441.643C182.71 441.955 183.342 442.222 184.006 442.444C184.67 442.652 185.334 442.815 185.998 442.932C186.662 443.049 187.274 443.108 187.834 443.108C189.787 443.108 191.239 442.782 192.189 442.131C193.153 441.48 193.635 440.536 193.635 439.299C193.635 438.635 193.472 438.062 193.146 437.58C192.834 437.086 192.391 436.636 191.818 436.233C191.245 435.829 190.568 435.445 189.787 435.08C189.019 434.703 188.192 434.312 187.307 433.908C186.356 433.401 185.471 432.886 184.65 432.365C183.83 431.845 183.114 431.272 182.502 430.647C181.903 430.009 181.428 429.293 181.076 428.498C180.738 427.704 180.568 426.773 180.568 425.705C180.568 424.39 180.861 423.251 181.447 422.287C182.046 421.311 182.827 420.51 183.791 419.885C184.768 419.247 185.874 418.778 187.111 418.479C188.348 418.166 189.611 418.01 190.9 418.01C193.83 418.01 195.965 418.342 197.307 419.006V423.596C195.718 422.45 193.674 421.877 191.174 421.877C190.484 421.877 189.794 421.942 189.104 422.073C188.426 422.203 187.814 422.418 187.268 422.717C186.734 423.017 186.298 423.401 185.959 423.869C185.62 424.338 185.451 424.905 185.451 425.569C185.451 426.194 185.581 426.734 185.842 427.19C186.102 427.645 186.48 428.062 186.975 428.44C187.482 428.817 188.094 429.188 188.811 429.553C189.54 429.905 190.38 430.289 191.33 430.705C192.307 431.213 193.225 431.747 194.084 432.307C194.956 432.867 195.718 433.485 196.369 434.162C197.033 434.839 197.554 435.595 197.932 436.428C198.322 437.248 198.518 438.186 198.518 439.24C198.518 440.66 198.231 441.858 197.658 442.834C197.085 443.811 196.311 444.605 195.334 445.217C194.37 445.829 193.257 446.272 191.994 446.545C190.731 446.819 189.396 446.955 187.99 446.955C187.521 446.955 186.942 446.916 186.252 446.838C185.575 446.773 184.878 446.669 184.162 446.526C183.446 446.395 182.769 446.233 182.131 446.037C181.493 445.842 180.979 445.621 180.588 445.373ZM212.541 446.272C211.656 446.714 210.49 446.936 209.045 446.936C205.165 446.936 203.225 445.074 203.225 441.35V430.041H199.885V426.487H203.225V421.858L207.756 420.569V426.487H212.541V430.041H207.756V440.041C207.756 441.226 207.971 442.073 208.4 442.58C208.83 443.088 209.546 443.342 210.549 443.342C211.317 443.342 211.981 443.121 212.541 442.678V446.272ZM233.889 446.487H229.357V443.323H229.279C227.964 445.744 225.92 446.955 223.146 446.955C218.42 446.955 216.057 444.117 216.057 438.44V426.487H220.588V437.971C220.588 441.565 221.975 443.362 224.748 443.362C226.089 443.362 227.189 442.867 228.049 441.877C228.921 440.888 229.357 439.592 229.357 437.99V426.487H233.889V446.487ZM257.99 446.487H253.459V443.088H253.381C251.923 445.666 249.676 446.955 246.643 446.955C244.182 446.955 242.209 446.063 240.725 444.28C239.253 442.483 238.518 440.041 238.518 436.955C238.518 433.648 239.331 430.998 240.959 429.006C242.6 427.014 244.781 426.018 247.502 426.018C250.197 426.018 252.157 427.099 253.381 429.26H253.459V416.877H257.99V446.487ZM253.518 437.346V434.729C253.518 433.309 253.055 432.105 252.131 431.115C251.206 430.126 250.028 429.631 248.596 429.631C246.903 429.631 245.568 430.263 244.592 431.526C243.628 432.789 243.146 434.54 243.146 436.78C243.146 438.811 243.609 440.419 244.533 441.604C245.471 442.776 246.727 443.362 248.303 443.362C249.852 443.362 251.109 442.795 252.072 441.662C253.036 440.517 253.518 439.078 253.518 437.346ZM280.842 437.717H267.209C267.261 439.566 267.827 440.992 268.908 441.994C270.002 442.997 271.499 443.498 273.4 443.498C275.536 443.498 277.495 442.86 279.279 441.584V445.237C277.456 446.382 275.048 446.955 272.053 446.955C269.11 446.955 266.799 446.05 265.119 444.24C263.452 442.418 262.619 439.859 262.619 436.565C262.619 433.453 263.537 430.92 265.373 428.967C267.222 427.001 269.514 426.018 272.248 426.018C274.982 426.018 277.098 426.897 278.596 428.655C280.093 430.412 280.842 432.854 280.842 435.979V437.717ZM276.467 434.514C276.454 432.886 276.07 431.623 275.314 430.725C274.559 429.813 273.518 429.358 272.189 429.358C270.887 429.358 269.781 429.833 268.869 430.783C267.971 431.734 267.417 432.977 267.209 434.514H276.467ZM302.971 446.487H298.439V435.217C298.439 431.48 297.118 429.612 294.475 429.612C293.094 429.612 291.955 430.132 291.057 431.174C290.158 432.203 289.709 433.505 289.709 435.08V446.487H285.158V426.487H289.709V429.807H289.787C291.285 427.281 293.446 426.018 296.271 426.018C298.446 426.018 300.106 426.727 301.252 428.147C302.398 429.553 302.971 431.591 302.971 434.26V446.487ZM319.064 446.272C318.179 446.714 317.014 446.936 315.568 446.936C311.688 446.936 309.748 445.074 309.748 441.35V430.041H306.408V426.487H309.748V421.858L314.279 420.569V426.487H319.064V430.041H314.279V440.041C314.279 441.226 314.494 442.073 314.924 442.58C315.354 443.088 316.07 443.342 317.072 443.342C317.84 443.342 318.505 443.121 319.064 442.678V446.272ZM321.721 445.862V441.662C323.413 442.951 325.282 443.596 327.326 443.596C330.061 443.596 331.428 442.789 331.428 441.174C331.428 440.718 331.311 440.334 331.076 440.022C330.842 439.696 330.523 439.41 330.119 439.162C329.729 438.915 329.26 438.694 328.713 438.498C328.179 438.303 327.58 438.082 326.916 437.834C326.096 437.509 325.354 437.164 324.689 436.799C324.038 436.434 323.492 436.024 323.049 435.569C322.619 435.1 322.294 434.573 322.072 433.987C321.851 433.401 321.74 432.717 321.74 431.936C321.74 430.972 321.968 430.126 322.424 429.397C322.88 428.655 323.492 428.036 324.26 427.541C325.028 427.033 325.9 426.656 326.877 426.408C327.854 426.148 328.863 426.018 329.904 426.018C331.753 426.018 333.407 426.298 334.865 426.858V430.823C333.459 429.859 331.844 429.377 330.021 429.377C329.449 429.377 328.928 429.436 328.459 429.553C328.003 429.67 327.613 429.833 327.287 430.041C326.962 430.25 326.708 430.503 326.525 430.803C326.343 431.089 326.252 431.408 326.252 431.76C326.252 432.19 326.343 432.554 326.525 432.854C326.708 433.153 326.975 433.42 327.326 433.655C327.691 433.876 328.12 434.084 328.615 434.28C329.123 434.462 329.702 434.664 330.354 434.885C331.213 435.237 331.981 435.595 332.658 435.959C333.348 436.324 333.934 436.74 334.416 437.209C334.898 437.665 335.269 438.199 335.529 438.811C335.79 439.41 335.92 440.126 335.92 440.959C335.92 441.975 335.686 442.86 335.217 443.615C334.748 444.371 334.123 444.996 333.342 445.49C332.561 445.985 331.656 446.35 330.627 446.584C329.611 446.832 328.537 446.955 327.404 446.955C325.217 446.955 323.322 446.591 321.721 445.862Z" fill="#0D0A3A"/>
<path d="M89.6973 487.487V470.682H94.5488C100.744 470.682 103.842 473.412 103.842 478.873C103.842 481.467 102.982 483.553 101.264 485.131C99.5449 486.701 97.2402 487.487 94.3496 487.487H89.6973ZM92.4746 473.049V485.131H94.7012C96.6621 485.131 98.1855 484.592 99.2715 483.514C100.365 482.436 100.912 480.912 100.912 478.944C100.912 475.014 98.877 473.049 94.8066 473.049H92.4746ZM107.99 472.967C107.545 472.967 107.162 472.823 106.842 472.533C106.529 472.244 106.373 471.877 106.373 471.432C106.373 470.987 106.529 470.615 106.842 470.319C107.162 470.022 107.545 469.873 107.99 469.873C108.451 469.873 108.842 470.022 109.162 470.319C109.482 470.615 109.643 470.987 109.643 471.432C109.643 471.854 109.482 472.217 109.162 472.522C108.842 472.819 108.451 472.967 107.99 472.967ZM109.338 487.487H106.619V475.487H109.338V487.487ZM119.861 478.076C119.533 477.819 119.061 477.69 118.443 477.69C117.639 477.69 116.967 478.053 116.428 478.78C115.889 479.506 115.619 480.494 115.619 481.744V487.487H112.9V475.487H115.619V477.959H115.666C115.932 477.115 116.338 476.459 116.885 475.99C117.439 475.514 118.057 475.276 118.736 475.276C119.229 475.276 119.604 475.35 119.861 475.498V478.076ZM131.732 482.225H123.553C123.584 483.334 123.924 484.19 124.572 484.791C125.229 485.393 126.127 485.694 127.268 485.694C128.549 485.694 129.725 485.311 130.795 484.545V486.737C129.701 487.424 128.256 487.768 126.459 487.768C124.693 487.768 123.307 487.225 122.299 486.139C121.299 485.045 120.799 483.51 120.799 481.533C120.799 479.666 121.35 478.147 122.451 476.975C123.561 475.795 124.936 475.205 126.576 475.205C128.217 475.205 129.486 475.733 130.385 476.787C131.283 477.842 131.732 479.307 131.732 481.182V482.225ZM129.107 480.303C129.1 479.326 128.869 478.569 128.416 478.03C127.963 477.483 127.338 477.209 126.541 477.209C125.76 477.209 125.096 477.494 124.549 478.065C124.01 478.635 123.678 479.381 123.553 480.303H129.107ZM142.912 486.936C141.951 487.49 140.814 487.768 139.502 487.768C137.721 487.768 136.283 487.213 135.189 486.104C134.096 484.987 133.549 483.541 133.549 481.768C133.549 479.791 134.135 478.205 135.307 477.01C136.486 475.807 138.061 475.205 140.029 475.205C141.123 475.205 142.088 475.397 142.924 475.78V478.311C142.088 477.686 141.197 477.373 140.252 477.373C139.104 477.373 138.162 477.764 137.428 478.545C136.693 479.319 136.326 480.334 136.326 481.592C136.326 482.834 136.67 483.815 137.357 484.533C138.053 485.252 138.982 485.612 140.146 485.612C141.123 485.612 142.045 485.264 142.912 484.569V486.936ZM151.947 487.358C151.416 487.623 150.717 487.756 149.85 487.756C147.521 487.756 146.357 486.639 146.357 484.405V477.619H144.354V475.487H146.357V472.709L149.076 471.936V475.487H151.947V477.619H149.076V483.619C149.076 484.33 149.205 484.838 149.463 485.143C149.721 485.448 150.15 485.6 150.752 485.6C151.213 485.6 151.611 485.467 151.947 485.201V487.358ZM157.021 487.487H154.291V469.721H157.021V487.487ZM170.967 475.487L165.553 489.408C164.428 491.893 162.85 493.135 160.818 493.135C160.248 493.135 159.771 493.084 159.389 492.983V490.721C159.818 490.862 160.209 490.932 160.561 490.932C161.576 490.932 162.334 490.432 162.834 489.432L163.643 487.463L158.873 475.487H161.885L164.744 484.205C164.775 484.315 164.846 484.604 164.955 485.073H165.014C165.053 484.893 165.123 484.612 165.225 484.229L168.225 475.487H170.967ZM178.643 487.112V484.592C179.658 485.365 180.779 485.752 182.006 485.752C183.646 485.752 184.467 485.268 184.467 484.299C184.467 484.026 184.396 483.795 184.256 483.608C184.115 483.412 183.924 483.24 183.682 483.092C183.447 482.944 183.166 482.811 182.838 482.694C182.518 482.576 182.158 482.444 181.76 482.295C181.268 482.1 180.822 481.893 180.424 481.674C180.033 481.455 179.705 481.209 179.439 480.936C179.182 480.655 178.986 480.338 178.854 479.987C178.721 479.635 178.654 479.225 178.654 478.756C178.654 478.178 178.791 477.67 179.064 477.233C179.338 476.787 179.705 476.416 180.166 476.119C180.627 475.815 181.15 475.588 181.736 475.44C182.322 475.283 182.928 475.205 183.553 475.205C184.662 475.205 185.654 475.373 186.529 475.709V478.088C185.686 477.51 184.717 477.221 183.623 477.221C183.279 477.221 182.967 477.256 182.686 477.326C182.412 477.397 182.178 477.494 181.982 477.619C181.787 477.744 181.635 477.897 181.525 478.076C181.416 478.248 181.361 478.44 181.361 478.651C181.361 478.908 181.416 479.127 181.525 479.307C181.635 479.487 181.795 479.647 182.006 479.787C182.225 479.92 182.482 480.045 182.779 480.162C183.084 480.272 183.432 480.393 183.822 480.526C184.338 480.737 184.799 480.951 185.205 481.17C185.619 481.389 185.971 481.639 186.26 481.92C186.549 482.194 186.771 482.514 186.928 482.881C187.084 483.24 187.162 483.67 187.162 484.17C187.162 484.78 187.021 485.311 186.74 485.764C186.459 486.217 186.084 486.592 185.615 486.889C185.146 487.186 184.604 487.405 183.986 487.545C183.377 487.694 182.732 487.768 182.053 487.768C180.74 487.768 179.604 487.549 178.643 487.112ZM200.217 487.487H197.498V485.588H197.451C196.662 487.041 195.436 487.768 193.771 487.768C190.936 487.768 189.518 486.065 189.518 482.658V475.487H192.236V482.377C192.236 484.533 193.068 485.612 194.732 485.612C195.537 485.612 196.197 485.315 196.713 484.721C197.236 484.127 197.498 483.35 197.498 482.389V475.487H200.217V487.487ZM206.533 485.717H206.486V493.006H203.768V475.487H206.486V477.596H206.533C207.463 476.002 208.822 475.205 210.611 475.205C212.135 475.205 213.322 475.74 214.174 476.811C215.025 477.881 215.451 479.319 215.451 481.123C215.451 483.123 214.971 484.725 214.01 485.928C213.049 487.131 211.736 487.733 210.072 487.733C208.541 487.733 207.361 487.061 206.533 485.717ZM206.463 480.983V482.471C206.463 483.346 206.74 484.088 207.295 484.698C207.857 485.307 208.568 485.612 209.428 485.612C210.436 485.612 211.225 485.221 211.795 484.44C212.373 483.651 212.662 482.553 212.662 481.147C212.662 479.967 212.393 479.045 211.854 478.381C211.322 477.709 210.6 477.373 209.686 477.373C208.717 477.373 207.936 477.717 207.342 478.405C206.756 479.092 206.463 479.951 206.463 480.983ZM220.994 485.717H220.947V493.006H218.229V475.487H220.947V477.596H220.994C221.924 476.002 223.283 475.205 225.072 475.205C226.596 475.205 227.783 475.74 228.635 476.811C229.486 477.881 229.912 479.319 229.912 481.123C229.912 483.123 229.432 484.725 228.471 485.928C227.51 487.131 226.197 487.733 224.533 487.733C223.002 487.733 221.822 487.061 220.994 485.717ZM220.924 480.983V482.471C220.924 483.346 221.201 484.088 221.756 484.698C222.318 485.307 223.029 485.612 223.889 485.612C224.896 485.612 225.686 485.221 226.256 484.44C226.834 483.651 227.123 482.553 227.123 481.147C227.123 479.967 226.854 479.045 226.314 478.381C225.783 477.709 225.061 477.373 224.146 477.373C223.178 477.373 222.396 477.717 221.803 478.405C221.217 479.092 220.924 479.951 220.924 480.983ZM238.01 487.768C236.158 487.768 234.678 487.209 233.568 486.092C232.467 484.967 231.916 483.479 231.916 481.627C231.916 479.612 232.49 478.037 233.639 476.905C234.795 475.772 236.35 475.205 238.303 475.205C240.178 475.205 241.639 475.756 242.686 476.858C243.732 477.959 244.256 479.487 244.256 481.44C244.256 483.354 243.689 484.889 242.557 486.045C241.432 487.194 239.916 487.768 238.01 487.768ZM238.139 477.373C237.076 477.373 236.236 477.744 235.619 478.487C235.002 479.229 234.693 480.252 234.693 481.557C234.693 482.815 235.006 483.807 235.631 484.533C236.256 485.252 237.092 485.612 238.139 485.612C239.209 485.612 240.029 485.256 240.6 484.545C241.178 483.834 241.467 482.823 241.467 481.51C241.467 480.19 241.178 479.17 240.6 478.451C240.029 477.733 239.209 477.373 238.139 477.373ZM253.994 478.076C253.666 477.819 253.193 477.69 252.576 477.69C251.771 477.69 251.1 478.053 250.561 478.78C250.021 479.506 249.752 480.494 249.752 481.744V487.487H247.033V475.487H249.752V477.959H249.799C250.064 477.115 250.471 476.459 251.018 475.99C251.572 475.514 252.189 475.276 252.869 475.276C253.361 475.276 253.736 475.35 253.994 475.498V478.076ZM262.947 487.358C262.416 487.623 261.717 487.756 260.85 487.756C258.521 487.756 257.357 486.639 257.357 484.405V477.619H255.354V475.487H257.357V472.709L260.076 471.936V475.487H262.947V477.619H260.076V483.619C260.076 484.33 260.205 484.838 260.463 485.143C260.721 485.448 261.15 485.6 261.752 485.6C262.213 485.6 262.611 485.467 262.947 485.201V487.358ZM275.311 482.225H267.131C267.162 483.334 267.502 484.19 268.15 484.791C268.807 485.393 269.705 485.694 270.846 485.694C272.127 485.694 273.303 485.311 274.373 484.545V486.737C273.279 487.424 271.834 487.768 270.037 487.768C268.271 487.768 266.885 487.225 265.877 486.139C264.877 485.045 264.377 483.51 264.377 481.533C264.377 479.666 264.928 478.147 266.029 476.975C267.139 475.795 268.514 475.205 270.154 475.205C271.795 475.205 273.064 475.733 273.963 476.787C274.861 477.842 275.311 479.307 275.311 481.182V482.225ZM272.686 480.303C272.678 479.326 272.447 478.569 271.994 478.03C271.541 477.483 270.916 477.209 270.119 477.209C269.338 477.209 268.674 477.494 268.127 478.065C267.588 478.635 267.256 479.381 267.131 480.303H272.686ZM288.811 487.487H286.092V485.448H286.045C285.17 486.994 283.822 487.768 282.002 487.768C280.525 487.768 279.342 487.233 278.451 486.162C277.568 485.084 277.127 483.619 277.127 481.768C277.127 479.783 277.615 478.194 278.592 476.998C279.576 475.803 280.885 475.205 282.518 475.205C284.135 475.205 285.311 475.854 286.045 477.151H286.092V469.721H288.811V487.487ZM286.127 482.002V480.432C286.127 479.58 285.85 478.858 285.295 478.264C284.74 477.67 284.033 477.373 283.174 477.373C282.158 477.373 281.357 477.752 280.771 478.51C280.193 479.268 279.904 480.319 279.904 481.662C279.904 482.881 280.182 483.846 280.736 484.557C281.299 485.26 282.053 485.612 282.998 485.612C283.928 485.612 284.682 485.272 285.26 484.592C285.838 483.905 286.127 483.041 286.127 482.002ZM309.307 475.487L304.666 487.487H301.725L297.307 475.487H300.26L302.92 483.877C303.123 484.494 303.248 485.033 303.295 485.494H303.33C303.4 484.916 303.51 484.393 303.658 483.924L306.447 475.487H309.307ZM312.529 472.967C312.084 472.967 311.701 472.823 311.381 472.533C311.068 472.244 310.912 471.877 310.912 471.432C310.912 470.987 311.068 470.615 311.381 470.319C311.701 470.022 312.084 469.873 312.529 469.873C312.99 469.873 313.381 470.022 313.701 470.319C314.021 470.615 314.182 470.987 314.182 471.432C314.182 471.854 314.021 472.217 313.701 472.522C313.381 472.819 312.99 472.967 312.529 472.967ZM313.877 487.487H311.158V475.487H313.877V487.487ZM326.65 487.487H324.014V485.612H323.967C323.139 487.049 321.924 487.768 320.322 487.768C319.143 487.768 318.217 487.448 317.545 486.807C316.881 486.166 316.549 485.319 316.549 484.264C316.549 481.998 317.854 480.678 320.463 480.303L324.025 479.799C324.025 478.088 323.213 477.233 321.588 477.233C320.158 477.233 318.869 477.725 317.721 478.709V476.33C318.986 475.58 320.447 475.205 322.104 475.205C325.135 475.205 326.65 476.698 326.65 479.682V487.487ZM324.025 481.592L321.506 481.944C320.725 482.045 320.135 482.237 319.736 482.518C319.346 482.791 319.15 483.276 319.15 483.971C319.15 484.479 319.33 484.897 319.689 485.225C320.057 485.545 320.545 485.705 321.154 485.705C321.982 485.705 322.666 485.416 323.205 484.838C323.752 484.252 324.025 483.518 324.025 482.635V481.592ZM339.354 485.717H339.307V493.006H336.588V475.487H339.307V477.596H339.354C340.283 476.002 341.643 475.205 343.432 475.205C344.955 475.205 346.143 475.74 346.994 476.811C347.846 477.881 348.271 479.319 348.271 481.123C348.271 483.123 347.791 484.725 346.83 485.928C345.869 487.131 344.557 487.733 342.893 487.733C341.361 487.733 340.182 487.061 339.354 485.717ZM339.283 480.983V482.471C339.283 483.346 339.561 484.088 340.115 484.698C340.678 485.307 341.389 485.612 342.248 485.612C343.256 485.612 344.045 485.221 344.615 484.44C345.193 483.651 345.482 482.553 345.482 481.147C345.482 479.967 345.213 479.045 344.674 478.381C344.143 477.709 343.42 477.373 342.506 477.373C341.537 477.373 340.756 477.717 340.162 478.405C339.576 479.092 339.283 479.951 339.283 480.983ZM358.01 478.076C357.682 477.819 357.209 477.69 356.592 477.69C355.787 477.69 355.115 478.053 354.576 478.78C354.037 479.506 353.768 480.494 353.768 481.744V487.487H351.049V475.487H353.768V477.959H353.814C354.08 477.115 354.486 476.459 355.033 475.99C355.588 475.514 356.205 475.276 356.885 475.276C357.377 475.276 357.752 475.35 358.01 475.498V478.076ZM365.041 487.768C363.189 487.768 361.709 487.209 360.6 486.092C359.498 484.967 358.947 483.479 358.947 481.627C358.947 479.612 359.521 478.037 360.67 476.905C361.826 475.772 363.381 475.205 365.334 475.205C367.209 475.205 368.67 475.756 369.717 476.858C370.764 477.959 371.287 479.487 371.287 481.44C371.287 483.354 370.721 484.889 369.588 486.045C368.463 487.194 366.947 487.768 365.041 487.768ZM365.17 477.373C364.107 477.373 363.268 477.744 362.65 478.487C362.033 479.229 361.725 480.252 361.725 481.557C361.725 482.815 362.037 483.807 362.662 484.533C363.287 485.252 364.123 485.612 365.17 485.612C366.24 485.612 367.061 485.256 367.631 484.545C368.209 483.834 368.498 482.823 368.498 481.51C368.498 480.19 368.209 479.17 367.631 478.451C367.061 477.733 366.24 477.373 365.17 477.373ZM384.986 486.526C384.986 490.932 382.771 493.135 378.342 493.135C376.779 493.135 375.416 492.873 374.252 492.35V489.865C375.564 490.615 376.811 490.99 377.99 490.99C380.842 490.99 382.268 489.588 382.268 486.783V485.471H382.221C381.322 487.002 379.971 487.768 378.166 487.768C376.705 487.768 375.525 487.237 374.627 486.174C373.736 485.104 373.291 483.67 373.291 481.873C373.291 479.834 373.771 478.213 374.732 477.01C375.693 475.807 377.014 475.205 378.693 475.205C380.279 475.205 381.455 475.854 382.221 477.151H382.268V475.487H384.986V486.526ZM382.291 481.99V480.432C382.291 479.588 382.01 478.869 381.447 478.276C380.893 477.674 380.197 477.373 379.361 477.373C378.33 477.373 377.521 477.756 376.936 478.522C376.357 479.28 376.068 480.342 376.068 481.709C376.068 482.889 376.346 483.834 376.9 484.545C377.463 485.248 378.205 485.6 379.127 485.6C380.064 485.6 380.826 485.264 381.412 484.592C381.998 483.912 382.291 483.045 382.291 481.99ZM395.486 478.076C395.158 477.819 394.686 477.69 394.068 477.69C393.264 477.69 392.592 478.053 392.053 478.78C391.514 479.506 391.244 480.494 391.244 481.744V487.487H388.525V475.487H391.244V477.959H391.291C391.557 477.115 391.963 476.459 392.51 475.99C393.064 475.514 393.682 475.276 394.361 475.276C394.854 475.276 395.229 475.35 395.486 475.498V478.076ZM406.619 487.487H403.982V485.612H403.936C403.107 487.049 401.893 487.768 400.291 487.768C399.111 487.768 398.186 487.448 397.514 486.807C396.85 486.166 396.518 485.319 396.518 484.264C396.518 481.998 397.822 480.678 400.432 480.303L403.994 479.799C403.994 478.088 403.182 477.233 401.557 477.233C400.127 477.233 398.838 477.725 397.689 478.709V476.33C398.955 475.58 400.416 475.205 402.072 475.205C405.104 475.205 406.619 476.698 406.619 479.682V487.487ZM403.994 481.592L401.475 481.944C400.693 482.045 400.104 482.237 399.705 482.518C399.314 482.791 399.119 483.276 399.119 483.971C399.119 484.479 399.299 484.897 399.658 485.225C400.025 485.545 400.514 485.705 401.123 485.705C401.951 485.705 402.635 485.416 403.174 484.838C403.721 484.252 403.994 483.518 403.994 482.635V481.592ZM427.889 487.487H425.17V480.948C425.17 479.69 424.99 478.78 424.631 478.217C424.279 477.655 423.682 477.373 422.838 477.373C422.127 477.373 421.521 477.729 421.021 478.44C420.529 479.151 420.283 480.002 420.283 480.994V487.487H417.553V480.725C417.553 478.49 416.764 477.373 415.186 477.373C414.451 477.373 413.846 477.709 413.369 478.381C412.9 479.053 412.666 479.924 412.666 480.994V487.487H409.947V475.487H412.666V477.385H412.713C413.58 475.932 414.842 475.205 416.498 475.205C417.326 475.205 418.049 475.436 418.666 475.897C419.291 476.35 419.717 476.948 419.943 477.69C420.834 476.033 422.162 475.205 423.928 475.205C426.568 475.205 427.889 476.834 427.889 480.092V487.487Z" fill="#0D0A3A"/>
</g>
<defs>
<clipPath id="clip0_8_688">
<rect width="517.556" height="577.096" fill="white" transform="translate(0.512695 0.0488281)"/>
</clipPath>
</defs>
</svg>
