<svg width="518" height="578" viewBox="0 0 518 578" fill="none" xmlns="http://www.w3.org/2000/svg">
<g clip-path="url(#clip0_4_460)">
<path d="M2.56641 486.801V575.141H75.8892" stroke="#F6F6FD" stroke-width="5" stroke-linecap="round" stroke-linejoin="round"/>
<path d="M2.56738 91.3898V3.04883H75.8904" stroke="#F6F6FD" stroke-width="5" stroke-linecap="round" stroke-linejoin="round"/>
<path d="M515.123 91.3887V3.04883H441.799" stroke="#F6F6FD" stroke-width="5" stroke-linecap="round" stroke-linejoin="round"/>
<path d="M515.124 486.805V575.146H441.801" stroke="#F6F6FD" stroke-width="5" stroke-linecap="round" stroke-linejoin="round"/>
<path d="M269.77 254.449C269.066 251.193 267.834 248.773 266.074 247.189C264.314 245.517 261.806 244.681 258.55 244.681C253.534 244.681 249.926 246.881 247.726 251.281C245.526 255.593 244.382 262.457 244.294 271.873C246.23 268.793 249.002 266.373 252.61 264.613C256.306 262.853 260.354 261.973 264.754 261.973C273.378 261.973 280.286 264.701 285.478 270.157C290.758 275.613 293.398 283.225 293.398 292.993C293.398 299.417 292.078 305.049 289.438 309.889C286.886 314.729 283.102 318.513 278.086 321.241C273.158 323.969 267.306 325.333 260.53 325.333C246.978 325.333 237.562 321.109 232.282 312.661C227.002 304.125 224.362 291.893 224.362 275.965C224.362 259.245 227.134 246.837 232.678 238.741C238.31 230.557 247.286 226.465 259.606 226.465C266.206 226.465 271.75 227.785 276.238 230.425C280.814 232.977 284.246 236.365 286.534 240.589C288.91 244.813 290.318 249.433 290.758 254.449H269.77ZM259.342 279.793C255.558 279.793 252.39 280.937 249.838 283.225C247.374 285.425 246.142 288.593 246.142 292.729C246.142 296.953 247.286 300.253 249.574 302.629C251.95 305.005 255.294 306.193 259.606 306.193C263.478 306.193 266.514 305.049 268.714 302.761C271.002 300.385 272.146 297.173 272.146 293.125C272.146 288.989 271.046 285.733 268.846 283.357C266.646 280.981 263.478 279.793 259.342 279.793Z" fill="white"/>
<path d="M222.213 408.805H217.604V390.68C217.604 389.195 217.695 387.379 217.877 385.23H217.799C217.512 386.454 217.258 387.333 217.037 387.867L208.678 408.805H205.475L197.096 388.023C196.861 387.411 196.614 386.48 196.354 385.23H196.275C196.38 386.35 196.432 388.18 196.432 390.719V408.805H192.135V380.797H198.678L206.041 399.449C206.601 400.882 206.965 401.949 207.135 402.652H207.232C207.714 401.181 208.105 400.087 208.404 399.371L215.904 380.797H222.213V408.805ZM237.486 409.273C234.4 409.273 231.933 408.342 230.084 406.48C228.248 404.605 227.33 402.125 227.33 399.039C227.33 395.68 228.287 393.056 230.201 391.168C232.128 389.28 234.719 388.336 237.975 388.336C241.1 388.336 243.535 389.254 245.279 391.09C247.024 392.926 247.896 395.471 247.896 398.727C247.896 401.917 246.952 404.475 245.064 406.402C243.189 408.316 240.663 409.273 237.486 409.273ZM237.701 391.949C235.93 391.949 234.531 392.568 233.502 393.805C232.473 395.042 231.959 396.747 231.959 398.922C231.959 401.018 232.48 402.672 233.521 403.883C234.563 405.081 235.956 405.68 237.701 405.68C239.485 405.68 240.852 405.087 241.803 403.902C242.766 402.717 243.248 401.031 243.248 398.844C243.248 396.643 242.766 394.944 241.803 393.746C240.852 392.548 239.485 391.949 237.701 391.949ZM270.338 408.805H265.807V397.535C265.807 393.798 264.485 391.93 261.842 391.93C260.462 391.93 259.322 392.451 258.424 393.492C257.525 394.521 257.076 395.823 257.076 397.398V408.805H252.525V388.805H257.076V392.125H257.154C258.652 389.599 260.813 388.336 263.639 388.336C265.813 388.336 267.473 389.046 268.619 390.465C269.765 391.871 270.338 393.909 270.338 396.578V408.805ZM286.432 408.59C285.546 409.033 284.381 409.254 282.936 409.254C279.055 409.254 277.115 407.392 277.115 403.668V392.359H273.775V388.805H277.115V384.176L281.646 382.887V388.805H286.432V392.359H281.646V402.359C281.646 403.544 281.861 404.391 282.291 404.898C282.721 405.406 283.437 405.66 284.439 405.66C285.208 405.66 285.872 405.439 286.432 404.996V408.59ZM308.111 408.805H303.58V397.867C303.58 393.909 302.258 391.93 299.615 391.93C298.287 391.93 297.167 392.503 296.256 393.648C295.344 394.794 294.889 396.259 294.889 398.043V408.805H290.338V379.195H294.889V392.125H294.967C296.477 389.599 298.639 388.336 301.451 388.336C305.891 388.336 308.111 391.051 308.111 396.48V408.805ZM312.369 408.18V403.98C314.062 405.27 315.93 405.914 317.975 405.914C320.709 405.914 322.076 405.107 322.076 403.492C322.076 403.036 321.959 402.652 321.725 402.34C321.49 402.014 321.171 401.728 320.768 401.48C320.377 401.233 319.908 401.012 319.361 400.816C318.827 400.621 318.229 400.4 317.564 400.152C316.744 399.827 316.002 399.482 315.338 399.117C314.687 398.753 314.14 398.342 313.697 397.887C313.268 397.418 312.942 396.891 312.721 396.305C312.499 395.719 312.389 395.035 312.389 394.254C312.389 393.29 312.617 392.444 313.072 391.715C313.528 390.973 314.14 390.354 314.908 389.859C315.676 389.352 316.549 388.974 317.525 388.727C318.502 388.466 319.511 388.336 320.553 388.336C322.402 388.336 324.055 388.616 325.514 389.176V393.141C324.107 392.177 322.493 391.695 320.67 391.695C320.097 391.695 319.576 391.754 319.107 391.871C318.652 391.988 318.261 392.151 317.936 392.359C317.61 392.568 317.356 392.822 317.174 393.121C316.992 393.408 316.9 393.727 316.9 394.078C316.9 394.508 316.992 394.872 317.174 395.172C317.356 395.471 317.623 395.738 317.975 395.973C318.339 396.194 318.769 396.402 319.264 396.598C319.771 396.78 320.351 396.982 321.002 397.203C321.861 397.555 322.63 397.913 323.307 398.277C323.997 398.642 324.583 399.059 325.064 399.527C325.546 399.983 325.917 400.517 326.178 401.129C326.438 401.728 326.568 402.444 326.568 403.277C326.568 404.293 326.334 405.178 325.865 405.934C325.396 406.689 324.771 407.314 323.99 407.809C323.209 408.303 322.304 408.668 321.275 408.902C320.26 409.15 319.186 409.273 318.053 409.273C315.865 409.273 313.971 408.909 312.369 408.18Z" fill="white"/>
<path d="M118.65 449.805H115.592L114.08 445.527H107.471L106.018 449.805H102.971L109.264 433H112.404L118.65 449.805ZM113.342 443.254L111.01 436.551C110.939 436.332 110.865 435.98 110.787 435.496H110.74C110.67 435.941 110.592 436.293 110.506 436.551L108.197 443.254H113.342ZM130.486 437.805L125.846 449.805H122.904L118.486 437.805H121.439L124.1 446.195C124.303 446.812 124.428 447.352 124.475 447.812H124.51C124.58 447.234 124.689 446.711 124.838 446.242L127.627 437.805H130.486ZM142.311 444.543H134.131C134.162 445.652 134.502 446.508 135.15 447.109C135.807 447.711 136.705 448.012 137.846 448.012C139.127 448.012 140.303 447.629 141.373 446.863V449.055C140.279 449.742 138.834 450.086 137.037 450.086C135.271 450.086 133.885 449.543 132.877 448.457C131.877 447.363 131.377 445.828 131.377 443.852C131.377 441.984 131.928 440.465 133.029 439.293C134.139 438.113 135.514 437.523 137.154 437.523C138.795 437.523 140.064 438.051 140.963 439.105C141.861 440.16 142.311 441.625 142.311 443.5V444.543ZM139.686 442.621C139.678 441.645 139.447 440.887 138.994 440.348C138.541 439.801 137.916 439.527 137.119 439.527C136.338 439.527 135.674 439.812 135.127 440.383C134.588 440.953 134.256 441.699 134.131 442.621H139.686ZM151.861 440.395C151.533 440.137 151.061 440.008 150.443 440.008C149.639 440.008 148.967 440.371 148.428 441.098C147.889 441.824 147.619 442.812 147.619 444.062V449.805H144.9V437.805H147.619V440.277H147.666C147.932 439.434 148.338 438.777 148.885 438.309C149.439 437.832 150.057 437.594 150.736 437.594C151.229 437.594 151.604 437.668 151.861 437.816V440.395ZM162.994 449.805H160.357V447.93H160.311C159.482 449.367 158.268 450.086 156.666 450.086C155.486 450.086 154.561 449.766 153.889 449.125C153.225 448.484 152.893 447.637 152.893 446.582C152.893 444.316 154.197 442.996 156.807 442.621L160.369 442.117C160.369 440.406 159.557 439.551 157.932 439.551C156.502 439.551 155.213 440.043 154.064 441.027V438.648C155.33 437.898 156.791 437.523 158.447 437.523C161.479 437.523 162.994 439.016 162.994 442V449.805ZM160.369 443.91L157.85 444.262C157.068 444.363 156.479 444.555 156.08 444.836C155.689 445.109 155.494 445.594 155.494 446.289C155.494 446.797 155.674 447.215 156.033 447.543C156.4 447.863 156.889 448.023 157.498 448.023C158.326 448.023 159.01 447.734 159.549 447.156C160.096 446.57 160.369 445.836 160.369 444.953V443.91ZM177.244 448.844C177.244 453.25 175.029 455.453 170.6 455.453C169.037 455.453 167.674 455.191 166.51 454.668V452.184C167.822 452.934 169.068 453.309 170.248 453.309C173.1 453.309 174.525 451.906 174.525 449.102V447.789H174.479C173.58 449.32 172.229 450.086 170.424 450.086C168.963 450.086 167.783 449.555 166.885 448.492C165.994 447.422 165.549 445.988 165.549 444.191C165.549 442.152 166.029 440.531 166.99 439.328C167.951 438.125 169.271 437.523 170.951 437.523C172.537 437.523 173.713 438.172 174.479 439.469H174.525V437.805H177.244V448.844ZM174.549 444.309V442.75C174.549 441.906 174.268 441.188 173.705 440.594C173.15 439.992 172.455 439.691 171.619 439.691C170.588 439.691 169.779 440.074 169.193 440.84C168.615 441.598 168.326 442.66 168.326 444.027C168.326 445.207 168.604 446.152 169.158 446.863C169.721 447.566 170.463 447.918 171.385 447.918C172.322 447.918 173.084 447.582 173.67 446.91C174.256 446.23 174.549 445.363 174.549 444.309ZM190.943 444.543H182.764C182.795 445.652 183.135 446.508 183.783 447.109C184.439 447.711 185.338 448.012 186.479 448.012C187.76 448.012 188.936 447.629 190.006 446.863V449.055C188.912 449.742 187.467 450.086 185.67 450.086C183.904 450.086 182.518 449.543 181.51 448.457C180.51 447.363 180.01 445.828 180.01 443.852C180.01 441.984 180.561 440.465 181.662 439.293C182.771 438.113 184.146 437.523 185.787 437.523C187.428 437.523 188.697 438.051 189.596 439.105C190.494 440.16 190.943 441.625 190.943 443.5V444.543ZM188.318 442.621C188.311 441.645 188.08 440.887 187.627 440.348C187.174 439.801 186.549 439.527 185.752 439.527C184.971 439.527 184.307 439.812 183.76 440.383C183.221 440.953 182.889 441.699 182.764 442.621H188.318ZM202.873 449.805H200.143V432.039H202.873V449.805ZM216.584 444.543H208.404C208.436 445.652 208.775 446.508 209.424 447.109C210.08 447.711 210.979 448.012 212.119 448.012C213.4 448.012 214.576 447.629 215.646 446.863V449.055C214.553 449.742 213.107 450.086 211.311 450.086C209.545 450.086 208.158 449.543 207.15 448.457C206.15 447.363 205.65 445.828 205.65 443.852C205.65 441.984 206.201 440.465 207.303 439.293C208.412 438.113 209.787 437.523 211.428 437.523C213.068 437.523 214.338 438.051 215.236 439.105C216.135 440.16 216.584 441.625 216.584 443.5V444.543ZM213.959 442.621C213.951 441.645 213.721 440.887 213.268 440.348C212.814 439.801 212.189 439.527 211.393 439.527C210.611 439.527 209.947 439.812 209.4 440.383C208.861 440.953 208.529 441.699 208.404 442.621H213.959ZM229.861 449.805H227.143V443.043C227.143 440.801 226.35 439.68 224.764 439.68C223.936 439.68 223.252 439.992 222.713 440.617C222.174 441.234 221.904 442.016 221.904 442.961V449.805H219.174V437.805H221.904V439.797H221.951C222.85 438.281 224.146 437.523 225.842 437.523C227.146 437.523 228.143 437.949 228.83 438.801C229.518 439.645 229.861 440.867 229.861 442.469V449.805ZM244.111 448.844C244.111 453.25 241.896 455.453 237.467 455.453C235.904 455.453 234.541 455.191 233.377 454.668V452.184C234.689 452.934 235.936 453.309 237.115 453.309C239.967 453.309 241.393 451.906 241.393 449.102V447.789H241.346C240.447 449.32 239.096 450.086 237.291 450.086C235.83 450.086 234.65 449.555 233.752 448.492C232.861 447.422 232.416 445.988 232.416 444.191C232.416 442.152 232.896 440.531 233.857 439.328C234.818 438.125 236.139 437.523 237.818 437.523C239.404 437.523 240.58 438.172 241.346 439.469H241.393V437.805H244.111V448.844ZM241.416 444.309V442.75C241.416 441.906 241.135 441.188 240.572 440.594C240.018 439.992 239.322 439.691 238.486 439.691C237.455 439.691 236.646 440.074 236.061 440.84C235.482 441.598 235.193 442.66 235.193 444.027C235.193 445.207 235.471 446.152 236.025 446.863C236.588 447.566 237.33 447.918 238.252 447.918C239.189 447.918 239.951 447.582 240.537 446.91C241.123 446.23 241.416 445.363 241.416 444.309ZM253.979 449.676C253.447 449.941 252.748 450.074 251.881 450.074C249.553 450.074 248.389 448.957 248.389 446.723V439.938H246.385V437.805H248.389V435.027L251.107 434.254V437.805H253.979V439.938H251.107V445.938C251.107 446.648 251.236 447.156 251.494 447.461C251.752 447.766 252.182 447.918 252.783 447.918C253.244 447.918 253.643 447.785 253.979 447.52V449.676ZM266.986 449.805H264.268V443.242C264.268 440.867 263.475 439.68 261.889 439.68C261.092 439.68 260.42 440.023 259.873 440.711C259.326 441.398 259.053 442.277 259.053 443.348V449.805H256.322V432.039H259.053V439.797H259.1C260.006 438.281 261.303 437.523 262.99 437.523C265.654 437.523 266.986 439.152 266.986 442.41V449.805ZM282.221 450.086C280.369 450.086 278.889 449.527 277.779 448.41C276.678 447.285 276.127 445.797 276.127 443.945C276.127 441.93 276.701 440.355 277.85 439.223C279.006 438.09 280.561 437.523 282.514 437.523C284.389 437.523 285.85 438.074 286.896 439.176C287.943 440.277 288.467 441.805 288.467 443.758C288.467 445.672 287.9 447.207 286.768 448.363C285.643 449.512 284.127 450.086 282.221 450.086ZM282.35 439.691C281.287 439.691 280.447 440.062 279.83 440.805C279.213 441.547 278.904 442.57 278.904 443.875C278.904 445.133 279.217 446.125 279.842 446.852C280.467 447.57 281.303 447.93 282.35 447.93C283.42 447.93 284.24 447.574 284.811 446.863C285.389 446.152 285.678 445.141 285.678 443.828C285.678 442.508 285.389 441.488 284.811 440.77C284.24 440.051 283.42 439.691 282.35 439.691ZM297.631 434.254C297.264 434.043 296.846 433.938 296.377 433.938C295.057 433.938 294.396 434.684 294.396 436.176V437.805H297.186V439.938H294.408V449.805H291.689V439.938H289.639V437.805H291.689V435.859C291.689 434.594 292.104 433.598 292.932 432.871C293.76 432.137 294.795 431.77 296.037 431.77C296.709 431.77 297.24 431.844 297.631 431.992V434.254ZM314.318 449.254C313.357 449.809 312.221 450.086 310.908 450.086C309.127 450.086 307.689 449.531 306.596 448.422C305.502 447.305 304.955 445.859 304.955 444.086C304.955 442.109 305.541 440.523 306.713 439.328C307.893 438.125 309.467 437.523 311.436 437.523C312.529 437.523 313.494 437.715 314.33 438.098V440.629C313.494 440.004 312.604 439.691 311.658 439.691C310.51 439.691 309.568 440.082 308.834 440.863C308.1 441.637 307.732 442.652 307.732 443.91C307.732 445.152 308.076 446.133 308.764 446.852C309.459 447.57 310.389 447.93 311.553 447.93C312.529 447.93 313.451 447.582 314.318 446.887V449.254ZM322.346 450.086C320.494 450.086 319.014 449.527 317.904 448.41C316.803 447.285 316.252 445.797 316.252 443.945C316.252 441.93 316.826 440.355 317.975 439.223C319.131 438.09 320.686 437.523 322.639 437.523C324.514 437.523 325.975 438.074 327.021 439.176C328.068 440.277 328.592 441.805 328.592 443.758C328.592 445.672 328.025 447.207 326.893 448.363C325.768 449.512 324.252 450.086 322.346 450.086ZM322.475 439.691C321.412 439.691 320.572 440.062 319.955 440.805C319.338 441.547 319.029 442.57 319.029 443.875C319.029 445.133 319.342 446.125 319.967 446.852C320.592 447.57 321.428 447.93 322.475 447.93C323.545 447.93 324.365 447.574 324.936 446.863C325.514 446.152 325.803 445.141 325.803 443.828C325.803 442.508 325.514 441.488 324.936 440.77C324.365 440.051 323.545 439.691 322.475 439.691ZM342.057 449.805H339.338V443.043C339.338 440.801 338.545 439.68 336.959 439.68C336.131 439.68 335.447 439.992 334.908 440.617C334.369 441.234 334.1 442.016 334.1 442.961V449.805H331.369V437.805H334.1V439.797H334.146C335.045 438.281 336.342 437.523 338.037 437.523C339.342 437.523 340.338 437.949 341.025 438.801C341.713 439.645 342.057 440.867 342.057 442.469V449.805ZM344.635 449.43V446.91C345.65 447.684 346.771 448.07 347.998 448.07C349.639 448.07 350.459 447.586 350.459 446.617C350.459 446.344 350.389 446.113 350.248 445.926C350.107 445.73 349.916 445.559 349.674 445.41C349.439 445.262 349.158 445.129 348.83 445.012C348.51 444.895 348.15 444.762 347.752 444.613C347.26 444.418 346.814 444.211 346.416 443.992C346.025 443.773 345.697 443.527 345.432 443.254C345.174 442.973 344.979 442.656 344.846 442.305C344.713 441.953 344.646 441.543 344.646 441.074C344.646 440.496 344.783 439.988 345.057 439.551C345.33 439.105 345.697 438.734 346.158 438.438C346.619 438.133 347.143 437.906 347.729 437.758C348.314 437.602 348.92 437.523 349.545 437.523C350.654 437.523 351.646 437.691 352.521 438.027V440.406C351.678 439.828 350.709 439.539 349.615 439.539C349.271 439.539 348.959 439.574 348.678 439.645C348.404 439.715 348.17 439.812 347.975 439.938C347.779 440.062 347.627 440.215 347.518 440.395C347.408 440.566 347.354 440.758 347.354 440.969C347.354 441.227 347.408 441.445 347.518 441.625C347.627 441.805 347.787 441.965 347.998 442.105C348.217 442.238 348.475 442.363 348.771 442.48C349.076 442.59 349.424 442.711 349.814 442.844C350.33 443.055 350.791 443.27 351.197 443.488C351.611 443.707 351.963 443.957 352.252 444.238C352.541 444.512 352.764 444.832 352.92 445.199C353.076 445.559 353.154 445.988 353.154 446.488C353.154 447.098 353.014 447.629 352.732 448.082C352.451 448.535 352.076 448.91 351.607 449.207C351.139 449.504 350.596 449.723 349.979 449.863C349.369 450.012 348.725 450.086 348.045 450.086C346.732 450.086 345.596 449.867 344.635 449.43ZM357.115 435.285C356.67 435.285 356.287 435.141 355.967 434.852C355.654 434.562 355.498 434.195 355.498 433.75C355.498 433.305 355.654 432.934 355.967 432.637C356.287 432.34 356.67 432.191 357.115 432.191C357.576 432.191 357.967 432.34 358.287 432.637C358.607 432.934 358.768 433.305 358.768 433.75C358.768 434.172 358.607 434.535 358.287 434.84C357.967 435.137 357.576 435.285 357.115 435.285ZM358.463 449.805H355.744V437.805H358.463V449.805ZM361.275 449.43V446.91C362.291 447.684 363.412 448.07 364.639 448.07C366.279 448.07 367.1 447.586 367.1 446.617C367.1 446.344 367.029 446.113 366.889 445.926C366.748 445.73 366.557 445.559 366.314 445.41C366.08 445.262 365.799 445.129 365.471 445.012C365.15 444.895 364.791 444.762 364.393 444.613C363.9 444.418 363.455 444.211 363.057 443.992C362.666 443.773 362.338 443.527 362.072 443.254C361.814 442.973 361.619 442.656 361.486 442.305C361.354 441.953 361.287 441.543 361.287 441.074C361.287 440.496 361.424 439.988 361.697 439.551C361.971 439.105 362.338 438.734 362.799 438.438C363.26 438.133 363.783 437.906 364.369 437.758C364.955 437.602 365.561 437.523 366.186 437.523C367.295 437.523 368.287 437.691 369.162 438.027V440.406C368.318 439.828 367.35 439.539 366.256 439.539C365.912 439.539 365.6 439.574 365.318 439.645C365.045 439.715 364.811 439.812 364.615 439.938C364.42 440.062 364.268 440.215 364.158 440.395C364.049 440.566 363.994 440.758 363.994 440.969C363.994 441.227 364.049 441.445 364.158 441.625C364.268 441.805 364.428 441.965 364.639 442.105C364.857 442.238 365.115 442.363 365.412 442.48C365.717 442.59 366.064 442.711 366.455 442.844C366.971 443.055 367.432 443.27 367.838 443.488C368.252 443.707 368.604 443.957 368.893 444.238C369.182 444.512 369.404 444.832 369.561 445.199C369.717 445.559 369.795 445.988 369.795 446.488C369.795 447.098 369.654 447.629 369.373 448.082C369.092 448.535 368.717 448.91 368.248 449.207C367.779 449.504 367.236 449.723 366.619 449.863C366.01 450.012 365.365 450.086 364.686 450.086C363.373 450.086 362.236 449.867 361.275 449.43ZM378.713 449.676C378.182 449.941 377.482 450.074 376.615 450.074C374.287 450.074 373.123 448.957 373.123 446.723V439.938H371.119V437.805H373.123V435.027L375.842 434.254V437.805H378.713V439.938H375.842V445.938C375.842 446.648 375.971 447.156 376.229 447.461C376.486 447.766 376.916 447.918 377.518 447.918C377.979 447.918 378.377 447.785 378.713 447.52V449.676ZM391.076 444.543H382.896C382.928 445.652 383.268 446.508 383.916 447.109C384.572 447.711 385.471 448.012 386.611 448.012C387.893 448.012 389.068 447.629 390.139 446.863V449.055C389.045 449.742 387.6 450.086 385.803 450.086C384.037 450.086 382.65 449.543 381.643 448.457C380.643 447.363 380.143 445.828 380.143 443.852C380.143 441.984 380.693 440.465 381.795 439.293C382.904 438.113 384.279 437.523 385.92 437.523C387.561 437.523 388.83 438.051 389.729 439.105C390.627 440.16 391.076 441.625 391.076 443.5V444.543ZM388.451 442.621C388.443 441.645 388.213 440.887 387.76 440.348C387.307 439.801 386.682 439.527 385.885 439.527C385.104 439.527 384.439 439.812 383.893 440.383C383.354 440.953 383.021 441.699 382.896 442.621H388.451ZM404.354 449.805H401.635V443.043C401.635 440.801 400.842 439.68 399.256 439.68C398.428 439.68 397.744 439.992 397.205 440.617C396.666 441.234 396.396 442.016 396.396 442.961V449.805H393.666V437.805H396.396V439.797H396.443C397.342 438.281 398.639 437.523 400.334 437.523C401.639 437.523 402.635 437.949 403.322 438.801C404.01 439.645 404.354 440.867 404.354 442.469V449.805ZM414.01 449.676C413.479 449.941 412.779 450.074 411.912 450.074C409.584 450.074 408.42 448.957 408.42 446.723V439.938H406.416V437.805H408.42V435.027L411.139 434.254V437.805H414.01V439.938H411.139V445.938C411.139 446.648 411.268 447.156 411.525 447.461C411.783 447.766 412.213 447.918 412.814 447.918C413.275 447.918 413.674 447.785 414.01 447.52V449.676ZM193.779 488.035H193.732V495.324H191.014V477.805H193.732V479.914H193.779C194.709 478.32 196.068 477.523 197.857 477.523C199.381 477.523 200.568 478.059 201.42 479.129C202.271 480.199 202.697 481.637 202.697 483.441C202.697 485.441 202.217 487.043 201.256 488.246C200.295 489.449 198.982 490.051 197.318 490.051C195.787 490.051 194.607 489.379 193.779 488.035ZM193.709 483.301V484.789C193.709 485.664 193.986 486.406 194.541 487.016C195.104 487.625 195.814 487.93 196.674 487.93C197.682 487.93 198.471 487.539 199.041 486.758C199.619 485.969 199.908 484.871 199.908 483.465C199.908 482.285 199.639 481.363 199.1 480.699C198.568 480.027 197.846 479.691 196.932 479.691C195.963 479.691 195.182 480.035 194.588 480.723C194.002 481.41 193.709 482.27 193.709 483.301ZM214.404 489.805H211.768V487.93H211.721C210.893 489.367 209.678 490.086 208.076 490.086C206.896 490.086 205.971 489.766 205.299 489.125C204.635 488.484 204.303 487.637 204.303 486.582C204.303 484.316 205.607 482.996 208.217 482.621L211.779 482.117C211.779 480.406 210.967 479.551 209.342 479.551C207.912 479.551 206.623 480.043 205.475 481.027V478.648C206.74 477.898 208.201 477.523 209.857 477.523C212.889 477.523 214.404 479.016 214.404 482V489.805ZM211.779 483.91L209.26 484.262C208.479 484.363 207.889 484.555 207.49 484.836C207.1 485.109 206.904 485.594 206.904 486.289C206.904 486.797 207.084 487.215 207.443 487.543C207.811 487.863 208.299 488.023 208.908 488.023C209.736 488.023 210.42 487.734 210.959 487.156C211.506 486.57 211.779 485.836 211.779 484.953V483.91ZM224.693 480.395C224.365 480.137 223.893 480.008 223.275 480.008C222.471 480.008 221.799 480.371 221.26 481.098C220.721 481.824 220.451 482.812 220.451 484.062V489.805H217.732V477.805H220.451V480.277H220.498C220.764 479.434 221.17 478.777 221.717 478.309C222.271 477.832 222.889 477.594 223.568 477.594C224.061 477.594 224.436 477.668 224.693 477.816V480.395ZM233.646 489.676C233.115 489.941 232.416 490.074 231.549 490.074C229.221 490.074 228.057 488.957 228.057 486.723V479.938H226.053V477.805H228.057V475.027L230.775 474.254V477.805H233.646V479.938H230.775V485.938C230.775 486.648 230.904 487.156 231.162 487.461C231.42 487.766 231.85 487.918 232.451 487.918C232.912 487.918 233.311 487.785 233.646 487.52V489.676ZM237.361 475.285C236.916 475.285 236.533 475.141 236.213 474.852C235.9 474.562 235.744 474.195 235.744 473.75C235.744 473.305 235.9 472.934 236.213 472.637C236.533 472.34 236.916 472.191 237.361 472.191C237.822 472.191 238.213 472.34 238.533 472.637C238.854 472.934 239.014 473.305 239.014 473.75C239.014 474.172 238.854 474.535 238.533 474.84C238.213 475.137 237.822 475.285 237.361 475.285ZM238.709 489.805H235.99V477.805H238.709V489.805ZM250.861 489.254C249.9 489.809 248.764 490.086 247.451 490.086C245.67 490.086 244.232 489.531 243.139 488.422C242.045 487.305 241.498 485.859 241.498 484.086C241.498 482.109 242.084 480.523 243.256 479.328C244.436 478.125 246.01 477.523 247.979 477.523C249.072 477.523 250.037 477.715 250.873 478.098V480.629C250.037 480.004 249.146 479.691 248.201 479.691C247.053 479.691 246.111 480.082 245.377 480.863C244.643 481.637 244.275 482.652 244.275 483.91C244.275 485.152 244.619 486.133 245.307 486.852C246.002 487.57 246.932 487.93 248.096 487.93C249.072 487.93 249.994 487.582 250.861 486.887V489.254ZM254.939 475.285C254.494 475.285 254.111 475.141 253.791 474.852C253.479 474.562 253.322 474.195 253.322 473.75C253.322 473.305 253.479 472.934 253.791 472.637C254.111 472.34 254.494 472.191 254.939 472.191C255.4 472.191 255.791 472.34 256.111 472.637C256.432 472.934 256.592 473.305 256.592 473.75C256.592 474.172 256.432 474.535 256.111 474.84C255.791 475.137 255.4 475.285 254.939 475.285ZM256.287 489.805H253.568V477.805H256.287V489.805ZM262.615 488.035H262.568V495.324H259.85V477.805H262.568V479.914H262.615C263.545 478.32 264.904 477.523 266.693 477.523C268.217 477.523 269.404 478.059 270.256 479.129C271.107 480.199 271.533 481.637 271.533 483.441C271.533 485.441 271.053 487.043 270.092 488.246C269.131 489.449 267.818 490.051 266.154 490.051C264.623 490.051 263.443 489.379 262.615 488.035ZM262.545 483.301V484.789C262.545 485.664 262.822 486.406 263.377 487.016C263.939 487.625 264.65 487.93 265.51 487.93C266.518 487.93 267.307 487.539 267.877 486.758C268.455 485.969 268.744 484.871 268.744 483.465C268.744 482.285 268.475 481.363 267.936 480.699C267.404 480.027 266.682 479.691 265.768 479.691C264.799 479.691 264.018 480.035 263.424 480.723C262.838 481.41 262.545 482.27 262.545 483.301ZM283.24 489.805H280.604V487.93H280.557C279.729 489.367 278.514 490.086 276.912 490.086C275.732 490.086 274.807 489.766 274.135 489.125C273.471 488.484 273.139 487.637 273.139 486.582C273.139 484.316 274.443 482.996 277.053 482.621L280.615 482.117C280.615 480.406 279.803 479.551 278.178 479.551C276.748 479.551 275.459 480.043 274.311 481.027V478.648C275.576 477.898 277.037 477.523 278.693 477.523C281.725 477.523 283.24 479.016 283.24 482V489.805ZM280.615 483.91L278.096 484.262C277.314 484.363 276.725 484.555 276.326 484.836C275.936 485.109 275.74 485.594 275.74 486.289C275.74 486.797 275.92 487.215 276.279 487.543C276.646 487.863 277.135 488.023 277.744 488.023C278.572 488.023 279.256 487.734 279.795 487.156C280.342 486.57 280.615 485.836 280.615 484.953V483.91ZM292.896 489.676C292.365 489.941 291.666 490.074 290.799 490.074C288.471 490.074 287.307 488.957 287.307 486.723V479.938H285.303V477.805H287.307V475.027L290.025 474.254V477.805H292.896V479.938H290.025V485.938C290.025 486.648 290.154 487.156 290.412 487.461C290.67 487.766 291.1 487.918 291.701 487.918C292.162 487.918 292.561 487.785 292.896 487.52V489.676ZM296.611 475.285C296.166 475.285 295.783 475.141 295.463 474.852C295.15 474.562 294.994 474.195 294.994 473.75C294.994 473.305 295.15 472.934 295.463 472.637C295.783 472.34 296.166 472.191 296.611 472.191C297.072 472.191 297.463 472.34 297.783 472.637C298.104 472.934 298.264 473.305 298.264 473.75C298.264 474.172 298.104 474.535 297.783 474.84C297.463 475.137 297.072 475.285 296.611 475.285ZM297.959 489.805H295.24V477.805H297.959V489.805ZM306.842 490.086C304.99 490.086 303.51 489.527 302.4 488.41C301.299 487.285 300.748 485.797 300.748 483.945C300.748 481.93 301.322 480.355 302.471 479.223C303.627 478.09 305.182 477.523 307.135 477.523C309.01 477.523 310.471 478.074 311.518 479.176C312.564 480.277 313.088 481.805 313.088 483.758C313.088 485.672 312.521 487.207 311.389 488.363C310.264 489.512 308.748 490.086 306.842 490.086ZM306.971 479.691C305.908 479.691 305.068 480.062 304.451 480.805C303.834 481.547 303.525 482.57 303.525 483.875C303.525 485.133 303.838 486.125 304.463 486.852C305.088 487.57 305.924 487.93 306.971 487.93C308.041 487.93 308.861 487.574 309.432 486.863C310.01 486.152 310.299 485.141 310.299 483.828C310.299 482.508 310.01 481.488 309.432 480.77C308.861 480.051 308.041 479.691 306.971 479.691ZM326.553 489.805H323.834V483.043C323.834 480.801 323.041 479.68 321.455 479.68C320.627 479.68 319.943 479.992 319.404 480.617C318.865 481.234 318.596 482.016 318.596 482.961V489.805H315.865V477.805H318.596V479.797H318.643C319.541 478.281 320.838 477.523 322.533 477.523C323.838 477.523 324.834 477.949 325.521 478.801C326.209 479.645 326.553 480.867 326.553 482.469V489.805Z" fill="white"/>
<path d="M300.487 97.1622V160.562C300.483 160.875 300.41 161.183 300.275 161.465C300.139 161.747 299.944 161.996 299.702 162.194C299.169 162.637 298.496 162.877 297.802 162.87H219.568C218.905 162.918 218.25 162.703 217.744 162.271C217.239 161.839 216.924 161.225 216.868 160.562V97.1622C216.924 96.4997 217.239 95.8858 217.744 95.4538C218.25 95.0218 218.905 94.8063 219.568 94.8542H297.799C298.493 94.8475 299.166 95.087 299.699 95.5302C299.941 95.7288 300.136 95.9777 300.272 96.2596C300.407 96.5414 300.48 96.8495 300.484 97.1622H300.487Z" stroke="#65E6C4" stroke-width="3"/>
<path d="M300.487 96.7925V109.449H216.873V96.7925C216.873 95.7245 218.082 94.8555 219.573 94.8555H297.804C299.287 94.8555 300.487 95.7245 300.487 96.7925Z" stroke="#65E6C4" stroke-width="2"/>
<path d="M232.229 91.7197V97.9877C232.291 98.7972 232.669 99.5498 233.282 100.082C233.895 100.614 234.693 100.883 235.503 100.83C236.314 100.884 237.112 100.615 237.726 100.083C238.339 99.5506 238.717 98.7975 238.777 97.9877V91.7197C238.716 90.9102 238.338 90.1576 237.725 89.6254C237.112 89.0932 236.314 88.8245 235.503 88.8777C234.694 88.8253 233.896 89.0943 233.283 89.6263C232.67 90.1584 232.291 90.9105 232.229 91.7197Z" fill="#65E6C4"/>
<path d="M278.578 91.7197V97.9877C278.641 98.7975 279.02 99.5499 279.633 100.082C280.247 100.614 281.046 100.883 281.856 100.83C282.666 100.884 283.465 100.615 284.078 100.083C284.692 99.5506 285.07 98.7975 285.13 97.9877V91.7197C285.069 90.9102 284.691 90.1576 284.078 89.6254C283.465 89.0932 282.666 88.8245 281.856 88.8777C281.046 88.8248 280.247 89.0935 279.633 89.6255C279.02 90.1575 278.641 90.91 278.578 91.7197Z" fill="#65E6C4"/>
<path d="M236.681 119.668H229.681C229.128 119.668 228.681 120.116 228.681 120.668V127.668C228.681 128.22 229.128 128.668 229.681 128.668H236.681C237.233 128.668 237.681 128.22 237.681 127.668V120.668C237.681 120.116 237.233 119.668 236.681 119.668Z" fill="#65E6C4"/>
<path d="M236.681 138.668H229.681C229.128 138.668 228.681 139.116 228.681 139.668V146.668C228.681 147.22 229.128 147.668 229.681 147.668H236.681C237.233 147.668 237.681 147.22 237.681 146.668V139.668C237.681 139.116 237.233 138.668 236.681 138.668Z" fill="#65E6C4"/>
<path d="M262.681 119.668H255.681C255.128 119.668 254.681 120.116 254.681 120.668V127.668C254.681 128.22 255.128 128.668 255.681 128.668H262.681C263.233 128.668 263.681 128.22 263.681 127.668V120.668C263.681 120.116 263.233 119.668 262.681 119.668Z" fill="#65E6C4"/>
<path d="M262.681 138.668H255.681C255.128 138.668 254.681 139.116 254.681 139.668V146.668C254.681 147.22 255.128 147.668 255.681 147.668H262.681C263.233 147.668 263.681 147.22 263.681 146.668V139.668C263.681 139.116 263.233 138.668 262.681 138.668Z" fill="#65E6C4"/>
<path d="M288.681 119.668H281.681C281.128 119.668 280.681 120.116 280.681 120.668V127.668C280.681 128.22 281.128 128.668 281.681 128.668H288.681C289.233 128.668 289.681 128.22 289.681 127.668V120.668C289.681 120.116 289.233 119.668 288.681 119.668Z" fill="#65E6C4"/>
<path d="M288.681 138.668H281.681C281.128 138.668 280.681 139.116 280.681 139.668V146.668C280.681 147.22 281.128 147.668 281.681 147.668H288.681C289.233 147.668 289.681 147.22 289.681 146.668V139.668C289.681 139.116 289.233 138.668 288.681 138.668Z" fill="#65E6C4"/>
<path d="M302.933 97.1622V160.562C302.928 160.875 302.856 161.183 302.72 161.465C302.585 161.747 302.389 161.996 302.148 162.194C301.614 162.637 300.941 162.877 300.248 162.87H222.014C221.351 162.918 220.695 162.703 220.19 162.271C219.684 161.839 219.37 161.225 219.314 160.562V97.1622C219.37 96.4997 219.684 95.8858 220.19 95.4538C220.695 95.0218 221.351 94.8063 222.014 94.8542H300.245C300.938 94.8475 301.611 95.087 302.145 95.5302C302.386 95.7288 302.582 95.9777 302.717 96.2596C302.853 96.5414 302.925 96.8495 302.93 97.1622H302.933Z" stroke="white" stroke-width="3"/>
<path d="M302.933 96.7925V109.449H219.319V96.7925C219.319 95.7245 220.528 94.8555 222.019 94.8555H300.25C301.733 94.8555 302.933 95.7245 302.933 96.7925Z" stroke="white" stroke-width="2"/>
<path d="M234.675 91.7197V97.9877C234.736 98.7972 235.115 99.5498 235.728 100.082C236.341 100.614 237.139 100.883 237.949 100.83C238.759 100.884 239.558 100.615 240.171 100.083C240.785 99.5506 241.163 98.7975 241.223 97.9877V91.7197C241.162 90.9102 240.784 90.1576 240.171 89.6254C239.557 89.0932 238.759 88.8245 237.949 88.8777C237.139 88.8253 236.341 89.0943 235.728 89.6263C235.115 90.1584 234.737 90.9105 234.675 91.7197Z" fill="white"/>
<path d="M281.024 91.7197V97.9877C281.086 98.7975 281.465 99.5499 282.079 100.082C282.693 100.614 283.491 100.883 284.302 100.83C285.112 100.884 285.911 100.615 286.524 100.083C287.137 99.5506 287.515 98.7975 287.576 97.9877V91.7197C287.514 90.9102 287.136 90.1576 286.523 89.6254C285.91 89.0932 285.112 88.8245 284.302 88.8777C283.491 88.8248 282.693 89.0935 282.079 89.6255C281.465 90.1575 281.086 90.91 281.024 91.7197Z" fill="white"/>
<path d="M239.126 119.668H232.126C231.574 119.668 231.126 120.116 231.126 120.668V127.668C231.126 128.22 231.574 128.668 232.126 128.668H239.126C239.679 128.668 240.126 128.22 240.126 127.668V120.668C240.126 120.116 239.679 119.668 239.126 119.668Z" fill="white"/>
<path d="M239.126 138.668H232.126C231.574 138.668 231.126 139.116 231.126 139.668V146.668C231.126 147.22 231.574 147.668 232.126 147.668H239.126C239.679 147.668 240.126 147.22 240.126 146.668V139.668C240.126 139.116 239.679 138.668 239.126 138.668Z" fill="white"/>
<path d="M265.126 119.668H258.126C257.574 119.668 257.126 120.116 257.126 120.668V127.668C257.126 128.22 257.574 128.668 258.126 128.668H265.126C265.679 128.668 266.126 128.22 266.126 127.668V120.668C266.126 120.116 265.679 119.668 265.126 119.668Z" fill="white"/>
<path d="M265.126 138.668H258.126C257.574 138.668 257.126 139.116 257.126 139.668V146.668C257.126 147.22 257.574 147.668 258.126 147.668H265.126C265.679 147.668 266.126 147.22 266.126 146.668V139.668C266.126 139.116 265.679 138.668 265.126 138.668Z" fill="white"/>
<path d="M291.126 119.668H284.126C283.574 119.668 283.126 120.116 283.126 120.668V127.668C283.126 128.22 283.574 128.668 284.126 128.668H291.126C291.679 128.668 292.126 128.22 292.126 127.668V120.668C292.126 120.116 291.679 119.668 291.126 119.668Z" fill="white"/>
<path d="M291.126 138.668H284.126C283.574 138.668 283.126 139.116 283.126 139.668V146.668C283.126 147.22 283.574 147.668 284.126 147.668H291.126C291.679 147.668 292.126 147.22 292.126 146.668V139.668C292.126 139.116 291.679 138.668 291.126 138.668Z" fill="white"/>
</g>
<defs>
<clipPath id="clip0_4_460">
<rect width="517.556" height="577.096" fill="white" transform="translate(0.0673828 0.548828)"/>
</clipPath>
</defs>
</svg>
