<svg xmlns="http://www.w3.org/2000/svg" width="517.556" height="577.096" viewBox="0 0 517.556 577.096">
  <g id="Group_4244" data-name="Group 4244" transform="translate(3538.5 -1436.482)">
    <path id="Path_4258" data-name="Path 4258" d="M8204,3961.038l50.9-43.928,24.233,16.964,83.213-75.942" transform="translate(-11551.063 -2336.118)" fill="none" stroke="#65e6c4" stroke-linecap="round" stroke-linejoin="round" stroke-width="6"/>
    <path id="Path_4259" data-name="Path 4259" d="M8394.134,3834.133h29.082v25.448" transform="translate(-11603.6 -2319.037)" fill="none" stroke="#65e6c4" stroke-linecap="round" stroke-width="6"/>
    <path id="Path_4260" data-name="Path 4260" d="M8204,3961.038l50.9-43.928,24.233,16.964,83.213-75.942" transform="translate(-11551.063 -2346.722)" fill="none" stroke="#f6f6fd" stroke-linecap="round" stroke-linejoin="round" stroke-width="6"/>
    <path id="Path_4261" data-name="Path 4261" d="M8394.134,3834.133h29.082v25.448" transform="translate(-11603.6 -2331.76)" fill="none" stroke="#f6f6fd" stroke-linecap="round" stroke-width="6"/>
    <text id="_150_" data-name="150+" transform="translate(-3263.722 1803.919)" fill="#f6f6fd" font-size="170" font-family="Poppins-Bold, Poppins" font-weight="700"><tspan x="-196.01" y="0">150+</tspan></text>
    <text id="Supported_in_program_and_still_growing" data-name="Supported in program 
and still growing" transform="translate(-3267.968 1925)" fill="#f6f6fd" font-size="26" font-family="HKGrotesk-Medium, HK Grotesk" font-weight="500"><tspan x="-132.093" y="0">Supported in program </tspan><tspan x="-95.238" y="40">and still growing</tspan></text>
    <text id="Students" transform="translate(-3267.888 1887)" fill="#f6f6fd" font-size="40" font-family="HKGrotesk-ExtraBold, HK Grotesk" font-weight="800"><tspan x="-79.66" y="0">Students</tspan></text>
    <g id="Group_4192" data-name="Group 4192" transform="translate(4489.156 -9896.559)">
      <path id="Path_4219" data-name="Path 4219" d="M-8066.4,11609.2v88.34h73.323" transform="translate(41.243 210.094)" fill="none" stroke="#f6f6fd" stroke-linecap="round" stroke-linejoin="round" stroke-width="5"/>
      <path id="Path_4221" data-name="Path 4221" d="M0,88.341V0H73.323" transform="translate(-8025.156 11335.541)" fill="none" stroke="#f6f6fd" stroke-linecap="round" stroke-linejoin="round" stroke-width="5"/>
      <path id="Path_4220" data-name="Path 4220" d="M-7993.076,11697.54v-88.34H-8066.4" transform="translate(480.476 -273.659)" fill="none" stroke="#f6f6fd" stroke-linecap="round" stroke-linejoin="round" stroke-width="5"/>
      <path id="Path_4222" data-name="Path 4222" d="M73.323,0V88.341H0" transform="translate(-7585.923 11819.296)" fill="none" stroke="#f6f6fd" stroke-linecap="round" stroke-linejoin="round" stroke-width="5"/>
    </g>
  </g>
</svg>
