<svg width="519" height="578" viewBox="0 0 519 578" fill="none" xmlns="http://www.w3.org/2000/svg">
<g clip-path="url(#clip0_8_722)">
<path d="M3.06641 486.801V575.141H76.3892" stroke="#0D0A3A" stroke-width="5" stroke-linecap="round" stroke-linejoin="round"/>
<path d="M3.06738 91.3879V3.04688H76.3904" stroke="#0D0A3A" stroke-width="5" stroke-linecap="round" stroke-linejoin="round"/>
<path d="M515.623 91.3867V3.04688H442.299" stroke="#0D0A3A" stroke-width="5" stroke-linecap="round" stroke-linejoin="round"/>
<path d="M515.624 486.801V575.142H442.301" stroke="#0D0A3A" stroke-width="5" stroke-linecap="round" stroke-linejoin="round"/>
<path d="M241.01 157.486C238.946 157.486 236.966 158.306 235.506 159.766C234.046 161.226 233.226 163.206 233.226 165.27C233.226 167.335 234.046 169.314 235.506 170.774C236.966 172.234 238.946 173.054 241.01 173.054C244.892 173.045 248.737 173.803 252.325 175.285C255.912 176.766 259.172 178.941 261.917 181.686C264.662 184.431 266.837 187.691 268.319 191.279C269.8 194.866 270.558 198.712 270.549 202.593C270.549 203.615 270.75 204.628 271.142 205.572C271.533 206.516 272.106 207.374 272.829 208.097C273.552 208.82 274.41 209.393 275.354 209.785C276.299 210.176 277.311 210.377 278.333 210.377C279.355 210.377 280.367 210.176 281.312 209.785C282.256 209.393 283.114 208.82 283.837 208.097C284.56 207.374 285.133 206.516 285.525 205.572C285.916 204.628 286.117 203.615 286.117 202.593C286.096 190.636 281.337 179.176 272.882 170.721C264.428 162.266 252.967 157.507 241.01 157.486Z" fill="#D3D2DF"/>
<path d="M241.01 92.6201C238.946 92.6201 236.966 93.4402 235.506 94.9C234.046 96.3598 233.226 98.3397 233.226 100.404C233.226 102.469 234.046 104.448 235.506 105.908C236.966 107.368 238.946 108.188 241.01 108.188C266.041 108.205 290.043 118.156 307.743 135.856C325.442 153.555 335.393 177.557 335.41 202.588C335.41 203.61 335.611 204.623 336.003 205.567C336.394 206.511 336.967 207.369 337.69 208.092C338.413 208.815 339.271 209.388 340.215 209.78C341.16 210.171 342.172 210.372 343.194 210.372C344.216 210.372 345.228 210.171 346.173 209.78C347.117 209.388 347.975 208.815 348.698 208.092C349.421 207.369 349.994 206.511 350.386 205.567C350.777 204.623 350.978 203.61 350.978 202.588C350.956 173.43 339.363 145.472 318.745 124.853C298.127 104.235 270.169 92.6421 241.01 92.6201Z" fill="#D3D2DF"/>
<path d="M241.01 125.153C239.988 125.153 238.976 125.354 238.031 125.746C237.087 126.137 236.229 126.71 235.506 127.433C234.783 128.156 234.21 129.014 233.819 129.958C233.427 130.903 233.226 131.915 233.226 132.937C233.226 133.959 233.427 134.972 233.819 135.916C234.21 136.86 234.783 137.718 235.506 138.441C236.229 139.164 237.087 139.737 238.031 140.129C238.976 140.52 239.988 140.721 241.01 140.721C257.436 140.729 273.189 147.243 284.822 158.839C296.455 170.435 303.021 186.168 303.081 202.593C303.081 204.658 303.901 206.637 305.361 208.097C306.821 209.557 308.801 210.377 310.865 210.377C312.93 210.377 314.909 209.557 316.369 208.097C317.829 206.637 318.649 204.658 318.649 202.593C318.649 159.881 283.726 125.153 241.01 125.153Z" fill="#D3D2DF"/>
<path d="M241.009 190.018C238.522 190.018 236.091 190.756 234.023 192.137C231.956 193.519 230.344 195.483 229.392 197.78C228.441 200.078 228.191 202.606 228.677 205.045C229.162 207.484 230.359 209.725 232.118 211.483C233.876 213.242 236.117 214.439 238.556 214.925C240.995 215.41 243.523 215.161 245.821 214.209C248.119 213.257 250.082 211.646 251.464 209.578C252.846 207.51 253.583 205.079 253.583 202.592C253.59 200.939 253.269 199.301 252.64 197.772C252.01 196.243 251.085 194.855 249.916 193.686C248.747 192.517 247.358 191.591 245.829 190.961C244.3 190.332 242.662 190.011 241.009 190.018Z" fill="#D3D2DF"/>
<path d="M233.952 154.303C231.888 154.303 229.908 155.124 228.448 156.583C226.989 158.043 226.168 160.023 226.168 162.088C226.168 164.152 226.989 166.132 228.448 167.592C229.908 169.051 231.888 169.871 233.952 169.871C237.834 169.863 241.679 170.621 245.267 172.102C248.855 173.583 252.115 175.759 254.859 178.504C257.604 181.248 259.78 184.508 261.261 188.096C262.742 191.684 263.5 195.529 263.491 199.41C263.491 200.433 263.693 201.445 264.084 202.389C264.475 203.334 265.049 204.192 265.771 204.915C266.494 205.637 267.352 206.211 268.297 206.602C269.241 206.993 270.253 207.194 271.275 207.194C272.298 207.194 273.31 206.993 274.254 206.602C275.199 206.211 276.057 205.637 276.78 204.915C277.502 204.192 278.076 203.334 278.467 202.389C278.858 201.445 279.059 200.433 279.059 199.41C279.038 187.454 274.279 175.993 265.825 167.538C257.37 159.084 245.909 154.325 233.952 154.303Z" fill="#0D0A3A"/>
<path d="M233.952 89.4375C231.888 89.4375 229.908 90.2576 228.448 91.7174C226.989 93.1772 226.168 95.1571 226.168 97.2215C226.168 99.2859 226.989 101.266 228.448 102.726C229.908 104.185 231.888 105.005 233.952 105.005C258.984 105.022 282.985 114.973 300.685 132.673C318.385 150.373 328.336 174.374 328.352 199.405C328.352 200.428 328.554 201.44 328.945 202.384C329.336 203.329 329.91 204.187 330.632 204.91C331.355 205.632 332.213 206.206 333.158 206.597C334.102 206.988 335.114 207.19 336.136 207.19C337.159 207.19 338.171 206.988 339.115 206.597C340.06 206.206 340.918 205.632 341.641 204.91C342.363 204.187 342.937 203.329 343.328 202.384C343.719 201.44 343.92 200.428 343.92 199.405C343.898 170.247 332.306 142.289 311.687 121.671C291.069 101.052 263.111 89.4595 233.952 89.4375Z" fill="#0D0A3A"/>
<path d="M233.952 121.971C232.93 121.971 231.918 122.172 230.974 122.563C230.029 122.954 229.171 123.528 228.448 124.25C227.726 124.973 227.152 125.831 226.761 126.776C226.37 127.72 226.168 128.732 226.168 129.755C226.168 130.777 226.37 131.789 226.761 132.733C227.152 133.678 227.726 134.536 228.448 135.259C229.171 135.981 230.029 136.555 230.974 136.946C231.918 137.337 232.93 137.539 233.952 137.539C250.378 137.546 266.131 144.061 277.765 155.657C289.398 167.253 295.963 182.985 296.023 199.41C296.023 201.475 296.844 203.455 298.303 204.915C299.763 206.374 301.743 207.194 303.807 207.194C305.872 207.194 307.852 206.374 309.312 204.915C310.771 203.455 311.591 201.475 311.591 199.41C311.591 156.698 276.668 121.971 233.952 121.971Z" fill="#0D0A3A"/>
<path d="M233.951 186.835C231.465 186.835 229.033 187.573 226.966 188.955C224.898 190.336 223.286 192.3 222.335 194.598C221.383 196.895 221.134 199.423 221.619 201.863C222.104 204.302 223.302 206.542 225.06 208.301C226.819 210.059 229.059 211.257 231.498 211.742C233.937 212.227 236.466 211.978 238.763 211.026C241.061 210.075 243.025 208.463 244.406 206.395C245.788 204.327 246.525 201.896 246.525 199.409C246.532 197.756 246.212 196.118 245.582 194.59C244.953 193.061 244.027 191.672 242.858 190.503C241.689 189.334 240.3 188.408 238.771 187.779C237.243 187.149 235.605 186.829 233.951 186.835Z" fill="#0D0A3A"/>
<path d="M91.2417 290.794V269.806H127.806V366.166H104.31V290.794H91.2417ZM159.087 314.422C150.815 310.022 146.679 303.114 146.679 293.698C146.679 288.946 147.911 284.634 150.375 280.762C152.839 276.802 156.579 273.678 161.595 271.39C166.611 269.014 172.771 267.826 180.075 267.826C187.379 267.826 193.495 269.014 198.423 271.39C203.439 273.678 207.179 276.802 209.643 280.762C212.107 284.634 213.339 288.946 213.339 293.698C213.339 298.45 212.195 302.586 209.907 306.106C207.707 309.626 204.715 312.398 200.931 314.422C205.683 316.71 209.335 319.878 211.887 323.926C214.439 327.886 215.715 332.55 215.715 337.918C215.715 344.166 214.131 349.578 210.963 354.154C207.795 358.642 203.483 362.074 198.027 364.45C192.659 366.826 186.675 368.014 180.075 368.014C173.475 368.014 167.447 366.826 161.991 364.45C156.623 362.074 152.355 358.642 149.187 354.154C146.019 349.578 144.435 344.166 144.435 337.918C144.435 332.462 145.711 327.754 148.263 323.794C150.815 319.746 154.423 316.622 159.087 314.422ZM191.427 297.13C191.427 293.522 190.371 290.75 188.259 288.814C186.235 286.79 183.507 285.778 180.075 285.778C176.643 285.778 173.871 286.79 171.759 288.814C169.735 290.838 168.723 293.654 168.723 297.262C168.723 300.694 169.779 303.422 171.891 305.446C174.003 307.382 176.731 308.35 180.075 308.35C183.419 308.35 186.147 307.338 188.259 305.314C190.371 303.29 191.427 300.562 191.427 297.13ZM180.075 324.19C175.939 324.19 172.595 325.334 170.043 327.622C167.491 329.822 166.215 332.902 166.215 336.862C166.215 340.558 167.447 343.594 169.911 345.97C172.463 348.346 175.851 349.534 180.075 349.534C184.299 349.534 187.599 348.346 189.975 345.97C192.439 343.594 193.671 340.558 193.671 336.862C193.671 332.99 192.395 329.91 189.843 327.622C187.379 325.334 184.123 324.19 180.075 324.19ZM228.84 316.666C228.84 301.53 231.744 289.606 237.552 280.894C243.448 272.182 252.908 267.826 265.932 267.826C278.956 267.826 288.372 272.182 294.18 280.894C300.076 289.606 303.024 301.53 303.024 316.666C303.024 331.978 300.076 343.99 294.18 352.702C288.372 361.414 278.956 365.77 265.932 365.77C252.908 365.77 243.448 361.414 237.552 352.702C231.744 343.99 228.84 331.978 228.84 316.666ZM280.848 316.666C280.848 307.778 279.88 300.958 277.944 296.206C276.008 291.366 272.004 288.946 265.932 288.946C259.86 288.946 255.856 291.366 253.92 296.206C251.984 300.958 251.016 307.778 251.016 316.666C251.016 322.65 251.368 327.622 252.072 331.582C252.776 335.454 254.184 338.622 256.296 341.086C258.496 343.462 261.708 344.65 265.932 344.65C270.156 344.65 273.324 343.462 275.436 341.086C277.636 338.622 279.088 335.454 279.792 331.582C280.496 327.622 280.848 322.65 280.848 316.666ZM370.918 366.166L339.766 325.246V366.166H317.194V273.502H339.766V314.158L370.654 273.502H397.186L361.282 318.91L398.506 366.166H370.918ZM476.157 330.13H453.189V353.626H431.805V330.13H408.837V309.934H431.805V286.306H453.189V309.934H476.157V330.13Z" fill="#0D0A3A"/>
<path d="M215.846 449.053V444.268C216.275 444.658 216.783 445.01 217.369 445.322C217.968 445.635 218.6 445.902 219.264 446.123C219.928 446.332 220.592 446.494 221.256 446.611C221.92 446.729 222.532 446.787 223.092 446.787C225.045 446.787 226.497 446.462 227.447 445.811C228.411 445.16 228.893 444.216 228.893 442.979C228.893 442.315 228.73 441.742 228.404 441.26C228.092 440.765 227.649 440.316 227.076 439.912C226.503 439.509 225.826 439.124 225.045 438.76C224.277 438.382 223.45 437.992 222.564 437.588C221.614 437.08 220.729 436.566 219.908 436.045C219.088 435.524 218.372 434.951 217.76 434.326C217.161 433.688 216.686 432.972 216.334 432.178C215.995 431.384 215.826 430.453 215.826 429.385C215.826 428.07 216.119 426.93 216.705 425.967C217.304 424.99 218.085 424.19 219.049 423.565C220.025 422.927 221.132 422.458 222.369 422.158C223.606 421.846 224.869 421.69 226.158 421.69C229.088 421.69 231.223 422.022 232.564 422.686V427.276C230.976 426.13 228.932 425.557 226.432 425.557C225.742 425.557 225.051 425.622 224.361 425.752C223.684 425.882 223.072 426.097 222.525 426.397C221.992 426.696 221.555 427.08 221.217 427.549C220.878 428.018 220.709 428.584 220.709 429.248C220.709 429.873 220.839 430.414 221.1 430.869C221.36 431.325 221.738 431.742 222.232 432.119C222.74 432.497 223.352 432.868 224.068 433.233C224.798 433.584 225.637 433.968 226.588 434.385C227.564 434.893 228.482 435.427 229.342 435.986C230.214 436.546 230.976 437.165 231.627 437.842C232.291 438.519 232.812 439.274 233.189 440.108C233.58 440.928 233.775 441.865 233.775 442.92C233.775 444.339 233.489 445.537 232.916 446.514C232.343 447.49 231.568 448.285 230.592 448.897C229.628 449.509 228.515 449.951 227.252 450.225C225.989 450.498 224.654 450.635 223.248 450.635C222.779 450.635 222.2 450.596 221.51 450.518C220.833 450.453 220.136 450.348 219.42 450.205C218.704 450.075 218.027 449.912 217.389 449.717C216.751 449.522 216.236 449.3 215.846 449.053ZM247.799 449.951C246.913 450.394 245.748 450.615 244.303 450.615C240.423 450.615 238.482 448.753 238.482 445.029V433.721H235.143V430.166H238.482V425.537L243.014 424.248V430.166H247.799V433.721H243.014V443.721C243.014 444.906 243.229 445.752 243.658 446.26C244.088 446.768 244.804 447.022 245.807 447.022C246.575 447.022 247.239 446.8 247.799 446.358V449.951ZM263.307 434.483C262.76 434.053 261.972 433.838 260.943 433.838C259.602 433.838 258.482 434.443 257.584 435.654C256.686 436.865 256.236 438.512 256.236 440.596V450.166H251.705V430.166H256.236V434.287H256.314C256.757 432.881 257.434 431.787 258.346 431.006C259.27 430.212 260.299 429.815 261.432 429.815C262.252 429.815 262.877 429.938 263.307 430.186V434.483ZM283.092 441.397H269.459C269.511 443.246 270.077 444.671 271.158 445.674C272.252 446.677 273.749 447.178 275.65 447.178C277.786 447.178 279.745 446.54 281.529 445.264V448.916C279.706 450.062 277.298 450.635 274.303 450.635C271.36 450.635 269.049 449.73 267.369 447.92C265.702 446.097 264.869 443.539 264.869 440.244C264.869 437.132 265.787 434.6 267.623 432.647C269.472 430.68 271.764 429.697 274.498 429.697C277.232 429.697 279.348 430.576 280.846 432.334C282.343 434.092 283.092 436.533 283.092 439.658V441.397ZM278.717 438.193C278.704 436.566 278.32 435.303 277.564 434.404C276.809 433.493 275.768 433.037 274.439 433.037C273.137 433.037 272.031 433.512 271.119 434.463C270.221 435.414 269.667 436.657 269.459 438.193H278.717ZM302.76 450.166H298.365V447.041H298.287C296.907 449.437 294.882 450.635 292.213 450.635C290.247 450.635 288.704 450.101 287.584 449.033C286.477 447.966 285.924 446.553 285.924 444.795C285.924 441.019 288.098 438.818 292.447 438.193L298.385 437.354C298.385 434.502 297.031 433.076 294.322 433.076C291.939 433.076 289.791 433.897 287.877 435.537V431.572C289.986 430.322 292.421 429.697 295.182 429.697C300.234 429.697 302.76 432.184 302.76 437.158V450.166ZM298.385 440.342L294.186 440.928C292.883 441.097 291.9 441.416 291.236 441.885C290.585 442.341 290.26 443.148 290.26 444.307C290.26 445.153 290.559 445.85 291.158 446.397C291.77 446.93 292.584 447.197 293.6 447.197C294.98 447.197 296.119 446.716 297.018 445.752C297.929 444.776 298.385 443.552 298.385 442.08V440.342ZM338.209 450.166H333.678V439.268C333.678 437.171 333.378 435.654 332.779 434.717C332.193 433.779 331.197 433.311 329.791 433.311C328.606 433.311 327.597 433.903 326.764 435.088C325.943 436.273 325.533 437.692 325.533 439.346V450.166H320.982V438.897C320.982 435.173 319.667 433.311 317.037 433.311C315.813 433.311 314.804 433.871 314.01 434.99C313.229 436.11 312.838 437.562 312.838 439.346V450.166H308.307V430.166H312.838V433.33H312.916C314.361 430.908 316.464 429.697 319.225 429.697C320.605 429.697 321.809 430.082 322.838 430.85C323.88 431.605 324.589 432.601 324.967 433.838C326.451 431.078 328.665 429.697 331.607 429.697C336.008 429.697 338.209 432.412 338.209 437.842V450.166ZM342.486 449.541V445.342C344.179 446.631 346.048 447.276 348.092 447.276C350.826 447.276 352.193 446.468 352.193 444.854C352.193 444.398 352.076 444.014 351.842 443.701C351.607 443.376 351.288 443.089 350.885 442.842C350.494 442.595 350.025 442.373 349.479 442.178C348.945 441.983 348.346 441.761 347.682 441.514C346.861 441.188 346.119 440.843 345.455 440.479C344.804 440.114 344.257 439.704 343.814 439.248C343.385 438.779 343.059 438.252 342.838 437.666C342.617 437.08 342.506 436.397 342.506 435.615C342.506 434.652 342.734 433.805 343.189 433.076C343.645 432.334 344.257 431.716 345.025 431.221C345.794 430.713 346.666 430.335 347.643 430.088C348.619 429.828 349.628 429.697 350.67 429.697C352.519 429.697 354.173 429.977 355.631 430.537V434.502C354.225 433.539 352.61 433.057 350.787 433.057C350.214 433.057 349.693 433.115 349.225 433.233C348.769 433.35 348.378 433.512 348.053 433.721C347.727 433.929 347.473 434.183 347.291 434.483C347.109 434.769 347.018 435.088 347.018 435.44C347.018 435.869 347.109 436.234 347.291 436.533C347.473 436.833 347.74 437.1 348.092 437.334C348.456 437.555 348.886 437.764 349.381 437.959C349.889 438.141 350.468 438.343 351.119 438.565C351.979 438.916 352.747 439.274 353.424 439.639C354.114 440.003 354.7 440.42 355.182 440.889C355.663 441.345 356.035 441.878 356.295 442.49C356.555 443.089 356.686 443.805 356.686 444.639C356.686 445.654 356.451 446.54 355.982 447.295C355.514 448.05 354.889 448.675 354.107 449.17C353.326 449.665 352.421 450.029 351.393 450.264C350.377 450.511 349.303 450.635 348.17 450.635C345.982 450.635 344.088 450.27 342.486 449.541Z" fill="#0D0A3A"/>
<path d="M231.041 491.447C228.619 491.447 226.678 490.662 225.217 489.092C223.764 487.522 223.037 485.479 223.037 482.963C223.037 480.26 223.779 478.104 225.264 476.494C226.748 474.885 228.764 474.08 231.311 474.08C233.67 474.08 235.568 474.861 237.006 476.424C238.451 477.986 239.174 480.029 239.174 482.553C239.174 485.295 238.436 487.463 236.959 489.057C235.482 490.651 233.51 491.447 231.041 491.447ZM231.17 476.529C229.631 476.529 228.377 477.104 227.408 478.252C226.447 479.401 225.967 480.912 225.967 482.787C225.967 484.654 226.436 486.158 227.373 487.299C228.311 488.44 229.537 489.01 231.053 489.01C232.662 489.01 233.932 488.467 234.861 487.381C235.791 486.295 236.256 484.776 236.256 482.822C236.256 480.815 235.803 479.264 234.896 478.17C233.998 477.076 232.756 476.529 231.17 476.529ZM248.736 475.615C248.369 475.404 247.951 475.299 247.482 475.299C246.162 475.299 245.502 476.045 245.502 477.537V479.166H248.291V481.299H245.514V491.166H242.795V481.299H240.744V479.166H242.795V477.221C242.795 475.955 243.209 474.959 244.037 474.233C244.865 473.498 245.9 473.131 247.143 473.131C247.814 473.131 248.346 473.205 248.736 473.354V475.615ZM259.916 485.072V491.166H257.139V474.361H262.236C264.166 474.361 265.662 474.811 266.725 475.709C267.787 476.608 268.318 477.873 268.318 479.506C268.318 481.139 267.764 482.475 266.654 483.514C265.545 484.553 264.045 485.072 262.154 485.072H259.916ZM259.916 476.658V482.799H261.721C262.916 482.799 263.826 482.522 264.451 481.967C265.076 481.412 265.389 480.631 265.389 479.623C265.389 477.647 264.24 476.658 261.943 476.658H259.916ZM275.373 491.447C273.521 491.447 272.041 490.889 270.932 489.772C269.83 488.647 269.279 487.158 269.279 485.307C269.279 483.291 269.854 481.717 271.002 480.584C272.158 479.451 273.713 478.885 275.666 478.885C277.541 478.885 279.002 479.436 280.049 480.537C281.096 481.639 281.619 483.166 281.619 485.119C281.619 487.033 281.053 488.568 279.92 489.725C278.795 490.873 277.279 491.447 275.373 491.447ZM275.502 481.053C274.439 481.053 273.6 481.424 272.982 482.166C272.365 482.908 272.057 483.932 272.057 485.236C272.057 486.494 272.369 487.486 272.994 488.213C273.619 488.932 274.455 489.291 275.502 489.291C276.572 489.291 277.393 488.936 277.963 488.225C278.541 487.514 278.83 486.502 278.83 485.19C278.83 483.869 278.541 482.85 277.963 482.131C277.393 481.412 276.572 481.053 275.502 481.053ZM295.307 491.166H292.588V489.127H292.541C291.666 490.674 290.318 491.447 288.498 491.447C287.021 491.447 285.838 490.912 284.947 489.842C284.064 488.764 283.623 487.299 283.623 485.447C283.623 483.463 284.111 481.873 285.088 480.678C286.072 479.483 287.381 478.885 289.014 478.885C290.631 478.885 291.807 479.533 292.541 480.83H292.588V473.401H295.307V491.166ZM292.623 485.682V484.111C292.623 483.26 292.346 482.537 291.791 481.943C291.236 481.35 290.529 481.053 289.67 481.053C288.654 481.053 287.854 481.432 287.268 482.19C286.689 482.947 286.4 483.998 286.4 485.342C286.4 486.561 286.678 487.526 287.232 488.236C287.795 488.94 288.549 489.291 289.494 489.291C290.424 489.291 291.178 488.951 291.756 488.272C292.334 487.584 292.623 486.721 292.623 485.682ZM307.447 490.615C306.486 491.17 305.35 491.447 304.037 491.447C302.256 491.447 300.818 490.893 299.725 489.783C298.631 488.666 298.084 487.221 298.084 485.447C298.084 483.471 298.67 481.885 299.842 480.69C301.021 479.486 302.596 478.885 304.564 478.885C305.658 478.885 306.623 479.076 307.459 479.459V481.99C306.623 481.365 305.732 481.053 304.787 481.053C303.639 481.053 302.697 481.443 301.963 482.225C301.229 482.998 300.861 484.014 300.861 485.272C300.861 486.514 301.205 487.494 301.893 488.213C302.588 488.932 303.518 489.291 304.682 489.291C305.658 489.291 306.58 488.943 307.447 488.248V490.615ZM319.365 491.166H316.729V489.291H316.682C315.854 490.729 314.639 491.447 313.037 491.447C311.857 491.447 310.932 491.127 310.26 490.486C309.596 489.846 309.264 488.998 309.264 487.943C309.264 485.678 310.568 484.358 313.178 483.983L316.74 483.479C316.74 481.768 315.928 480.912 314.303 480.912C312.873 480.912 311.584 481.404 310.436 482.389V480.01C311.701 479.26 313.162 478.885 314.818 478.885C317.85 478.885 319.365 480.377 319.365 483.361V491.166ZM316.74 485.272L314.221 485.623C313.439 485.725 312.85 485.916 312.451 486.197C312.061 486.471 311.865 486.955 311.865 487.651C311.865 488.158 312.045 488.576 312.404 488.904C312.771 489.225 313.26 489.385 313.869 489.385C314.697 489.385 315.381 489.096 315.92 488.518C316.467 487.932 316.74 487.197 316.74 486.315V485.272ZM321.943 490.791V488.272C322.959 489.045 324.08 489.432 325.307 489.432C326.947 489.432 327.768 488.947 327.768 487.979C327.768 487.705 327.697 487.475 327.557 487.287C327.416 487.092 327.225 486.92 326.982 486.772C326.748 486.623 326.467 486.49 326.139 486.373C325.818 486.256 325.459 486.123 325.061 485.975C324.568 485.779 324.123 485.572 323.725 485.354C323.334 485.135 323.006 484.889 322.74 484.615C322.482 484.334 322.287 484.018 322.154 483.666C322.021 483.315 321.955 482.904 321.955 482.436C321.955 481.858 322.092 481.35 322.365 480.912C322.639 480.467 323.006 480.096 323.467 479.799C323.928 479.494 324.451 479.268 325.037 479.119C325.623 478.963 326.229 478.885 326.854 478.885C327.963 478.885 328.955 479.053 329.83 479.389V481.768C328.986 481.19 328.018 480.901 326.924 480.901C326.58 480.901 326.268 480.936 325.986 481.006C325.713 481.076 325.479 481.174 325.283 481.299C325.088 481.424 324.936 481.576 324.826 481.756C324.717 481.928 324.662 482.119 324.662 482.33C324.662 482.588 324.717 482.807 324.826 482.986C324.936 483.166 325.096 483.326 325.307 483.467C325.525 483.6 325.783 483.725 326.08 483.842C326.385 483.951 326.732 484.072 327.123 484.205C327.639 484.416 328.1 484.631 328.506 484.85C328.92 485.068 329.271 485.318 329.561 485.6C329.85 485.873 330.072 486.193 330.229 486.561C330.385 486.92 330.463 487.35 330.463 487.85C330.463 488.459 330.322 488.99 330.041 489.443C329.76 489.897 329.385 490.272 328.916 490.568C328.447 490.865 327.904 491.084 327.287 491.225C326.678 491.373 326.033 491.447 325.354 491.447C324.041 491.447 322.904 491.229 321.943 490.791ZM339.381 491.037C338.85 491.303 338.15 491.436 337.283 491.436C334.955 491.436 333.791 490.318 333.791 488.084V481.299H331.787V479.166H333.791V476.389L336.51 475.615V479.166H339.381V481.299H336.51V487.299C336.51 488.01 336.639 488.518 336.896 488.822C337.154 489.127 337.584 489.279 338.186 489.279C338.646 489.279 339.045 489.147 339.381 488.881V491.037ZM340.975 490.791V488.272C341.99 489.045 343.111 489.432 344.338 489.432C345.979 489.432 346.799 488.947 346.799 487.979C346.799 487.705 346.729 487.475 346.588 487.287C346.447 487.092 346.256 486.92 346.014 486.772C345.779 486.623 345.498 486.49 345.17 486.373C344.85 486.256 344.49 486.123 344.092 485.975C343.6 485.779 343.154 485.572 342.756 485.354C342.365 485.135 342.037 484.889 341.771 484.615C341.514 484.334 341.318 484.018 341.186 483.666C341.053 483.315 340.986 482.904 340.986 482.436C340.986 481.858 341.123 481.35 341.396 480.912C341.67 480.467 342.037 480.096 342.498 479.799C342.959 479.494 343.482 479.268 344.068 479.119C344.654 478.963 345.26 478.885 345.885 478.885C346.994 478.885 347.986 479.053 348.861 479.389V481.768C348.018 481.19 347.049 480.901 345.955 480.901C345.611 480.901 345.299 480.936 345.018 481.006C344.744 481.076 344.51 481.174 344.314 481.299C344.119 481.424 343.967 481.576 343.857 481.756C343.748 481.928 343.693 482.119 343.693 482.33C343.693 482.588 343.748 482.807 343.857 482.986C343.967 483.166 344.127 483.326 344.338 483.467C344.557 483.6 344.814 483.725 345.111 483.842C345.416 483.951 345.764 484.072 346.154 484.205C346.67 484.416 347.131 484.631 347.537 484.85C347.951 485.068 348.303 485.318 348.592 485.6C348.881 485.873 349.104 486.193 349.26 486.561C349.416 486.92 349.494 487.35 349.494 487.85C349.494 488.459 349.354 488.99 349.072 489.443C348.791 489.897 348.416 490.272 347.947 490.568C347.479 490.865 346.936 491.084 346.318 491.225C345.709 491.373 345.064 491.447 344.385 491.447C343.072 491.447 341.936 491.229 340.975 490.791Z" fill="#0D0A3A"/>
</g>
<defs>
<clipPath id="clip0_8_722">
<rect width="517.556" height="577.096" fill="white" transform="translate(0.567383 0.546875)"/>
</clipPath>
</defs>
</svg>
