<svg xmlns="http://www.w3.org/2000/svg" width="517.556" height="577.095" viewBox="0 0 517.556 577.095">
  <g id="Group_4412" data-name="Group 4412" transform="translate(7451.534 -2824.523)">
    <path id="Path_4299" data-name="Path 4299" d="M39.78-98.77H-13.26v23.46a24.706,24.706,0,0,1,9.52-6.12A36.27,36.27,0,0,1,9.52-83.81q12.75,0,21.165,5.78A34.018,34.018,0,0,1,43.01-63.07a50.225,50.225,0,0,1,3.91,19.89q0,19.89-11.22,31.535T4.08,0Q-9.52,0-19.55-4.675A36.2,36.2,0,0,1-35.02-17.68a37.672,37.672,0,0,1-5.95-19.21h28.39a15.3,15.3,0,0,0,4.93,8.755Q-3.74-24.65,3.06-24.65q7.99,0,11.9-5.1t3.91-13.6q0-8.33-4.08-12.75T2.89-60.52a15.433,15.433,0,0,0-9.52,2.805,13.081,13.081,0,0,0-4.93,7.4H-39.61v-73.95H39.78Z" transform="translate(-7192.756 3150.5)" fill="#f6f6fd"/>
    <path id="Path_4300" data-name="Path 4300" d="M-42.42-27.88l-7.2,19.64-7.16-19.64h-7.16V0h5V-20.84l6.92,18.4h4.84l6.92-18.4V0h5V-27.88ZM-20.94.4c6.08,0,9.88-4.72,9.88-10.28,0-5.6-3.8-10.24-9.88-10.24-6.12,0-9.88,4.64-9.88,10.24C-30.82-4.32-27.06.4-20.94.4Zm0-4.2c-3.64,0-5.08-2.88-5.08-6.08,0-3.24,1.44-6.04,5.08-6.04s5.08,2.8,5.08,6.04C-15.86-6.68-17.3-3.8-20.94-3.8ZM3.54-20.12a7.1,7.1,0,0,0-5.96,2.68v-2.28h-4.8V0h4.8V-7.88c0-3.52,0-8.04,4.48-8.04,3.64,0,3.64,3.04,3.64,4.4V0h4.8V-12.72C10.5-17.4,7.98-20.12,3.54-20.12Zm22.64,4.2v-3.8H21.26v-7.36l-4.8,3.56v3.8h-3.2v3.8h3.2v10.4c0,4.2,2.8,5.92,6.12,5.92a11.325,11.325,0,0,0,3.6-.6V-4.04a8.289,8.289,0,0,1-2.4.44c-1.56,0-2.52-.72-2.52-2.28V-15.92Zm14.04-4.2a7.148,7.148,0,0,0-5.96,2.64v-10.4h-4.8V0h4.8V-7.88c0-5.68,1.32-8.04,4.48-8.04,2.48,0,3.64,1.4,3.64,4.4V0h4.8V-12.72C47.18-17.44,44.66-20.12,40.22-20.12ZM58.54.4c3.72,0,7.68-2,7.68-6.6,0-7.2-10.32-5.44-10.32-8.44,0-.92.96-1.68,2.52-1.68a4.245,4.245,0,0,1,3.92,2.52l3.72-2.04a8.158,8.158,0,0,0-7.48-4.28c-3.8,0-7.24,1.96-7.24,5.76,0,7.32,10.16,5.12,10.16,8.44,0,1.04-.96,2.32-3.2,2.32a4.27,4.27,0,0,1-4.2-3.24L50.26-5.12A8.494,8.494,0,0,0,58.54.4Z" transform="translate(-7192.756 3231.5)" fill="#f6f6fd"/>
    <path id="Path_4301" data-name="Path 4301" d="M-154.154,0h2.548l-6.942-18.122h-1.82L-167.31,0h2.548l1.612-4.5h7.384ZM-162.4-6.552l2.938-8.216,2.938,8.216ZM-146.3,0h1.872l5.252-12.818h-2.444l-3.77,9.932-3.718-9.932h-2.418Zm19.656-6.89c0-3.12-1.742-6.162-5.668-6.162-3.9,0-5.824,3.172-5.824,6.708,0,3.562,1.95,6.578,6.032,6.578a6.405,6.405,0,0,0,5.044-2.21L-128.6-3.354A4.389,4.389,0,0,1-132.08-1.82c-2.366,0-3.744-1.482-3.822-3.926h9.178A8.177,8.177,0,0,0-126.646-6.89Zm-9.256-.676a3.6,3.6,0,0,1,3.562-3.614A3.32,3.32,0,0,1-128.8-7.8a.577.577,0,0,0,.026.234Zm18.46-5.486a3.99,3.99,0,0,0-3.692,2.236v-2h-2.236V0h2.236V-6.916c0-2.652,1.274-4.03,3.224-4.03a3.806,3.806,0,0,1,1.664.39l1.092-1.872A4.341,4.341,0,0,0-117.442-13.052Zm9.23,0a6.477,6.477,0,0,0-5.408,2.678l1.612,1.352a4.533,4.533,0,0,1,3.744-2.054,2.762,2.762,0,0,1,3.042,3.068v.52h-2.834a9.158,9.158,0,0,0-4.394.728A3.187,3.187,0,0,0-114.062-3.8c0,2.47,1.742,4.03,4.5,4.03A5,5,0,0,0-105.2-1.924L-105.04,0h2.054V-8.008C-102.986-11.18-104.936-13.052-108.212-13.052Zm-.832,11.414c-1.716,0-2.782-.806-2.782-2.054a1.814,1.814,0,0,1,.65-1.482c.546-.416,1.43-.572,3.38-.572h2.574v.13A3.714,3.714,0,0,1-109.044-1.638Zm14.612-.052c-1.768-.26-3.276-.546-3.276-1.742a1.2,1.2,0,0,1,.7-1.092,5.451,5.451,0,0,0,2.574.6c2.73,0,4.966-1.768,4.966-4.472a4.481,4.481,0,0,0-.65-2.366l1.768-1.456-1.17-1.43-1.82,1.56a5.438,5.438,0,0,0-3.146-.962c-2.782,0-5.018,1.872-5.018,4.55A4.3,4.3,0,0,0-98.41-5.59a2.908,2.908,0,0,0-1.326,2.5A2.625,2.625,0,0,0-98.1-.572L-100.126.962a3.067,3.067,0,0,0-.052.572c0,2.6,2.184,4,5.824,4,3.3,0,5.616-1.144,5.616-3.64C-88.738-.988-91.858-1.326-94.432-1.69Zm-.026-9.49A2.586,2.586,0,0,1-91.7-8.45a2.579,2.579,0,0,1-2.756,2.7,2.621,2.621,0,0,1-2.808-2.7A2.656,2.656,0,0,1-94.458-11.18Zm.208,14.924c-1.95,0-3.718-.494-3.718-2.08a.732.732,0,0,1,.026-.208l1.534-1.482c.494.1,1.014.182,1.508.26,2.028.312,3.926.494,3.926,1.872C-90.974,3.224-92.3,3.744-94.25,3.744ZM-75.66-6.89c0-3.12-1.742-6.162-5.668-6.162-3.9,0-5.824,3.172-5.824,6.708,0,3.562,1.95,6.578,6.032,6.578a6.405,6.405,0,0,0,5.044-2.21L-77.61-3.354A4.389,4.389,0,0,1-81.094-1.82c-2.366,0-3.744-1.482-3.822-3.926h9.178A8.177,8.177,0,0,0-75.66-6.89Zm-9.256-.676a3.6,3.6,0,0,1,3.562-3.614A3.32,3.32,0,0,1-77.818-7.8a.577.577,0,0,0,.026.234Zm21.892,7.8A5.962,5.962,0,0,0-61.178-.13L-61.2-1.976a4.423,4.423,0,0,1-1.144.208c-.754,0-1.066-.468-1.066-1.248V-18.122H-65.65V-2.886C-65.65-.78-64.584.234-63.024.234ZM-48-6.89c0-3.12-1.742-6.162-5.668-6.162-3.9,0-5.824,3.172-5.824,6.708,0,3.562,1.95,6.578,6.032,6.578a6.405,6.405,0,0,0,5.044-2.21l-1.534-1.378A4.389,4.389,0,0,1-53.43-1.82c-2.366,0-3.744-1.482-3.822-3.926h9.178A8.177,8.177,0,0,0-48-6.89Zm-9.256-.676A3.6,3.6,0,0,1-53.69-11.18,3.32,3.32,0,0,1-50.154-7.8a.577.577,0,0,0,.026.234Zm18.876-5.486a4.869,4.869,0,0,0-4.108,1.976v-1.742H-44.72V0h2.236V-5.538c0-3.172.936-5.538,3.51-5.538,2.08,0,2.678,1.508,2.678,3.64V0h2.236V-7.982C-34.06-11.284-35.568-13.052-38.376-13.052ZM-25.428-1.69C-27.2-1.95-28.7-2.236-28.7-3.432A1.2,1.2,0,0,1-28-4.524a5.451,5.451,0,0,0,2.574.6c2.73,0,4.966-1.768,4.966-4.472a4.481,4.481,0,0,0-.65-2.366l1.768-1.456-1.17-1.43-1.82,1.56a5.438,5.438,0,0,0-3.146-.962c-2.782,0-5.018,1.872-5.018,4.55A4.3,4.3,0,0,0-29.406-5.59a2.908,2.908,0,0,0-1.326,2.5A2.625,2.625,0,0,0-29.094-.572L-31.122.962a3.067,3.067,0,0,0-.052.572c0,2.6,2.184,4,5.824,4,3.3,0,5.616-1.144,5.616-3.64C-19.734-.988-22.854-1.326-25.428-1.69Zm-.026-9.49A2.586,2.586,0,0,1-22.7-8.45a2.579,2.579,0,0,1-2.756,2.7,2.621,2.621,0,0,1-2.808-2.7A2.656,2.656,0,0,1-25.454-11.18Zm.208,14.924c-1.95,0-3.718-.494-3.718-2.08a.732.732,0,0,1,.026-.208L-27.4-.026c.494.1,1.014.182,1.508.26,2.028.312,3.926.494,3.926,1.872C-21.97,3.224-23.3,3.744-25.246,3.744ZM-10.686-11v-1.82h-3.146v-4.706l-2.236,1.664v3.042h-2.106V-11h2.106v7.8a3.07,3.07,0,0,0,3.3,3.432,6.615,6.615,0,0,0,2.08-.364v-1.9a5.231,5.231,0,0,1-1.534.286c-1.014,0-1.612-.52-1.612-1.69V-11Zm9.36-2.054A4.852,4.852,0,0,0-5.46-11.076v-7.046H-7.7V0H-5.46V-5.642c0-3.588,1.222-5.434,3.536-5.434,1.82,0,2.652,1.144,2.652,3.64V0H2.964V-7.982C2.964-11.284,1.456-13.052-1.326-13.052ZM18.954.234c3.77,0,6.266-2.938,6.266-6.656,0-3.744-2.522-6.63-6.266-6.63-3.77,0-6.214,2.886-6.214,6.63S15.184.234,18.954.234Zm0-1.976c-2.6,0-3.978-2.054-3.978-4.68s1.352-4.654,3.978-4.654,4.03,2,4.03,4.654C22.984-3.822,21.58-1.742,18.954-1.742ZM29.224,0H31.46V-11h3.458v-1.82H31.46v-1.9c0-.962.416-1.768,1.456-1.768a3.067,3.067,0,0,1,1.352.39l.754-1.742a5.769,5.769,0,0,0-2.34-.52c-1.768,0-3.432.832-3.432,3.744v1.794H26.6V-11h2.626ZM49.062.234a5.262,5.262,0,0,0,5.148-3.64l-2.054-.78a3.156,3.156,0,0,1-3.12,2.444c-2.548,0-3.64-2.21-3.64-4.628s1.092-4.706,3.64-4.706a3.32,3.32,0,0,1,3.172,2.5l2.132-.858a5.455,5.455,0,0,0-5.3-3.614c-3.978,0-5.928,3.3-5.928,6.682C43.108-2.86,45.188.234,49.062.234Zm13.182,0c3.77,0,6.266-2.938,6.266-6.656,0-3.744-2.522-6.63-6.266-6.63-3.77,0-6.214,2.886-6.214,6.63S58.474.234,62.244.234Zm0-1.976c-2.6,0-3.978-2.054-3.978-4.68s1.352-4.654,3.978-4.654,4.03,2,4.03,4.654C66.274-3.822,64.87-1.742,62.244-1.742Zm15.834-11.31a4.869,4.869,0,0,0-4.108,1.976v-1.742H71.734V0H73.97V-5.538c0-3.172.936-5.538,3.51-5.538,2.08,0,2.678,1.508,2.678,3.64V0h2.236V-7.982C82.394-11.284,80.886-13.052,78.078-13.052ZM90.376.234c2.444,0,4.732-1.3,4.732-4.03,0-4.81-7.176-3.146-7.176-5.824,0-.936.884-1.534,2.288-1.534A3.2,3.2,0,0,1,93.21-9.36l1.768-.962a4.987,4.987,0,0,0-4.706-2.73c-2.522,0-4.5,1.352-4.5,3.666,0,4.628,7.124,2.73,7.124,5.72,0,1.118-.936,1.976-2.6,1.976a3.4,3.4,0,0,1-3.38-2.34L85.072-3.2A5.4,5.4,0,0,0,90.376.234Zm7.9-15.626h2.5v-2.73h-2.5ZM98.41,0h2.236V-12.818H98.41Zm10.53.234c2.444,0,4.732-1.3,4.732-4.03,0-4.81-7.176-3.146-7.176-5.824,0-.936.884-1.534,2.288-1.534a3.2,3.2,0,0,1,2.99,1.794l1.768-.962a4.987,4.987,0,0,0-4.706-2.73c-2.522,0-4.5,1.352-4.5,3.666,0,4.628,7.124,2.73,7.124,5.72,0,1.118-.936,1.976-2.6,1.976a3.4,3.4,0,0,1-3.38-2.34l-1.846.832A5.4,5.4,0,0,0,108.94.234ZM122.8-11v-1.82h-3.146v-4.706l-2.236,1.664v3.042H115.31V-11h2.106v7.8a3.07,3.07,0,0,0,3.3,3.432A6.615,6.615,0,0,0,122.8-.13v-1.9a5.231,5.231,0,0,1-1.534.286c-1.014,0-1.612-.52-1.612-1.69V-11Zm13.52,4.108c0-3.12-1.742-6.162-5.668-6.162-3.9,0-5.824,3.172-5.824,6.708,0,3.562,1.95,6.578,6.032,6.578a6.405,6.405,0,0,0,5.044-2.21l-1.534-1.378a4.389,4.389,0,0,1-3.484,1.534c-2.366,0-3.744-1.482-3.822-3.926h9.178A8.177,8.177,0,0,0,136.318-6.89Zm-9.256-.676a3.6,3.6,0,0,1,3.562-3.614A3.32,3.32,0,0,1,134.16-7.8a.577.577,0,0,0,.026.234Zm18.876-5.486a4.869,4.869,0,0,0-4.108,1.976v-1.742h-2.236V0h2.236V-5.538c0-3.172.936-5.538,3.51-5.538,2.08,0,2.678,1.508,2.678,3.64V0h2.236V-7.982C150.254-11.284,148.746-13.052,145.938-13.052ZM160.134-11v-1.82h-3.146v-4.706l-2.236,1.664v3.042h-2.106V-11h2.106v7.8a3.07,3.07,0,0,0,3.3,3.432,6.615,6.615,0,0,0,2.08-.364v-1.9a5.231,5.231,0,0,1-1.534.286c-1.014,0-1.612-.52-1.612-1.69V-11ZM-66.3,26.948a4.924,4.924,0,0,0-4.056,1.82V27.182h-2.236V45.3h2.236V38.388A4.99,4.99,0,0,0-66.3,40.234c3.562,0,5.616-2.7,5.616-6.656S-62.764,26.948-66.3,26.948Zm-.416,11.31c-2.548,0-3.822-2-3.822-4.68,0-2.782,1.352-4.68,3.822-4.68,2.418,0,3.8,1.82,3.8,4.68C-62.92,36.36-64.22,38.258-66.716,38.258ZM-52.7,26.948a6.477,6.477,0,0,0-5.408,2.678l1.612,1.352a4.533,4.533,0,0,1,3.744-2.054,2.762,2.762,0,0,1,3.042,3.068v.52h-2.834a9.158,9.158,0,0,0-4.394.728A3.187,3.187,0,0,0-58.552,36.2c0,2.47,1.742,4.03,4.5,4.03a5,5,0,0,0,4.368-2.158L-49.53,40h2.054V31.992C-47.476,28.82-49.426,26.948-52.7,26.948Zm-.832,11.414c-1.716,0-2.782-.806-2.782-2.054a1.814,1.814,0,0,1,.65-1.482c.546-.416,1.43-.572,3.38-.572h2.574v.13A3.714,3.714,0,0,1-53.534,38.362Zm15.99-11.414a3.99,3.99,0,0,0-3.692,2.236v-2h-2.236V40h2.236V33.084c0-2.652,1.274-4.03,3.224-4.03a3.806,3.806,0,0,1,1.664.39l1.092-1.872A4.341,4.341,0,0,0-37.544,26.948Zm11,2.054v-1.82h-3.146V22.476l-2.236,1.664v3.042h-2.106V29h2.106v7.8a3.07,3.07,0,0,0,3.3,3.432,6.615,6.615,0,0,0,2.08-.364v-1.9a5.231,5.231,0,0,1-1.534.286c-1.014,0-1.612-.52-1.612-1.69V29Zm3.068-4.394h2.5v-2.73h-2.5ZM-23.348,40h2.236V27.182h-2.236Zm11.466.234a5.262,5.262,0,0,0,5.148-3.64l-2.054-.78a3.156,3.156,0,0,1-3.12,2.444c-2.548,0-3.64-2.21-3.64-4.628s1.092-4.706,3.64-4.706a3.32,3.32,0,0,1,3.172,2.5l2.132-.858a5.455,5.455,0,0,0-5.3-3.614c-3.978,0-5.928,3.3-5.928,6.682C-17.836,37.14-15.756,40.234-11.882,40.234ZM-3.8,24.608h2.5v-2.73H-3.8ZM-3.666,40H-1.43V27.182H-3.666ZM9.23,26.948a4.924,4.924,0,0,0-4.056,1.82V27.182H2.938V45.3H5.174V38.388A4.99,4.99,0,0,0,9.23,40.234c3.562,0,5.616-2.7,5.616-6.656S12.766,26.948,9.23,26.948Zm-.416,11.31c-2.548,0-3.822-2-3.822-4.68,0-2.782,1.352-4.68,3.822-4.68,2.418,0,3.8,1.82,3.8,4.68C12.61,36.36,11.31,38.258,8.814,38.258Zm14.014-11.31a6.477,6.477,0,0,0-5.408,2.678l1.612,1.352a4.533,4.533,0,0,1,3.744-2.054,2.762,2.762,0,0,1,3.042,3.068v.52H22.984a9.158,9.158,0,0,0-4.394.728A3.187,3.187,0,0,0,16.978,36.2c0,2.47,1.742,4.03,4.5,4.03a5,5,0,0,0,4.368-2.158L26,40h2.054V31.992C28.054,28.82,26.1,26.948,22.828,26.948ZM22,38.362c-1.716,0-2.782-.806-2.782-2.054a1.814,1.814,0,0,1,.65-1.482c.546-.416,1.43-.572,3.38-.572h2.574v.13A3.714,3.714,0,0,1,22,38.362ZM37.856,29v-1.82H34.71V22.476L32.474,24.14v3.042H30.368V29h2.106v7.8a3.07,3.07,0,0,0,3.3,3.432,6.615,6.615,0,0,0,2.08-.364v-1.9a5.231,5.231,0,0,1-1.534.286c-1.014,0-1.612-.52-1.612-1.69V29Zm3.068-4.394h2.5v-2.73h-2.5ZM41.054,40H43.29V27.182H41.054Zm11.7.234c3.77,0,6.266-2.938,6.266-6.656,0-3.744-2.522-6.63-6.266-6.63-3.77,0-6.214,2.886-6.214,6.63S48.984,40.234,52.754,40.234Zm0-1.976c-2.6,0-3.978-2.054-3.978-4.68s1.352-4.654,3.978-4.654,4.03,2,4.03,4.654C56.784,36.178,55.38,38.258,52.754,38.258Zm15.834-11.31a4.869,4.869,0,0,0-4.108,1.976V27.182H62.244V40H64.48V34.462c0-3.172.936-5.538,3.51-5.538,2.08,0,2.678,1.508,2.678,3.64V40H72.9V32.018C72.9,28.716,71.4,26.948,68.588,26.948Z" transform="translate(-7181.875 3273.5)" fill="#f6f6fd"/>
    <path id="Path_4229" data-name="Path 4229" d="M193.254,90.448v63.4a2.151,2.151,0,0,1-.785,1.632,2.928,2.928,0,0,1-1.9.676H112.335a2.527,2.527,0,0,1-2.7-2.308v-63.4a2.527,2.527,0,0,1,2.7-2.308h78.231a2.928,2.928,0,0,1,1.9.676,2.151,2.151,0,0,1,.785,1.632Z" transform="translate(-7344.203 2828.688)" fill="none" stroke="#fff" stroke-width="3"/>
    <path id="Path_4230" data-name="Path 4230" d="M193.254,90.077v12.657H109.64V90.077c0-1.068,1.209-1.937,2.7-1.937h78.231C192.054,88.14,193.254,89.009,193.254,90.077Z" transform="translate(-7344.203 2828.688)" fill="none" stroke="#fff" stroke-width="2"/>
    <path id="Path_4231" data-name="Path 4231" d="M131.71,79.692V85.96a3.081,3.081,0,0,0,3.274,2.842h0a3.078,3.078,0,0,0,3.274-2.842V79.692a3.081,3.081,0,0,0-3.274-2.842h0A3.084,3.084,0,0,0,131.71,79.692Z" transform="translate(-7350.916 2834.001)" fill="#fff"/>
    <path id="Path_4232" data-name="Path 4232" d="M262.77,78.372V84.64a3.086,3.086,0,0,0,3.278,2.842h0a3.078,3.078,0,0,0,3.274-2.842V78.372a3.081,3.081,0,0,0-3.274-2.842h0A3.086,3.086,0,0,0,262.77,78.372Z" transform="translate(-7435.628 2835.321)" fill="#fff"/>
    <rect id="Rectangle_2645" data-name="Rectangle 2645" width="9" height="9" rx="1" transform="translate(-7222.756 2941.641)" fill="#fff"/>
    <rect id="Rectangle_2646" data-name="Rectangle 2646" width="9" height="9" rx="1" transform="translate(-7222.756 2960.641)" fill="#fff"/>
    <rect id="Rectangle_2647" data-name="Rectangle 2647" width="9" height="9" rx="1" transform="translate(-7196.756 2941.641)" fill="#fff"/>
    <rect id="Rectangle_2648" data-name="Rectangle 2648" width="9" height="9" rx="1" transform="translate(-7196.756 2960.641)" fill="#fff"/>
    <rect id="Rectangle_2649" data-name="Rectangle 2649" width="9" height="9" rx="1" transform="translate(-7170.756 2941.641)" fill="#fff"/>
    <rect id="Rectangle_2650" data-name="Rectangle 2650" width="9" height="9" rx="1" transform="translate(-7170.756 2960.641)" fill="#fff"/>
    <g id="Group_4156" data-name="Group 4156" transform="translate(576.122 -8508.518)">
      <path id="Path_4219" data-name="Path 4219" d="M-8066.4,11609.2v88.34h73.323" transform="translate(41.243 210.094)" fill="none" stroke="#f6f6fd" stroke-linecap="round" stroke-linejoin="round" stroke-width="5"/>
      <path id="Path_4221" data-name="Path 4221" d="M0,88.341V0H73.323" transform="translate(-8025.156 11335.541)" fill="none" stroke="#f6f6fd" stroke-linecap="round" stroke-linejoin="round" stroke-width="5"/>
      <path id="Path_4220" data-name="Path 4220" d="M-7993.076,11697.54v-88.34H-8066.4" transform="translate(480.476 -273.659)" fill="none" stroke="#f6f6fd" stroke-linecap="round" stroke-linejoin="round" stroke-width="5"/>
      <path id="Path_4222" data-name="Path 4222" d="M73.323,0V88.341H0" transform="translate(-7585.923 11819.296)" fill="none" stroke="#f6f6fd" stroke-linecap="round" stroke-linejoin="round" stroke-width="5"/>
    </g>
  </g>
</svg>
