<svg width="518" height="579" viewBox="0 0 518 579" fill="none" xmlns="http://www.w3.org/2000/svg">
<g clip-path="url(#clip0_51_31)">
<path d="M2.49902 487.206V575.546H75.8218" stroke="#0D0A3A" stroke-width="5" stroke-linecap="round" stroke-linejoin="round"/>
<path d="M2.5 91.793V3.45203H75.823" stroke="#0D0A3A" stroke-width="5" stroke-linecap="round" stroke-linejoin="round"/>
<path d="M515.055 91.7919V3.45203H441.731" stroke="#0D0A3A" stroke-width="5" stroke-linecap="round" stroke-linejoin="round"/>
<path d="M515.056 487.206V575.547H441.733" stroke="#0D0A3A" stroke-width="5" stroke-linecap="round" stroke-linejoin="round"/>
<path d="M238.039 159.592C237.397 159.528 236.627 159.528 235.922 159.592C220.65 159.079 208.522 146.566 208.522 131.166C208.522 115.445 221.227 102.676 237.012 102.676C252.733 102.676 265.502 115.445 265.502 131.166C265.438 146.566 253.311 159.079 238.039 159.592Z" stroke="#D3D2DF" stroke-width="8" stroke-linecap="round" stroke-linejoin="round"/>
<path d="M284.56 115.509C297.009 115.509 307.019 125.583 307.019 137.968C307.019 150.095 297.394 159.977 285.394 160.426C284.881 160.362 284.304 160.362 283.726 160.426" stroke="#D3D2DF" stroke-width="8" stroke-linecap="round" stroke-linejoin="round"/>
<path d="M205.956 183.269C190.427 193.664 190.427 210.604 205.956 220.935C223.602 232.742 252.541 232.742 270.187 220.935C285.715 210.54 285.715 193.6 270.187 183.269C252.605 171.527 223.666 171.527 205.956 183.269Z" stroke="#D3D2DF" stroke-width="8" stroke-linecap="round" stroke-linejoin="round"/>
<path d="M296.944 218.176C301.564 217.214 305.928 215.353 309.521 212.594C319.531 205.086 319.531 192.702 309.521 185.194C305.992 182.499 301.693 180.703 297.137 179.676" stroke="#D3D2DF" stroke-width="8" stroke-linecap="round" stroke-linejoin="round"/>
<path d="M242.734 159.592C242.093 159.528 241.323 159.528 240.617 159.592C225.345 159.079 213.218 146.566 213.218 131.166C213.218 115.445 225.923 102.676 241.708 102.676C257.429 102.676 270.198 115.445 270.198 131.166C270.134 146.566 258.006 159.079 242.734 159.592Z" stroke="#0D0A3A" stroke-width="8" stroke-linecap="round" stroke-linejoin="round"/>
<path d="M289.256 115.509C301.704 115.509 311.714 125.583 311.714 137.968C311.714 150.095 302.089 159.977 290.09 160.426C289.576 160.362 288.999 160.362 288.421 160.426" stroke="#0D0A3A" stroke-width="8" stroke-linecap="round" stroke-linejoin="round"/>
<path d="M210.651 183.269C195.123 193.664 195.123 210.604 210.651 220.935C228.297 232.742 257.236 232.742 274.882 220.935C290.41 210.54 290.41 193.6 274.882 183.269C257.3 171.527 228.361 171.527 210.651 183.269Z" stroke="#0D0A3A" stroke-width="8" stroke-linecap="round" stroke-linejoin="round"/>
<path d="M301.64 218.176C306.26 217.214 310.623 215.353 314.216 212.594C324.226 205.086 324.226 192.702 314.216 185.194C310.687 182.499 306.388 180.703 301.832 179.676" stroke="#0D0A3A" stroke-width="8" stroke-linecap="round" stroke-linejoin="round"/>
<path d="M146.702 324.487C145.998 321.231 144.766 318.811 143.006 317.227C141.246 315.555 138.738 314.719 135.482 314.719C130.466 314.719 126.858 316.919 124.658 321.319C122.458 325.631 121.314 332.495 121.226 341.911C123.162 338.831 125.934 336.411 129.542 334.651C133.238 332.891 137.286 332.011 141.686 332.011C150.31 332.011 157.218 334.739 162.41 340.195C167.69 345.651 170.33 353.263 170.33 363.031C170.33 369.455 169.01 375.087 166.37 379.927C163.818 384.767 160.034 388.551 155.018 391.279C150.09 394.007 144.238 395.371 137.462 395.371C123.91 395.371 114.494 391.147 109.214 382.699C103.934 374.163 101.294 361.931 101.294 346.003C101.294 329.283 104.066 316.875 109.61 308.779C115.242 300.595 124.218 296.503 136.538 296.503C143.138 296.503 148.682 297.823 153.17 300.463C157.746 303.015 161.178 306.403 163.466 310.627C165.842 314.851 167.25 319.471 167.69 324.487H146.702ZM136.274 349.831C132.49 349.831 129.322 350.975 126.77 353.263C124.306 355.463 123.074 358.631 123.074 362.767C123.074 366.991 124.218 370.291 126.506 372.667C128.882 375.043 132.226 376.231 136.538 376.231C140.41 376.231 143.446 375.087 145.646 372.799C147.934 370.423 149.078 367.211 149.078 363.163C149.078 359.027 147.978 355.771 145.778 353.395C143.578 351.019 140.41 349.831 136.274 349.831ZM242.101 339.139V357.883H184.021V339.139H242.101ZM307.32 324.487C306.616 321.231 305.384 318.811 303.624 317.227C301.864 315.555 299.356 314.719 296.1 314.719C291.084 314.719 287.476 316.919 285.276 321.319C283.076 325.631 281.932 332.495 281.844 341.911C283.78 338.831 286.552 336.411 290.16 334.651C293.856 332.891 297.904 332.011 302.304 332.011C310.928 332.011 317.836 334.739 323.028 340.195C328.308 345.651 330.948 353.263 330.948 363.031C330.948 369.455 329.628 375.087 326.988 379.927C324.436 384.767 320.652 388.551 315.636 391.279C310.708 394.007 304.856 395.371 298.08 395.371C284.528 395.371 275.112 391.147 269.832 382.699C264.552 374.163 261.912 361.931 261.912 346.003C261.912 329.283 264.684 316.875 270.228 308.779C275.86 300.595 284.836 296.503 297.156 296.503C303.756 296.503 309.3 297.823 313.788 300.463C318.364 303.015 321.796 306.403 324.084 310.627C326.46 314.851 327.868 319.471 328.308 324.487H307.32ZM296.892 349.831C293.108 349.831 289.94 350.975 287.388 353.263C284.924 355.463 283.692 358.631 283.692 362.767C283.692 366.991 284.836 370.291 287.124 372.667C289.5 375.043 292.844 376.231 297.156 376.231C301.028 376.231 304.064 375.087 306.264 372.799C308.552 370.423 309.696 367.211 309.696 363.163C309.696 359.027 308.596 355.771 306.396 353.395C304.196 351.019 301.028 349.831 296.892 349.831ZM343.714 345.343C343.714 330.207 346.618 318.283 352.426 309.571C358.322 300.859 367.782 296.503 380.806 296.503C393.83 296.503 403.246 300.859 409.054 309.571C414.95 318.283 417.898 330.207 417.898 345.343C417.898 360.655 414.95 372.667 409.054 381.379C403.246 390.091 393.83 394.447 380.806 394.447C367.782 394.447 358.322 390.091 352.426 381.379C346.618 372.667 343.714 360.655 343.714 345.343ZM395.722 345.343C395.722 336.455 394.754 329.635 392.818 324.883C390.882 320.043 386.878 317.623 380.806 317.623C374.734 317.623 370.73 320.043 368.794 324.883C366.858 329.635 365.89 336.455 365.89 345.343C365.89 351.327 366.242 356.299 366.946 360.259C367.65 364.131 369.058 367.299 371.17 369.763C373.37 372.139 376.582 373.327 380.806 373.327C385.03 373.327 388.198 372.139 390.31 369.763C392.51 367.299 393.962 364.131 394.666 360.259C395.37 356.299 395.722 351.327 395.722 345.343Z" fill="#0D0A3A"/>
<path d="M248.575 478.843H243.478L240.958 471.714H229.942L227.521 478.843H222.442L232.931 450.835H238.165L248.575 478.843ZM239.728 467.925L235.841 456.753C235.724 456.388 235.6 455.802 235.47 454.995H235.392C235.274 455.737 235.144 456.323 235.001 456.753L231.153 467.925H239.728ZM270.138 477.241C270.138 484.585 266.446 488.257 259.063 488.257C256.459 488.257 254.187 487.821 252.247 486.948V482.807C254.435 484.057 256.511 484.682 258.478 484.682C263.23 484.682 265.606 482.345 265.606 477.671V475.483H265.528C264.031 478.035 261.778 479.311 258.771 479.311C256.336 479.311 254.369 478.426 252.872 476.655C251.388 474.871 250.646 472.482 250.646 469.487C250.646 466.089 251.446 463.387 253.048 461.382C254.649 459.377 256.85 458.374 259.649 458.374C262.293 458.374 264.252 459.455 265.528 461.616H265.606V458.843H270.138V477.241ZM265.646 469.682V467.085C265.646 465.679 265.177 464.481 264.239 463.491C263.315 462.488 262.156 461.987 260.763 461.987C259.044 461.987 257.696 462.625 256.72 463.901C255.756 465.164 255.274 466.935 255.274 469.214C255.274 471.18 255.737 472.755 256.661 473.94C257.599 475.112 258.836 475.698 260.372 475.698C261.935 475.698 263.204 475.138 264.181 474.018C265.157 472.886 265.646 471.44 265.646 469.682ZM292.97 470.073H279.337C279.389 471.922 279.955 473.348 281.036 474.35C282.13 475.353 283.627 475.854 285.528 475.854C287.664 475.854 289.623 475.216 291.407 473.94V477.593C289.584 478.738 287.175 479.311 284.181 479.311C281.238 479.311 278.927 478.406 277.247 476.597C275.58 474.774 274.747 472.215 274.747 468.921C274.747 465.809 275.665 463.276 277.501 461.323C279.35 459.357 281.642 458.374 284.376 458.374C287.11 458.374 289.226 459.253 290.724 461.011C292.221 462.768 292.97 465.21 292.97 468.335V470.073ZM288.595 466.87C288.582 465.242 288.198 463.979 287.442 463.081C286.687 462.169 285.646 461.714 284.317 461.714C283.015 461.714 281.909 462.189 280.997 463.14C280.099 464.09 279.545 465.334 279.337 466.87H288.595Z" fill="#0D0A3A"/>
<path d="M130.067 519.843H126.81L124.126 515.343C123.884 514.929 123.646 514.577 123.411 514.288C123.185 513.991 122.95 513.749 122.708 513.561C122.474 513.374 122.216 513.237 121.935 513.151C121.653 513.065 121.337 513.022 120.985 513.022H119.86V519.843H117.083V503.038H122.614C123.403 503.038 124.13 503.132 124.794 503.319C125.458 503.507 126.036 503.792 126.528 504.175C127.021 504.55 127.403 505.022 127.677 505.593C127.958 506.155 128.099 506.815 128.099 507.573C128.099 508.167 128.009 508.714 127.829 509.214C127.657 509.706 127.407 510.147 127.079 510.538C126.759 510.921 126.368 511.249 125.907 511.522C125.454 511.796 124.942 512.007 124.372 512.155V512.202C124.677 512.374 124.942 512.565 125.169 512.776C125.396 512.979 125.61 513.19 125.813 513.409C126.017 513.628 126.216 513.878 126.411 514.159C126.614 514.432 126.837 514.753 127.079 515.12L130.067 519.843ZM119.86 505.3V510.761H122.181C122.61 510.761 123.005 510.694 123.364 510.561C123.731 510.429 124.048 510.237 124.313 509.987C124.579 509.737 124.786 509.432 124.935 509.073C125.083 508.714 125.157 508.311 125.157 507.866C125.157 507.061 124.903 506.432 124.396 505.979C123.888 505.526 123.157 505.3 122.204 505.3H119.86ZM140.942 519.843H138.306V517.968H138.259C137.431 519.405 136.216 520.124 134.614 520.124C133.435 520.124 132.509 519.804 131.837 519.163C131.173 518.522 130.841 517.675 130.841 516.62C130.841 514.354 132.146 513.034 134.755 512.659L138.317 512.155C138.317 510.444 137.505 509.589 135.88 509.589C134.45 509.589 133.161 510.081 132.013 511.065V508.686C133.278 507.936 134.739 507.561 136.396 507.561C139.427 507.561 140.942 509.054 140.942 512.038V519.843ZM138.317 513.948L135.798 514.3C135.017 514.401 134.427 514.593 134.028 514.874C133.638 515.147 133.442 515.632 133.442 516.327C133.442 516.835 133.622 517.253 133.981 517.581C134.349 517.901 134.837 518.061 135.446 518.061C136.274 518.061 136.958 517.772 137.497 517.194C138.044 516.608 138.317 515.874 138.317 514.991V513.948ZM154.958 519.843H152.239V513.081C152.239 510.839 151.446 509.718 149.86 509.718C149.032 509.718 148.349 510.03 147.81 510.655C147.271 511.272 147.001 512.054 147.001 512.999V519.843H144.271V507.843H147.001V509.835H147.048C147.946 508.319 149.243 507.561 150.938 507.561C152.243 507.561 153.239 507.987 153.927 508.839C154.614 509.682 154.958 510.905 154.958 512.507V519.843ZM169.208 518.882C169.208 523.288 166.993 525.491 162.563 525.491C161.001 525.491 159.638 525.229 158.474 524.706V522.222C159.786 522.972 161.032 523.347 162.212 523.347C165.063 523.347 166.489 521.944 166.489 519.14V517.827H166.442C165.544 519.358 164.192 520.124 162.388 520.124C160.927 520.124 159.747 519.593 158.849 518.53C157.958 517.46 157.513 516.026 157.513 514.229C157.513 512.19 157.993 510.569 158.954 509.366C159.915 508.163 161.235 507.561 162.915 507.561C164.501 507.561 165.677 508.21 166.442 509.507H166.489V507.843H169.208V518.882ZM166.513 514.347V512.788C166.513 511.944 166.231 511.225 165.669 510.632C165.114 510.03 164.419 509.729 163.583 509.729C162.552 509.729 161.743 510.112 161.157 510.878C160.579 511.636 160.29 512.698 160.29 514.065C160.29 515.245 160.567 516.19 161.122 516.901C161.685 517.604 162.427 517.956 163.349 517.956C164.286 517.956 165.048 517.62 165.634 516.948C166.22 516.268 166.513 515.401 166.513 514.347ZM182.907 514.581H174.728C174.759 515.69 175.099 516.546 175.747 517.147C176.403 517.749 177.302 518.05 178.442 518.05C179.724 518.05 180.899 517.667 181.97 516.901V519.093C180.876 519.78 179.431 520.124 177.634 520.124C175.868 520.124 174.481 519.581 173.474 518.495C172.474 517.401 171.974 515.866 171.974 513.89C171.974 512.022 172.524 510.503 173.626 509.331C174.735 508.151 176.11 507.561 177.751 507.561C179.392 507.561 180.661 508.089 181.56 509.143C182.458 510.198 182.907 511.663 182.907 513.538V514.581ZM180.282 512.659C180.274 511.682 180.044 510.925 179.591 510.386C179.138 509.839 178.513 509.565 177.716 509.565C176.935 509.565 176.271 509.85 175.724 510.421C175.185 510.991 174.853 511.737 174.728 512.659H180.282ZM191.356 519.468V516.948C192.372 517.722 193.493 518.108 194.72 518.108C196.36 518.108 197.181 517.624 197.181 516.655C197.181 516.382 197.11 516.151 196.97 515.964C196.829 515.768 196.638 515.597 196.396 515.448C196.161 515.3 195.88 515.167 195.552 515.05C195.231 514.932 194.872 514.8 194.474 514.651C193.981 514.456 193.536 514.249 193.138 514.03C192.747 513.811 192.419 513.565 192.153 513.292C191.896 513.011 191.7 512.694 191.567 512.343C191.435 511.991 191.368 511.581 191.368 511.112C191.368 510.534 191.505 510.026 191.778 509.589C192.052 509.143 192.419 508.772 192.88 508.475C193.341 508.171 193.864 507.944 194.45 507.796C195.036 507.64 195.642 507.561 196.267 507.561C197.376 507.561 198.368 507.729 199.243 508.065V510.444C198.399 509.866 197.431 509.577 196.337 509.577C195.993 509.577 195.681 509.612 195.399 509.682C195.126 509.753 194.892 509.85 194.696 509.975C194.501 510.1 194.349 510.253 194.239 510.432C194.13 510.604 194.075 510.796 194.075 511.007C194.075 511.265 194.13 511.483 194.239 511.663C194.349 511.843 194.509 512.003 194.72 512.143C194.938 512.276 195.196 512.401 195.493 512.518C195.798 512.628 196.146 512.749 196.536 512.882C197.052 513.093 197.513 513.307 197.919 513.526C198.333 513.745 198.685 513.995 198.974 514.276C199.263 514.55 199.485 514.87 199.642 515.237C199.798 515.597 199.876 516.026 199.876 516.526C199.876 517.136 199.735 517.667 199.454 518.12C199.173 518.573 198.798 518.948 198.329 519.245C197.86 519.542 197.317 519.761 196.7 519.901C196.091 520.05 195.446 520.124 194.767 520.124C193.454 520.124 192.317 519.905 191.356 519.468ZM212.626 514.581H204.446C204.478 515.69 204.817 516.546 205.466 517.147C206.122 517.749 207.021 518.05 208.161 518.05C209.442 518.05 210.618 517.667 211.688 516.901V519.093C210.595 519.78 209.149 520.124 207.353 520.124C205.587 520.124 204.2 519.581 203.192 518.495C202.192 517.401 201.692 515.866 201.692 513.89C201.692 512.022 202.243 510.503 203.345 509.331C204.454 508.151 205.829 507.561 207.47 507.561C209.11 507.561 210.38 508.089 211.278 509.143C212.177 510.198 212.626 511.663 212.626 513.538V514.581ZM210.001 512.659C209.993 511.682 209.763 510.925 209.31 510.386C208.856 509.839 208.231 509.565 207.435 509.565C206.653 509.565 205.989 509.85 205.442 510.421C204.903 510.991 204.571 511.737 204.446 512.659H210.001ZM225.552 507.843L220.911 519.843H217.97L213.552 507.843H216.505L219.165 516.233C219.368 516.85 219.493 517.39 219.54 517.85H219.575C219.646 517.272 219.755 516.749 219.903 516.28L222.692 507.843H225.552ZM237.376 514.581H229.196C229.228 515.69 229.567 516.546 230.216 517.147C230.872 517.749 231.771 518.05 232.911 518.05C234.192 518.05 235.368 517.667 236.438 516.901V519.093C235.345 519.78 233.899 520.124 232.103 520.124C230.337 520.124 228.95 519.581 227.942 518.495C226.942 517.401 226.442 515.866 226.442 513.89C226.442 512.022 226.993 510.503 228.095 509.331C229.204 508.151 230.579 507.561 232.22 507.561C233.86 507.561 235.13 508.089 236.028 509.143C236.927 510.198 237.376 511.663 237.376 513.538V514.581ZM234.751 512.659C234.743 511.682 234.513 510.925 234.06 510.386C233.606 509.839 232.981 509.565 232.185 509.565C231.403 509.565 230.739 509.85 230.192 510.421C229.653 510.991 229.321 511.737 229.196 512.659H234.751ZM246.927 510.432C246.599 510.175 246.126 510.046 245.509 510.046C244.704 510.046 244.032 510.409 243.493 511.136C242.954 511.862 242.685 512.85 242.685 514.1V519.843H239.966V507.843H242.685V510.315H242.731C242.997 509.472 243.403 508.815 243.95 508.347C244.505 507.87 245.122 507.632 245.802 507.632C246.294 507.632 246.669 507.706 246.927 507.854V510.432ZM258.798 514.581H250.618C250.649 515.69 250.989 516.546 251.638 517.147C252.294 517.749 253.192 518.05 254.333 518.05C255.614 518.05 256.79 517.667 257.86 516.901V519.093C256.767 519.78 255.321 520.124 253.524 520.124C251.759 520.124 250.372 519.581 249.364 518.495C248.364 517.401 247.864 515.866 247.864 513.89C247.864 512.022 248.415 510.503 249.517 509.331C250.626 508.151 252.001 507.561 253.642 507.561C255.282 507.561 256.552 508.089 257.45 509.143C258.349 510.198 258.798 511.663 258.798 513.538V514.581ZM256.173 512.659C256.165 511.682 255.935 510.925 255.481 510.386C255.028 509.839 254.403 509.565 253.606 509.565C252.825 509.565 252.161 509.85 251.614 510.421C251.075 510.991 250.743 511.737 250.618 512.659H256.173ZM272.298 519.843H269.579V517.804H269.532C268.657 519.35 267.31 520.124 265.489 520.124C264.013 520.124 262.829 519.589 261.938 518.518C261.056 517.44 260.614 515.975 260.614 514.124C260.614 512.14 261.103 510.55 262.079 509.354C263.063 508.159 264.372 507.561 266.005 507.561C267.622 507.561 268.798 508.21 269.532 509.507H269.579V502.077H272.298V519.843ZM269.614 514.358V512.788C269.614 511.936 269.337 511.214 268.782 510.62C268.228 510.026 267.521 509.729 266.661 509.729C265.646 509.729 264.845 510.108 264.259 510.866C263.681 511.624 263.392 512.675 263.392 514.018C263.392 515.237 263.669 516.202 264.224 516.913C264.786 517.616 265.54 517.968 266.485 517.968C267.415 517.968 268.169 517.628 268.747 516.948C269.325 516.261 269.614 515.397 269.614 514.358ZM283.829 505.323C283.384 505.323 283.001 505.179 282.681 504.89C282.368 504.6 282.212 504.233 282.212 503.788C282.212 503.343 282.368 502.972 282.681 502.675C283.001 502.378 283.384 502.229 283.829 502.229C284.29 502.229 284.681 502.378 285.001 502.675C285.321 502.972 285.481 503.343 285.481 503.788C285.481 504.21 285.321 504.573 285.001 504.878C284.681 505.175 284.29 505.323 283.829 505.323ZM285.177 519.843H282.458V507.843H285.177V519.843ZM299.427 519.843H296.708V513.081C296.708 510.839 295.915 509.718 294.329 509.718C293.501 509.718 292.817 510.03 292.278 510.655C291.739 511.272 291.47 512.054 291.47 512.999V519.843H288.739V507.843H291.47V509.835H291.517C292.415 508.319 293.712 507.561 295.407 507.561C296.712 507.561 297.708 507.987 298.396 508.839C299.083 509.682 299.427 510.905 299.427 512.507V519.843ZM312.13 518.073H312.083V525.362H309.364V507.843H312.083V509.952H312.13C313.06 508.358 314.419 507.561 316.208 507.561C317.731 507.561 318.919 508.097 319.771 509.167C320.622 510.237 321.048 511.675 321.048 513.479C321.048 515.479 320.567 517.081 319.606 518.284C318.646 519.487 317.333 520.089 315.669 520.089C314.138 520.089 312.958 519.417 312.13 518.073ZM312.06 513.339V514.827C312.06 515.702 312.337 516.444 312.892 517.054C313.454 517.663 314.165 517.968 315.024 517.968C316.032 517.968 316.821 517.577 317.392 516.796C317.97 516.007 318.259 514.909 318.259 513.503C318.259 512.323 317.989 511.401 317.45 510.737C316.919 510.065 316.196 509.729 315.282 509.729C314.313 509.729 313.532 510.073 312.938 510.761C312.353 511.448 312.06 512.307 312.06 513.339ZM330.786 510.432C330.458 510.175 329.985 510.046 329.368 510.046C328.563 510.046 327.892 510.409 327.353 511.136C326.813 511.862 326.544 512.85 326.544 514.1V519.843H323.825V507.843H326.544V510.315H326.591C326.856 509.472 327.263 508.815 327.81 508.347C328.364 507.87 328.981 507.632 329.661 507.632C330.153 507.632 330.528 507.706 330.786 507.854V510.432ZM337.817 520.124C335.966 520.124 334.485 519.565 333.376 518.448C332.274 517.323 331.724 515.835 331.724 513.983C331.724 511.968 332.298 510.393 333.446 509.261C334.603 508.128 336.157 507.561 338.11 507.561C339.985 507.561 341.446 508.112 342.493 509.214C343.54 510.315 344.063 511.843 344.063 513.796C344.063 515.71 343.497 517.245 342.364 518.401C341.239 519.55 339.724 520.124 337.817 520.124ZM337.946 509.729C336.884 509.729 336.044 510.1 335.427 510.843C334.81 511.585 334.501 512.608 334.501 513.913C334.501 515.171 334.813 516.163 335.438 516.89C336.063 517.608 336.899 517.968 337.946 517.968C339.017 517.968 339.837 517.612 340.407 516.901C340.985 516.19 341.274 515.179 341.274 513.866C341.274 512.546 340.985 511.526 340.407 510.807C339.837 510.089 339.017 509.729 337.946 509.729ZM357.763 518.882C357.763 523.288 355.548 525.491 351.118 525.491C349.556 525.491 348.192 525.229 347.028 524.706V522.222C348.341 522.972 349.587 523.347 350.767 523.347C353.618 523.347 355.044 521.944 355.044 519.14V517.827H354.997C354.099 519.358 352.747 520.124 350.942 520.124C349.481 520.124 348.302 519.593 347.403 518.53C346.513 517.46 346.067 516.026 346.067 514.229C346.067 512.19 346.548 510.569 347.509 509.366C348.47 508.163 349.79 507.561 351.47 507.561C353.056 507.561 354.231 508.21 354.997 509.507H355.044V507.843H357.763V518.882ZM355.067 514.347V512.788C355.067 511.944 354.786 511.225 354.224 510.632C353.669 510.03 352.974 509.729 352.138 509.729C351.106 509.729 350.298 510.112 349.712 510.878C349.134 511.636 348.845 512.698 348.845 514.065C348.845 515.245 349.122 516.19 349.677 516.901C350.239 517.604 350.981 517.956 351.903 517.956C352.841 517.956 353.603 517.62 354.188 516.948C354.774 516.268 355.067 515.401 355.067 514.347ZM368.263 510.432C367.935 510.175 367.462 510.046 366.845 510.046C366.04 510.046 365.368 510.409 364.829 511.136C364.29 511.862 364.021 512.85 364.021 514.1V519.843H361.302V507.843H364.021V510.315H364.067C364.333 509.472 364.739 508.815 365.286 508.347C365.841 507.87 366.458 507.632 367.138 507.632C367.63 507.632 368.005 507.706 368.263 507.854V510.432ZM379.396 519.843H376.759V517.968H376.712C375.884 519.405 374.669 520.124 373.067 520.124C371.888 520.124 370.962 519.804 370.29 519.163C369.626 518.522 369.294 517.675 369.294 516.62C369.294 514.354 370.599 513.034 373.208 512.659L376.771 512.155C376.771 510.444 375.958 509.589 374.333 509.589C372.903 509.589 371.614 510.081 370.466 511.065V508.686C371.731 507.936 373.192 507.561 374.849 507.561C377.88 507.561 379.396 509.054 379.396 512.038V519.843ZM376.771 513.948L374.251 514.3C373.47 514.401 372.88 514.593 372.481 514.874C372.091 515.147 371.896 515.632 371.896 516.327C371.896 516.835 372.075 517.253 372.435 517.581C372.802 517.901 373.29 518.061 373.899 518.061C374.728 518.061 375.411 517.772 375.95 517.194C376.497 516.608 376.771 515.874 376.771 514.991V513.948ZM400.665 519.843H397.946V513.304C397.946 512.046 397.767 511.136 397.407 510.573C397.056 510.011 396.458 509.729 395.614 509.729C394.903 509.729 394.298 510.085 393.798 510.796C393.306 511.507 393.06 512.358 393.06 513.35V519.843H390.329V513.081C390.329 510.847 389.54 509.729 387.962 509.729C387.228 509.729 386.622 510.065 386.146 510.737C385.677 511.409 385.442 512.28 385.442 513.35V519.843H382.724V507.843H385.442V509.741H385.489C386.356 508.288 387.618 507.561 389.274 507.561C390.103 507.561 390.825 507.792 391.442 508.253C392.067 508.706 392.493 509.304 392.72 510.046C393.61 508.39 394.938 507.561 396.704 507.561C399.345 507.561 400.665 509.19 400.665 512.448V519.843Z" fill="#0D0A3A"/>
</g>
<defs>
<clipPath id="clip0_51_31">
<rect width="517.556" height="577.096" fill="white" transform="translate(0 0.952026)"/>
</clipPath>
</defs>
</svg>
