<svg width="518" height="578" viewBox="0 0 518 578" fill="none" xmlns="http://www.w3.org/2000/svg">
<g clip-path="url(#clip0_8_782)">
<path d="M143.302 367.466V344.006L197.022 267.166H229.502V342.306H243.442V367.466H229.502V389.566H200.432V367.466H143.302ZM202.462 299.126L173.902 342.306H202.462V299.126ZM346.802 343.156H317.217V373.416H289.677V343.156H260.102V317.146H289.682V286.716H317.222V317.146H346.802V343.156Z" fill="#0D0A3A"/>
<path d="M157.562 471.167C163.522 471.167 168.002 468.247 170.002 462.847L165.322 461.087C164.122 464.607 161.402 466.407 157.562 466.407C152.202 466.407 149.042 462.847 149.042 456.567C149.042 450.327 152.162 446.807 157.562 446.807C161.362 446.807 164.082 448.527 165.322 452.007L169.922 450.207C167.882 444.887 163.442 442.047 157.562 442.047C149.322 442.047 144.042 447.687 144.042 456.607C144.042 465.527 149.322 471.167 157.562 471.167ZM181.122 470.967C187.202 470.967 191.002 466.247 191.002 460.687C191.002 455.087 187.202 450.447 181.122 450.447C175.002 450.447 171.242 455.087 171.242 460.687C171.242 466.247 175.002 470.967 181.122 470.967ZM181.122 466.767C177.482 466.767 176.042 463.887 176.042 460.687C176.042 457.447 177.482 454.647 181.122 454.647C184.762 454.647 186.202 457.447 186.202 460.687C186.202 463.887 184.762 466.767 181.122 466.767ZM205.602 450.447C204.467 450.384 203.333 450.594 202.295 451.06C201.258 451.527 200.348 452.236 199.642 453.127V450.847H194.842V470.567H199.642V462.687C199.642 459.167 199.642 454.647 204.122 454.647C207.762 454.647 207.762 457.687 207.762 459.047V470.567H212.562V457.847C212.562 453.167 210.042 450.447 205.602 450.447ZM228.242 454.647V450.847H223.322V443.487L218.522 447.047V450.847H215.322V454.647H218.522V465.047C218.522 469.247 221.322 470.967 224.642 470.967C225.867 470.963 227.082 470.76 228.242 470.367V466.527C227.468 466.791 226.659 466.939 225.842 466.967C224.282 466.967 223.322 466.247 223.322 464.687V454.647H228.242ZM232.322 447.127H237.362V442.687H232.322V447.127ZM232.442 470.567H237.242V450.847H232.442V470.567ZM253.602 450.447C252.467 450.384 251.333 450.594 250.295 451.06C249.258 451.527 248.348 452.236 247.642 453.127V450.847H242.842V470.567H247.642V462.687C247.642 459.167 247.642 454.647 252.122 454.647C255.762 454.647 255.762 457.687 255.762 459.047V470.567H260.562V457.847C260.562 453.167 258.042 450.447 253.602 450.447ZM282.522 460.447C282.522 454.967 279.562 450.447 273.442 450.447C266.882 450.447 264.082 455.647 264.082 460.807C264.082 466.087 266.962 470.967 273.762 470.967C275.289 471.013 276.807 470.717 278.205 470.101C279.603 469.485 280.845 468.565 281.842 467.407L278.522 464.487C277.947 465.175 277.224 465.723 276.406 466.091C275.588 466.458 274.698 466.634 273.802 466.607C270.682 466.607 269.082 464.887 268.882 462.287H282.402C282.48 461.677 282.521 461.062 282.522 460.447ZM268.842 458.487C268.941 457.358 269.469 456.31 270.317 455.558C271.165 454.807 272.269 454.409 273.402 454.447C275.922 454.447 277.842 455.967 277.922 458.487H268.842ZM297.242 450.447C296.107 450.384 294.973 450.594 293.935 451.06C292.898 451.527 291.988 452.236 291.282 453.127V450.847H286.482V470.567H291.282V462.687C291.282 459.167 291.282 454.647 295.762 454.647C299.402 454.647 299.402 457.687 299.402 459.047V470.567H304.202V457.847C304.202 453.167 301.682 450.447 297.242 450.447ZM319.882 454.647V450.847H314.962V443.487L310.162 447.047V450.847H306.962V454.647H310.162V465.047C310.162 469.247 312.962 470.967 316.282 470.967C317.507 470.963 318.722 470.76 319.882 470.367V466.527C319.108 466.791 318.299 466.939 317.482 466.967C315.922 466.967 314.962 466.247 314.962 464.687V454.647H319.882ZM330.722 470.967C334.442 470.967 338.402 468.967 338.402 464.367C338.402 457.167 328.082 458.927 328.082 455.927C328.082 455.007 329.042 454.247 330.602 454.247C331.43 454.239 332.242 454.473 332.939 454.921C333.635 455.369 334.186 456.01 334.522 456.767L338.242 454.727C337.519 453.386 336.435 452.275 335.113 451.519C333.791 450.762 332.284 450.391 330.762 450.447C326.962 450.447 323.522 452.407 323.522 456.207C323.522 463.527 333.682 461.327 333.682 464.647C333.682 465.687 332.722 466.967 330.482 466.967C329.519 466.98 328.58 466.666 327.818 466.078C327.055 465.49 326.514 464.661 326.282 463.727L322.442 465.447C323.066 467.121 324.202 468.555 325.689 469.546C327.176 470.537 328.937 471.034 330.722 470.967Z" fill="#0D0A3A"/>
<path d="M200.843 506.852C204.587 506.852 206.849 504.798 206.849 501.652C206.849 499.104 205.649 497.674 201.675 496.166C198.867 495.074 197.723 494.266 197.723 492.76C197.745 492.399 197.839 492.046 198 491.721C198.16 491.396 198.384 491.107 198.657 490.87C198.931 490.632 199.249 490.452 199.593 490.339C199.937 490.226 200.3 490.183 200.661 490.212C201.377 490.219 202.076 490.427 202.679 490.813C203.281 491.2 203.763 491.749 204.067 492.396L206.017 491.196C205.515 490.24 204.754 489.445 203.82 488.902C202.886 488.359 201.818 488.091 200.739 488.128C197.567 488.128 195.409 490.028 195.409 492.834C195.409 495.278 196.709 496.604 200.427 498.034C203.443 499.204 204.509 500.14 204.509 501.856C204.509 503.546 203.235 504.768 200.869 504.768C199.818 504.832 198.784 504.486 197.984 503.802C197.183 503.118 196.68 502.15 196.579 501.102L194.291 501.674C194.785 504.798 197.411 506.852 200.843 506.852ZM221.019 499.676C221.019 496.556 219.277 493.514 215.351 493.514C211.451 493.514 209.527 496.686 209.527 500.222C209.527 503.784 211.477 506.8 215.559 506.8C216.511 506.83 217.458 506.647 218.33 506.265C219.202 505.883 219.979 505.311 220.602 504.59L219.068 503.212C218.64 503.713 218.104 504.111 217.501 504.377C216.898 504.642 216.243 504.769 215.585 504.746C213.219 504.746 211.841 503.264 211.763 500.82H220.941C220.994 500.441 221.02 500.059 221.019 499.676ZM211.763 499C211.759 498.05 212.132 497.136 212.799 496.459C213.466 495.782 214.374 495.396 215.325 495.386C215.784 495.356 216.244 495.422 216.676 495.579C217.108 495.736 217.503 495.982 217.836 496.299C218.168 496.617 218.431 497.001 218.607 497.425C218.784 497.85 218.87 498.307 218.861 498.766C218.854 498.845 218.862 498.925 218.887 499H211.763ZM230.223 493.514C229.458 493.494 228.703 493.694 228.049 494.09C227.394 494.487 226.867 495.063 226.531 495.75V493.75H224.295V506.566H226.531V499.65C226.531 496.998 227.805 495.62 229.755 495.62C230.332 495.623 230.901 495.756 231.419 496.01L232.511 494.138C231.821 493.722 231.029 493.506 230.223 493.514ZM238.543 506.566H240.415L245.667 493.748H243.223L239.453 503.68L235.735 493.748H233.317L238.543 506.566ZM258.202 499.676C258.202 496.556 256.46 493.514 252.534 493.514C248.634 493.514 246.71 496.686 246.71 500.222C246.71 503.784 248.66 506.8 252.742 506.8C253.694 506.83 254.641 506.647 255.514 506.265C256.386 505.883 257.163 505.311 257.786 504.59L256.249 503.212C255.821 503.713 255.285 504.111 254.682 504.377C254.079 504.642 253.424 504.769 252.765 504.746C250.399 504.746 249.021 503.264 248.943 500.82H258.121C258.175 500.441 258.202 500.059 258.202 499.676ZM248.946 499C248.942 498.051 249.314 497.138 249.98 496.461C250.646 495.784 251.552 495.398 252.502 495.386C252.961 495.356 253.422 495.421 253.854 495.578C254.287 495.735 254.682 495.98 255.015 496.298C255.348 496.616 255.611 497 255.787 497.424C255.964 497.849 256.05 498.306 256.041 498.766C256.034 498.845 256.042 498.925 256.067 499H248.946ZM270.136 488.444V495.36C269.649 494.759 269.03 494.28 268.326 493.959C267.622 493.639 266.853 493.487 266.08 493.514C262.648 493.514 260.464 496.088 260.464 500.144C260.464 503.966 262.414 506.8 266.08 506.8C266.851 506.836 267.62 506.69 268.325 506.374C269.029 506.058 269.65 505.58 270.136 504.98V506.566H272.372V488.444H270.136ZM266.493 504.772C263.971 504.772 262.693 502.872 262.693 500.144C262.693 497.336 264.071 495.516 266.493 495.516C268.963 495.516 270.315 497.416 270.315 500.144C270.315 502.796 269.041 504.772 266.493 504.772Z" fill="#0D0A3A"/>
<path d="M310.731 143.221L310.98 143.235C312.11 143.364 313.218 143.642 314.275 144.062C316.294 144.862 317.782 146.104 318.275 148.036C318.865 150.325 317.775 152.736 315.2 155.304C314.407 156.094 308.639 161.704 306.843 163.504C305.443 164.913 304.188 166.204 303.043 167.436C297.914 172.949 295.1 177.13 295.1 179.287C295.1 179.974 295.109 180.432 295.153 182.082C295.389 185.851 295.192 189.635 294.566 193.359C293.83 197.957 291.682 202.213 288.421 205.537C286.231 207.72 284.221 210.588 280.73 216.21L279.883 217.577C273.503 227.877 270.454 231.784 265.853 233.777C264.626 234.309 260.837 236.077 260.069 236.391C258.539 237.159 256.809 237.439 255.115 237.191C253.215 236.832 251.575 235.691 249.172 233.291C242.312 226.452 236.503 215.962 236.503 208.091C236.503 206.391 236.538 205.613 236.814 200.366C236.964 197.516 237.045 195.654 237.089 193.729C237.277 185.538 236.517 180.275 234.725 178.488C233.07 176.819 231.69 174.899 230.634 172.8C230.134 171.837 230.007 171.569 228.979 169.31C227.65 166.386 226.85 165.018 225.563 163.735C221.563 159.749 219.394 159.316 212.614 162.135C203.414 165.957 195.147 164.677 188.919 158.469C180.093 149.658 173.722 132.016 181.176 124.585C182.489 123.276 191.105 115.53 192.592 113.685C193.786 112.419 194.491 110.769 194.581 109.031C194.581 101.831 203.067 96.1487 211.724 96.1487C214.371 96.0202 216.995 95.5976 219.548 94.8887C220.038 94.7717 220.542 94.6487 221.203 94.4887C230.844 92.1117 232.686 91.8457 234.87 94.0237C235.719 94.8697 238.87 99.4117 238.853 99.3877C241.296 102.641 243.453 104.229 245.9 104.229C248.4 104.233 250.896 104.008 253.355 103.558C254.519 103.358 255.108 103.264 255.696 103.175C257.118 102.947 258.556 102.829 259.996 102.823C262.071 102.823 262.489 102.894 272.628 104.795C273.745 105.004 274.692 105.178 275.595 105.339C278.124 105.789 280.221 106.118 282.08 106.345C286.04 106.826 289.244 108.961 290.527 112.461L301.127 141.396C301.332 141.961 301.715 142.443 302.219 142.772C302.722 143.101 303.318 143.258 303.918 143.219L310.731 143.221ZM303.919 147.909C302.376 147.943 300.86 147.5 299.578 146.639C298.297 145.779 297.313 144.543 296.761 143.102L286.124 114.077C285.505 112.388 283.85 111.285 281.513 111.001C279.556 110.762 277.38 110.421 274.773 109.957C273.854 109.793 272.893 109.617 271.763 109.405C262.351 107.641 261.605 107.513 259.995 107.513C258.789 107.52 257.585 107.62 256.395 107.813C255.85 107.895 255.305 107.985 254.128 108.184C251.414 108.677 248.662 108.923 245.904 108.918C241.604 108.918 238.352 106.518 235.104 102.204C234.857 101.875 232.056 97.8387 231.56 97.3437C231.314 97.0987 228.611 97.4887 222.323 99.0377C221.652 99.2027 221.138 99.3287 220.635 99.4477C217.727 100.253 214.736 100.719 211.722 100.838C205.351 100.838 199.268 104.913 199.268 109.032C199.194 111.844 198.121 114.539 196.24 116.632C194.47 118.82 185.562 126.832 184.486 127.905C179.556 132.82 185.018 147.948 192.237 155.146C197.064 159.959 203.307 160.925 210.823 157.802C219.356 154.257 223.542 155.092 228.88 160.414C230.68 162.208 231.705 163.961 233.254 167.369C234.236 169.529 234.354 169.777 234.796 170.629C235.631 172.304 236.727 173.836 238.042 175.169C241.142 178.256 242.004 184.248 241.783 193.838C241.738 195.82 241.655 197.721 241.502 200.614C241.232 205.736 241.202 206.514 241.202 208.092C241.202 214.482 246.43 223.924 252.492 229.967C254.275 231.745 255.278 232.446 255.992 232.581C256.792 232.623 257.589 232.441 258.292 232.056C258.939 231.789 262.673 230.049 263.992 229.476C267.306 228.04 270.14 224.412 275.901 215.108L276.751 213.736C280.435 207.802 282.579 204.744 285.115 202.216C287.701 199.557 289.395 196.159 289.961 192.494C290.519 189.094 290.69 185.642 290.47 182.204C290.425 180.504 290.416 180.031 290.416 179.286C290.416 175.442 293.616 170.694 299.616 164.242C300.8 162.969 302.088 161.642 303.527 160.194C305.356 158.359 311.127 152.744 311.895 151.983C313.418 150.464 313.829 149.552 313.739 149.204C313.698 149.045 313.312 148.723 312.539 148.418C311.911 148.172 311.257 148.001 310.589 147.908L303.919 147.909Z" fill="#D3D2DF"/>
<path d="M305.271 198.121C304.944 198.573 304.763 198.821 304.602 199.04C304.116 199.723 303.579 200.368 302.994 200.969C302.394 201.564 301.9 202.921 301.311 205.527C301.185 206.088 301.185 206.088 301.059 206.658C300.296 210.087 299.818 211.513 298.59 212.737C297.629 213.694 297.912 214.888 300.704 217.671C300.851 217.817 301.975 218.956 302.269 219.243C302.642 219.62 303.041 219.971 303.462 220.295C304.716 221.22 305.745 220.937 309.021 217.671C310.101 216.661 310.813 215.32 311.045 213.86C311.276 212.36 311.085 210.9 310.432 208.197C309.395 203.907 309.239 202.657 310.113 200.653C311.369 197.774 311.046 196.265 309.692 195.638C308.061 194.886 307.275 195.368 305.271 198.121ZM311.661 191.386C315.661 193.238 316.583 197.548 314.41 202.53C314.14 203.15 314.252 204.051 314.989 207.099C315.779 210.368 316.03 212.292 315.678 214.576C315.295 217.023 314.119 219.277 312.331 220.992C307.607 225.702 304.174 226.646 300.68 224.069C300.084 223.618 299.521 223.126 298.994 222.597C298.664 222.275 297.515 221.112 297.394 220.992C292.994 216.61 292.057 212.63 295.28 209.417C295.587 209.111 295.953 208.017 296.48 205.64C296.605 205.076 296.605 205.076 296.736 204.492C297.529 200.992 298.217 199.109 299.682 197.649C300.098 197.215 300.481 196.75 300.829 196.26C300.977 196.06 301.145 195.829 301.48 195.366C304.66 190.994 307.308 189.372 311.661 191.386Z" fill="#D3D2DF"/>
<path d="M304.897 139.053L305.146 139.067C306.276 139.196 307.384 139.474 308.441 139.894C310.46 140.694 311.948 141.936 312.441 143.868C313.031 146.157 311.941 148.568 309.366 151.136C308.573 151.926 302.805 157.536 301.009 159.336C299.609 160.745 298.354 162.036 297.209 163.268C292.08 168.781 289.266 172.962 289.266 175.119C289.266 175.806 289.275 176.264 289.319 177.914C289.555 181.683 289.358 185.467 288.732 189.191C287.996 193.789 285.848 198.045 282.587 201.369C280.397 203.552 278.387 206.42 274.896 212.042L274.049 213.409C267.669 223.709 264.62 227.616 260.019 229.609C258.792 230.141 255.003 231.909 254.235 232.223C252.705 232.991 250.975 233.271 249.281 233.023C247.381 232.664 245.741 231.523 243.338 229.123C236.478 222.284 230.669 211.794 230.669 203.923C230.669 202.223 230.704 201.445 230.98 196.198C231.13 193.348 231.211 191.486 231.255 189.561C231.443 181.37 230.683 176.107 228.891 174.32C227.237 172.651 225.856 170.731 224.8 168.632C224.3 167.669 224.173 167.401 223.145 165.142C221.816 162.218 221.016 160.85 219.729 159.567C215.729 155.581 213.56 155.148 206.78 157.967C197.58 161.789 189.313 160.509 183.085 154.301C174.259 145.49 167.888 127.848 175.342 120.417C176.655 119.108 185.271 111.362 186.758 109.517C187.952 108.251 188.657 106.601 188.747 104.863C188.747 97.6627 197.233 91.9807 205.89 91.9807C208.537 91.8522 211.161 91.4296 213.714 90.7207C214.204 90.6037 214.708 90.4807 215.369 90.3207C225.01 87.9437 226.852 87.6777 229.036 89.8557C229.885 90.7017 233.036 95.2437 233.019 95.2197C235.462 98.4727 237.619 100.061 240.066 100.061C242.566 100.065 245.062 99.8401 247.521 99.3897C248.685 99.1897 249.274 99.0957 249.862 99.0067C251.284 98.7785 252.722 98.6609 254.162 98.6547C256.237 98.6547 256.655 98.7257 266.794 100.627C267.911 100.836 268.858 101.01 269.761 101.171C272.29 101.621 274.387 101.95 276.246 102.177C280.206 102.658 283.41 104.793 284.693 108.293L295.293 137.228C295.498 137.793 295.881 138.276 296.385 138.604C296.888 138.933 297.484 139.09 298.084 139.051L304.897 139.053ZM298.085 143.741C296.542 143.775 295.026 143.332 293.744 142.471C292.463 141.611 291.479 140.375 290.927 138.934L280.29 109.909C279.671 108.22 278.016 107.117 275.679 106.833C273.722 106.594 271.546 106.253 268.939 105.789C268.02 105.625 267.059 105.449 265.929 105.237C256.517 103.473 255.771 103.345 254.161 103.345C252.955 103.352 251.751 103.452 250.561 103.645C250.016 103.727 249.471 103.817 248.294 104.016C245.58 104.509 242.828 104.755 240.07 104.75C235.77 104.75 232.518 102.35 229.27 98.0357C229.023 97.7067 226.222 93.6707 225.726 93.1757C225.48 92.9307 222.777 93.3207 216.489 94.8697C215.818 95.0347 215.304 95.1607 214.801 95.2797C211.893 96.0847 208.902 96.5512 205.888 96.6697C199.517 96.6697 193.434 100.745 193.434 104.864C193.36 107.677 192.287 110.371 190.406 112.464C188.636 114.652 179.728 122.664 178.652 123.737C173.722 128.652 179.184 143.78 186.403 150.978C191.23 155.791 197.473 156.757 204.989 153.634C213.522 150.089 217.708 150.924 223.046 156.246C224.846 158.04 225.871 159.793 227.42 163.201C228.402 165.361 228.52 165.609 228.962 166.461C229.797 168.136 230.893 169.668 232.208 171.001C235.308 174.088 236.17 180.08 235.949 189.67C235.904 191.652 235.821 193.553 235.668 196.446C235.398 201.568 235.368 202.346 235.368 203.924C235.368 210.314 240.596 219.756 246.658 225.799C248.441 227.577 249.444 228.278 250.158 228.413C250.958 228.455 251.755 228.273 252.458 227.888C253.105 227.621 256.839 225.881 258.158 225.308C261.472 223.872 264.306 220.244 270.067 210.94L270.917 209.568C274.601 203.634 276.745 200.576 279.281 198.048C281.867 195.389 283.561 191.991 284.127 188.326C284.685 184.926 284.856 181.474 284.636 178.036C284.591 176.336 284.582 175.863 284.582 175.118C284.582 171.274 287.782 166.526 293.782 160.074C294.966 158.801 296.254 157.474 297.693 156.026C299.522 154.191 305.293 148.576 306.061 147.815C307.584 146.296 307.995 145.384 307.905 145.036C307.864 144.877 307.478 144.555 306.705 144.25C306.077 144.004 305.423 143.833 304.755 143.74L298.085 143.741Z" fill="#0D0A3A"/>
<path d="M299.437 193.953C299.11 194.405 298.929 194.653 298.768 194.872C298.282 195.555 297.745 196.2 297.16 196.801C296.56 197.396 296.066 198.753 295.477 201.359C295.351 201.92 295.351 201.92 295.225 202.49C294.462 205.919 293.984 207.345 292.756 208.569C291.795 209.526 292.078 210.72 294.87 213.503C295.017 213.649 296.141 214.788 296.435 215.075C296.808 215.452 297.207 215.803 297.628 216.127C298.882 217.052 299.911 216.769 303.187 213.503C304.267 212.493 304.979 211.152 305.211 209.692C305.442 208.192 305.251 206.732 304.598 204.029C303.561 199.739 303.405 198.489 304.279 196.485C305.535 193.606 305.212 192.097 303.858 191.47C302.227 190.718 301.441 191.2 299.437 193.953ZM305.827 187.218C309.827 189.07 310.749 193.38 308.576 198.362C308.306 198.982 308.418 199.883 309.155 202.931C309.945 206.2 310.196 208.124 309.844 210.408C309.461 212.855 308.285 215.109 306.497 216.824C301.773 221.534 298.34 222.478 294.846 219.901C294.25 219.45 293.687 218.958 293.16 218.429C292.83 218.107 291.681 216.944 291.56 216.824C287.16 212.442 286.223 208.462 289.446 205.249C289.753 204.943 290.119 203.849 290.646 201.472C290.771 200.908 290.771 200.908 290.902 200.324C291.695 196.824 292.383 194.941 293.848 193.481C294.264 193.047 294.647 192.582 294.995 192.092C295.143 191.892 295.311 191.661 295.646 191.198C298.826 186.826 301.474 185.204 305.827 187.218Z" fill="#0D0A3A"/>
<path d="M2.62305 486.301V574.641H75.9458" stroke="#0D0A3A" stroke-width="5" stroke-linecap="round" stroke-linejoin="round"/>
<path d="M2.62402 90.8898V2.54883H75.947" stroke="#0D0A3A" stroke-width="5" stroke-linecap="round" stroke-linejoin="round"/>
<path d="M515.179 90.8887V2.54883H441.855" stroke="#0D0A3A" stroke-width="5" stroke-linecap="round" stroke-linejoin="round"/>
<path d="M515.18 486.305V574.646H441.857" stroke="#0D0A3A" stroke-width="5" stroke-linecap="round" stroke-linejoin="round"/>
</g>
<defs>
<clipPath id="clip0_8_782">
<rect width="517.556" height="577.095" fill="white" transform="translate(0.124023 0.0488281)"/>
</clipPath>
</defs>
</svg>
