<svg width="519" height="578" viewBox="0 0 519 578" fill="none" xmlns="http://www.w3.org/2000/svg">
<g clip-path="url(#clip0_8_706)">
<path d="M3.01172 486.301V574.641H76.3345" stroke="#0D0A3A" stroke-width="5" stroke-linecap="round" stroke-linejoin="round"/>
<path d="M3.0127 90.8898V2.54883H76.3357" stroke="#0D0A3A" stroke-width="5" stroke-linecap="round" stroke-linejoin="round"/>
<path d="M515.568 90.8887V2.54883H442.244" stroke="#0D0A3A" stroke-width="5" stroke-linecap="round" stroke-linejoin="round"/>
<path d="M515.569 486.305V574.646H442.246" stroke="#0D0A3A" stroke-width="5" stroke-linecap="round" stroke-linejoin="round"/>
<path d="M261.742 94.9395C245.069 94.9545 229.084 101.584 217.295 113.374C205.506 125.163 198.876 141.148 198.861 157.82C198.876 174.493 205.506 190.478 217.295 202.267C229.084 214.057 245.069 220.686 261.742 220.701C278.414 220.686 294.4 214.057 306.189 202.267C317.978 190.478 324.608 174.493 324.623 157.82C324.608 141.148 317.978 125.163 306.189 113.374C294.4 101.584 278.414 94.9545 261.742 94.9395ZM261.742 214.346C256.05 214.346 250.093 205.212 246.386 190.253C251.461 189.401 256.596 188.959 261.742 188.929C266.89 188.899 272.031 189.342 277.098 190.253C273.391 205.212 267.434 214.346 261.742 214.346ZM242.812 154.646C243.024 146.881 243.776 139.14 245.062 131.479C250.57 132.441 256.15 132.928 261.742 132.935C267.333 132.922 272.913 132.435 278.422 131.479C279.845 139.122 280.598 146.873 280.672 154.646H242.812ZM280.673 161C280.46 168.766 279.709 176.507 278.423 184.167C272.915 183.206 267.334 182.719 261.743 182.711C256.152 182.725 250.572 183.212 245.063 184.167C243.64 176.525 242.887 168.774 242.813 161H280.673ZM261.743 126.581C256.594 126.612 251.454 126.169 246.387 125.257C250.094 110.298 256.187 101.164 261.743 101.164C267.299 101.164 273.393 110.298 277.099 125.257C272.031 126.168 266.891 126.61 261.742 126.578L261.743 126.581ZM274.319 102.753C284.518 105.104 293.865 110.234 301.324 117.576C295.587 120.55 289.492 122.775 283.188 124.195C281.202 115.458 278.161 107.912 274.318 102.749L274.319 102.753ZM240.161 124.063C233.889 122.537 227.807 120.316 222.028 117.439C229.518 110.138 238.853 105.012 249.034 102.612C245.327 107.912 242.282 115.458 240.161 124.063ZM238.837 130.285C237.372 138.324 236.577 146.47 236.461 154.639H205.215C205.866 142.77 210.27 131.415 217.791 122.209C224.421 125.817 231.498 128.533 238.84 130.285H238.837ZM236.461 160.997C236.71 169.161 237.507 177.298 238.844 185.355C231.464 187.121 224.344 189.836 217.661 193.43C210.16 184.212 205.759 172.862 205.085 160.997H236.461ZM240.168 191.577C242.286 200.177 245.198 207.727 249.038 213.023C238.838 210.672 229.49 205.54 222.032 198.196C227.769 195.229 233.861 193.005 240.161 191.577H240.168ZM283.324 191.577C289.597 193.102 295.68 195.322 301.461 198.196C293.971 205.498 284.636 210.623 274.455 213.023C278.161 207.727 281.202 200.182 283.32 191.577H283.324ZM284.648 185.223C286.116 177.184 286.913 169.037 287.031 160.865H318.268C317.617 172.736 313.213 184.092 305.692 193.298C299.011 189.804 291.948 187.094 284.644 185.223H284.648ZM287.031 154.643C286.781 146.48 285.985 138.342 284.648 130.285C292.026 128.519 299.144 125.804 305.825 122.209C313.325 131.427 317.726 142.775 318.401 154.639L287.031 154.643Z" fill="#D3D2DF"/>
<path d="M256.505 88.9395C239.832 88.9545 223.847 95.5843 212.058 107.374C200.268 119.163 193.639 135.148 193.624 151.82C193.639 168.493 200.268 184.478 212.058 196.267C223.847 208.057 239.832 214.686 256.505 214.701C273.177 214.686 289.162 208.057 300.951 196.267C312.741 184.478 319.37 168.493 319.386 151.82C319.37 135.148 312.741 119.163 300.951 107.374C289.162 95.5843 273.177 88.9545 256.505 88.9395ZM256.505 208.346C250.813 208.346 244.856 199.212 241.149 184.253C246.223 183.401 251.359 182.959 256.505 182.929C261.653 182.899 266.793 183.342 271.861 184.253C268.154 199.212 262.197 208.346 256.505 208.346ZM237.575 148.646C237.787 140.881 238.539 133.14 239.825 125.479C245.333 126.441 250.913 126.928 256.505 126.935C262.096 126.922 267.676 126.435 273.185 125.479C274.608 133.122 275.361 140.873 275.435 148.646H237.575ZM275.436 155C275.223 162.766 274.471 170.507 273.186 178.167C267.677 177.206 262.097 176.719 256.506 176.711C250.914 176.725 245.334 177.212 239.826 178.167C238.402 170.525 237.649 162.774 237.576 155H275.436ZM256.506 120.581C251.357 120.612 246.217 120.169 241.15 119.257C244.857 104.298 250.95 95.1645 256.506 95.1645C262.062 95.1645 268.156 104.298 271.862 119.257C266.794 120.168 261.653 120.61 256.505 120.578L256.506 120.581ZM269.082 96.7534C279.28 99.1035 288.628 104.234 296.087 111.576C290.349 114.55 284.254 116.775 277.951 118.195C275.965 109.458 272.924 101.912 269.081 96.7495L269.082 96.7534ZM234.924 118.063C228.651 116.537 222.569 114.316 216.791 111.439C224.28 104.138 233.616 99.0125 243.797 96.6125C240.09 101.912 237.045 109.458 234.924 118.063ZM233.6 124.285C232.134 132.324 231.34 140.47 231.224 148.639H199.978C200.629 136.77 205.033 125.415 212.554 116.209C219.183 119.817 226.261 122.533 233.603 124.285H233.6ZM231.224 154.997C231.473 163.161 232.269 171.298 233.607 179.355C226.227 181.121 219.106 183.836 212.424 187.43C204.923 178.212 200.522 166.862 199.848 154.997H231.224ZM234.931 185.577C237.049 194.177 239.961 201.727 243.801 207.023C233.601 204.672 224.253 199.54 216.795 192.196C222.532 189.229 228.624 187.005 234.924 185.577H234.931ZM278.087 185.577C284.36 187.102 290.443 189.322 296.224 192.196C288.734 199.498 279.398 204.623 269.218 207.023C272.924 201.727 275.965 194.182 278.083 185.577H278.087ZM279.411 179.223C280.878 171.184 281.675 163.037 281.794 154.865H313.031C312.38 166.736 307.976 178.092 300.455 187.298C293.774 183.804 286.711 181.094 279.407 179.223H279.411ZM281.794 148.643C281.544 140.48 280.748 132.342 279.411 124.285C286.789 122.519 293.907 119.804 300.588 116.209C308.087 125.427 312.488 136.775 313.164 148.639L281.794 148.643Z" fill="#0D0A3A"/>
<path d="M141.771 353.617C144.763 351.241 146.127 350.141 145.863 350.317C154.487 343.189 161.263 337.337 166.191 332.761C171.207 328.185 175.431 323.389 178.863 318.373C182.295 313.357 184.011 308.473 184.011 303.721C184.011 300.113 183.175 297.297 181.503 295.273C179.831 293.249 177.323 292.237 173.979 292.237C170.635 292.237 167.995 293.513 166.059 296.065C164.211 298.529 163.287 302.049 163.287 306.625H141.507C141.683 299.145 143.267 292.897 146.259 287.881C149.339 282.865 153.343 279.169 158.271 276.793C163.287 274.417 168.831 273.229 174.903 273.229C185.375 273.229 193.251 275.913 198.531 281.281C203.899 286.649 206.583 293.645 206.583 302.269C206.583 311.685 203.371 320.441 196.947 328.537C190.523 336.545 182.339 344.377 172.395 352.033H208.035V370.381H141.771V353.617ZM217.973 322.201C217.973 307.065 220.877 295.141 226.685 286.429C232.581 277.717 242.041 273.361 255.065 273.361C268.089 273.361 277.505 277.717 283.313 286.429C289.209 295.141 292.157 307.065 292.157 322.201C292.157 337.513 289.209 349.525 283.313 358.237C277.505 366.949 268.089 371.305 255.065 371.305C242.041 371.305 232.581 366.949 226.685 358.237C220.877 349.525 217.973 337.513 217.973 322.201ZM269.981 322.201C269.981 313.313 269.013 306.493 267.077 301.741C265.141 296.901 261.137 294.481 255.065 294.481C248.993 294.481 244.989 296.901 243.053 301.741C241.117 306.493 240.149 313.313 240.149 322.201C240.149 328.185 240.501 333.157 241.205 337.117C241.909 340.989 243.317 344.157 245.429 346.621C247.629 348.997 250.841 350.185 255.065 350.185C259.289 350.185 262.457 348.997 264.569 346.621C266.769 344.157 268.221 340.989 268.925 337.117C269.629 333.157 269.981 328.185 269.981 322.201ZM373.251 335.665H350.283V359.161H328.899V335.665H305.931V315.469H328.899V291.841H350.283V315.469H373.251V335.665Z" fill="#0D0A3A"/>
<path d="M195.111 454.53C193.002 455.623 190.378 456.17 187.24 456.17C183.178 456.17 179.923 454.888 177.475 452.323C175.027 449.757 173.803 446.392 173.803 442.225C173.803 437.746 175.176 434.126 177.924 431.365C180.684 428.605 184.167 427.225 188.373 427.225C191.081 427.225 193.327 427.609 195.111 428.377V432.987C193.223 431.867 191.14 431.307 188.861 431.307C185.827 431.307 183.367 432.277 181.479 434.217C179.604 436.157 178.666 438.748 178.666 441.99C178.666 445.076 179.545 447.537 181.303 449.373C183.061 451.196 185.372 452.108 188.236 452.108C190.88 452.108 193.171 451.483 195.111 450.233V454.53ZM208.783 456.17C205.697 456.17 203.23 455.239 201.381 453.377C199.545 451.502 198.627 449.022 198.627 445.936C198.627 442.576 199.584 439.953 201.498 438.065C203.425 436.177 206.016 435.233 209.271 435.233C212.396 435.233 214.831 436.151 216.576 437.987C218.321 439.823 219.193 442.368 219.193 445.623C219.193 448.813 218.249 451.372 216.361 453.299C214.486 455.213 211.96 456.17 208.783 456.17ZM208.998 438.846C207.227 438.846 205.827 439.464 204.799 440.701C203.77 441.938 203.256 443.644 203.256 445.819C203.256 447.915 203.777 449.569 204.818 450.78C205.86 451.977 207.253 452.576 208.998 452.576C210.782 452.576 212.149 451.984 213.1 450.799C214.063 449.614 214.545 447.928 214.545 445.74C214.545 443.54 214.063 441.841 213.1 440.643C212.149 439.445 210.782 438.846 208.998 438.846ZM241.264 455.701H236.732V452.537H236.654C235.339 454.959 233.295 456.17 230.521 456.17C225.795 456.17 223.432 453.332 223.432 447.655V435.701H227.963V447.186C227.963 450.78 229.35 452.576 232.123 452.576C233.464 452.576 234.564 452.082 235.424 451.092C236.296 450.102 236.732 448.807 236.732 447.205V435.701H241.264V455.701ZM264.994 455.701H260.463V444.432C260.463 440.695 259.141 438.826 256.498 438.826C255.118 438.826 253.979 439.347 253.08 440.389C252.182 441.418 251.732 442.72 251.732 444.295V455.701H247.182V435.701H251.732V439.022H251.811C253.308 436.496 255.469 435.233 258.295 435.233C260.469 435.233 262.13 435.942 263.275 437.362C264.421 438.768 264.994 440.806 264.994 443.475V455.701ZM281.088 455.487C280.202 455.929 279.037 456.151 277.592 456.151C273.712 456.151 271.771 454.289 271.771 450.565V439.256H268.432V435.701H271.771V431.073L276.303 429.783V435.701H281.088V439.256H276.303V449.256C276.303 450.441 276.518 451.287 276.947 451.795C277.377 452.303 278.093 452.557 279.096 452.557C279.864 452.557 280.528 452.336 281.088 451.893V455.487ZM296.596 440.018C296.049 439.588 295.261 439.373 294.232 439.373C292.891 439.373 291.771 439.979 290.873 441.19C289.975 442.401 289.525 444.048 289.525 446.131V455.701H284.994V435.701H289.525V439.823H289.604C290.046 438.416 290.723 437.323 291.635 436.541C292.559 435.747 293.588 435.35 294.721 435.35C295.541 435.35 296.166 435.474 296.596 435.721V440.018ZM302.084 431.502C301.342 431.502 300.704 431.261 300.17 430.78C299.649 430.298 299.389 429.686 299.389 428.944C299.389 428.201 299.649 427.583 300.17 427.088C300.704 426.593 301.342 426.346 302.084 426.346C302.852 426.346 303.503 426.593 304.037 427.088C304.571 427.583 304.838 428.201 304.838 428.944C304.838 429.647 304.571 430.252 304.037 430.76C303.503 431.255 302.852 431.502 302.084 431.502ZM304.33 455.701H299.799V435.701H304.33V455.701ZM327.201 446.932H313.568C313.62 448.781 314.187 450.207 315.268 451.209C316.361 452.212 317.859 452.713 319.76 452.713C321.895 452.713 323.855 452.075 325.639 450.799V454.451C323.816 455.597 321.407 456.17 318.412 456.17C315.469 456.17 313.158 455.265 311.479 453.455C309.812 451.632 308.979 449.074 308.979 445.78C308.979 442.668 309.896 440.135 311.732 438.182C313.581 436.216 315.873 435.233 318.607 435.233C321.342 435.233 323.458 436.112 324.955 437.869C326.452 439.627 327.201 442.069 327.201 445.194V446.932ZM322.826 443.729C322.813 442.101 322.429 440.838 321.674 439.94C320.919 439.028 319.877 438.573 318.549 438.573C317.247 438.573 316.14 439.048 315.229 439.998C314.33 440.949 313.777 442.192 313.568 443.729H322.826ZM330.268 455.076V450.877C331.96 452.166 333.829 452.811 335.873 452.811C338.607 452.811 339.975 452.003 339.975 450.389C339.975 449.933 339.857 449.549 339.623 449.237C339.389 448.911 339.07 448.625 338.666 448.377C338.275 448.13 337.807 447.908 337.26 447.713C336.726 447.518 336.127 447.296 335.463 447.049C334.643 446.724 333.9 446.378 333.236 446.014C332.585 445.649 332.038 445.239 331.596 444.783C331.166 444.315 330.84 443.787 330.619 443.201C330.398 442.615 330.287 441.932 330.287 441.151C330.287 440.187 330.515 439.341 330.971 438.612C331.426 437.869 332.038 437.251 332.807 436.756C333.575 436.248 334.447 435.871 335.424 435.623C336.4 435.363 337.41 435.233 338.451 435.233C340.3 435.233 341.954 435.513 343.412 436.073V440.037C342.006 439.074 340.391 438.592 338.568 438.592C337.995 438.592 337.475 438.651 337.006 438.768C336.55 438.885 336.16 439.048 335.834 439.256C335.508 439.464 335.255 439.718 335.072 440.018C334.89 440.304 334.799 440.623 334.799 440.975C334.799 441.405 334.89 441.769 335.072 442.069C335.255 442.368 335.521 442.635 335.873 442.869C336.238 443.091 336.667 443.299 337.162 443.494C337.67 443.677 338.249 443.878 338.9 444.1C339.76 444.451 340.528 444.809 341.205 445.174C341.895 445.539 342.481 445.955 342.963 446.424C343.445 446.88 343.816 447.414 344.076 448.026C344.337 448.625 344.467 449.341 344.467 450.174C344.467 451.19 344.232 452.075 343.764 452.83C343.295 453.586 342.67 454.211 341.889 454.705C341.107 455.2 340.202 455.565 339.174 455.799C338.158 456.046 337.084 456.17 335.951 456.17C333.764 456.17 331.869 455.806 330.268 455.076Z" fill="#0D0A3A"/>
<path d="M127.439 479.897L122.834 496.701H119.682L116.482 484.948C116.35 484.448 116.268 483.901 116.236 483.307H116.189C116.15 483.862 116.057 484.401 115.908 484.924L112.697 496.701H109.475L104.775 479.897H107.834L110.881 492.201C111.006 492.717 111.084 493.256 111.115 493.819H111.174C111.205 493.42 111.314 492.881 111.502 492.201L114.947 479.897H117.818L121.006 492.295C121.115 492.717 121.197 493.217 121.252 493.795H121.299C121.322 493.405 121.412 492.889 121.568 492.248L124.557 479.897H127.439ZM134.178 496.983C132.326 496.983 130.846 496.424 129.736 495.307C128.635 494.182 128.084 492.694 128.084 490.842C128.084 488.826 128.658 487.252 129.807 486.119C130.963 484.987 132.518 484.42 134.471 484.42C136.346 484.42 137.807 484.971 138.854 486.073C139.9 487.174 140.424 488.701 140.424 490.655C140.424 492.569 139.857 494.104 138.725 495.26C137.6 496.408 136.084 496.983 134.178 496.983ZM134.307 486.588C133.244 486.588 132.404 486.959 131.787 487.701C131.17 488.444 130.861 489.467 130.861 490.772C130.861 492.03 131.174 493.022 131.799 493.748C132.424 494.467 133.26 494.826 134.307 494.826C135.377 494.826 136.197 494.471 136.768 493.76C137.346 493.049 137.635 492.037 137.635 490.725C137.635 489.405 137.346 488.385 136.768 487.666C136.197 486.948 135.377 486.588 134.307 486.588ZM150.162 487.291C149.834 487.033 149.361 486.905 148.744 486.905C147.939 486.905 147.268 487.268 146.729 487.994C146.189 488.721 145.92 489.709 145.92 490.959V496.701H143.201V484.701H145.92V487.174H145.967C146.232 486.33 146.639 485.674 147.186 485.205C147.74 484.729 148.357 484.49 149.037 484.49C149.529 484.49 149.904 484.565 150.162 484.713V487.291ZM154.814 496.701H152.084V478.936H154.814V496.701ZM169.275 496.701H166.557V494.662H166.51C165.635 496.209 164.287 496.983 162.467 496.983C160.99 496.983 159.807 496.448 158.916 495.377C158.033 494.299 157.592 492.834 157.592 490.983C157.592 488.998 158.08 487.408 159.057 486.213C160.041 485.018 161.35 484.42 162.982 484.42C164.6 484.42 165.775 485.069 166.51 486.365H166.557V478.936H169.275V496.701ZM166.592 491.217V489.647C166.592 488.795 166.314 488.073 165.76 487.479C165.205 486.885 164.498 486.588 163.639 486.588C162.623 486.588 161.822 486.967 161.236 487.725C160.658 488.483 160.369 489.533 160.369 490.877C160.369 492.096 160.646 493.061 161.201 493.772C161.764 494.475 162.518 494.826 163.463 494.826C164.393 494.826 165.146 494.487 165.725 493.807C166.303 493.119 166.592 492.256 166.592 491.217ZM188.963 484.701L185.424 496.701H182.576L180.396 488.569C180.311 488.256 180.256 487.905 180.232 487.514H180.186C180.17 487.78 180.1 488.123 179.975 488.545L177.607 496.701H174.818L171.291 484.701H174.104L176.283 493.35C176.354 493.608 176.4 493.951 176.424 494.381H176.506C176.529 494.053 176.592 493.701 176.693 493.326L179.119 484.701H181.674L183.83 493.385C183.9 493.658 183.951 494.002 183.982 494.416H184.064C184.08 494.127 184.139 493.783 184.24 493.385L186.373 484.701H188.963ZM192.361 482.182C191.916 482.182 191.533 482.037 191.213 481.748C190.9 481.459 190.744 481.092 190.744 480.647C190.744 480.201 190.9 479.83 191.213 479.533C191.533 479.237 191.916 479.088 192.361 479.088C192.822 479.088 193.213 479.237 193.533 479.533C193.854 479.83 194.014 480.201 194.014 480.647C194.014 481.069 193.854 481.432 193.533 481.737C193.213 482.033 192.822 482.182 192.361 482.182ZM193.709 496.701H190.99V484.701H193.709V496.701ZM208.182 496.701H205.463V494.662H205.416C204.541 496.209 203.193 496.983 201.373 496.983C199.896 496.983 198.713 496.448 197.822 495.377C196.939 494.299 196.498 492.834 196.498 490.983C196.498 488.998 196.986 487.408 197.963 486.213C198.947 485.018 200.256 484.42 201.889 484.42C203.506 484.42 204.682 485.069 205.416 486.365H205.463V478.936H208.182V496.701ZM205.498 491.217V489.647C205.498 488.795 205.221 488.073 204.666 487.479C204.111 486.885 203.404 486.588 202.545 486.588C201.529 486.588 200.729 486.967 200.143 487.725C199.564 488.483 199.275 489.533 199.275 490.877C199.275 492.096 199.553 493.061 200.107 493.772C200.67 494.475 201.424 494.826 202.369 494.826C203.299 494.826 204.053 494.487 204.631 493.807C205.209 493.119 205.498 492.256 205.498 491.217ZM221.893 491.44H213.713C213.744 492.549 214.084 493.405 214.732 494.006C215.389 494.608 216.287 494.908 217.428 494.908C218.709 494.908 219.885 494.526 220.955 493.76V495.951C219.861 496.639 218.416 496.983 216.619 496.983C214.854 496.983 213.467 496.44 212.459 495.354C211.459 494.26 210.959 492.725 210.959 490.748C210.959 488.881 211.51 487.362 212.611 486.19C213.721 485.01 215.096 484.42 216.736 484.42C218.377 484.42 219.646 484.948 220.545 486.002C221.443 487.057 221.893 488.522 221.893 490.397V491.44ZM219.268 489.518C219.26 488.541 219.029 487.783 218.576 487.244C218.123 486.698 217.498 486.424 216.701 486.424C215.92 486.424 215.256 486.709 214.709 487.28C214.17 487.85 213.838 488.596 213.713 489.518H219.268ZM247.229 484.701L243.689 496.701H240.842L238.662 488.569C238.576 488.256 238.521 487.905 238.498 487.514H238.451C238.436 487.78 238.365 488.123 238.24 488.545L235.873 496.701H233.084L229.557 484.701H232.369L234.549 493.35C234.619 493.608 234.666 493.951 234.689 494.381H234.771C234.795 494.053 234.857 493.701 234.959 493.326L237.385 484.701H239.939L242.096 493.385C242.166 493.658 242.217 494.002 242.248 494.416H242.33C242.346 494.127 242.404 493.783 242.506 493.385L244.639 484.701H247.229ZM250.627 482.182C250.182 482.182 249.799 482.037 249.479 481.748C249.166 481.459 249.01 481.092 249.01 480.647C249.01 480.201 249.166 479.83 249.479 479.533C249.799 479.237 250.182 479.088 250.627 479.088C251.088 479.088 251.479 479.237 251.799 479.533C252.119 479.83 252.279 480.201 252.279 480.647C252.279 481.069 252.119 481.432 251.799 481.737C251.479 482.033 251.088 482.182 250.627 482.182ZM251.975 496.701H249.256V484.701H251.975V496.701ZM261.865 496.573C261.334 496.838 260.635 496.971 259.768 496.971C257.439 496.971 256.275 495.854 256.275 493.619V486.834H254.271V484.701H256.275V481.924L258.994 481.151V484.701H261.865V486.834H258.994V492.834C258.994 493.545 259.123 494.053 259.381 494.358C259.639 494.662 260.068 494.815 260.67 494.815C261.131 494.815 261.529 494.682 261.865 494.416V496.573ZM274.873 496.701H272.154V490.139C272.154 487.764 271.361 486.576 269.775 486.576C268.979 486.576 268.307 486.92 267.76 487.608C267.213 488.295 266.939 489.174 266.939 490.244V496.701H264.209V478.936H266.939V486.694H266.986C267.893 485.178 269.189 484.42 270.877 484.42C273.541 484.42 274.873 486.049 274.873 489.307V496.701ZM302.729 496.701H300.01V490.162C300.01 488.905 299.83 487.994 299.471 487.432C299.119 486.869 298.521 486.588 297.678 486.588C296.967 486.588 296.361 486.944 295.861 487.655C295.369 488.365 295.123 489.217 295.123 490.209V496.701H292.393V489.94C292.393 487.705 291.604 486.588 290.025 486.588C289.291 486.588 288.686 486.924 288.209 487.596C287.74 488.268 287.506 489.139 287.506 490.209V496.701H284.787V484.701H287.506V486.6H287.553C288.42 485.147 289.682 484.42 291.338 484.42C292.166 484.42 292.889 484.651 293.506 485.112C294.131 485.565 294.557 486.162 294.783 486.905C295.674 485.248 297.002 484.42 298.768 484.42C301.408 484.42 302.729 486.049 302.729 489.307V496.701ZM316.205 491.44H308.025C308.057 492.549 308.396 493.405 309.045 494.006C309.701 494.608 310.6 494.908 311.74 494.908C313.021 494.908 314.197 494.526 315.268 493.76V495.951C314.174 496.639 312.729 496.983 310.932 496.983C309.166 496.983 307.779 496.44 306.771 495.354C305.771 494.26 305.271 492.725 305.271 490.748C305.271 488.881 305.822 487.362 306.924 486.19C308.033 485.01 309.408 484.42 311.049 484.42C312.689 484.42 313.959 484.948 314.857 486.002C315.756 487.057 316.205 488.522 316.205 490.397V491.44ZM313.58 489.518C313.572 488.541 313.342 487.783 312.889 487.244C312.436 486.698 311.811 486.424 311.014 486.424C310.232 486.424 309.568 486.709 309.021 487.28C308.482 487.85 308.15 488.596 308.025 489.518H313.58ZM336.736 496.701H334.018V490.162C334.018 488.905 333.838 487.994 333.479 487.432C333.127 486.869 332.529 486.588 331.686 486.588C330.975 486.588 330.369 486.944 329.869 487.655C329.377 488.365 329.131 489.217 329.131 490.209V496.701H326.4V489.94C326.4 487.705 325.611 486.588 324.033 486.588C323.299 486.588 322.693 486.924 322.217 487.596C321.748 488.268 321.514 489.139 321.514 490.209V496.701H318.795V484.701H321.514V486.6H321.561C322.428 485.147 323.689 484.42 325.346 484.42C326.174 484.42 326.896 484.651 327.514 485.112C328.139 485.565 328.564 486.162 328.791 486.905C329.682 485.248 331.01 484.42 332.775 484.42C335.416 484.42 336.736 486.049 336.736 489.307V496.701ZM342.818 494.967H342.771V496.701H340.053V478.936H342.771V486.811H342.818C343.748 485.217 345.107 484.42 346.896 484.42C348.412 484.42 349.596 484.959 350.447 486.037C351.307 487.108 351.736 488.545 351.736 490.35C351.736 492.358 351.256 493.967 350.295 495.178C349.334 496.381 348.021 496.983 346.357 496.983C344.795 496.983 343.615 496.311 342.818 494.967ZM342.748 490.198V491.686C342.748 492.561 343.025 493.303 343.58 493.912C344.143 494.522 344.854 494.826 345.713 494.826C346.721 494.826 347.51 494.436 348.08 493.655C348.658 492.865 348.947 491.768 348.947 490.362C348.947 489.182 348.678 488.26 348.139 487.596C347.607 486.924 346.885 486.588 345.971 486.588C345.002 486.588 344.221 486.932 343.627 487.619C343.041 488.307 342.748 489.166 342.748 490.198ZM364.674 491.44H356.494C356.525 492.549 356.865 493.405 357.514 494.006C358.17 494.608 359.068 494.908 360.209 494.908C361.49 494.908 362.666 494.526 363.736 493.76V495.951C362.643 496.639 361.197 496.983 359.4 496.983C357.635 496.983 356.248 496.44 355.24 495.354C354.24 494.26 353.74 492.725 353.74 490.748C353.74 488.881 354.291 487.362 355.393 486.19C356.502 485.01 357.877 484.42 359.518 484.42C361.158 484.42 362.428 484.948 363.326 486.002C364.225 487.057 364.674 488.522 364.674 490.397V491.44ZM362.049 489.518C362.041 488.541 361.811 487.783 361.357 487.244C360.904 486.698 360.279 486.424 359.482 486.424C358.701 486.424 358.037 486.709 357.49 487.28C356.951 487.85 356.619 488.596 356.494 489.518H362.049ZM374.225 487.291C373.896 487.033 373.424 486.905 372.807 486.905C372.002 486.905 371.33 487.268 370.791 487.994C370.252 488.721 369.982 489.709 369.982 490.959V496.701H367.264V484.701H369.982V487.174H370.029C370.295 486.33 370.701 485.674 371.248 485.205C371.803 484.729 372.42 484.49 373.1 484.49C373.592 484.49 373.967 484.565 374.225 484.713V487.291ZM375.561 496.326V493.807C376.576 494.58 377.697 494.967 378.924 494.967C380.564 494.967 381.385 494.483 381.385 493.514C381.385 493.24 381.314 493.01 381.174 492.823C381.033 492.627 380.842 492.455 380.6 492.307C380.365 492.158 380.084 492.026 379.756 491.908C379.436 491.791 379.076 491.658 378.678 491.51C378.186 491.315 377.74 491.108 377.342 490.889C376.951 490.67 376.623 490.424 376.357 490.151C376.1 489.869 375.904 489.553 375.771 489.201C375.639 488.85 375.572 488.44 375.572 487.971C375.572 487.393 375.709 486.885 375.982 486.448C376.256 486.002 376.623 485.631 377.084 485.334C377.545 485.03 378.068 484.803 378.654 484.655C379.24 484.498 379.846 484.42 380.471 484.42C381.58 484.42 382.572 484.588 383.447 484.924V487.303C382.604 486.725 381.635 486.436 380.541 486.436C380.197 486.436 379.885 486.471 379.604 486.541C379.33 486.612 379.096 486.709 378.9 486.834C378.705 486.959 378.553 487.112 378.443 487.291C378.334 487.463 378.279 487.655 378.279 487.865C378.279 488.123 378.334 488.342 378.443 488.522C378.553 488.701 378.713 488.862 378.924 489.002C379.143 489.135 379.4 489.26 379.697 489.377C380.002 489.487 380.35 489.608 380.74 489.74C381.256 489.951 381.717 490.166 382.123 490.385C382.537 490.604 382.889 490.854 383.178 491.135C383.467 491.408 383.689 491.729 383.846 492.096C384.002 492.455 384.08 492.885 384.08 493.385C384.08 493.994 383.939 494.526 383.658 494.979C383.377 495.432 383.002 495.807 382.533 496.104C382.064 496.401 381.521 496.619 380.904 496.76C380.295 496.908 379.65 496.983 378.971 496.983C377.658 496.983 376.521 496.764 375.561 496.326ZM398.6 496.983C396.748 496.983 395.268 496.424 394.158 495.307C393.057 494.182 392.506 492.694 392.506 490.842C392.506 488.826 393.08 487.252 394.229 486.119C395.385 484.987 396.939 484.42 398.893 484.42C400.768 484.42 402.229 484.971 403.275 486.073C404.322 487.174 404.846 488.701 404.846 490.655C404.846 492.569 404.279 494.104 403.146 495.26C402.021 496.408 400.506 496.983 398.6 496.983ZM398.729 486.588C397.666 486.588 396.826 486.959 396.209 487.701C395.592 488.444 395.283 489.467 395.283 490.772C395.283 492.03 395.596 493.022 396.221 493.748C396.846 494.467 397.682 494.826 398.729 494.826C399.799 494.826 400.619 494.471 401.189 493.76C401.768 493.049 402.057 492.037 402.057 490.725C402.057 489.405 401.768 488.385 401.189 487.666C400.619 486.948 399.799 486.588 398.729 486.588ZM414.01 481.151C413.643 480.94 413.225 480.834 412.756 480.834C411.436 480.834 410.775 481.58 410.775 483.073V484.701H413.564V486.834H410.787V496.701H408.068V486.834H406.018V484.701H408.068V482.756C408.068 481.49 408.482 480.494 409.311 479.768C410.139 479.033 411.174 478.666 412.416 478.666C413.088 478.666 413.619 478.74 414.01 478.889V481.151ZM182.6 536.573C182.068 536.838 181.369 536.971 180.502 536.971C178.174 536.971 177.01 535.854 177.01 533.619V526.834H175.006V524.701H177.01V521.924L179.729 521.151V524.701H182.6V526.834H179.729V532.834C179.729 533.545 179.857 534.053 180.115 534.358C180.373 534.662 180.803 534.815 181.404 534.815C181.865 534.815 182.264 534.682 182.6 534.416V536.573ZM195.607 536.701H192.889V530.139C192.889 527.764 192.096 526.576 190.51 526.576C189.713 526.576 189.041 526.92 188.494 527.608C187.947 528.295 187.674 529.174 187.674 530.244V536.701H184.943V518.936H187.674V526.694H187.721C188.627 525.178 189.924 524.42 191.611 524.42C194.275 524.42 195.607 526.049 195.607 529.307V536.701ZM200.283 522.182C199.838 522.182 199.455 522.037 199.135 521.748C198.822 521.459 198.666 521.092 198.666 520.647C198.666 520.201 198.822 519.83 199.135 519.533C199.455 519.237 199.838 519.088 200.283 519.088C200.744 519.088 201.135 519.237 201.455 519.533C201.775 519.83 201.936 520.201 201.936 520.647C201.936 521.069 201.775 521.432 201.455 521.737C201.135 522.033 200.744 522.182 200.283 522.182ZM201.631 536.701H198.912V524.701H201.631V536.701ZM204.443 536.326V533.807C205.459 534.58 206.58 534.967 207.807 534.967C209.447 534.967 210.268 534.483 210.268 533.514C210.268 533.24 210.197 533.01 210.057 532.823C209.916 532.627 209.725 532.455 209.482 532.307C209.248 532.158 208.967 532.026 208.639 531.908C208.318 531.791 207.959 531.658 207.561 531.51C207.068 531.315 206.623 531.108 206.225 530.889C205.834 530.67 205.506 530.424 205.24 530.151C204.982 529.869 204.787 529.553 204.654 529.201C204.521 528.85 204.455 528.44 204.455 527.971C204.455 527.393 204.592 526.885 204.865 526.448C205.139 526.002 205.506 525.631 205.967 525.334C206.428 525.03 206.951 524.803 207.537 524.655C208.123 524.498 208.729 524.42 209.354 524.42C210.463 524.42 211.455 524.588 212.33 524.924V527.303C211.486 526.725 210.518 526.436 209.424 526.436C209.08 526.436 208.768 526.471 208.486 526.541C208.213 526.612 207.979 526.709 207.783 526.834C207.588 526.959 207.436 527.112 207.326 527.291C207.217 527.463 207.162 527.655 207.162 527.865C207.162 528.123 207.217 528.342 207.326 528.522C207.436 528.701 207.596 528.862 207.807 529.002C208.025 529.135 208.283 529.26 208.58 529.377C208.885 529.487 209.232 529.608 209.623 529.74C210.139 529.951 210.6 530.166 211.006 530.385C211.42 530.604 211.771 530.854 212.061 531.135C212.35 531.408 212.572 531.729 212.729 532.096C212.885 532.455 212.963 532.885 212.963 533.385C212.963 533.994 212.822 534.526 212.541 534.979C212.26 535.432 211.885 535.807 211.416 536.104C210.947 536.401 210.404 536.619 209.787 536.76C209.178 536.908 208.533 536.983 207.854 536.983C206.541 536.983 205.404 536.764 204.443 536.326ZM230.752 536.151C229.791 536.705 228.654 536.983 227.342 536.983C225.561 536.983 224.123 536.428 223.029 535.319C221.936 534.201 221.389 532.756 221.389 530.983C221.389 529.006 221.975 527.42 223.146 526.225C224.326 525.022 225.9 524.42 227.869 524.42C228.963 524.42 229.928 524.612 230.764 524.994V527.526C229.928 526.901 229.037 526.588 228.092 526.588C226.943 526.588 226.002 526.979 225.268 527.76C224.533 528.533 224.166 529.549 224.166 530.807C224.166 532.049 224.51 533.03 225.197 533.748C225.893 534.467 226.822 534.826 227.986 534.826C228.963 534.826 229.885 534.479 230.752 533.783V536.151ZM238.779 536.983C236.928 536.983 235.447 536.424 234.338 535.307C233.236 534.182 232.686 532.694 232.686 530.842C232.686 528.826 233.26 527.252 234.408 526.119C235.564 524.987 237.119 524.42 239.072 524.42C240.947 524.42 242.408 524.971 243.455 526.073C244.502 527.174 245.025 528.701 245.025 530.655C245.025 532.569 244.459 534.104 243.326 535.26C242.201 536.408 240.686 536.983 238.779 536.983ZM238.908 526.588C237.846 526.588 237.006 526.959 236.389 527.701C235.771 528.444 235.463 529.467 235.463 530.772C235.463 532.03 235.775 533.022 236.4 533.748C237.025 534.467 237.861 534.826 238.908 534.826C239.979 534.826 240.799 534.471 241.369 533.76C241.947 533.049 242.236 532.037 242.236 530.725C242.236 529.405 241.947 528.385 241.369 527.666C240.799 526.948 239.979 526.588 238.908 526.588ZM265.744 536.701H263.025V530.162C263.025 528.905 262.846 527.994 262.486 527.432C262.135 526.869 261.537 526.588 260.693 526.588C259.982 526.588 259.377 526.944 258.877 527.655C258.385 528.365 258.139 529.217 258.139 530.209V536.701H255.408V529.94C255.408 527.705 254.619 526.588 253.041 526.588C252.307 526.588 251.701 526.924 251.225 527.596C250.756 528.268 250.521 529.139 250.521 530.209V536.701H247.803V524.701H250.521V526.6H250.568C251.436 525.147 252.697 524.42 254.354 524.42C255.182 524.42 255.904 524.651 256.521 525.112C257.146 525.565 257.572 526.162 257.799 526.905C258.689 525.248 260.018 524.42 261.783 524.42C264.424 524.42 265.744 526.049 265.744 529.307V536.701ZM287.002 536.701H284.283V530.162C284.283 528.905 284.104 527.994 283.744 527.432C283.393 526.869 282.795 526.588 281.951 526.588C281.24 526.588 280.635 526.944 280.135 527.655C279.643 528.365 279.396 529.217 279.396 530.209V536.701H276.666V529.94C276.666 527.705 275.877 526.588 274.299 526.588C273.564 526.588 272.959 526.924 272.482 527.596C272.014 528.268 271.779 529.139 271.779 530.209V536.701H269.061V524.701H271.779V526.6H271.826C272.693 525.147 273.955 524.42 275.611 524.42C276.439 524.42 277.162 524.651 277.779 525.112C278.404 525.565 278.83 526.162 279.057 526.905C279.947 525.248 281.275 524.42 283.041 524.42C285.682 524.42 287.002 526.049 287.002 529.307V536.701ZM300.783 536.701H298.064V534.803H298.018C297.229 536.256 296.002 536.983 294.338 536.983C291.502 536.983 290.084 535.28 290.084 531.873V524.701H292.803V531.592C292.803 533.748 293.635 534.826 295.299 534.826C296.104 534.826 296.764 534.53 297.279 533.936C297.803 533.342 298.064 532.565 298.064 531.604V524.701H300.783V536.701ZM315.021 536.701H312.303V529.94C312.303 527.698 311.51 526.576 309.924 526.576C309.096 526.576 308.412 526.889 307.873 527.514C307.334 528.131 307.064 528.912 307.064 529.858V536.701H304.334V524.701H307.064V526.694H307.111C308.01 525.178 309.307 524.42 311.002 524.42C312.307 524.42 313.303 524.846 313.99 525.698C314.678 526.541 315.021 527.764 315.021 529.365V536.701ZM319.721 522.182C319.275 522.182 318.893 522.037 318.572 521.748C318.26 521.459 318.104 521.092 318.104 520.647C318.104 520.201 318.26 519.83 318.572 519.533C318.893 519.237 319.275 519.088 319.721 519.088C320.182 519.088 320.572 519.237 320.893 519.533C321.213 519.83 321.373 520.201 321.373 520.647C321.373 521.069 321.213 521.432 320.893 521.737C320.572 522.033 320.182 522.182 319.721 522.182ZM321.068 536.701H318.35V524.701H321.068V536.701ZM330.959 536.573C330.428 536.838 329.729 536.971 328.861 536.971C326.533 536.971 325.369 535.854 325.369 533.619V526.834H323.365V524.701H325.369V521.924L328.088 521.151V524.701H330.959V526.834H328.088V532.834C328.088 533.545 328.217 534.053 328.475 534.358C328.732 534.662 329.162 534.815 329.764 534.815C330.225 534.815 330.623 534.682 330.959 534.416V536.573ZM343.697 524.701L338.283 538.623C337.158 541.108 335.58 542.35 333.549 542.35C332.979 542.35 332.502 542.299 332.119 542.198V539.936C332.549 540.076 332.939 540.147 333.291 540.147C334.307 540.147 335.064 539.647 335.564 538.647L336.373 536.678L331.604 524.701H334.615L337.475 533.42C337.506 533.53 337.576 533.819 337.686 534.287H337.744C337.783 534.108 337.854 533.826 337.955 533.444L340.955 524.701H343.697Z" fill="#0D0A3A"/>
</g>
<defs>
<clipPath id="clip0_8_706">
<rect width="517.556" height="577.096" fill="white" transform="translate(0.512695 0.0488281)"/>
</clipPath>
</defs>
</svg>
