<svg xmlns="http://www.w3.org/2000/svg" width="517.556" height="577.096" viewBox="0 0 517.556 577.096">
  <g id="Group_4314" data-name="Group 4314" transform="translate(14.529 -1445.922)">
    <text id="_5" data-name="5" transform="translate(244.249 1771.898)" fill="#0d0a3a" font-size="170" font-family="Poppins-Bold, Poppins" font-weight="700"><tspan x="-55.25" y="0">5</tspan></text>
    <text id="Months" transform="translate(244.249 1852.898)" fill="#0d0a3a" font-size="40" font-family="HKGrotesk-Bold, HK Grotesk" font-weight="700"><tspan x="-67.46" y="0">Months</tspan></text>
    <text id="average_length_of_consistent_participation" data-name="average length of consistent 
participation" transform="translate(255.13 1894.898)" fill="#0d0a3a" font-size="26" font-family="HKGrotesk-SemiBold, HK Grotesk" font-weight="600"><tspan x="-165.802" y="0">average length of consistent </tspan><tspan x="-74.776" y="40">participation</tspan></text>
    <g id="Group_4200" data-name="Group 4200" transform="translate(8013.126 -9887.119)">
      <path id="Path_4219" data-name="Path 4219" d="M-8066.4,11609.2v88.34h73.323" transform="translate(41.243 210.094)" fill="none" stroke="#545274" stroke-linecap="round" stroke-linejoin="round" stroke-width="5"/>
      <path id="Path_4221" data-name="Path 4221" d="M0,88.341V0H73.323" transform="translate(-8025.156 11335.541)" fill="none" stroke="#545274" stroke-linecap="round" stroke-linejoin="round" stroke-width="5"/>
      <path id="Path_4220" data-name="Path 4220" d="M-7993.076,11697.54v-88.34H-8066.4" transform="translate(480.476 -273.659)" fill="none" stroke="#545274" stroke-linecap="round" stroke-linejoin="round" stroke-width="5"/>
      <path id="Path_4222" data-name="Path 4222" d="M73.323,0V88.341H0" transform="translate(-7585.923 11819.296)" fill="none" stroke="#545274" stroke-linecap="round" stroke-linejoin="round" stroke-width="5"/>
    </g>
    <g id="Group_4210" data-name="Group 4210" transform="translate(195.2 1498.243)">
      <g id="Group_4061" data-name="Group 4061" transform="translate(2.988 2.725)">
        <path id="Path_3360" data-name="Path 3360" d="M214.749,91.475v91.614a3.306,3.306,0,0,1-.987,2.358,3.4,3.4,0,0,1-2.39.977H113.028a3.365,3.365,0,0,1-3.388-3.335V91.475a3.365,3.365,0,0,1,3.388-3.335h98.343a3.4,3.4,0,0,1,2.39.977,3.306,3.306,0,0,1,.987,2.358Z" transform="translate(-109.64 -79.997)" fill="none" stroke="#d3d2df" stroke-width="3"/>
        <path id="Path_3361" data-name="Path 3361" d="M214.749,90.779v17.245H109.64V90.779c0-1.455,1.52-2.639,3.388-2.639h98.343C213.241,88.14,214.749,89.324,214.749,90.779Z" transform="translate(-109.64 -79.997)" fill="none" stroke="#d3d2df" stroke-width="2"/>
        <path id="Path_3362" data-name="Path 3362" d="M131.71,80.723v8.54a4.2,4.2,0,0,0,4.46,3.873h0a4.194,4.194,0,0,0,4.46-3.873v-8.54a4.2,4.2,0,0,0-4.46-3.873h0C133.7,76.856,131.71,78.586,131.71,80.723Z" transform="translate(-112.543 -76.85)" fill="#d3d2df"/>
        <path id="Path_3366" data-name="Path 3366" d="M262.77,79.4v8.54c0,2.137,2,3.873,4.467,3.873h0a4.194,4.194,0,0,0,4.46-3.873V79.4a4.2,4.2,0,0,0-4.46-3.873h0C264.771,75.53,262.77,77.266,262.77,79.4Z" transform="translate(-185.755 -75.53)" fill="#d3d2df"/>
        <rect id="Rectangle_2617" data-name="Rectangle 2617" width="12.263" height="12.263" rx="1" transform="translate(17.191 44.611)" fill="#d3d2df"/>
        <rect id="Rectangle_2622" data-name="Rectangle 2622" width="12.263" height="12.263" rx="1" transform="translate(17.191 72.141)" fill="#d3d2df"/>
        <rect id="Rectangle_2618" data-name="Rectangle 2618" width="12.263" height="12.263" rx="1" transform="translate(47.045 44.611)" fill="#d3d2df"/>
        <rect id="Rectangle_2621" data-name="Rectangle 2621" width="12.263" height="12.263" rx="1" transform="translate(47.045 72.141)" fill="#d3d2df"/>
        <rect id="Rectangle_2619" data-name="Rectangle 2619" width="12.263" height="12.263" rx="1" transform="translate(78.122 44.611)" fill="#d3d2df"/>
        <rect id="Rectangle_2620" data-name="Rectangle 2620" width="12.263" height="12.263" rx="1" transform="translate(78.122 72.141)" fill="#d3d2df"/>
      </g>
      <g id="Group_4060" data-name="Group 4060" transform="translate(0)">
        <path id="Path_3360-2" data-name="Path 3360" d="M214.749,91.475v91.614a3.306,3.306,0,0,1-.987,2.358,3.4,3.4,0,0,1-2.39.977H113.028a3.365,3.365,0,0,1-3.388-3.335V91.475a3.365,3.365,0,0,1,3.388-3.335h98.343a3.4,3.4,0,0,1,2.39.977,3.306,3.306,0,0,1,.987,2.358Z" transform="translate(-109.64 -79.997)" fill="none" stroke="#0d0a3a" stroke-width="3"/>
        <path id="Path_3361-2" data-name="Path 3361" d="M214.749,90.779v17.245H109.64V90.779c0-1.455,1.52-2.639,3.388-2.639h98.343C213.241,88.14,214.749,89.324,214.749,90.779Z" transform="translate(-109.64 -79.997)" fill="none" stroke="#0d0a3a" stroke-width="2"/>
        <path id="Path_3362-2" data-name="Path 3362" d="M131.71,80.723v8.54a4.2,4.2,0,0,0,4.46,3.873h0a4.194,4.194,0,0,0,4.46-3.873v-8.54a4.2,4.2,0,0,0-4.46-3.873h0C133.7,76.856,131.71,78.586,131.71,80.723Z" transform="translate(-112.543 -76.85)" fill="#0d0a3a"/>
        <path id="Path_3366-2" data-name="Path 3366" d="M262.77,79.4v8.54c0,2.137,2,3.873,4.467,3.873h0a4.194,4.194,0,0,0,4.46-3.873V79.4a4.2,4.2,0,0,0-4.46-3.873h0C264.771,75.53,262.77,77.266,262.77,79.4Z" transform="translate(-185.755 -75.53)" fill="#0d0a3a"/>
        <rect id="Rectangle_2617-2" data-name="Rectangle 2617" width="12.263" height="12.263" rx="1" transform="translate(17.191 44.611)" fill="#0d0a3a"/>
        <rect id="Rectangle_2622-2" data-name="Rectangle 2622" width="12.263" height="12.263" rx="1" transform="translate(17.191 72.141)" fill="#0d0a3a"/>
        <rect id="Rectangle_2618-2" data-name="Rectangle 2618" width="12.263" height="12.263" rx="1" transform="translate(47.045 44.611)" fill="#0d0a3a"/>
        <rect id="Rectangle_2621-2" data-name="Rectangle 2621" width="12.263" height="12.263" rx="1" transform="translate(47.045 72.141)" fill="#0d0a3a"/>
        <rect id="Rectangle_2619-2" data-name="Rectangle 2619" width="12.263" height="12.263" rx="1" transform="translate(78.122 44.611)" fill="#0d0a3a"/>
        <rect id="Rectangle_2620-2" data-name="Rectangle 2620" width="12.263" height="12.263" rx="1" transform="translate(78.122 72.141)" fill="#0d0a3a"/>
      </g>
    </g>
  </g>
</svg>
