<svg width="518" height="579" viewBox="0 0 518 579" fill="none" xmlns="http://www.w3.org/2000/svg">
<g clip-path="url(#clip0_51_3)">
<path d="M2.72119 487.206V575.546H76.0439" stroke="#F6F6FD" stroke-width="5" stroke-linecap="round" stroke-linejoin="round"/>
<path d="M2.72217 91.7932V3.45215H76.0452" stroke="#F6F6FD" stroke-width="5" stroke-linecap="round" stroke-linejoin="round"/>
<path d="M515.277 91.792V3.45215H441.954" stroke="#F6F6FD" stroke-width="5" stroke-linecap="round" stroke-linejoin="round"/>
<path d="M515.279 487.206V575.547H441.956" stroke="#F6F6FD" stroke-width="5" stroke-linecap="round" stroke-linejoin="round"/>
<path d="M238.261 159.592C237.62 159.528 236.85 159.528 236.144 159.592C220.872 159.079 208.745 146.566 208.745 131.166C208.745 115.445 221.45 102.676 237.235 102.676C252.955 102.676 265.725 115.445 265.725 131.166C265.66 146.566 253.533 159.079 238.261 159.592Z" stroke="#65E6C4" stroke-width="8" stroke-linecap="round" stroke-linejoin="round"/>
<path d="M284.782 115.509C297.231 115.509 307.241 125.584 307.241 137.968C307.241 150.095 297.616 159.977 285.617 160.426C285.103 160.362 284.526 160.362 283.948 160.426" stroke="#65E6C4" stroke-width="8" stroke-linecap="round" stroke-linejoin="round"/>
<path d="M206.178 183.269C190.65 193.664 190.65 210.604 206.178 220.935C223.824 232.742 252.763 232.742 270.409 220.935C285.937 210.54 285.937 193.6 270.409 183.269C252.827 171.527 223.888 171.527 206.178 183.269Z" stroke="#65E6C4" stroke-width="8" stroke-linecap="round" stroke-linejoin="round"/>
<path d="M297.167 218.176C301.787 217.214 306.15 215.353 309.743 212.594C319.753 205.086 319.753 192.702 309.743 185.194C306.214 182.499 301.915 180.703 297.359 179.676" stroke="#65E6C4" stroke-width="8" stroke-linecap="round" stroke-linejoin="round"/>
<path d="M242.957 159.592C242.315 159.528 241.545 159.528 240.839 159.592C225.567 159.079 213.44 146.566 213.44 131.166C213.44 115.445 226.145 102.676 241.93 102.676C257.651 102.676 270.42 115.445 270.42 131.166C270.356 146.566 258.228 159.079 242.957 159.592Z" stroke="#F6F6FD" stroke-width="8" stroke-linecap="round" stroke-linejoin="round"/>
<path d="M289.478 115.509C301.926 115.509 311.936 125.584 311.936 137.968C311.936 150.095 302.311 159.977 290.312 160.426C289.799 160.362 289.221 160.362 288.644 160.426" stroke="#F6F6FD" stroke-width="8" stroke-linecap="round" stroke-linejoin="round"/>
<path d="M210.873 183.269C195.345 193.664 195.345 210.604 210.873 220.935C228.519 232.742 257.458 232.742 275.104 220.935C290.632 210.54 290.632 193.6 275.104 183.269C257.522 171.527 228.583 171.527 210.873 183.269Z" stroke="#F6F6FD" stroke-width="8" stroke-linecap="round" stroke-linejoin="round"/>
<path d="M301.862 218.176C306.482 217.214 310.845 215.353 314.438 212.594C324.448 205.086 324.448 192.702 314.438 185.194C310.909 182.499 306.61 180.703 302.054 179.676" stroke="#F6F6FD" stroke-width="8" stroke-linecap="round" stroke-linejoin="round"/>
<path d="M146.925 324.487C146.221 321.231 144.989 318.811 143.229 317.227C141.469 315.555 138.961 314.719 135.705 314.719C130.689 314.719 127.081 316.919 124.881 321.319C122.681 325.631 121.537 332.495 121.449 341.911C123.385 338.831 126.157 336.411 129.765 334.651C133.461 332.891 137.509 332.011 141.909 332.011C150.533 332.011 157.441 334.739 162.633 340.195C167.913 345.651 170.553 353.263 170.553 363.031C170.553 369.455 169.233 375.087 166.593 379.927C164.041 384.767 160.257 388.551 155.241 391.279C150.313 394.007 144.461 395.371 137.685 395.371C124.133 395.371 114.717 391.147 109.437 382.699C104.157 374.163 101.517 361.931 101.517 346.003C101.517 329.283 104.289 316.875 109.833 308.779C115.465 300.595 124.441 296.503 136.761 296.503C143.361 296.503 148.905 297.823 153.393 300.463C157.969 303.015 161.401 306.403 163.689 310.627C166.065 314.851 167.473 319.471 167.913 324.487H146.925ZM136.497 349.831C132.713 349.831 129.545 350.975 126.993 353.263C124.529 355.463 123.297 358.631 123.297 362.767C123.297 366.991 124.441 370.291 126.729 372.667C129.105 375.043 132.449 376.231 136.761 376.231C140.633 376.231 143.669 375.087 145.869 372.799C148.157 370.423 149.301 367.211 149.301 363.163C149.301 359.027 148.201 355.771 146.001 353.395C143.801 351.019 140.633 349.831 136.497 349.831ZM242.323 339.139V357.883H184.243V339.139H242.323ZM307.542 324.487C306.838 321.231 305.606 318.811 303.846 317.227C302.086 315.555 299.578 314.719 296.322 314.719C291.306 314.719 287.698 316.919 285.498 321.319C283.298 325.631 282.154 332.495 282.066 341.911C284.002 338.831 286.774 336.411 290.382 334.651C294.078 332.891 298.126 332.011 302.526 332.011C311.15 332.011 318.058 334.739 323.25 340.195C328.53 345.651 331.17 353.263 331.17 363.031C331.17 369.455 329.85 375.087 327.21 379.927C324.658 384.767 320.874 388.551 315.858 391.279C310.93 394.007 305.078 395.371 298.302 395.371C284.75 395.371 275.334 391.147 270.054 382.699C264.774 374.163 262.134 361.931 262.134 346.003C262.134 329.283 264.906 316.875 270.45 308.779C276.082 300.595 285.058 296.503 297.378 296.503C303.978 296.503 309.522 297.823 314.01 300.463C318.586 303.015 322.018 306.403 324.306 310.627C326.682 314.851 328.09 319.471 328.53 324.487H307.542ZM297.114 349.831C293.33 349.831 290.162 350.975 287.61 353.263C285.146 355.463 283.914 358.631 283.914 362.767C283.914 366.991 285.058 370.291 287.346 372.667C289.722 375.043 293.066 376.231 297.378 376.231C301.25 376.231 304.286 375.087 306.486 372.799C308.774 370.423 309.918 367.211 309.918 363.163C309.918 359.027 308.818 355.771 306.618 353.395C304.418 351.019 301.25 349.831 297.114 349.831ZM343.937 345.343C343.937 330.207 346.841 318.283 352.649 309.571C358.545 300.859 368.005 296.503 381.029 296.503C394.053 296.503 403.469 300.859 409.277 309.571C415.173 318.283 418.121 330.207 418.121 345.343C418.121 360.655 415.173 372.667 409.277 381.379C403.469 390.091 394.053 394.447 381.029 394.447C368.005 394.447 358.545 390.091 352.649 381.379C346.841 372.667 343.937 360.655 343.937 345.343ZM395.945 345.343C395.945 336.455 394.977 329.635 393.041 324.883C391.105 320.043 387.101 317.623 381.029 317.623C374.957 317.623 370.953 320.043 369.017 324.883C367.081 329.635 366.113 336.455 366.113 345.343C366.113 351.327 366.465 356.299 367.169 360.259C367.873 364.131 369.281 367.299 371.393 369.763C373.593 372.139 376.805 373.327 381.029 373.327C385.253 373.327 388.421 372.139 390.533 369.763C392.733 367.299 394.185 364.131 394.889 360.259C395.593 356.299 395.945 351.327 395.945 345.343Z" fill="white"/>
<path d="M248.797 478.843H243.7L241.18 471.714H230.165L227.743 478.843H222.665L233.153 450.835H238.387L248.797 478.843ZM239.95 467.925L236.063 456.753C235.946 456.388 235.822 455.802 235.692 454.995H235.614C235.497 455.737 235.366 456.323 235.223 456.753L231.375 467.925H239.95ZM270.36 477.241C270.36 484.585 266.668 488.257 259.286 488.257C256.681 488.257 254.409 487.821 252.469 486.948V482.808C254.657 484.058 256.734 484.683 258.7 484.683C263.452 484.683 265.829 482.345 265.829 477.671V475.483H265.75C264.253 478.035 262 479.312 258.993 479.312C256.558 479.312 254.592 478.426 253.094 476.655C251.61 474.871 250.868 472.482 250.868 469.487C250.868 466.089 251.668 463.387 253.27 461.382C254.872 459.377 257.072 458.374 259.872 458.374C262.515 458.374 264.474 459.455 265.75 461.616H265.829V458.843H270.36V477.241ZM265.868 469.683V467.085C265.868 465.679 265.399 464.481 264.461 463.491C263.537 462.489 262.378 461.987 260.985 461.987C259.266 461.987 257.918 462.625 256.942 463.901C255.978 465.164 255.497 466.935 255.497 469.214C255.497 471.18 255.959 472.756 256.883 473.94C257.821 475.112 259.058 475.698 260.594 475.698C262.157 475.698 263.426 475.138 264.403 474.019C265.379 472.886 265.868 471.44 265.868 469.683ZM293.192 470.073H279.559C279.611 471.922 280.178 473.348 281.258 474.351C282.352 475.353 283.849 475.854 285.75 475.854C287.886 475.854 289.846 475.216 291.629 473.94V477.593C289.806 478.739 287.398 479.312 284.403 479.312C281.46 479.312 279.149 478.407 277.469 476.597C275.803 474.774 274.969 472.215 274.969 468.921C274.969 465.809 275.887 463.276 277.723 461.323C279.572 459.357 281.864 458.374 284.598 458.374C287.333 458.374 289.448 459.253 290.946 461.011C292.443 462.769 293.192 465.21 293.192 468.335V470.073ZM288.817 466.87C288.804 465.243 288.42 463.979 287.665 463.081C286.909 462.17 285.868 461.714 284.54 461.714C283.237 461.714 282.131 462.189 281.219 463.14C280.321 464.09 279.767 465.334 279.559 466.87H288.817Z" fill="white"/>
<path d="M130.29 519.843H127.032L124.348 515.343C124.106 514.929 123.868 514.577 123.633 514.288C123.407 513.991 123.172 513.749 122.93 513.562C122.696 513.374 122.438 513.237 122.157 513.151C121.875 513.065 121.559 513.022 121.208 513.022H120.083V519.843H117.305V503.038H122.836C123.625 503.038 124.352 503.132 125.016 503.319C125.68 503.507 126.258 503.792 126.75 504.175C127.243 504.55 127.625 505.022 127.899 505.593C128.18 506.155 128.321 506.815 128.321 507.573C128.321 508.167 128.231 508.714 128.051 509.214C127.879 509.706 127.629 510.147 127.301 510.538C126.981 510.921 126.59 511.249 126.129 511.522C125.676 511.796 125.165 512.007 124.594 512.155V512.202C124.899 512.374 125.165 512.565 125.391 512.776C125.618 512.979 125.833 513.19 126.036 513.409C126.239 513.628 126.438 513.878 126.633 514.159C126.836 514.433 127.059 514.753 127.301 515.12L130.29 519.843ZM120.083 505.3V510.761H122.403C122.833 510.761 123.227 510.694 123.586 510.562C123.954 510.429 124.27 510.237 124.536 509.987C124.801 509.737 125.008 509.433 125.157 509.073C125.305 508.714 125.379 508.312 125.379 507.866C125.379 507.062 125.125 506.433 124.618 505.979C124.11 505.526 123.379 505.3 122.426 505.3H120.083ZM141.165 519.843H138.528V517.968H138.481C137.653 519.405 136.438 520.124 134.836 520.124C133.657 520.124 132.731 519.804 132.059 519.163C131.395 518.522 131.063 517.675 131.063 516.62C131.063 514.354 132.368 513.034 134.977 512.659L138.54 512.155C138.54 510.444 137.727 509.589 136.102 509.589C134.672 509.589 133.383 510.081 132.235 511.065V508.687C133.5 507.937 134.961 507.562 136.618 507.562C139.649 507.562 141.165 509.054 141.165 512.038V519.843ZM138.54 513.948L136.02 514.3C135.239 514.401 134.649 514.593 134.25 514.874C133.86 515.147 133.665 515.632 133.665 516.327C133.665 516.835 133.844 517.253 134.204 517.581C134.571 517.901 135.059 518.062 135.668 518.062C136.497 518.062 137.18 517.772 137.719 517.194C138.266 516.608 138.54 515.874 138.54 514.991V513.948ZM155.18 519.843H152.461V513.081C152.461 510.839 151.668 509.718 150.083 509.718C149.254 509.718 148.571 510.03 148.032 510.655C147.493 511.272 147.223 512.054 147.223 512.999V519.843H144.493V507.843H147.223V509.835H147.27C148.168 508.319 149.465 507.562 151.161 507.562C152.465 507.562 153.461 507.987 154.149 508.839C154.836 509.683 155.18 510.905 155.18 512.507V519.843ZM169.43 518.882C169.43 523.288 167.215 525.491 162.786 525.491C161.223 525.491 159.86 525.229 158.696 524.706V522.222C160.008 522.972 161.254 523.347 162.434 523.347C165.286 523.347 166.711 521.944 166.711 519.14V517.827H166.665C165.766 519.358 164.415 520.124 162.61 520.124C161.149 520.124 159.969 519.593 159.071 518.53C158.18 517.46 157.735 516.026 157.735 514.229C157.735 512.19 158.215 510.569 159.176 509.366C160.137 508.163 161.458 507.562 163.137 507.562C164.723 507.562 165.899 508.21 166.665 509.507H166.711V507.843H169.43V518.882ZM166.735 514.347V512.788C166.735 511.944 166.454 511.226 165.891 510.632C165.336 510.03 164.641 509.729 163.805 509.729C162.774 509.729 161.965 510.112 161.379 510.878C160.801 511.636 160.512 512.698 160.512 514.065C160.512 515.245 160.79 516.19 161.344 516.901C161.907 517.604 162.649 517.956 163.571 517.956C164.508 517.956 165.27 517.62 165.856 516.948C166.442 516.269 166.735 515.401 166.735 514.347ZM183.129 514.581H174.95C174.981 515.69 175.321 516.546 175.969 517.147C176.625 517.749 177.524 518.05 178.665 518.05C179.946 518.05 181.122 517.667 182.192 516.901V519.093C181.098 519.78 179.653 520.124 177.856 520.124C176.09 520.124 174.704 519.581 173.696 518.495C172.696 517.401 172.196 515.866 172.196 513.89C172.196 512.022 172.747 510.503 173.848 509.331C174.958 508.151 176.333 507.562 177.973 507.562C179.614 507.562 180.883 508.089 181.782 509.144C182.68 510.198 183.129 511.663 183.129 513.538V514.581ZM180.504 512.659C180.497 511.683 180.266 510.925 179.813 510.386C179.36 509.839 178.735 509.565 177.938 509.565C177.157 509.565 176.493 509.851 175.946 510.421C175.407 510.991 175.075 511.737 174.95 512.659H180.504ZM191.579 519.468V516.948C192.594 517.722 193.715 518.108 194.942 518.108C196.583 518.108 197.403 517.624 197.403 516.655C197.403 516.382 197.333 516.151 197.192 515.964C197.051 515.769 196.86 515.597 196.618 515.448C196.383 515.3 196.102 515.167 195.774 515.05C195.454 514.933 195.094 514.8 194.696 514.651C194.204 514.456 193.758 514.249 193.36 514.03C192.969 513.812 192.641 513.565 192.375 513.292C192.118 513.011 191.922 512.694 191.79 512.343C191.657 511.991 191.59 511.581 191.59 511.112C191.59 510.534 191.727 510.026 192 509.589C192.274 509.144 192.641 508.772 193.102 508.476C193.563 508.171 194.086 507.944 194.672 507.796C195.258 507.64 195.864 507.562 196.489 507.562C197.598 507.562 198.59 507.729 199.465 508.065V510.444C198.622 509.866 197.653 509.577 196.559 509.577C196.215 509.577 195.903 509.612 195.622 509.683C195.348 509.753 195.114 509.851 194.918 509.976C194.723 510.101 194.571 510.253 194.461 510.433C194.352 510.604 194.297 510.796 194.297 511.007C194.297 511.265 194.352 511.483 194.461 511.663C194.571 511.843 194.731 512.003 194.942 512.144C195.161 512.276 195.418 512.401 195.715 512.519C196.02 512.628 196.368 512.749 196.758 512.882C197.274 513.093 197.735 513.308 198.141 513.526C198.555 513.745 198.907 513.995 199.196 514.276C199.485 514.55 199.708 514.87 199.864 515.237C200.02 515.597 200.098 516.026 200.098 516.526C200.098 517.136 199.958 517.667 199.676 518.12C199.395 518.573 199.02 518.948 198.551 519.245C198.083 519.542 197.54 519.761 196.922 519.901C196.313 520.05 195.668 520.124 194.989 520.124C193.676 520.124 192.54 519.905 191.579 519.468ZM212.848 514.581H204.668C204.7 515.69 205.04 516.546 205.688 517.147C206.344 517.749 207.243 518.05 208.383 518.05C209.665 518.05 210.84 517.667 211.911 516.901V519.093C210.817 519.78 209.372 520.124 207.575 520.124C205.809 520.124 204.422 519.581 203.415 518.495C202.415 517.401 201.915 515.866 201.915 513.89C201.915 512.022 202.465 510.503 203.567 509.331C204.676 508.151 206.051 507.562 207.692 507.562C209.333 507.562 210.602 508.089 211.5 509.144C212.399 510.198 212.848 511.663 212.848 513.538V514.581ZM210.223 512.659C210.215 511.683 209.985 510.925 209.532 510.386C209.079 509.839 208.454 509.565 207.657 509.565C206.875 509.565 206.211 509.851 205.665 510.421C205.125 510.991 204.793 511.737 204.668 512.659H210.223ZM225.774 507.843L221.133 519.843H218.192L213.774 507.843H216.727L219.387 516.233C219.59 516.851 219.715 517.39 219.762 517.851H219.797C219.868 517.272 219.977 516.749 220.125 516.28L222.915 507.843H225.774ZM237.598 514.581H229.418C229.45 515.69 229.79 516.546 230.438 517.147C231.094 517.749 231.993 518.05 233.133 518.05C234.415 518.05 235.59 517.667 236.661 516.901V519.093C235.567 519.78 234.122 520.124 232.325 520.124C230.559 520.124 229.172 519.581 228.165 518.495C227.165 517.401 226.665 515.866 226.665 513.89C226.665 512.022 227.215 510.503 228.317 509.331C229.426 508.151 230.801 507.562 232.442 507.562C234.083 507.562 235.352 508.089 236.25 509.144C237.149 510.198 237.598 511.663 237.598 513.538V514.581ZM234.973 512.659C234.965 511.683 234.735 510.925 234.282 510.386C233.829 509.839 233.204 509.565 232.407 509.565C231.625 509.565 230.961 509.851 230.415 510.421C229.875 510.991 229.543 511.737 229.418 512.659H234.973ZM247.149 510.433C246.821 510.175 246.348 510.046 245.731 510.046C244.926 510.046 244.254 510.409 243.715 511.136C243.176 511.862 242.907 512.851 242.907 514.101V519.843H240.188V507.843H242.907V510.315H242.954C243.219 509.472 243.625 508.815 244.172 508.347C244.727 507.87 245.344 507.632 246.024 507.632C246.516 507.632 246.891 507.706 247.149 507.854V510.433ZM259.02 514.581H250.84C250.872 515.69 251.211 516.546 251.86 517.147C252.516 517.749 253.415 518.05 254.555 518.05C255.836 518.05 257.012 517.667 258.083 516.901V519.093C256.989 519.78 255.543 520.124 253.747 520.124C251.981 520.124 250.594 519.581 249.586 518.495C248.586 517.401 248.086 515.866 248.086 513.89C248.086 512.022 248.637 510.503 249.739 509.331C250.848 508.151 252.223 507.562 253.864 507.562C255.504 507.562 256.774 508.089 257.672 509.144C258.571 510.198 259.02 511.663 259.02 513.538V514.581ZM256.395 512.659C256.387 511.683 256.157 510.925 255.704 510.386C255.25 509.839 254.625 509.565 253.829 509.565C253.047 509.565 252.383 509.851 251.836 510.421C251.297 510.991 250.965 511.737 250.84 512.659H256.395ZM272.52 519.843H269.801V517.804H269.754C268.879 519.351 267.532 520.124 265.711 520.124C264.235 520.124 263.051 519.589 262.161 518.519C261.278 517.44 260.836 515.976 260.836 514.124C260.836 512.14 261.325 510.55 262.301 509.354C263.286 508.159 264.594 507.562 266.227 507.562C267.844 507.562 269.02 508.21 269.754 509.507H269.801V502.077H272.52V519.843ZM269.836 514.358V512.788C269.836 511.937 269.559 511.214 269.004 510.62C268.45 510.026 267.743 509.729 266.883 509.729C265.868 509.729 265.067 510.108 264.481 510.866C263.903 511.624 263.614 512.675 263.614 514.019C263.614 515.237 263.891 516.202 264.446 516.913C265.008 517.616 265.762 517.968 266.708 517.968C267.637 517.968 268.391 517.628 268.969 516.948C269.547 516.261 269.836 515.397 269.836 514.358ZM284.051 505.323C283.606 505.323 283.223 505.179 282.903 504.89C282.59 504.601 282.434 504.233 282.434 503.788C282.434 503.343 282.59 502.972 282.903 502.675C283.223 502.378 283.606 502.229 284.051 502.229C284.512 502.229 284.903 502.378 285.223 502.675C285.543 502.972 285.704 503.343 285.704 503.788C285.704 504.21 285.543 504.573 285.223 504.878C284.903 505.175 284.512 505.323 284.051 505.323ZM285.399 519.843H282.68V507.843H285.399V519.843ZM299.649 519.843H296.93V513.081C296.93 510.839 296.137 509.718 294.551 509.718C293.723 509.718 293.04 510.03 292.5 510.655C291.961 511.272 291.692 512.054 291.692 512.999V519.843H288.961V507.843H291.692V509.835H291.739C292.637 508.319 293.934 507.562 295.629 507.562C296.934 507.562 297.93 507.987 298.618 508.839C299.305 509.683 299.649 510.905 299.649 512.507V519.843ZM312.352 518.073H312.305V525.362H309.586V507.843H312.305V509.952H312.352C313.282 508.358 314.641 507.562 316.43 507.562C317.954 507.562 319.141 508.097 319.993 509.167C320.844 510.237 321.27 511.675 321.27 513.479C321.27 515.479 320.79 517.081 319.829 518.284C318.868 519.487 317.555 520.089 315.891 520.089C314.36 520.089 313.18 519.417 312.352 518.073ZM312.282 513.339V514.827C312.282 515.702 312.559 516.444 313.114 517.054C313.676 517.663 314.387 517.968 315.247 517.968C316.254 517.968 317.043 517.577 317.614 516.796C318.192 516.007 318.481 514.909 318.481 513.503C318.481 512.323 318.211 511.401 317.672 510.737C317.141 510.065 316.418 509.729 315.504 509.729C314.536 509.729 313.754 510.073 313.161 510.761C312.575 511.448 312.282 512.308 312.282 513.339ZM331.008 510.433C330.68 510.175 330.208 510.046 329.59 510.046C328.786 510.046 328.114 510.409 327.575 511.136C327.036 511.862 326.766 512.851 326.766 514.101V519.843H324.047V507.843H326.766V510.315H326.813C327.079 509.472 327.485 508.815 328.032 508.347C328.586 507.87 329.204 507.632 329.883 507.632C330.375 507.632 330.75 507.706 331.008 507.854V510.433ZM338.04 520.124C336.188 520.124 334.708 519.565 333.598 518.448C332.497 517.323 331.946 515.835 331.946 513.983C331.946 511.968 332.52 510.394 333.668 509.261C334.825 508.128 336.379 507.562 338.333 507.562C340.208 507.562 341.668 508.112 342.715 509.214C343.762 510.315 344.286 511.843 344.286 513.796C344.286 515.71 343.719 517.245 342.586 518.401C341.461 519.55 339.946 520.124 338.04 520.124ZM338.168 509.729C337.106 509.729 336.266 510.101 335.649 510.843C335.032 511.585 334.723 512.608 334.723 513.913C334.723 515.171 335.036 516.163 335.661 516.89C336.286 517.608 337.122 517.968 338.168 517.968C339.239 517.968 340.059 517.612 340.629 516.901C341.208 516.19 341.497 515.179 341.497 513.866C341.497 512.546 341.208 511.526 340.629 510.808C340.059 510.089 339.239 509.729 338.168 509.729ZM357.985 518.882C357.985 523.288 355.77 525.491 351.34 525.491C349.778 525.491 348.415 525.229 347.25 524.706V522.222C348.563 522.972 349.809 523.347 350.989 523.347C353.84 523.347 355.266 521.944 355.266 519.14V517.827H355.219C354.321 519.358 352.969 520.124 351.165 520.124C349.704 520.124 348.524 519.593 347.625 518.53C346.735 517.46 346.29 516.026 346.29 514.229C346.29 512.19 346.77 510.569 347.731 509.366C348.692 508.163 350.012 507.562 351.692 507.562C353.278 507.562 354.454 508.21 355.219 509.507H355.266V507.843H357.985V518.882ZM355.29 514.347V512.788C355.29 511.944 355.008 511.226 354.446 510.632C353.891 510.03 353.196 509.729 352.36 509.729C351.329 509.729 350.52 510.112 349.934 510.878C349.356 511.636 349.067 512.698 349.067 514.065C349.067 515.245 349.344 516.19 349.899 516.901C350.461 517.604 351.204 517.956 352.125 517.956C353.063 517.956 353.825 517.62 354.411 516.948C354.997 516.269 355.29 515.401 355.29 514.347ZM368.485 510.433C368.157 510.175 367.684 510.046 367.067 510.046C366.262 510.046 365.59 510.409 365.051 511.136C364.512 511.862 364.243 512.851 364.243 514.101V519.843H361.524V507.843H364.243V510.315H364.29C364.555 509.472 364.961 508.815 365.508 508.347C366.063 507.87 366.68 507.632 367.36 507.632C367.852 507.632 368.227 507.706 368.485 507.854V510.433ZM379.618 519.843H376.981V517.968H376.934C376.106 519.405 374.891 520.124 373.29 520.124C372.11 520.124 371.184 519.804 370.512 519.163C369.848 518.522 369.516 517.675 369.516 516.62C369.516 514.354 370.821 513.034 373.43 512.659L376.993 512.155C376.993 510.444 376.18 509.589 374.555 509.589C373.125 509.589 371.836 510.081 370.688 511.065V508.687C371.954 507.937 373.415 507.562 375.071 507.562C378.102 507.562 379.618 509.054 379.618 512.038V519.843ZM376.993 513.948L374.473 514.3C373.692 514.401 373.102 514.593 372.704 514.874C372.313 515.147 372.118 515.632 372.118 516.327C372.118 516.835 372.297 517.253 372.657 517.581C373.024 517.901 373.512 518.062 374.122 518.062C374.95 518.062 375.633 517.772 376.172 517.194C376.719 516.608 376.993 515.874 376.993 514.991V513.948ZM400.887 519.843H398.168V513.304C398.168 512.046 397.989 511.136 397.629 510.573C397.278 510.011 396.68 509.729 395.836 509.729C395.125 509.729 394.52 510.085 394.02 510.796C393.528 511.507 393.282 512.358 393.282 513.351V519.843H390.551V513.081C390.551 510.847 389.762 509.729 388.184 509.729C387.45 509.729 386.844 510.065 386.368 510.737C385.899 511.409 385.665 512.28 385.665 513.351V519.843H382.946V507.843H385.665V509.741H385.711C386.579 508.288 387.84 507.562 389.497 507.562C390.325 507.562 391.047 507.792 391.665 508.253C392.29 508.706 392.715 509.304 392.942 510.046C393.833 508.39 395.161 507.562 396.926 507.562C399.567 507.562 400.887 509.19 400.887 512.448V519.843Z" fill="white"/>
</g>
<defs>
<clipPath id="clip0_51_3">
<rect width="517.556" height="577.096" fill="white" transform="translate(0.222168 0.952148)"/>
</clipPath>
</defs>
</svg>
