<svg xmlns="http://www.w3.org/2000/svg" width="517.556" height="577.095" viewBox="0 0 517.556 577.095">
  <g id="Group_4417" data-name="Group 4417" transform="translate(2621.5 -2627.482)">
    <path id="Path_4314" data-name="Path 4314" d="M-136-97.07V-124.1h47.09V0h-30.26V-97.07Zm154.36-1.7H-34.68v23.46a24.706,24.706,0,0,1,9.52-6.12A36.27,36.27,0,0,1-11.9-83.81q12.75,0,21.165,5.78A34.018,34.018,0,0,1,21.59-63.07,50.225,50.225,0,0,1,25.5-43.18q0,19.89-11.22,31.535T-17.34,0q-13.6,0-23.63-4.675A36.2,36.2,0,0,1-56.44-17.68a37.672,37.672,0,0,1-5.95-19.21H-34a15.3,15.3,0,0,0,4.93,8.755q3.91,3.485,10.71,3.485,7.99,0,11.9-5.1t3.91-13.6q0-8.33-4.08-12.75t-11.9-4.42a15.433,15.433,0,0,0-9.52,2.805,13.081,13.081,0,0,0-4.93,7.4H-61.03v-73.95H18.36Zm112.2,52.36H100.98v30.26H73.44V-46.41H43.86V-72.42H73.44v-30.43h27.54v30.43h29.58Z" transform="translate(-2346.603 2982.411)" fill="#0d0a3a"/>
    <path id="Path_4313" data-name="Path 4313" d="M-82.14.6C-76.18.6-71.7-2.32-69.7-7.72l-4.68-1.76c-1.2,3.52-3.92,5.32-7.76,5.32-5.36,0-8.52-3.56-8.52-9.84,0-6.24,3.12-9.76,8.52-9.76,3.8,0,6.52,1.72,7.76,5.2l4.6-1.8c-2.04-5.32-6.48-8.16-12.36-8.16-8.24,0-13.52,5.64-13.52,14.56S-90.38.6-82.14.6ZM-58.58.4C-52.5.4-48.7-4.32-48.7-9.88c0-5.6-3.8-10.24-9.88-10.24-6.12,0-9.88,4.64-9.88,10.24C-68.46-4.32-64.7.4-58.58.4Zm0-4.2c-3.64,0-5.08-2.88-5.08-6.08,0-3.24,1.44-6.04,5.08-6.04s5.08,2.8,5.08,6.04C-53.5-6.68-54.94-3.8-58.58-3.8ZM-32.5-19.72v7.48c0,3.52,0,8.44-4.48,8.44-3.64,0-3.64-3.44-3.64-4.8V-19.72h-4.8V-7.4c0,4.2,2.08,7.8,7.04,7.8A7.045,7.045,0,0,0-32.5-2.28V0h4.8V-19.72Zm21.16-.4a7.1,7.1,0,0,0-5.96,2.68v-2.28h-4.8V0h4.8V-7.88c0-3.52,0-8.04,4.48-8.04,3.64,0,3.64,3.04,3.64,4.4V0h4.8V-12.72C-4.38-17.4-6.9-20.12-11.34-20.12Zm22.64,4.2v-3.8H6.38v-7.36l-4.8,3.56v3.8h-3.2v3.8h3.2v10.4C1.58-1.32,4.38.4,7.7.4a11.325,11.325,0,0,0,3.6-.6V-4.04a8.289,8.289,0,0,1-2.4.44c-1.56,0-2.52-.72-2.52-2.28V-15.92Zm14.04-4.2a5.523,5.523,0,0,0-5.28,3.76v-3.36H15.22V0h4.8V-9.92c0-3.72,1.44-5.52,4.36-5.52a4.237,4.237,0,0,1,2.4.68L29.1-19A6.731,6.731,0,0,0,25.34-20.12Zm6.08-3.32h5.04v-4.44H31.42ZM31.54,0h4.8V-19.72h-4.8Zm27.2-10.12c0-5.48-2.96-10-9.08-10-6.56,0-9.36,5.2-9.36,10.36C40.3-4.48,43.18.4,49.98.4a10.254,10.254,0,0,0,8.08-3.56L54.74-6.08a5.913,5.913,0,0,1-4.72,2.12c-3.12,0-4.72-1.72-4.92-4.32H58.62A14.685,14.685,0,0,0,58.74-10.12ZM45.06-12.08a4.429,4.429,0,0,1,4.56-4.04c2.52,0,4.44,1.52,4.52,4.04ZM68.9.4c3.72,0,7.68-2,7.68-6.6,0-7.2-10.32-5.44-10.32-8.44,0-.92.96-1.68,2.52-1.68A4.245,4.245,0,0,1,72.7-13.8l3.72-2.04a8.158,8.158,0,0,0-7.48-4.28c-3.8,0-7.24,1.96-7.24,5.76,0,7.32,10.16,5.12,10.16,8.44,0,1.04-.96,2.32-3.2,2.32a4.27,4.27,0,0,1-4.2-3.24L60.62-5.12A8.494,8.494,0,0,0,68.9.4Z" transform="translate(-2356.722 3063.411)" fill="#0d0a3a"/>
    <path id="Path_4312" data-name="Path 4312" d="M-145.249,0h2.054l3.146-9.7,3.12,9.7h2.054l3.822-12.818h-2.392l-2.574,9.412-3.042-9.412h-2l-3.042,9.412-2.574-9.412h-2.392Zm21.71.234c3.77,0,6.266-2.938,6.266-6.656,0-3.744-2.522-6.63-6.266-6.63-3.77,0-6.214,2.886-6.214,6.63S-127.309.234-123.539.234Zm0-1.976c-2.6,0-3.978-2.054-3.978-4.68s1.352-4.654,3.978-4.654,4.03,2,4.03,4.654C-119.509-3.822-120.913-1.742-123.539-1.742Zm15.418-11.31a3.99,3.99,0,0,0-3.692,2.236v-2h-2.236V0h2.236V-6.916c0-2.652,1.274-4.03,3.224-4.03a3.806,3.806,0,0,1,1.664.39l1.092-1.872A4.341,4.341,0,0,0-108.121-13.052Zm7.1,13.286A5.962,5.962,0,0,0-99.177-.13L-99.2-1.976a4.423,4.423,0,0,1-1.144.208c-.754,0-1.066-.468-1.066-1.248V-18.122h-2.236V-2.886C-103.649-.78-102.583.234-101.023.234Zm13.234-18.356v6.916a4.987,4.987,0,0,0-4.056-1.846c-3.432,0-5.616,2.574-5.616,6.63,0,3.822,1.95,6.656,5.616,6.656a4.929,4.929,0,0,0,4.056-1.82V0h2.236V-18.122Zm-3.64,16.328c-2.522,0-3.8-1.9-3.8-4.628,0-2.808,1.378-4.628,3.8-4.628,2.47,0,3.822,1.9,3.822,4.628C-87.607-3.77-88.881-1.794-91.429-1.794ZM-79.027,0h2.054l3.146-9.7,3.12,9.7h2.054l3.822-12.818h-2.392L-69.8-3.406l-3.042-9.412h-2l-3.042,9.412-2.574-9.412h-2.392Zm16.77-15.392h2.5v-2.73h-2.5ZM-62.127,0h2.236V-12.818h-2.236Zm15.262-18.122v6.916a4.987,4.987,0,0,0-4.056-1.846c-3.432,0-5.616,2.574-5.616,6.63,0,3.822,1.95,6.656,5.616,6.656a4.929,4.929,0,0,0,4.056-1.82V0h2.236V-18.122Zm-3.64,16.328c-2.522,0-3.8-1.9-3.8-4.628,0-2.808,1.378-4.628,3.8-4.628,2.47,0,3.822,1.9,3.822,4.628C-46.683-3.77-47.957-1.794-50.505-1.794Zm20.7-5.1c0-3.12-1.742-6.162-5.668-6.162-3.9,0-5.824,3.172-5.824,6.708,0,3.562,1.95,6.578,6.032,6.578a6.405,6.405,0,0,0,5.044-2.21l-1.534-1.378A4.389,4.389,0,0,1-35.243-1.82c-2.366,0-3.744-1.482-3.822-3.926h9.178A8.178,8.178,0,0,0-29.809-6.89Zm-9.256-.676A3.6,3.6,0,0,1-35.5-11.18,3.32,3.32,0,0,1-31.967-7.8a.577.577,0,0,0,.026.234ZM-17.537,0h2.054l3.146-9.7L-9.217,0h2.054l3.822-12.818H-5.733L-8.307-3.406l-3.042-9.412h-2l-3.042,9.412-2.574-9.412h-2.392ZM-.767-15.392h2.5v-2.73h-2.5ZM-.637,0H1.6V-12.818H-.637ZM11.791-11v-1.82H8.645v-4.706L6.409-15.86v3.042H4.3V-11H6.409v7.8A3.07,3.07,0,0,0,9.711.234a6.615,6.615,0,0,0,2.08-.364v-1.9a5.231,5.231,0,0,1-1.534.286c-1.014,0-1.612-.52-1.612-1.69V-11Zm9.36-2.054a4.852,4.852,0,0,0-4.134,1.976v-7.046H14.781V0h2.236V-5.642c0-3.588,1.222-5.434,3.536-5.434,1.82,0,2.652,1.144,2.652,3.64V0h2.236V-7.982C25.441-11.284,23.933-13.052,21.151-13.052Zm28.782,0a4.353,4.353,0,0,0-4.186,2.5,3.739,3.739,0,0,0-3.77-2.5,3.845,3.845,0,0,0-3.484,1.82v-1.586H36.309L36.335,0h2.236V-5.746c0-2.782.442-5.33,2.99-5.33,2.158,0,2.652,1.976,2.652,3.718V0h2.236V-5.746c0-2.782.416-5.33,3.042-5.33,2.548,0,2.6,2.6,2.6,3.666V0h2.236V-8.06C54.327-10.92,53-13.052,49.933-13.052Zm18.9,6.162c0-3.12-1.742-6.162-5.668-6.162-3.9,0-5.824,3.172-5.824,6.708,0,3.562,1.95,6.578,6.032,6.578a6.405,6.405,0,0,0,5.044-2.21L66.885-3.354A4.389,4.389,0,0,1,63.4-1.82c-2.366,0-3.744-1.482-3.822-3.926h9.178A8.177,8.177,0,0,0,68.835-6.89Zm-9.256-.676a3.6,3.6,0,0,1,3.562-3.614A3.32,3.32,0,0,1,66.677-7.8a.577.577,0,0,0,.026.234Zm26.13-5.486a4.353,4.353,0,0,0-4.186,2.5,3.739,3.739,0,0,0-3.77-2.5,3.845,3.845,0,0,0-3.484,1.82v-1.586H72.085L72.111,0h2.236V-5.746c0-2.782.442-5.33,2.99-5.33,2.158,0,2.652,1.976,2.652,3.718V0h2.236V-5.746c0-2.782.416-5.33,3.042-5.33,2.548,0,2.6,2.6,2.6,3.666V0H90.1V-8.06C90.1-10.92,88.777-13.052,85.709-13.052Zm14.742,0A4.987,4.987,0,0,0,96.4-11.206v-6.916H94.159V0H96.4V-1.586a4.929,4.929,0,0,0,4.056,1.82c3.666,0,5.616-2.834,5.616-6.656C106.067-10.478,103.883-13.052,100.451-13.052Zm-.416,11.258c-2.548,0-3.822-1.976-3.822-4.628,0-2.73,1.352-4.628,3.822-4.628,2.418,0,3.8,1.82,3.8,4.628C103.831-3.692,102.557-1.794,100.035-1.794Zm19.838-5.1c0-3.12-1.742-6.162-5.668-6.162-3.9,0-5.824,3.172-5.824,6.708,0,3.562,1.95,6.578,6.032,6.578a6.405,6.405,0,0,0,5.044-2.21l-1.534-1.378a4.389,4.389,0,0,1-3.484,1.534c-2.366,0-3.744-1.482-3.822-3.926h9.178A8.177,8.177,0,0,0,119.873-6.89Zm-9.256-.676a3.6,3.6,0,0,1,3.562-3.614,3.32,3.32,0,0,1,3.536,3.38.577.577,0,0,0,.026.234Zm18.46-5.486a3.99,3.99,0,0,0-3.692,2.236v-2h-2.236V0h2.236V-6.916c0-2.652,1.274-4.03,3.224-4.03a3.806,3.806,0,0,1,1.664.39l1.092-1.872A4.341,4.341,0,0,0,129.077-13.052ZM136.9.234c2.444,0,4.732-1.3,4.732-4.03,0-4.81-7.176-3.146-7.176-5.824,0-.936.884-1.534,2.288-1.534a3.2,3.2,0,0,1,2.99,1.794l1.768-.962a4.987,4.987,0,0,0-4.706-2.73c-2.522,0-4.5,1.352-4.5,3.666,0,4.628,7.124,2.73,7.124,5.72,0,1.118-.936,1.976-2.6,1.976a3.4,3.4,0,0,1-3.38-2.34L131.6-3.2A5.4,5.4,0,0,0,136.9.234Zm-234.2,40c3.77,0,6.266-2.938,6.266-6.656,0-3.744-2.522-6.63-6.266-6.63-3.77,0-6.214,2.886-6.214,6.63S-101.062,40.234-97.292,40.234Zm0-1.976c-2.6,0-3.978-2.054-3.978-4.68s1.352-4.654,3.978-4.654,4.03,2,4.03,4.654C-93.262,36.178-94.666,38.258-97.292,38.258ZM-87.022,40h2.236V29h3.458v-1.82h-3.458v-1.9c0-.962.416-1.768,1.456-1.768a3.067,3.067,0,0,1,1.352.39l.754-1.742a5.769,5.769,0,0,0-2.34-.52c-1.768,0-3.432.832-3.432,3.744v1.794h-2.652V29h2.626Zm20.8-11v-1.82h-3.146V22.476L-71.6,24.14v3.042H-73.71V29H-71.6v7.8a3.07,3.07,0,0,0,3.3,3.432,6.615,6.615,0,0,0,2.08-.364v-1.9a5.232,5.232,0,0,1-1.534.286c-1.014,0-1.612-.52-1.612-1.69V29Zm9.36-2.054A4.852,4.852,0,0,0-61,28.924V21.878h-2.236V40H-61V34.358c0-3.588,1.222-5.434,3.536-5.434,1.82,0,2.652,1.144,2.652,3.64V40h2.236V32.018C-52.572,28.716-54.08,26.948-56.862,26.948Zm8.216-2.34h2.5v-2.73h-2.5ZM-48.516,40h2.236V27.182h-2.236Zm10.53.234c2.444,0,4.732-1.3,4.732-4.03,0-4.81-7.176-3.146-7.176-5.824,0-.936.884-1.534,2.288-1.534a3.2,3.2,0,0,1,2.99,1.794l1.768-.962a4.987,4.987,0,0,0-4.706-2.73c-2.522,0-4.5,1.352-4.5,3.666,0,4.628,7.124,2.73,7.124,5.72,0,1.118-.936,1.976-2.6,1.976a3.4,3.4,0,0,1-3.38-2.34l-1.846.832A5.4,5.4,0,0,0-37.986,40.234Zm19.734,0a5.262,5.262,0,0,0,5.148-3.64l-2.054-.78a3.156,3.156,0,0,1-3.12,2.444c-2.548,0-3.64-2.21-3.64-4.628s1.092-4.706,3.64-4.706a3.32,3.32,0,0,1,3.172,2.5l2.132-.858a5.455,5.455,0,0,0-5.3-3.614c-3.978,0-5.928,3.3-5.928,6.682C-24.206,37.14-22.126,40.234-18.252,40.234Zm13.182,0c3.77,0,6.266-2.938,6.266-6.656,0-3.744-2.522-6.63-6.266-6.63-3.77,0-6.214,2.886-6.214,6.63S-8.84,40.234-5.07,40.234Zm0-1.976c-2.6,0-3.978-2.054-3.978-4.68S-7.7,28.924-5.07,28.924s4.03,2,4.03,4.654C-1.04,36.178-2.444,38.258-5.07,38.258Zm23.088-11.31a4.353,4.353,0,0,0-4.186,2.5,3.739,3.739,0,0,0-3.77-2.5,3.845,3.845,0,0,0-3.484,1.82V27.182H4.394L4.42,40H6.656V34.254c0-2.782.442-5.33,2.99-5.33,2.158,0,2.652,1.976,2.652,3.718V40h2.236V34.254c0-2.782.416-5.33,3.042-5.33,2.548,0,2.6,2.6,2.6,3.666V40h2.236V31.94C22.412,29.08,21.086,26.948,18.018,26.948Zm22.048,0a4.353,4.353,0,0,0-4.186,2.5,3.739,3.739,0,0,0-3.77-2.5,3.845,3.845,0,0,0-3.484,1.82V27.182H26.442L26.468,40H28.7V34.254c0-2.782.442-5.33,2.99-5.33,2.158,0,2.652,1.976,2.652,3.718V40h2.236V34.254c0-2.782.416-5.33,3.042-5.33,2.548,0,2.6,2.6,2.6,3.666V40H44.46V31.94C44.46,29.08,43.134,26.948,40.066,26.948Zm16.354.234v5.564c0,2.964-.858,5.512-3.536,5.512-2.418,0-2.652-2.054-2.652-3.718V27.182H48v7.9c0,3.016,1.3,5.148,4.316,5.148a4.834,4.834,0,0,0,4.108-1.976V40h2.236V27.182Zm12.948-.234a4.869,4.869,0,0,0-4.108,1.976V27.182H63.024V40H65.26V34.462c0-3.172.936-5.538,3.51-5.538,2.08,0,2.678,1.508,2.678,3.64V40h2.236V32.018C73.684,28.716,72.176,26.948,69.368,26.948Zm8.242-2.34h2.5v-2.73h-2.5ZM77.74,40h2.236V27.182H77.74ZM90.168,29v-1.82H87.022V22.476L84.786,24.14v3.042H82.68V29h2.106v7.8a3.07,3.07,0,0,0,3.3,3.432,6.615,6.615,0,0,0,2.08-.364v-1.9a5.232,5.232,0,0,1-1.534.286c-1.014,0-1.612-.52-1.612-1.69V29Zm4.576,16.3h2.418l7.1-18.122h-2.47l-3.666,10.01-4.03-10.01h-2.47l5.3,12.61Z" transform="translate(-2362.722 3105.411)" fill="#0d0a3a"/>
    <path id="Path_4272" data-name="Path 4272" d="M-39.619,349.5A62.938,62.938,0,0,0-102.5,412.381a62.938,62.938,0,0,0,62.881,62.881,62.938,62.938,0,0,0,62.881-62.881A62.938,62.938,0,0,0-39.619,349.5Zm0,119.407h0c-5.692,0-11.649-9.134-15.356-24.093a96.046,96.046,0,0,1,15.356-1.324,83.883,83.883,0,0,1,15.356,1.324c-3.707,14.959-9.664,24.093-15.356,24.093Zm-18.93-59.7a167.66,167.66,0,0,1,2.25-23.167,97.739,97.739,0,0,0,16.68,1.456,98.937,98.937,0,0,0,16.68-1.456,133.446,133.446,0,0,1,2.25,23.167Zm37.861,6.354a167.66,167.66,0,0,1-2.25,23.167,97.739,97.739,0,0,0-16.68-1.456,98.936,98.936,0,0,0-16.68,1.456,133.447,133.447,0,0,1-2.25-23.167Zm-18.93-34.419a83.884,83.884,0,0,1-15.356-1.324c3.707-14.959,9.8-24.093,15.356-24.093s11.65,9.134,15.356,24.093A83.883,83.883,0,0,1-39.619,381.139Zm12.576-23.828A56.618,56.618,0,0,1-.037,372.137a75.469,75.469,0,0,1-18.136,6.619C-20.159,370.019-23.2,362.473-27.043,357.31ZM-61.2,378.624A86.7,86.7,0,0,1-79.333,372a57.631,57.631,0,0,1,27.006-14.827C-56.034,362.473-59.079,370.019-61.2,378.624Zm-1.324,6.222A147.473,147.473,0,0,0-64.9,409.2H-96.146A56.116,56.116,0,0,1-83.57,376.77,85.659,85.659,0,0,0-62.521,384.846ZM-64.9,415.558a182.916,182.916,0,0,0,2.383,24.358A87.893,87.893,0,0,0-83.7,447.991a56.468,56.468,0,0,1-12.576-32.433Zm3.707,30.58c2.118,8.6,5.03,16.15,8.87,21.446a56.618,56.618,0,0,1-27.006-14.827A76.045,76.045,0,0,1-61.2,446.138Zm43.156,0A86.7,86.7,0,0,1,.1,452.757a57.632,57.632,0,0,1-27.006,14.827C-23.2,462.288-20.159,454.743-18.041,446.138Zm1.324-6.354a147.469,147.469,0,0,0,2.383-24.358H16.907A56.116,56.116,0,0,1,4.331,447.859,97.73,97.73,0,0,0-16.717,439.784Zm2.383-30.58a182.923,182.923,0,0,0-2.383-24.358A87.888,87.888,0,0,0,4.464,376.77,56.468,56.468,0,0,1,17.04,409.2Z" transform="translate(-2320.484 2334.149)" fill="#65e6c4"/>
    <path id="Path_4273" data-name="Path 4273" d="M-39.619,349.5A62.938,62.938,0,0,0-102.5,412.381a62.938,62.938,0,0,0,62.881,62.881,62.938,62.938,0,0,0,62.881-62.881A62.938,62.938,0,0,0-39.619,349.5Zm0,119.407h0c-5.692,0-11.649-9.134-15.356-24.093a96.046,96.046,0,0,1,15.356-1.324,83.883,83.883,0,0,1,15.356,1.324c-3.707,14.959-9.664,24.093-15.356,24.093Zm-18.93-59.7a167.66,167.66,0,0,1,2.25-23.167,97.739,97.739,0,0,0,16.68,1.456,98.937,98.937,0,0,0,16.68-1.456,133.446,133.446,0,0,1,2.25,23.167Zm37.861,6.354a167.66,167.66,0,0,1-2.25,23.167,97.739,97.739,0,0,0-16.68-1.456,98.936,98.936,0,0,0-16.68,1.456,133.447,133.447,0,0,1-2.25-23.167Zm-18.93-34.419a83.884,83.884,0,0,1-15.356-1.324c3.707-14.959,9.8-24.093,15.356-24.093s11.65,9.134,15.356,24.093A83.883,83.883,0,0,1-39.619,381.139Zm12.576-23.828A56.618,56.618,0,0,1-.037,372.137a75.469,75.469,0,0,1-18.136,6.619C-20.159,370.019-23.2,362.473-27.043,357.31ZM-61.2,378.624A86.7,86.7,0,0,1-79.333,372a57.631,57.631,0,0,1,27.006-14.827C-56.034,362.473-59.079,370.019-61.2,378.624Zm-1.324,6.222A147.473,147.473,0,0,0-64.9,409.2H-96.146A56.116,56.116,0,0,1-83.57,376.77,85.659,85.659,0,0,0-62.521,384.846ZM-64.9,415.558a182.916,182.916,0,0,0,2.383,24.358A87.893,87.893,0,0,0-83.7,447.991a56.468,56.468,0,0,1-12.576-32.433Zm3.707,30.58c2.118,8.6,5.03,16.15,8.87,21.446a56.618,56.618,0,0,1-27.006-14.827A76.045,76.045,0,0,1-61.2,446.138Zm43.156,0A86.7,86.7,0,0,1,.1,452.757a57.632,57.632,0,0,1-27.006,14.827C-23.2,462.288-20.159,454.743-18.041,446.138Zm1.324-6.354a147.469,147.469,0,0,0,2.383-24.358H16.907A56.116,56.116,0,0,1,4.331,447.859,97.73,97.73,0,0,0-16.717,439.784Zm2.383-30.58a182.923,182.923,0,0,0-2.383-24.358A87.888,87.888,0,0,0,4.464,376.77,56.468,56.468,0,0,1,17.04,409.2Z" transform="translate(-2325.722 2328.149)" fill="#1b1b1b"/>
    <g id="Group_4207" data-name="Group 4207" transform="translate(5406.156 -8705.559)">
      <path id="Path_4219" data-name="Path 4219" d="M-8066.4,11609.2v88.34h73.323" transform="translate(41.243 210.094)" fill="none" stroke="#1b1b1b" stroke-linecap="round" stroke-linejoin="round" stroke-width="5"/>
      <path id="Path_4221" data-name="Path 4221" d="M0,88.341V0H73.323" transform="translate(-8025.156 11335.541)" fill="none" stroke="#1b1b1b" stroke-linecap="round" stroke-linejoin="round" stroke-width="5"/>
      <path id="Path_4220" data-name="Path 4220" d="M-7993.076,11697.54v-88.34H-8066.4" transform="translate(480.476 -273.659)" fill="none" stroke="#1b1b1b" stroke-linecap="round" stroke-linejoin="round" stroke-width="5"/>
      <path id="Path_4222" data-name="Path 4222" d="M73.323,0V88.341H0" transform="translate(-7585.923 11819.296)" fill="none" stroke="#1b1b1b" stroke-linecap="round" stroke-linejoin="round" stroke-width="5"/>
    </g>
  </g>
</svg>
