<svg xmlns="http://www.w3.org/2000/svg" width="517.556" height="577.096" viewBox="0 0 517.556 577.096">
  <g id="Group_4315" data-name="Group 4315" transform="translate(848.191 -1404.452)">
    <text id="_4_" data-name="4+" transform="translate(-602.413 1793.97)" fill="#0d0a3a" font-size="170" font-family="Poppins-Bold, Poppins" font-weight="700"><tspan x="-110.925" y="0">4+</tspan></text>
    <text id="Continents_" data-name="Continents " transform="translate(-602.413 1874.97)" fill="#0d0a3a" font-size="40" font-family="HKGrotesk-Bold, HK Grotesk" font-weight="700"><tspan x="-103.46" y="0">Continents </tspan></text>
    <text id="Served" transform="translate(-614.413 1910.97)" fill="#0d0a3a" font-size="26" font-family="HKGrotesk-Medium, HK Grotesk" font-weight="500"><tspan x="-40.651" y="0">Served</tspan></text>
    <g id="Group_4197" data-name="Group 4197" transform="translate(7179.465 -9928.589)">
      <path id="Path_4219" data-name="Path 4219" d="M-8066.4,11609.2v88.34h73.323" transform="translate(41.243 210.094)" fill="none" stroke="#1b1b1b" stroke-linecap="round" stroke-linejoin="round" stroke-width="5"/>
      <path id="Path_4221" data-name="Path 4221" d="M0,88.341V0H73.323" transform="translate(-8025.156 11335.541)" fill="none" stroke="#1b1b1b" stroke-linecap="round" stroke-linejoin="round" stroke-width="5"/>
      <path id="Path_4220" data-name="Path 4220" d="M-7993.076,11697.54v-88.34H-8066.4" transform="translate(480.476 -273.659)" fill="none" stroke="#1b1b1b" stroke-linecap="round" stroke-linejoin="round" stroke-width="5"/>
      <path id="Path_4222" data-name="Path 4222" d="M73.323,0V88.341H0" transform="translate(-7585.923 11819.296)" fill="none" stroke="#1b1b1b" stroke-linecap="round" stroke-linejoin="round" stroke-width="5"/>
    </g>
    <g id="Group_4211" data-name="Group 4211" transform="translate(147.81 -2534.06)">
      <g id="Group_3989" data-name="Group 3989" transform="translate(-822.834 4029.918)">
        <g id="Group_3987" data-name="Group 3987" transform="translate(0 0)">
          <rect id="Rectangle_2586" data-name="Rectangle 2586" width="151.555" height="149.111" transform="translate(0 0)" fill="rgba(0,0,0,0)"/>
          <path id="Path_4183" data-name="Path 4183" d="M133.831,51.14l.249.014a12.889,12.889,0,0,1,3.294.827c2.019.8,3.506,2.041,4,3.973.59,2.288-.5,4.7-3.074,7.267-.793.79-6.56,6.4-8.355,8.2-1.4,1.409-2.654,2.7-3.8,3.931-5.127,5.512-7.941,9.691-7.941,11.848,0,.687.009,1.145.052,2.794a49.336,49.336,0,0,1-.587,11.274,22.454,22.454,0,0,1-6.143,12.175c-2.189,2.183-4.2,5.05-7.689,10.67L103,125.478c-6.378,10.3-9.427,14.2-14.027,16.2-1.227.532-5.014,2.3-5.782,2.613a8.341,8.341,0,0,1-4.953.8c-1.9-.359-3.539-1.5-5.942-3.9-6.858-6.838-12.666-17.325-12.666-25.19,0-1.7.035-2.477.311-7.723.15-2.849.231-4.711.275-6.635.188-8.189-.571-13.451-2.363-15.238a22.333,22.333,0,0,1-4.09-5.687c-.5-.962-.627-1.23-1.654-3.489-1.328-2.923-2.129-4.291-3.415-5.574-4-3.986-6.168-4.418-12.946-1.6-9.2,3.821-17.464,2.542-23.689-3.665C3.222,57.576-3.147,39.938,4.3,32.509c1.313-1.309,9.926-9.052,11.413-10.9a7.328,7.328,0,0,0,1.988-4.653c0-7.2,8.484-12.879,17.139-12.879a35.715,35.715,0,0,0,7.823-1.261c.49-.117.993-.239,1.654-.4C53.962.043,55.8-.223,57.988,1.955c.848.846,4,5.387,3.982,5.363,2.443,3.252,4.6,4.84,7.045,4.84a41.015,41.015,0,0,0,7.454-.671c1.164-.2,1.752-.294,2.34-.382a27.88,27.88,0,0,1,4.3-.352c2.074,0,2.492.071,12.629,1.972,1.117.209,2.063.383,2.967.544,2.529.45,4.625.779,6.483,1.006,3.959.481,7.162,2.615,8.445,6.115l10.6,28.928a2.779,2.779,0,0,0,2.79,1.822Zm-6.811,4.687a7.483,7.483,0,0,1-7.156-4.806L109.229,22c-.619-1.689-2.274-2.791-4.61-3.075-1.957-.239-4.132-.58-6.738-1.044-.919-.164-1.879-.34-3.009-.552-9.41-1.764-10.156-1.891-11.766-1.891a23.353,23.353,0,0,0-3.6.3c-.545.082-1.09.172-2.266.371a45.492,45.492,0,0,1-8.222.734c-4.3,0-7.55-2.395-10.793-6.713-.247-.329-3.048-4.364-3.544-4.859-.246-.245-2.948.145-9.235,1.694-.671.165-1.185.29-1.687.41a39.166,39.166,0,0,1-8.911,1.389c-6.37,0-12.451,4.074-12.451,8.192a11.83,11.83,0,0,1-3.027,7.6C17.6,26.745,8.69,34.755,7.614,35.828c-4.929,4.914.532,20.038,7.75,27.234,4.826,4.812,11.067,5.778,18.582,2.656C42.477,62.174,46.662,63.009,52,68.33c1.8,1.794,2.824,3.546,4.373,6.953.982,2.16,1.1,2.407,1.542,3.26a17.7,17.7,0,0,0,3.244,4.537c3.1,3.087,3.961,9.077,3.74,18.665-.045,1.982-.128,3.882-.281,6.774-.27,5.121-.3,5.9-.3,7.477,0,6.389,5.227,15.828,11.288,21.87,1.783,1.777,2.785,2.478,3.5,2.613a4.313,4.313,0,0,0,2.3-.524c.647-.267,4.38-2.006,5.7-2.579,3.313-1.436,6.146-5.063,11.906-14.365l.85-1.371c3.683-5.933,5.827-8.99,8.362-11.517a17.843,17.843,0,0,0,4.845-9.72,45.53,45.53,0,0,0,.509-10.287c-.045-1.7-.054-2.172-.054-2.917,0-3.843,3.2-8.59,9.2-15.041,1.184-1.273,2.471-2.6,3.911-4.047,1.829-1.835,7.6-7.449,8.366-8.209,1.522-1.518,1.934-2.43,1.844-2.779-.041-.159-.427-.481-1.2-.786a8.639,8.639,0,0,0-1.949-.51Z" transform="translate(1.714 3.912)" fill="#d3d2df"/>
          <path id="Path_4184" data-name="Path 4184" d="M37.553,28.959c-.327.452-.508.7-.669.919a16.24,16.24,0,0,1-1.607,1.929c-.6.595-1.094,1.952-1.683,4.557-.126.561-.126.561-.252,1.131-.763,3.428-1.241,4.854-2.468,6.078-.96.957-.678,2.151,2.113,4.933.147.146,1.271,1.284,1.565,1.572a11.791,11.791,0,0,0,1.193,1.052c1.253.924,2.283.642,5.557-2.623A6.637,6.637,0,0,0,43.326,44.7c.231-1.5.04-2.959-.613-5.662-1.037-4.289-1.192-5.539-.319-7.542,1.255-2.878.933-4.387-.421-5.014C40.342,25.725,39.557,26.207,37.553,28.959Zm6.389-6.733c4,1.851,4.921,6.161,2.749,11.141-.27.62-.158,1.521.579,4.568.79,3.268,1.041,5.192.689,7.475a11.307,11.307,0,0,1-3.347,6.415c-4.723,4.709-8.155,5.652-11.648,3.077a15.959,15.959,0,0,1-1.686-1.472c-.33-.322-1.479-1.484-1.6-1.6-4.394-4.381-5.336-8.36-2.113-11.572.307-.306.673-1.4,1.2-3.776.125-.564.125-.564.255-1.147.793-3.5,1.481-5.381,2.945-6.841A12.22,12.22,0,0,0,33.112,27.1c.148-.2.315-.431.651-.894C36.942,21.834,39.59,20.212,43.942,22.226Z" transform="translate(95.134 85.614)" fill="#d3d2df"/>
        </g>
      </g>
      <g id="Group_3988" data-name="Group 3988" transform="translate(-830.167 4025.029)">
        <g id="Group_3987-2" data-name="Group 3987" transform="translate(0 0)">
          <rect id="Rectangle_2586-2" data-name="Rectangle 2586" width="150.333" height="149.111" fill="none"/>
          <path id="Path_4183-2" data-name="Path 4183" d="M133.831,51.14l.249.014a12.889,12.889,0,0,1,3.294.827c2.019.8,3.506,2.041,4,3.973.59,2.288-.5,4.7-3.074,7.267-.793.79-6.56,6.4-8.355,8.2-1.4,1.409-2.654,2.7-3.8,3.931-5.127,5.512-7.941,9.691-7.941,11.848,0,.687.009,1.145.052,2.794a49.336,49.336,0,0,1-.587,11.274,22.454,22.454,0,0,1-6.143,12.175c-2.189,2.183-4.2,5.05-7.689,10.67L103,125.478c-6.378,10.3-9.427,14.2-14.027,16.2-1.227.532-5.014,2.3-5.782,2.613a8.341,8.341,0,0,1-4.953.8c-1.9-.359-3.539-1.5-5.942-3.9-6.858-6.838-12.666-17.325-12.666-25.19,0-1.7.035-2.477.311-7.723.15-2.849.231-4.711.275-6.635.188-8.189-.571-13.451-2.363-15.238a22.333,22.333,0,0,1-4.09-5.687c-.5-.962-.627-1.23-1.654-3.489-1.328-2.923-2.129-4.291-3.415-5.574-4-3.986-6.168-4.418-12.946-1.6-9.2,3.821-17.464,2.542-23.689-3.665C3.222,57.576-3.147,39.938,4.3,32.509c1.313-1.309,9.926-9.052,11.413-10.9a7.328,7.328,0,0,0,1.988-4.653c0-7.2,8.484-12.879,17.139-12.879a35.715,35.715,0,0,0,7.823-1.261c.49-.117.993-.239,1.654-.4C53.962.043,55.8-.223,57.988,1.955c.848.846,4,5.387,3.982,5.363,2.443,3.252,4.6,4.84,7.045,4.84a41.015,41.015,0,0,0,7.454-.671c1.164-.2,1.752-.294,2.34-.382a27.88,27.88,0,0,1,4.3-.352c2.074,0,2.492.071,12.629,1.972,1.117.209,2.063.383,2.967.544,2.529.45,4.625.779,6.483,1.006,3.959.481,7.162,2.615,8.445,6.115l10.6,28.928a2.779,2.779,0,0,0,2.79,1.822Zm-6.811,4.687a7.483,7.483,0,0,1-7.156-4.806L109.229,22c-.619-1.689-2.274-2.791-4.61-3.075-1.957-.239-4.132-.58-6.738-1.044-.919-.164-1.879-.34-3.009-.552-9.41-1.764-10.156-1.891-11.766-1.891a23.353,23.353,0,0,0-3.6.3c-.545.082-1.09.172-2.266.371a45.492,45.492,0,0,1-8.222.734c-4.3,0-7.55-2.395-10.793-6.713-.247-.329-3.048-4.364-3.544-4.859-.246-.245-2.948.145-9.235,1.694-.671.165-1.185.29-1.687.41a39.166,39.166,0,0,1-8.911,1.389c-6.37,0-12.451,4.074-12.451,8.192a11.83,11.83,0,0,1-3.027,7.6C17.6,26.745,8.69,34.755,7.614,35.828c-4.929,4.914.532,20.038,7.75,27.234,4.826,4.812,11.067,5.778,18.582,2.656C42.477,62.174,46.662,63.009,52,68.33c1.8,1.794,2.824,3.546,4.373,6.953.982,2.16,1.1,2.407,1.542,3.26a17.7,17.7,0,0,0,3.244,4.537c3.1,3.087,3.961,9.077,3.74,18.665-.045,1.982-.128,3.882-.281,6.774-.27,5.121-.3,5.9-.3,7.477,0,6.389,5.227,15.828,11.288,21.87,1.783,1.777,2.785,2.478,3.5,2.613a4.313,4.313,0,0,0,2.3-.524c.647-.267,4.38-2.006,5.7-2.579,3.313-1.436,6.146-5.063,11.906-14.365l.85-1.371c3.683-5.933,5.827-8.99,8.362-11.517a17.843,17.843,0,0,0,4.845-9.72,45.53,45.53,0,0,0,.509-10.287c-.045-1.7-.054-2.172-.054-2.917,0-3.843,3.2-8.59,9.2-15.041,1.184-1.273,2.471-2.6,3.911-4.047,1.829-1.835,7.6-7.449,8.366-8.209,1.522-1.518,1.934-2.43,1.844-2.779-.041-.159-.427-.481-1.2-.786a8.639,8.639,0,0,0-1.949-.51Z" transform="translate(4.595 1.941)" fill="#0d0a3a"/>
          <path id="Path_4184-2" data-name="Path 4184" d="M37.553,28.959c-.327.452-.508.7-.669.919a16.24,16.24,0,0,1-1.607,1.929c-.6.595-1.094,1.952-1.683,4.557-.126.561-.126.561-.252,1.131-.763,3.428-1.241,4.854-2.468,6.078-.96.957-.678,2.151,2.113,4.933.147.146,1.271,1.284,1.565,1.572a11.791,11.791,0,0,0,1.193,1.052c1.253.924,2.283.642,5.557-2.623A6.637,6.637,0,0,0,43.326,44.7c.231-1.5.04-2.959-.613-5.662-1.037-4.289-1.192-5.539-.319-7.542,1.255-2.878.933-4.387-.421-5.014C40.342,25.725,39.557,26.207,37.553,28.959Zm6.389-6.733c4,1.851,4.921,6.161,2.749,11.141-.27.62-.158,1.521.579,4.568.79,3.268,1.041,5.192.689,7.475a11.307,11.307,0,0,1-3.347,6.415c-4.723,4.709-8.155,5.652-11.648,3.077a15.959,15.959,0,0,1-1.686-1.472c-.33-.322-1.479-1.484-1.6-1.6-4.394-4.381-5.336-8.36-2.113-11.572.307-.306.673-1.4,1.2-3.776.125-.564.125-.564.255-1.147.793-3.5,1.481-5.381,2.945-6.841A12.22,12.22,0,0,0,33.112,27.1c.148-.2.315-.431.651-.894C36.942,21.834,39.59,20.212,43.942,22.226Z" transform="translate(98.015 87.559)" fill="#0d0a3a" stroke="#f6f6fd" stroke-width="2"/>
        </g>
      </g>
    </g>
  </g>
</svg>
