<svg xmlns="http://www.w3.org/2000/svg" viewBox="0 0 180.9 181.6"><defs><style>.cls-1,.cls-3,.cls-6{fill:#070707;}.cls-1{opacity:0.06;}.cls-2{fill:#efefef;}.cls-2,.cls-3,.cls-6{isolation:isolate;}.cls-3{opacity:0.23;}.cls-4{fill:#67e3c3;stroke-miterlimit:10;stroke-width:3px;}.cls-4,.cls-5{stroke:#fff;}.cls-5,.cls-7{fill:none;stroke-linecap:round;stroke-linejoin:round;}.cls-5{stroke-width:5px;}.cls-6{opacity:0.11;}.cls-7{stroke:#5f6060;stroke-width:0.5px;}</style></defs><g id="Layer_2" data-name="Layer 2"><g id="Layer_1-2" data-name="Layer 1"><ellipse class="cls-1" cx="78.51" cy="150.59" rx="78.51" ry="2.55"/><path class="cls-2" d="M159,24.91h0V117.1c0,1.86-2.26,3.35-5,3.35H7.08C4.28,120.45,2,119,2,117.1V24.92c0-1.86,2.28-3.37,5.08-3.37H154C156.74,21.55,159,23.06,159,24.91Z"/><path class="cls-3" d="M2,45c.25,0,.38-.07.38-.14H159V59.1H2Z"/><circle id="Ellipse_217" data-name="Ellipse 217" class="cls-4" cx="152.15" cy="28.76" r="27.26"/><polyline class="cls-5" points="138.65 29 148.06 38.41 167.32 19.15"/><rect class="cls-6" x="10.7" y="70.72" width="65.53" height="4.27" rx="1.53"/><rect class="cls-6" x="10.7" y="78.19" width="65.53" height="4.27" rx="1.53"/><rect class="cls-6" x="10.7" y="85.66" width="65.53" height="4.27" rx="1.53"/><rect class="cls-6" x="10.7" y="93.13" width="65.53" height="4.27" rx="1.53"/><rect class="cls-6" x="10.7" y="100.6" width="65.53" height="4.27" rx="1.53"/><path class="cls-7" d="M3.06,40.29V25.42a3.77,3.77,0,0,1,3.77-3.77h20"/><path class="cls-7" d="M159,101.31v14.87a3.77,3.77,0,0,1-3.77,3.77h-20"/><line class="cls-7" x1="2.04" y1="98.76" x2="2.04" y2="112.71"/><path d="M13.27,166.29h3.87c2.65,0,4,1.15,4,3.42s-1.41,3.51-4,3.51H15.37v4.92h-2.1Zm3.65,5c1.5,0,2.13-.46,2.13-1.53s-.62-1.5-2.13-1.5H15.37v3Z"/><path d="M29.26,172.85v5.29H27.39l-.17-1.09a2.94,2.94,0,0,1-2.55,1.26,2.78,2.78,0,0,1-3-2.74,2.17,2.17,0,0,1,1.26-2.11,5.42,5.42,0,0,1,2.22-.37h2.09v-.24a1.42,1.42,0,0,0-1.58-1.48,2.83,2.83,0,0,0-2.26,1.26l-1.48-1.24a4.69,4.69,0,0,1,3.78-1.8C27.89,169.59,29.26,170.83,29.26,172.85Zm-2,1.77H25.4a2.21,2.21,0,0,0-1.37.29.8.8,0,0,0-.34.69c0,.6.49,1,1.31,1A2.09,2.09,0,0,0,27.22,174.62Z"/><path d="M33.19,177.92l-3.28-8.16h2.24l2.13,5.81,2.14-5.81h2.24L33.9,181.6H31.69Z"/><path d="M52.06,172.8v5.34H50v-4.73c0-.66-.09-2-1.43-2-1.71,0-1.65,1.89-1.65,3.57v3.2h-2v-4.73c0-.66-.08-2-1.41-2-1.71,0-1.66,1.89-1.66,3.57v3.2h-2l0-8.38h2v1.05a2.65,2.65,0,0,1,4.69.43,2.81,2.81,0,0,1,2.71-1.65C51.16,169.59,52.06,171.12,52.06,172.8Z"/><path d="M61.33,174.62H55.58a1.86,1.86,0,0,0,2.09,1.83,2.5,2.5,0,0,0,2-.9l1.41,1.24a4.38,4.38,0,0,1-3.44,1.52c-2.89,0-4.11-2.08-4.11-4.32s1.19-4.4,4-4.4c2.6,0,3.86,1.92,3.86,4.25A7.11,7.11,0,0,1,61.33,174.62ZM59.42,173a1.76,1.76,0,0,0-1.92-1.71A1.88,1.88,0,0,0,55.56,173Z"/><path d="M70.59,172.73v5.41h-2v-4.9c0-.58,0-1.87-1.55-1.87-1.9,0-1.9,1.92-1.9,3.42v3.35h-2v-8.38h2v1a3,3,0,0,1,2.53-1.14C69.52,169.59,70.59,170.74,70.59,172.73Z"/><path d="M75.16,171.37v4.27c0,.66.41,1,1.07,1a3.47,3.47,0,0,0,1-.19v1.63a4.82,4.82,0,0,1-1.53.26,2.35,2.35,0,0,1-2.6-2.52v-4.42H71.76v-1.61h1.36v-1.62l2-1.51v3.13h2.09v1.61Z"/><path d="M82.29,174.79l2.1-.53a2.31,2.31,0,0,0,2.47,2.21c1.19,0,2-.59,2-1.6,0-.81-.61-1.32-2.36-2-2.48-1-3.37-1.87-3.37-3.59,0-1.92,1.48-3.23,3.69-3.23a3.86,3.86,0,0,1,3.61,2.16l-1.77,1.09a2.11,2.11,0,0,0-1.9-1.36,1.38,1.38,0,0,0-1.5,1.29c0,.78.58,1.23,2.36,1.92,2.54,1,3.37,1.87,3.37,3.56,0,2.21-1.68,3.67-4.12,3.67A4.31,4.31,0,0,1,82.29,174.79Z"/><path d="M99.71,169.76v8.38h-2v-1a3,3,0,0,1-2.5,1.14c-2.11,0-3-1.53-3-3.32v-5.23h2v4.72c0,.58,0,2,1.55,2,1.9,0,1.9-2.09,1.9-3.58v-3.18Z"/><path d="M101.33,174c0-2.21,1.31-4.38,4-4.38a3.64,3.64,0,0,1,3.62,2.46l-1.94.77a1.73,1.73,0,0,0-1.68-1.45c-1.41,0-2,1.28-2,2.6s.52,2.55,2,2.55a1.72,1.72,0,0,0,1.68-1.41l1.86.72a3.6,3.6,0,0,1-3.52,2.48C102.65,178.31,101.33,176.18,101.33,174Z"/><path d="M109.64,174c0-2.21,1.31-4.38,4-4.38a3.66,3.66,0,0,1,3.63,2.46l-1.94.77a1.73,1.73,0,0,0-1.69-1.45c-1.41,0-2,1.28-2,2.6s.53,2.55,2,2.55a1.73,1.73,0,0,0,1.69-1.41l1.85.72a3.59,3.59,0,0,1-3.52,2.48C111,178.31,109.64,176.18,109.64,174Z"/><path d="M125.77,174.62H120a1.86,1.86,0,0,0,2.09,1.83,2.49,2.49,0,0,0,2-.9l1.41,1.24a4.35,4.35,0,0,1-3.43,1.52c-2.89,0-4.11-2.08-4.11-4.32s1.19-4.4,4-4.4c2.6,0,3.86,1.92,3.86,4.25A5.27,5.27,0,0,1,125.77,174.62Zm-1.9-1.62a1.76,1.76,0,0,0-1.92-1.71A1.88,1.88,0,0,0,120,173Z"/><path d="M126.62,176l1.63-.73a1.83,1.83,0,0,0,1.79,1.38c1,0,1.36-.55,1.36-1,0-1.41-4.32-.47-4.32-3.59,0-1.61,1.46-2.44,3.08-2.44a3.47,3.47,0,0,1,3.18,1.82l-1.58.86a1.82,1.82,0,0,0-1.67-1.07c-.66,0-1.07.32-1.07.72,0,1.27,4.38.52,4.38,3.58,0,2-1.68,2.81-3.26,2.81A3.61,3.61,0,0,1,126.62,176Z"/><path d="M134.24,176l1.63-.73a1.81,1.81,0,0,0,1.78,1.38c1,0,1.36-.55,1.36-1,0-1.41-4.31-.47-4.31-3.59,0-1.61,1.46-2.44,3.07-2.44a3.46,3.46,0,0,1,3.18,1.82l-1.58.86a1.82,1.82,0,0,0-1.66-1.07c-.67,0-1.08.32-1.08.72,0,1.27,4.39.52,4.39,3.58,0,2-1.68,2.81-3.26,2.81A3.61,3.61,0,0,1,134.24,176Z"/></g></g></svg>