<svg xmlns="http://www.w3.org/2000/svg" xmlns:xlink="http://www.w3.org/1999/xlink" width="51.885" height="56" viewBox="0 0 51.885 56">
  <defs>
    <linearGradient id="linear-gradient" y1="0.501" x2="1" y2="0.501" gradientUnits="objectBoundingBox">
      <stop offset="0" stop-color="#34c699"/>
      <stop offset="0.65" stop-color="#13d29e"/>
      <stop offset="1" stop-color="#06d6a0"/>
    </linearGradient>
    <linearGradient id="linear-gradient-2" x1="-0.001" y1="0.499" x2="0.989" y2="0.499" xlink:href="#linear-gradient"/>
    <linearGradient id="linear-gradient-3" x1="0" y1="0.504" x2="1.001" y2="0.504" xlink:href="#linear-gradient"/>
    <linearGradient id="linear-gradient-4" x1="-0.007" y1="0.508" x2="1.004" y2="0.508" xlink:href="#linear-gradient"/>
    <linearGradient id="linear-gradient-5" x1="-0.001" y1="0.501" x2="1" y2="0.501" xlink:href="#linear-gradient"/>
  </defs>
  <g id="Group_3612" data-name="Group 3612" transform="translate(-753.115 -2589)">
    <circle id="Ellipse_149" data-name="Ellipse 149" cx="24" cy="24" r="24" transform="translate(757 2597)" fill="#06d6a0" opacity="0.14"/>
    <g id="Artboard_5" data-name="Artboard 5" transform="translate(743.551 2581.26)">
      <path id="Path_3302" data-name="Path 3302" d="M45.961,27.65a13.12,13.12,0,1,0-22.4,9.227,14.946,14.946,0,0,1,3.845,6.615l1.209,7.05h8.586l.859-6.832a14.958,14.958,0,0,1,3.978-6.735,13.072,13.072,0,0,0,3.918-9.323Z" transform="translate(2.125 1.409)" fill="#27244f"/>
      <path id="Path_3303" data-name="Path 3303" d="M31.807,9.264c0,.846-.447,3.882-1,3.882s-1-3.023-1-3.882.447-1.524,1-1.524S31.807,8.429,31.807,9.264Z" transform="translate(4.234)" fill="url(#linear-gradient)"/>
      <path id="Path_3304" data-name="Path 3304" d="M42.2,12.957c-.641.544-2.648,2.866-2.285,3.289s2.951-1.209,3.628-1.765.871-1.342.508-1.765S42.844,12.4,42.2,12.957Z" transform="translate(6.342 0.987)" fill="url(#linear-gradient-2)"/>
      <path id="Path_3305" data-name="Path 3305" d="M46.519,24.429c-.834.109-3.906,0-3.978-.508s2.89-1.379,3.724-1.487,1.572.254,1.645.81S47.353,24.332,46.519,24.429Z" transform="translate(6.9 3.07)" fill="url(#linear-gradient-3)"/>
      <path id="Path_3306" data-name="Path 3306" d="M20.746,12.073c.665.532,2.781,2.757,2.418,3.192s-3.011-1.088-3.628-1.608-.931-1.294-.593-1.729S20.081,11.59,20.746,12.073Z" transform="translate(1.934 0.818)" fill="url(#linear-gradient-4)"/>
      <path id="Path_3307" data-name="Path 3307" d="M15.4,22.626c.834.109,3.906,0,3.978-.508s-2.89-1.366-3.724-1.475-1.572.254-1.645.8S14.567,22.53,15.4,22.626Z" transform="translate(0.929 2.696)" fill="url(#linear-gradient-5)"/>
      <path id="Path_3308" data-name="Path 3308" d="M29.591,42.9,26.58,30.712s1.584,6.772,5.429,1.354-1.475-6.808-.859-2.612,4.208,6.288,4.837,3.906-1.8,9.432-1.8,9.432" transform="translate(3.561 4.03)" fill="none" stroke="#fff" stroke-linecap="round" stroke-linejoin="round" stroke-width="1"/>
      <path id="Path_3309" data-name="Path 3309" d="M37.817,59.984s.532-10.121,1.6-11.9,12.963-6.748,14.741-10.121,3.906-11.9,1.6-12.262-3.628,8.307-4.91,9.553c-2.612,2.588-16.446,0-18.066,5.03-.822,2.539-1.354,19.7-1.354,19.7" transform="translate(4.573 3.756)" fill="#06d6a0"/>
      <path id="Path_3310" data-name="Path 3310" d="M36.34,38.017S44.333,35.272,46.2,36.2,38.65,41.439,38.2,42.044" transform="translate(5.603 5.915)" fill="none" stroke="#fff" stroke-miterlimit="10" stroke-width="0.5"/>
      <path id="Path_3311" data-name="Path 3311" d="M28.52,59.984s-.532-10.121-1.608-11.9S13.949,41.337,12.171,37.964s-3.906-11.9-1.6-12.262,3.628,8.307,4.91,9.553c2.612,2.588,16.446,0,18.066,5.03.822,2.539,1.354,19.7,1.354,19.7" transform="translate(0 3.756)" fill="#06d6a0"/>
      <path id="Path_3312" data-name="Path 3312" d="M27.348,38.017s-7.981-2.745-9.855-1.814,7.546,5.236,7.993,5.841" transform="translate(1.608 5.915)" fill="none" stroke="#fff" stroke-miterlimit="10" stroke-width="0.5"/>
    </g>
  </g>
</svg>
