<svg xmlns="http://www.w3.org/2000/svg" viewBox="0 0 21.17 21.59"><defs><style>.cls-1,.cls-3{fill:#fff;}.cls-1{stroke:#27244f;stroke-miterlimit:10;stroke-width:0.25px;}.cls-2{fill:#06d6a0;}</style></defs><g id="Layer_2" data-name="Layer 2"><g id="Layer_1-2" data-name="Layer 1"><path class="cls-1" d="M.6,7.42H15.38a.49.49,0,0,1,.48.48v9.66a.49.49,0,0,1-.48.48H7.94a.48.48,0,0,0-.34.14l-3.11,3.1V18.52A.47.47,0,0,0,4,18H.6a.48.48,0,0,1-.47-.48V7.9A.48.48,0,0,1,.6,7.42Z"/><circle class="cls-2" cx="4.33" cy="12.69" r="1.13"/><circle class="cls-2" cx="8.41" cy="12.69" r="1.13"/><circle class="cls-2" cx="12.49" cy="12.69" r="1.13"/><path class="cls-1" d="M20.57.13H5.79A.48.48,0,0,0,5.31.6v9.66a.49.49,0,0,0,.48.48h7.44a.48.48,0,0,1,.34.14L16.68,14V11.22a.47.47,0,0,1,.48-.48h3.41a.49.49,0,0,0,.48-.48V.6A.48.48,0,0,0,20.57.13Z"/><path class="cls-2" d="M15.68,7.47a.5.5,0,0,1-.16,1,.51.51,0,0,1-.17,0,6.24,6.24,0,0,1-1.83-1,6.43,6.43,0,0,1-1.84,1,.51.51,0,0,1-.17,0A.5.5,0,0,1,11,8.1a.5.5,0,0,1,.31-.63,5.72,5.72,0,0,0,1.44-.74,4.25,4.25,0,0,1-1-2.29h-.31a.51.51,0,0,1,0-1H13v-.5a.5.5,0,0,1,.5-.5.51.51,0,0,1,.5.5v.5h1.5a.51.51,0,0,1,0,1h-.31a4.27,4.27,0,0,1-1,2.29,5.48,5.48,0,0,0,1.43.74Z"/><path class="cls-3" d="M12.52,4.32h2s-.44,2-1,2.06C13.52,6.38,12.71,6.25,12.52,4.32Z"/></g></g></svg>