<svg xmlns="http://www.w3.org/2000/svg" viewBox="0 0 84.25 72.61"><defs><style>.cls-1{fill:#fff;}.cls-2{fill:#27244f;}.cls-3{fill:#1bd9a8;}.cls-4,.cls-5{fill:none;}.cls-4{stroke:#fff;stroke-linecap:round;stroke-linejoin:round;}.cls-5{stroke:#1bd9a8;stroke-miterlimit:10;}</style></defs><g id="Layer_2" data-name="Layer 2"><g id="Layer_1-2" data-name="Layer 1"><path class="cls-1" d="M84.25,8.52V69.11a3.53,3.53,0,0,1-3.52,3.5H3.5A3.51,3.51,0,0,1,0,69.11V8.52A3.51,3.51,0,0,1,3.5,5H80.73A3.52,3.52,0,0,1,84.25,8.52Z"/><rect class="cls-2" x="57.31" width="7.97" height="11.02" rx="0.92"/><rect class="cls-2" x="20.39" width="7.97" height="11.02" rx="1.09"/><circle class="cls-3" cx="25.65" cy="41.87" r="10.9"/><polyline class="cls-4" points="19.38 41.73 23.23 45.59 30.67 38.15"/><path class="cls-2" d="M84.25,8v9.49H0V8A3.51,3.51,0,0,1,3.5,4.52H80.73A3.52,3.52,0,0,1,84.25,8Z"/><line class="cls-5" x1="45.61" y1="32.03" x2="73.24" y2="32.03"/><line class="cls-5" x1="45.61" y1="41.87" x2="73.24" y2="41.87"/><line class="cls-5" x1="45.61" y1="51.72" x2="73.24" y2="51.72"/></g></g></svg>