<svg xmlns="http://www.w3.org/2000/svg" width="250" height="250" viewBox="0 0 250 250">
  <g id="Group_4214" data-name="Group 4214" transform="translate(-9963.7 149.3)">
    <rect id="Rectangle_2762" data-name="Rectangle 2762" width="250" height="250" transform="translate(9963.7 -149.3)" fill="#0d0a3a"/>
    <g id="Group_4213" data-name="Group 4213" transform="translate(9981.293 -134.532)">
      <g id="Group_2963" data-name="Group 2963" transform="translate(18.319)">
        <path id="Path_2908" data-name="Path 2908" d="M697.352,787.652a146.388,146.388,0,0,1,33.569-32.281q29.488-20.576,62.72-20.576,23.985,0,33.45,13.2,4.84,6.825,4.842,13.314a30.394,30.394,0,0,1-2.2,11.775q-9.245-16.943-32.351-22.447a94.71,94.71,0,0,0-21.457-2.862,62.706,62.706,0,0,0-19.477,3.3,1.259,1.259,0,0,0-.44.879q0,.443,12.875.88t19.035,1.98a59.748,59.748,0,0,1,21.9,11.995,31.5,31.5,0,0,1,11.114,20.576c-.069.084-.154.177-.224.261h13.423a42.608,42.608,0,0,0-1.535-7.964q6.159-11.662,6.161-19.587,0-12.761-11.443-21.346t-33.45-8.583q-40.933,0-79.226,27.289-20.56,14.843-32.755,30.19Z" transform="translate(-661.029 -692.98)" fill="#06d6a0"/>
        <path id="Path_2909" data-name="Path 2909" d="M1236.694,563.713q1.979,1.435,13.643,8.472t12.985,7.044q1.321,0,1.321-.992a2,2,0,0,0-.881-1.65q-24.211-19.8-26.848-19.807-2.2,0-2.2,2.751A4.827,4.827,0,0,0,1236.694,563.713Z" transform="translate(-1095.277 -556.78)" fill="#06d6a0"/>
        <path id="Path_2910" data-name="Path 2910" d="M711.834,1269.983q-38.019,32.725-79.937,32.758-3.086,0-6.163-.22-29.271-1.543-29.269-30.59c0-.639.058-1.3.08-1.948H584.671c.447,10.273,3.945,18.75,10.582,25.385q10.674,10.671,28.28,11.554,3.3.217,9.242.22,52.569,0,95.222-37.159Z" transform="translate(-584.671 -1117)" fill="#06d6a0"/>
      </g>
      <g id="Group_2965" data-name="Group 2965" transform="translate(0 99.282)">
        <g id="Group_2964" data-name="Group 2964" transform="translate(0 0)">
          <path id="Path_2911" data-name="Path 2911" d="M499.27,1046.353a15.518,15.518,0,1,1,15.518,15.427A15.226,15.226,0,0,1,499.27,1046.353Zm3.4,0a12.12,12.12,0,1,0,12.118-12.3A12.168,12.168,0,0,0,502.669,1046.353Zm5.9-24.714,3.131-2.012,5.635,5.813-1.923,1.43Z" transform="translate(-499.27 -1019.627)" fill="#fff"/>
          <path id="Path_2912" data-name="Path 2912" d="M748.54,1074.586c1.654,0,4.65.134,6.841,1.879a7.409,7.409,0,0,1,2.684,6.171,6.73,6.73,0,0,1-2.951,5.857,7.478,7.478,0,0,1,5.679,7.513,8.245,8.245,0,0,1-3.042,6.44c-2.37,1.879-5.1,1.968-7.154,1.968h-7.424v-29.827Zm-2.058,13.1h2.505c1.744,0,5.858-.358,5.858-4.964,0-4.919-4.83-5.008-5.769-5.008h-2.594Zm0,13.594h3.8c1.922,0,3.8-.133,5.232-1.251a5.027,5.027,0,0,0,1.967-4.114,4.83,4.83,0,0,0-2.549-4.382,10.384,10.384,0,0,0-5.053-.9h-3.4Z" transform="translate(-690.855 -1062.798)" fill="#fff"/>
          <path id="Path_2913" data-name="Path 2913" d="M917.031,1046.353a15.518,15.518,0,1,1,15.518,15.427A15.227,15.227,0,0,1,917.031,1046.353Zm3.4,0a12.12,12.12,0,1,0,12.118-12.3A12.168,12.168,0,0,0,920.43,1046.353Zm5.9-24.714,3.13-2.012,5.635,5.813-1.923,1.43Z" transform="translate(-827.421 -1019.627)" fill="#fff"/>
          <path id="Path_2914" data-name="Path 2914" d="M1160.929,1074.586h6.082c3,0,7.245.313,11,3.488a14.539,14.539,0,0,1,5.1,11.448,14.2,14.2,0,0,1-5.233,11.448c-2.728,2.325-5.59,3.443-10.911,3.443h-6.038Zm3.311,26.7h2.907a12.741,12.741,0,0,0,8.541-2.682,11.417,11.417,0,0,0,4.023-9.078c0-7.156-5.008-11.806-12.564-11.806h-2.907Z" transform="translate(-1019.002 -1062.798)" fill="#fff"/>
          <path id="Path_2915" data-name="Path 2915" d="M1356.047,1046.353a15.517,15.517,0,1,1,15.517,15.427A15.226,15.226,0,0,1,1356.047,1046.353Zm3.4,0a12.12,12.12,0,1,0,12.119-12.3A12.168,12.168,0,0,0,1359.446,1046.353Zm5.9-24.714,3.131-2.012,5.635,5.813-1.923,1.43Z" transform="translate(-1172.268 -1019.627)" fill="#fff"/>
        </g>
      </g>
    </g>
  </g>
</svg>
